<?xml version="1.0" encoding="UTF-8"?>
<svg id="Ebene_1" data-name="Ebene 1" xmlns="http://www.w3.org/2000/svg" width="120" height="80" viewBox="0 0 120 80">
  <rect y="0" width="120" height="80" rx="4" ry="4" style="fill: #fff;"/>
  <g id="Website">
    <g id="Artboard">
      <path id="centi_logo" data-name="centi logo" d="m22.92,52.79h0c-7.39,0-12.92-5.49-12.92-12.77s5.52-12.81,12.92-12.81c6.37,0,11.3,4.21,12.28,10.39h-6.78c-.83-2.5-2.93-4.12-5.49-4.12-3.44,0-5.96,2.77-5.96,6.54s2.52,6.49,5.96,6.49c2.7,0,4.81-1.76,5.49-4.47h6.84c-.92,6.4-5.88,10.75-12.35,10.75Zm14.93-24.95h15.53v5.71h-15.53v-5.71Zm0,9.42h15.53v5.71h-15.53v-5.71Zm0,9.26h15.53v5.71h-15.53v-5.71Zm34.23-18.7h6.49v24.35h-5.53l-9.65-13.21v13.21h-6.49v-24.35h5.86l9.33,12.78v-12.78Zm28.78,0v6.04h-6.6v18.31h-6.72v-18.31h-6.6v-6.04h19.92Zm2.36,24.35v-24.35h6.78v24.35h-6.78Z" style="fill-rule: evenodd;"/>
    </g>
  </g>
</svg>