<?xml version="1.0" encoding="UTF-8"?>
<svg id="Ebene_1" data-name="Ebene 1" xmlns="http://www.w3.org/2000/svg" width="120" height="80" viewBox="0 0 120 80">
  <rect width="120" height="80" rx="4" ry="4" style="fill: #fff;"/>
  <g>
    <path d="M9.69,52.97v-18.18h.69v8.48h.05c1.18-2.33,3.34-3.64,6.04-3.64,4,0,6.85,3.05,6.85,6.83s-2.92,6.83-6.85,6.83c-2.78,0-4.89-1.33-6.04-3.56h-.05v3.24h-.69Zm6.75-12.7c-3.39,0-6.14,2.6-6.14,6.19s2.6,6.19,6.09,6.19c3.78,0,6.24-2.8,6.24-6.19,0-3.64-2.78-6.19-6.19-6.19Z"/>
    <path d="M32.31,53.29c-3.91,0-6.85-2.95-6.85-6.83s3-6.83,6.85-6.83,6.85,3,6.85,6.83-2.95,6.83-6.85,6.83Zm6.17-6.83c0-3.51-2.63-6.19-6.19-6.19s-6.14,2.68-6.14,6.19,2.63,6.19,6.17,6.19,6.17-2.68,6.17-6.19Z"/>
    <path d="M53.48,52.97v-7c0-3.71-1.87-5.7-5.28-5.7s-5.28,2.01-5.28,5.16v7.54h-.69v-13.02h.69v2.51h.05c.86-1.87,3.02-2.82,5.16-2.82,4,0,6.04,2.36,6.04,6.24v7.1h-.69Z"/>
    <path d="M70.5,48.87c-.98,2.82-3.51,4.42-6.46,4.42-3.88,0-6.85-2.87-6.85-6.8s2.92-6.85,6.85-6.85c2.8,0,5.55,1.67,6.48,4.54h-.76c-.93-2.53-3.17-3.91-5.75-3.91-3.44,0-6.14,2.6-6.14,6.19s2.75,6.19,6.17,6.19c2.6,0,4.91-1.52,5.7-3.78h.76Z"/>
    <path d="M85.46,52.97v-3.24h-.05c-1.18,2.26-3.27,3.56-6.04,3.56-4,0-6.85-3.05-6.85-6.83s2.87-6.83,6.85-6.83c2.58,0,5.16,1.45,6.04,3.64h.05v-3.32h.69v13.02h-.69Zm.07-6.51c0-3.49-2.63-6.19-6.19-6.19s-6.14,2.58-6.14,6.19c0,3.37,2.43,6.19,6.24,6.19,3.49,0,6.09-2.75,6.09-6.19Z"/>
    <path d="M90.1,52.97v-13.02h.69v2.36h.05c.76-1.6,2.16-2.58,4.54-2.68v.66c-3.17,.05-4.59,2.36-4.59,5.23v7.44h-.69Z"/>
    <path d="M109.31,52.97v-3.24h-.05c-1.15,2.24-3.27,3.56-6.04,3.56-4,0-6.85-3.02-6.85-6.83s2.85-6.83,6.85-6.83c2.63,0,5.16,1.47,6.04,3.64h.05v-8.47h.69v18.18h-.69Zm.07-6.51c0-3.49-2.63-6.19-6.19-6.19-3.34,0-6.14,2.53-6.14,6.19,0,3.39,2.46,6.19,6.24,6.19,3.49,0,6.09-2.75,6.09-6.19h0Z"/>
    <path d="M44.35,22.74c-1.06,.16-2.44,.44-3.75,.9-.57,.2-1.54,.6-2.51,.99s-1.94,.76-2.53,.91-1.28,.17-1.99,.26-1.43,.26-2.04,.71c-.61,.44-.87,1.08-.94,1.63s.05,1.02,.18,1.13c-.1-1.18,.55-2.03,1.32-2.46s1.64-.44,1.97,.06c.21,.31,.14,.67-.05,.98s-.51,.57-.79,.67-.85,.35-1.31,.78-.81,1.06-.68,1.93c.32-.55,.66-.84,.93-1s.46-.16,.46-.16c-.17,.29-.32,.59-.44,.9-.2,.53-.38,1.24-.26,1.91s.26,1.26,.24,1.87c-.02,.61-.19,1.25-.69,2.02-.3,.46-.97,.94-1.57,1.3s-1.12,.6-1.12,.6c1.31-.31,2.54-1.1,3.55-2.12s1.79-2.25,2.19-3.43,.35-2.47,.34-3.61,0-2.15,.54-2.78,1.42-1.19,2.41-1.7,2.09-.95,3.09-1.33,2.31-.68,3.37-.88,1.89-.3,1.89-.3c0,0-.73,.05-1.78,.21Z"/>
    <path d="M28.41,36.49s.34-.29,.65-.86,.56-1.41,.38-2.52c-.26-1.61-1.33-2.75-2.21-3.52s-1.55-1.17-1-1.31c.69-.17,1.57,.58,2.33,1.24s1.38,1.2,1.54,.64c.33-1.13-.64-2.42-1.96-3.56s-3-2.12-4.08-2.63c-1.56-.74-4.53-1.92-7.1-2.88s-4.75-1.71-4.71-1.58c.26,.85,1.06,1.33,2.39,1.8s3.16,.93,5.5,1.74c.69,.24,1.83,.68,2.81,1.07s1.81,.75,1.87,.82-.64-.2-1.6-.58-2.17-.85-3.12-1.18c-1.31-.45-2.6-.88-3.56-1.16s-1.58-.41-1.53-.28c.23,.67,.96,1.13,2.05,1.55,1.09,.42,2.56,.78,4.27,1.25,.53,.14,1.35,.36,2.06,.56s1.3,.38,1.35,.44-.55-.09-1.28-.3-1.61-.46-2.12-.59c-1.37-.37-2.47-.68-3.21-.84s-1.12-.17-1.03,.05c.26,.7,.93,1.09,1.89,1.38s2.21,.47,3.62,.77c.33,.07,.82,.17,1.24,.26s.77,.19,.81,.25-.28,0-.71-.09-.98-.22-1.38-.3c-.69-.14-1.37-.26-1.82-.26s-.65,.11-.4,.44c.4,.52,.71,.85,1.08,1.11s.81,.45,1.48,.7c2.75,1.01,4.28,2,5.15,2.88s1.09,1.66,1.21,2.26c.19,.94-.02,1.75-.29,2.32s-.57,.91-.57,.91Z"/>
    <path d="M33.33,27.14c-.22-.22-.57-.22-.78,0-.22,.22-.22,.57,0,.78,.22,.22,.57,.22,.78,0,.1-.1,.16-.24,.16-.39,0-.15-.06-.29-.16-.39Zm-.38,.25c0,.13-.1,.23-.23,.23s-.23-.1-.23-.23c0-.01,0-.03,0-.04,0,0,0-.02,0-.03,0-.05,.03-.09,.07-.11,.04-.03,.09-.04,.13-.05,.02,0,.04,0,.06,0,.05,0,.09,.02,.13,.05,.04,.02,.07,.07,.07,.11,0,0,0,.02,0,.03,0,.01,0,.03,0,.04h0Z"/>
    <path d="M32.68,27.16s-.09,.02-.13,.05c-.04,.03-.07,.07-.07,.11,0,0,0,.02,0,.03,.02-.1,.1-.18,.2-.19h0Z"/>
    <path d="M32.88,27.2s-.09-.04-.13-.05c.05,0,.1,.03,.13,.07,.03,.03,.06,.08,.06,.12,0,0,0-.02,0-.03,0-.05-.03-.09-.07-.12Z"/>
    <path d="M29.55,35.59s-.03,.43-.22,1.07-.52,1.46-1.14,2.25c-.46,.59-.9,.9-1.35,1.2s-.92,.62-1.42,1.21c-.42,.49-.74,1.06-.96,1.67-.16,.46-.2,.77-.2,.77-.03-.46,.07-1.08,.27-1.75,.22-.72,.54-1.41,.95-2.05,.35-.55,.72-.91,1-1.15s.47-.32,.47-.32c-.32-.07-.65,.02-.91,.12-.15,.06-.3,.14-.44,.23,0,0,.02-.17,.19-.41s.47-.54,1.05-.8c.62-.29,1.09-.38,1.51-.61s.79-.6,1.21-1.42Z"/>
  </g>
</svg>