<?xml version="1.0" encoding="UTF-8"?>
<svg id="uuid-f609cf60-a4ce-49de-b45d-c1ac03654eb3" data-name="Ebene 1" xmlns="http://www.w3.org/2000/svg" width="120" height="80" viewBox="0 0 120 80">
  <rect y="0" width="120" height="80" rx="4" ry="4" style="fill: #fff;"/>
  <path d="m84.62,40.87c0,13.6-11.02,24.62-24.62,24.62s-24.62-11.02-24.62-24.62,11.02-24.62,24.62-24.62,24.62,11.03,24.62,24.62Zm-4.76,0c0-10.97-8.88-19.85-19.85-19.85s-19.85,8.88-19.85,19.85,8.88,19.85,19.85,19.85,19.85-8.88,19.85-19.85Zm-16.4,3.74v.63c0,.66-.53,1.19-1.19,1.19h-4.53c-.66,0-1.19-.53-1.19-1.19v-.86c0-3.55,2.69-4.97,4.72-6.11,1.74-.98,2.81-1.64,2.81-2.94,0-1.71-2.18-2.85-3.95-2.85-2.3,0-3.36,1.09-4.86,2.98-.4.51-1.14.6-1.65.21l-2.76-2.09c-.51-.38-.62-1.1-.26-1.62,2.35-3.44,5.33-5.38,9.98-5.38s10.07,3.8,10.07,8.81c0,6.66-7.19,6.76-7.19,9.22Zm-3.46,11.55c-2.3,0-4.17-1.87-4.17-4.17s1.87-4.17,4.17-4.17,4.17,1.87,4.17,4.17-1.87,4.17-4.17,4.17Z"/>
</svg>