<?xml version="1.0" encoding="UTF-8"?>
<svg id="Ebene_3" data-name="Ebene 3" xmlns="http://www.w3.org/2000/svg" width="300" height="130" xmlns:xlink="http://www.w3.org/1999/xlink" viewBox="0 0 300 130">
  <defs>
    <clipPath id="clippath">
      <rect x="28.16" y="42.3" width="244.2" height="53.42" style="fill: none; stroke-width: 0px;"/>
    </clipPath>
  </defs>
  <g style="clip-path: url(#clippath);">
    <g>
      <path d="M251.09,95.72h-6.31l5.9-13.04-15.18-32.61h6.98l11.45,25.39,11.45-25.39h6.37l-20.68,45.65h0Z" style="fill: #000; stroke-width: 0px;"/>
      <path d="M47.12,54.84l14.78-7.81-2.49-4.73-13.54,5.42c-.35.14-.73.14-1.08,0l-13.54-5.42-2.49,4.73,14.78,7.81-14.78,7.81,2.49,4.73,13.54-5.42c.35-.14.73-.14,1.08,0l13.54,5.42,2.49-4.73-14.78-7.81h0Z" style="fill: #6932d4; stroke-width: 0px;"/>
      <path d="M93.49,74.58l12.27-29.1h9.15v37.95h-6.03v-32.14l-13.56,32.34h-4.34l-13.42-32.14v31.94h-5.83v-37.95h9.55l12.2,29.1Z" style="fill: #000; stroke-width: 0px;"/>
      <path d="M156.46,66.75c0,9.93-7.66,17.49-17.62,17.49s-17.62-7.56-17.62-17.49,7.59-17.49,17.62-17.49,17.62,7.56,17.62,17.49ZM150.09,66.75c0-6.68-4.54-11.81-11.25-11.81s-11.25,5.27-11.25,11.81,4.54,11.81,11.25,11.81,11.25-5.13,11.25-11.81Z" style="fill: #000; stroke-width: 0px;"/>
      <path d="M169.08,83.13h-6.17v-33.35h6.17v6.15c1.29-2.7,5.15-6.89,11.38-6.89,8.47,0,14.3,6.28,14.3,14.92v19.18h-6.24v-18.03c0-6.28-3.8-10.4-9.55-10.4s-9.9,4.32-9.9,10.4v18.03h0Z" style="fill: #000; stroke-width: 0px;"/>
      <path d="M234.54,67.49h-27.85c.34,6.21,4.81,11.07,11.38,11.07s9.42-3.58,9.96-4.66h6.1c-.54,2.9-4.81,10.33-16.06,10.33-10.37,0-17.62-7.7-17.62-17.49s7.25-17.49,17.01-17.49,17.08,7.29,17.08,18.23h0ZM207.09,62.36h20.6c-1.55-5.07-5.15-7.83-10.23-7.83-5.42,0-9.08,2.97-10.37,7.83Z" style="fill: #000; stroke-width: 0px;"/>
    </g>
  </g>
</svg>
