<?xml version="1.0" encoding="UTF-8"?>
<svg id="Ebene_1" data-name="Ebene 1" xmlns="http://www.w3.org/2000/svg" width="120" height="80" viewBox="0 0 120 80">
  <rect width="120" height="80" rx="4" ry="4" style="fill: #fff;"/>
  <g>
    <path d="m27.57,28.77s-.07-.07-.09-.11c-.46-.5-.95-.95-1.5-1.37-.07-.07-.15-.11-.22-.15-.04-.04-.09-.07-.15-.11-.02-.02-.04-.02-.07-.04-.22-.15-.46-.3-.7-.44-.02,0-.02-.02-.04-.02-.07-.02-.11-.07-.15-.09-1.56-.84-3.38-1.3-5.29-1.21-5.28.24-9.59,4.64-9.73,9.93-.02.65.02,1.28.13,1.89,0,.04.33,2.82,2.1,3.01.59.07,1.13-.17,1.45-.59.24-.24.41-.71.54-1.32.13-.59.2-1.17.22-1.78.04-1.52.17-2.64.39-3.51.07-.26.11-.5.17-.7.07-.22.17-.44.28-.63.61-1.23,1.32-1.34,1.54-1.34.57-.13,1.06.24,1.23.59.5.97-.09,2.19.39,3.19.24.5.86.61,1.58.52,1.08-.17,1.5-.86,1.67-1.37.04-.13.09-.26.09-.33l.3-1.15c.11-.3.22-.59.28-.78.09-.22.13-.35.13-.35.09-.17.17-.33.26-.48.46-.82,1.19-1.45,2.1-1.74.09-.02.37-.09.61-.09.57,0,1.58.17,2.21.48.07.04.11.07.17.11h.02l.02-.02s0-.02,0-.02Z"/>
    <path d="m12.16,42.18s.07.07.09.11c.46.5.95.95,1.47,1.37.07.07.15.11.22.15.04.04.09.07.15.11.02.02.04.02.07.04.22.15.46.3.7.44.02,0,.02.02.04.02.07.02.11.07.15.09,1.56.84,3.38,1.3,5.29,1.21,5.29-.24,9.58-4.64,9.73-9.93.02-.65-.02-1.28-.13-1.89,0-.04-.33-2.82-2.1-3.01-.59-.07-1.1.17-1.45.59-.24.24-.41.72-.54,1.32-.13.59-.2,1.17-.22,1.78-.04,1.52-.2,2.64-.39,3.51-.07.26-.11.5-.17.7-.07.22-.17.44-.28.63-.6,1.23-1.32,1.34-1.53,1.34-.57.13-1.06-.24-1.23-.59-.5-.97.09-2.19-.39-3.19-.24-.5-.86-.61-1.58-.52-1.08.17-1.5.86-1.67,1.37-.04.13-.09.26-.09.33l-.3,1.15c-.11.3-.22.59-.28.78-.09.22-.13.35-.15.35-.09.17-.17.33-.26.48-.46.82-1.19,1.45-2.1,1.74-.09.02-.37.09-.61.09-.57,0-1.58-.17-2.21-.48-.07-.04-.13-.07-.17-.11h-.02s-.02.02-.02.02c0,0,.01.03.03.03Z"/>
    <g>
      <path d="m39.12,31.4c-1.14,0-2.09.42-2.78,1.14v-4.53h-2.49v13.3h2.49v-5.23c0-1.45.72-2.28,1.95-2.28s1.87.59,1.87,2.28v5.23h2.49v-5.23c0-3.77-1.68-4.68-3.53-4.68Z"/>
      <path d="m53.76,36.1c0-2.36-1.69-4.78-4.59-4.78-2.75,0-4.96,2.17-4.96,5.16s2.18,5.16,4.97,5.16c1.14,0,2.69-.37,3.89-1.67l-1.67-1.66c-.85.76-1.64.91-2.17.91-1.15,0-2.08-.71-2.45-1.76h6.74c.15-.39.24-.85.24-1.38Zm-4.6-2.36c1.15,0,1.88.73,2.14,1.79h-4.56c.34-1.09,1.28-1.79,2.42-1.79Z"/>
      <path d="m56.74,30.47c.77,0,1.4-.63,1.4-1.4s-.63-1.4-1.4-1.4-1.4.63-1.4,1.4.63,1.4,1.4,1.4Zm-1.24,10.85h2.49v-9.68h-2.49v9.68Z"/>
      <path d="m67.45,28.02v4.62c-.75-.86-1.8-1.31-3.01-1.31-2.73,0-4.73,2.33-4.73,5.17,0,2.53,1.72,5.15,4.71,5.15,1.28,0,2.34-.49,3.09-1.39l.1,1.06h2.26v-13.3h-2.42Zm-2.6,11.15c-1.62,0-2.65-1.35-2.65-2.7,0-1.43,1.15-2.65,2.65-2.65,1.36,0,2.61,1.01,2.61,2.66,0,1.59-1.13,2.7-2.61,2.7Z"/>
      <path d="m73.37,30.47c.77,0,1.4-.63,1.4-1.4s-.63-1.4-1.4-1.4-1.4.63-1.4,1.4.63,1.4,1.4,1.4Zm-1.24,10.85h2.49v-9.68h-2.49v9.68Z"/>
      <path d="m82.3,31.33c-1.24,0-2.31.47-3.06,1.37l-.1-1.06h-2.26v13.3h2.42v-4.62c.74.85,1.78,1.32,3.03,1.32,2.98,0,4.71-2.62,4.71-5.15,0-2.84-2.01-5.17-4.74-5.17Zm-.4,7.84c-1.47,0-2.61-1.12-2.61-2.69s1.24-2.66,2.61-2.66c1.5,0,2.65,1.22,2.65,2.65,0,1.35-1.03,2.7-2.65,2.7Z"/>
      <path d="m95.98,31.64l-.1,1.05c-.75-.9-1.82-1.37-3.06-1.37-2.73,0-4.73,2.33-4.73,5.17,0,2.53,1.72,5.15,4.71,5.15,1.28,0,2.34-.49,3.09-1.39l.1,1.07h2.32v-9.68s-2.33,0-2.33,0Zm-2.77,7.52c-1.62,0-2.65-1.35-2.65-2.7,0-1.43,1.15-2.65,2.65-2.65,1.36,0,2.61,1.01,2.61,2.66s-1.13,2.7-2.61,2.7Z"/>
      <path d="m107.23,31.64l-2.65,6.1-2.24-6.1h-2.69l3.75,8.85-1.93,4.45h2.61l5.75-13.3h-2.61Z"/>
    </g>
    <g>
      <path d="m51.29,52.17l-1.45-2.51h-.79v2.51h-1.03v-6.29h2.17c.48,0,.89.08,1.23.25.33.17.58.4.75.68.17.28.25.6.25.95,0,.41-.12.78-.36,1.12-.24.33-.6.56-1.1.68l1.56,2.6h-1.23Zm-2.23-3.34h1.14c.39,0,.68-.1.87-.29.2-.19.29-.45.29-.78s-.1-.58-.29-.76c-.19-.18-.49-.28-.88-.28h-1.14v2.11Z"/>
      <path d="m53.71,48.32c.21-.39.49-.69.85-.9.36-.21.76-.32,1.19-.32.39,0,.73.08,1.03.23.29.15.53.35.7.57v-.72h1.04v4.98h-1.04v-.74c-.17.24-.41.43-.71.59-.3.16-.65.24-1.03.24-.43,0-.82-.11-1.18-.33-.36-.22-.64-.53-.85-.92-.21-.39-.31-.84-.31-1.34s.1-.94.31-1.33Zm3.55.45c-.14-.25-.33-.45-.56-.58-.23-.13-.48-.2-.74-.2s-.51.06-.74.19c-.23.13-.41.32-.56.57-.14.25-.21.55-.21.89s.07.65.21.9c.14.26.33.46.56.59.23.14.48.2.74.2s.51-.07.74-.2c.23-.13.41-.33.56-.58.14-.26.21-.56.21-.9s-.07-.64-.21-.9Z"/>
      <path d="m61.07,48.03v2.76c0,.19.04.32.13.4.09.08.24.12.45.12h.63v.86h-.81c-.46,0-.82-.11-1.07-.33-.25-.22-.37-.57-.37-1.06v-2.76h-.59v-.84h.59v-1.24h1.04v1.24h1.21v.84h-1.21Z"/>
      <path d="m67.77,50.06h-3.81c.03.4.18.72.44.96.27.24.59.36.98.36.55,0,.95-.23,1.18-.7h1.11c-.15.46-.42.83-.82,1.13-.4.29-.88.44-1.47.44-.48,0-.9-.11-1.28-.32-.38-.21-.67-.52-.89-.9-.21-.39-.32-.84-.32-1.35s.1-.96.31-1.35c.21-.39.5-.69.88-.9.38-.21.81-.32,1.3-.32s.89.1,1.26.31c.37.21.65.49.86.86.2.37.31.8.31,1.28,0,.19-.01.36-.04.51Zm-1.04-.83c0-.38-.14-.68-.41-.91-.27-.23-.59-.34-.99-.34-.36,0-.66.11-.91.34-.25.23-.4.53-.45.92h2.76Z"/>
      <path d="m72.39,47.35c.31.16.55.4.73.72.17.32.26.71.26,1.16v2.94h-1.02v-2.79c0-.45-.11-.79-.33-1.03-.22-.24-.53-.36-.91-.36s-.69.12-.92.36c-.23.24-.34.58-.34,1.03v2.79h-1.03v-4.98h1.03v.57c.17-.2.38-.36.65-.48.26-.11.54-.17.84-.17.39,0,.74.08,1.05.24Z"/>
      <path d="m75.6,51.33h2.26v.84h-3.46v-.84l2.27-3.3h-2.27v-.84h3.46v.84l-2.26,3.3Z"/>
      <path d="m78.92,48.32c.21-.39.49-.69.85-.9.36-.21.76-.32,1.19-.32.39,0,.73.08,1.03.23.29.15.53.35.7.57v-.72h1.04v4.98h-1.04v-.74c-.17.24-.41.43-.71.59-.3.16-.65.24-1.03.24-.43,0-.82-.11-1.18-.33-.36-.22-.64-.53-.85-.92-.21-.39-.31-.84-.31-1.34s.1-.94.31-1.33Zm3.55.45c-.14-.25-.33-.45-.56-.58-.23-.13-.48-.2-.74-.2s-.51.06-.74.19c-.23.13-.41.32-.56.57-.14.25-.21.55-.21.89s.07.65.21.9c.14.26.33.46.56.59.23.14.48.2.74.2s.51-.07.74-.2c.23-.13.41-.33.56-.58.14-.26.21-.56.21-.9s-.07-.64-.21-.9Z"/>
      <path d="m88.67,47.35c.3.16.53.4.71.72.17.32.26.71.26,1.16v2.94h-1.02v-2.79c0-.45-.11-.79-.33-1.03-.22-.24-.53-.36-.91-.36s-.69.12-.92.36c-.23.24-.34.58-.34,1.03v2.79h-1.03v-6.69h1.03v2.29c.17-.21.4-.37.66-.49.27-.11.56-.17.88-.17.38,0,.72.08,1.02.24Z"/>
      <path d="m91.98,45.47v6.69h-1.03v-6.69h1.03Z"/>
      <path d="m97.85,47.18v4.98h-1.03v-.59c-.16.21-.38.37-.64.48-.26.12-.54.18-.84.18-.39,0-.74-.08-1.05-.24-.31-.16-.55-.4-.73-.72-.18-.32-.27-.71-.27-1.16v-2.93h1.02v2.78c0,.45.11.79.33,1.03.22.24.53.36.91.36s.69-.12.92-.36c.23-.24.34-.58.34-1.03v-2.78h1.03Z"/>
      <path d="m102.78,47.35c.31.16.55.4.73.72.17.32.26.71.26,1.16v2.94h-1.02v-2.79c0-.45-.11-.79-.33-1.03-.22-.24-.53-.36-.91-.36s-.69.12-.92.36c-.23.24-.34.58-.34,1.03v2.79h-1.03v-4.98h1.03v.57c.17-.2.38-.36.65-.48.26-.11.54-.17.84-.17.39,0,.74.08,1.05.24Z"/>
      <path d="m108.11,47.33c.3.15.53.35.7.57v-.72h1.04v5.07c0,.46-.1.87-.29,1.23-.19.36-.47.64-.84.85-.36.2-.8.31-1.31.31-.68,0-1.24-.16-1.68-.47-.45-.32-.7-.75-.76-1.29h1.02c.08.26.25.47.5.63.26.16.56.24.92.24.42,0,.75-.13,1.01-.38.26-.25.38-.62.38-1.1v-.83c-.17.24-.41.43-.71.59-.3.16-.64.24-1.02.24-.43,0-.83-.11-1.19-.33-.36-.22-.64-.53-.85-.92-.21-.39-.31-.84-.31-1.34s.1-.94.31-1.33c.21-.39.49-.69.85-.9.36-.21.76-.32,1.19-.32.39,0,.73.08,1.03.23Zm.49,1.44c-.14-.25-.33-.45-.56-.58-.23-.13-.48-.2-.74-.2s-.51.06-.74.19c-.23.13-.41.32-.56.57-.14.25-.21.55-.21.89s.07.65.21.9c.14.26.33.46.56.59.23.14.48.2.74.2s.51-.07.74-.2c.23-.13.41-.33.56-.58.14-.26.21-.56.21-.9s-.07-.64-.21-.9Z"/>
    </g>
  </g>
</svg>