<?xml version="1.0" encoding="UTF-8"?>
<svg id="uuid-132267cd-c2d0-499d-87d9-93cd93ac9141" data-name="Ebene 1" xmlns="http://www.w3.org/2000/svg" width="120" height="80" viewBox="0 0 120 80">
  <rect y="0" width="120" height="80" rx="4" ry="4" style="fill: #fff;"/>
  <g>
    <path d="M21.1,31.32c-1.2,.58-2.75,.86-3.91,.86-2.64,0-3.31-1.05-3.35-2.4h8.84c.17-.74,.31-1.84,.31-2.35,0-3.79-2.47-5.44-5.75-5.44-5.56,0-7.48,4.46-7.48,7.35,0,3.14,2.25,5.7,6.42,5.7,1.25,0,2.85-.24,4.36-.69l.55-3.04h0Zm-6.99-3.98c.31-1.2,1.32-2.47,3.19-2.47,1.58,0,2.11,1.13,2.11,2.47h-5.29Z" style="fill: #0064ad;"/>
    <path d="M47.57,31.46c1.1,.48,2.3,.72,3.5,.72,.69,0,2.42-.07,2.42-1.1,0-1.77-5.15-.86-5.15-4.98,0-2.92,3.4-4.1,6.3-4.1,1.08,0,2.59,.24,4.14,.74l-.91,2.83c-1.1-.45-2.16-.69-3.45-.69-.96,0-2.01,.22-2.01,1.08,0,1.39,5.39,1.29,5.39,4.43s-2.61,4.62-5.85,4.67c-1.89,.02-3.91-.26-5.25-.65l.86-2.95h0Z" style="fill: #0064ad;"/>
    <path d="M60.66,42.23l-.48,2.56h.05c.69-1.46,2.08-2.85,3.86-2.85,.58,0,1.25,.07,1.82,.31l-.98,3.81c-.55-.43-1.17-.53-1.99-.53-1.82,0-2.9,1.58-3.21,3.43l-1.22,5.75h-4.31l2.63-12.48h3.84Z" style="fill: #0064ad;"/>
    <path d="M76.68,51.26c-1.2,.58-2.75,.86-3.91,.86-2.64,0-3.31-1.05-3.35-2.39h8.84c.17-.74,.31-1.84,.31-2.35,0-3.78-2.47-5.44-5.75-5.44-5.56,0-7.47,4.46-7.47,7.35,0,3.14,2.25,5.7,6.42,5.7,1.25,0,2.85-.24,4.36-.69l.55-3.04h0Zm-6.99-3.98c.31-1.2,1.32-2.47,3.19-2.47,1.58,0,2.11,1.13,2.11,2.47h-5.29Z" style="fill: #0064ad;"/>
    <path d="M88.41,54.71h3.95c.05-.5,.12-1.13,.26-1.87l3.35-16.1h-4.24l-1.51,7.5h-.05c-.65-1.34-2.16-2.3-4.34-2.3-4.27,0-6.32,3.81-6.32,7.91,0,2.8,1.97,5.15,4.65,5.15,2.4,0,3.43-.89,4.53-2.28h.05l-.34,1.99h0Zm-2.37-3.02c-1.36,0-2.06-1.03-2.06-2.56,0-1.94,1.22-3.88,3.26-3.88,1.44,0,2.06,1.29,2.06,2.54,0,1.65-1.22,3.91-3.26,3.91h0Z" style="fill: #0064ad;"/>
    <path d="M97.86,37.03h4.36l-.67,3.16h-4.36l.67-3.16h0Zm-1.1,5.2h4.36l-2.59,12.48h-4.36l2.59-12.48h0Z" style="fill: #0064ad;"/>
    <path d="M102.27,42.23h2.47l.6-2.68,4.55-1.22-.86,3.91h2.97l-.53,3.02h-3.14l-.74,3.47c-.19,.93-.36,1.56-.36,2.16,0,.84,.55,1.39,1.41,1.39,.46,0,.94-.19,1.39-.36l-.48,2.85c-.91,.14-1.82,.24-2.68,.24-2.2,0-3.95-1.08-3.95-3.69,0-.62,.1-1.25,.38-2.56l.74-3.5h-2.3l.53-3.02h0Z" style="fill: #0064ad;"/>
    <path d="M69.28,22.29l-4.24,7.88h-.05l-1.13-7.88h-4.38l2.75,12.43-.46,.76c-.64,1.18-1.29,2.06-2.52,2.06-.55,0-1.01-.09-1.41-.2l-.67,3.2c.68,.17,1.51,.3,2.59,.3,2.75,0,4.17-1.46,5.44-3.66l.46-.76,8.19-14.14h-4.57Z" style="fill: #0064ad;"/>
    <path d="M53.58,50.88c-1.13,.52-2.49,.82-3.99,.82-2.68,0-4.58-1.39-4.58-4.36,0-3.16,2.16-7.62,6.65-7.62,1.38,0,2.79,.12,4.13,.57l.68-3.21c-1-.33-2.72-.66-5.5-.66-6.28,0-10.55,5.25-10.55,10.81,0,4.6,3.09,7.79,8.48,7.79,1.28,0,2.82-.21,3.92-.49l.76-3.63h0Z" style="fill: #0064ad;"/>
    <path d="M37.97,27.7c0-1.51-.93-2.57-2.38-2.57-2.12,0-3.6,2.19-3.6,4.12,0,1.51,.9,2.64,2.41,2.64,2.06,0,3.57-2.15,3.57-4.18h0Z" style="fill: #0064ad;"/>
    <path d="M46.28,31.23c-1.18,4.97-5.64,8.66-10.97,8.66-6.23,0-11.27-5.05-11.27-11.27s5.05-11.27,11.27-11.27c4.37,0,8.16,2.49,10.03,6.13,.35,.76,.59,1.64,.59,2.72,0,3.99-3.75,5.69-5.36,5.69-.35,0-.48-.19-.48-.48s.13-.74,.22-1.09l1.77-7.81h-2.7l-.39,1.54c-.9-1.35-2.19-2.06-3.73-2.06-3.66,0-6.62,3.5-6.62,7.75,0,3.12,2.31,5.31,4.98,5.31,1.32,0,2.44-.77,3.25-1.67h.06c.03,1.12,.84,1.67,1.74,1.67,1.43,0,5.27-1.07,7.61-3.8h0Z" style="fill: #0064ad;"/>
    <path d="M56.89,60.97c-.14,.23-.34,.4-.6,.52-.26,.12-.57,.18-.92,.18h-.84l.51-2.62h.65c.46,0,.81,.1,1.05,.29,.24,.19,.36,.47,.36,.84,0,.3-.07,.57-.2,.79h0Zm1.68,.41c.21-.36,.31-.79,.31-1.28s-.12-.94-.35-1.29c-.23-.35-.58-.62-1.03-.81s-1.01-.28-1.65-.28h-2.29l-1.59,8.17h1.75l.56-2.88h1.05c.06,0,.12,0,.17,0l1.17,2.89h1.95l-1.54-3.24c.23-.1,.45-.22,.65-.36,.34-.24,.61-.54,.82-.9h0Z" style="fill: #0064ad;"/>
    <path d="M63.48,63.74c-.13,.25-.3,.46-.53,.61s-.47,.23-.74,.23c-.22,0-.42-.05-.59-.15-.17-.1-.3-.24-.39-.42-.09-.18-.13-.39-.13-.64,0-.31,.06-.59,.19-.84,.13-.25,.31-.46,.53-.61s.47-.23,.74-.23c.23,0,.43,.05,.59,.15,.16,.1,.29,.24,.39,.42s.14,.4,.14,.64c0,.31-.06,.59-.19,.84h0Zm.52-2.46c-.06-.16-.14-.31-.24-.44-.16-.21-.37-.37-.61-.47s-.52-.16-.84-.16c-.39,0-.76,.09-1.11,.26-.35,.17-.66,.42-.92,.73-.27,.31-.47,.67-.62,1.07-.15,.4-.23,.84-.23,1.29,0,.49,.09,.93,.26,1.31s.42,.67,.74,.88,.69,.31,1.11,.31c.27,0,.53-.05,.77-.15s.46-.23,.66-.41c.12-.11,.21-.23,.29-.37l-.1,.75h1.54l1.08-5.5h-1.57l-.21,.9h0Z" style="fill: #0064ad;"/>
    <path d="M69.79,58.83l-1.78,.47-.2,1.08h-1.04l-.28,1.38h1.05l-.38,1.93c-.03,.15-.05,.28-.08,.38-.02,.1-.04,.19-.05,.26-.01,.07-.02,.13-.02,.18,0,.05,0,.1,0,.15,0,.44,.14,.79,.43,1.03,.29,.24,.69,.36,1.2,.36,.3,0,.64-.04,1.02-.12l.22-1.27c-.18,.06-.35,.1-.52,.1-.19,0-.33-.05-.43-.16s-.15-.25-.15-.45c0-.1,.01-.22,.04-.35,.03-.13,.06-.3,.1-.49l.3-1.57h1.2l.27-1.38h-1.2l.3-1.55h0Z" style="fill: #0064ad;"/>
    <path d="M74.87,62.45s0,.08-.02,.12h-2.29c.1-.34,.27-.62,.5-.84,.23-.22,.52-.33,.88-.33,.29,0,.52,.08,.69,.24,.16,.16,.25,.39,.25,.69,0,.04,0,.08,0,.12h0Zm-.86-2.24c-.45,0-.87,.08-1.25,.25-.38,.16-.72,.39-.99,.69s-.5,.64-.66,1.04-.24,.84-.24,1.31c0,.39,.07,.75,.2,1.07,.14,.32,.33,.59,.58,.81s.56,.39,.92,.51c.36,.12,.77,.18,1.23,.18,.12,0,.26,0,.4-.03s.3-.04,.46-.06c.16-.02,.32-.06,.48-.1,.16-.04,.3-.08,.43-.12l.23-1.36c-.25,.13-.52,.23-.82,.29s-.57,.1-.81,.1c-.59,0-1.02-.09-1.28-.28-.26-.19-.4-.5-.43-.94h3.79c.05-.17,.09-.36,.11-.55s.04-.38,.04-.55c0-.69-.21-1.24-.63-1.64-.42-.4-1.01-.6-1.76-.6h0Z" style="fill: #0064ad;"/>
    <path d="M81.33,60.21c-.27,0-.53,.05-.77,.16-.24,.1-.45,.25-.63,.43-.11,.11-.2,.23-.28,.37l.12-.78h-1.6l-1.06,5.5h1.66l.57-2.93c.05-.27,.13-.49,.24-.68,.11-.19,.24-.33,.4-.43,.16-.1,.33-.15,.53-.15,.25,0,.44,.06,.56,.19,.12,.13,.18,.32,.18,.58,0,.06,0,.12,0,.18,0,.06-.01,.13-.03,.21l-.59,3.04h1.66l.62-3.21c.02-.12,.04-.24,.05-.37,.01-.12,.02-.24,.02-.34,0-.54-.15-.97-.44-1.28s-.69-.47-1.2-.47h0Z" style="fill: #0064ad;"/>
    <polygon points="90.28 60.38 88.23 60.38 86.05 62.44 87.07 57.18 85.4 57.18 83.72 65.88 85.38 65.88 85.86 63.39 87.56 65.88 89.55 65.88 87.42 62.97 90.28 60.38 90.28 60.38" style="fill: #0064ad;"/>
    <path d="M94.24,63.74c-.13,.25-.3,.46-.53,.61-.22,.15-.47,.23-.74,.23-.22,0-.42-.05-.59-.15-.17-.1-.3-.24-.39-.42s-.13-.39-.13-.64c0-.31,.06-.59,.19-.84,.13-.25,.31-.46,.53-.61s.47-.23,.74-.23c.23,0,.43,.05,.59,.15,.16,.1,.29,.24,.39,.42,.09,.18,.14,.4,.14,.64,0,.31-.06,.59-.19,.84h0Zm.52-2.46c-.06-.16-.14-.31-.24-.44-.16-.21-.37-.37-.61-.47-.24-.11-.52-.16-.84-.16-.39,0-.76,.09-1.11,.26-.35,.17-.66,.42-.92,.73-.27,.31-.47,.67-.62,1.07-.15,.4-.23,.84-.23,1.29,0,.49,.09,.93,.26,1.31s.42,.67,.74,.88,.69,.31,1.11,.31c.27,0,.53-.05,.77-.15,.24-.1,.46-.23,.66-.41,.12-.11,.21-.23,.29-.37l-.1,.75h1.54l1.08-5.5h-1.57l-.21,.9h0Z" style="fill: #0064ad;"/>
    <path d="M100.87,63.3c-.08,.4-.22,.71-.41,.92-.2,.22-.44,.32-.72,.32-.49,0-.73-.25-.73-.76,0-.12,.01-.24,.04-.39l.59-3.02h-1.7l-.62,3.19c-.05,.24-.07,.48-.07,.72,0,.55,.15,.98,.44,1.29,.29,.31,.69,.46,1.21,.46,.41,0,.77-.11,1.1-.33,.28-.19,.5-.45,.66-.77l-.14,.92h1.57l1.06-5.49h-1.7l-.57,2.92h0Z" style="fill: #0064ad;"/>
    <path d="M107.24,58.91c.2-.21,.47-.31,.81-.31,.29,0,.55,.07,.81,.2l.24-1.4c-.14-.09-.31-.15-.54-.2s-.46-.08-.72-.08c-1.45,0-2.34,.85-2.67,2.56l-.13,.7h-.92l-.26,1.38h.91l-.79,4.13h1.7l.79-4.13h1.38l.26-1.38h-1.37l.09-.48c.09-.45,.23-.78,.43-.99h0Z" style="fill: #0064ad;"/>
  </g>
</svg>