<?xml version="1.0" encoding="UTF-8"?>
<svg id="Ebene_1" data-name="Ebene 1" xmlns="http://www.w3.org/2000/svg" width="120" height="80" viewBox="0 0 120 80">
  <path d="M77.31,29.97v27.59c0,3.51-2.85,6.36-6.36,6.36h-25.45c-3.51,0-6.36-2.85-6.36-6.36V19.38c0-3.51,2.85-6.36,6.36-6.36h14.86c1.69,0,3.3,.67,4.5,1.87l10.59,10.59c1.19,1.19,1.86,2.8,1.86,4.49Zm-3.18,2.14h-11.13c-2.63,0-4.77-2.14-4.77-4.77v-11.13h-12.72c-1.75,0-3.18,1.43-3.18,3.18V57.56c0,1.75,1.43,3.18,3.18,3.18h25.45c1.75,0,3.18-1.43,3.18-3.18v-25.45Zm-28.63-11.13c0-.88,.71-1.59,1.59-1.59h6.36c.87,0,1.59,.71,1.59,1.59s-.72,1.59-1.59,1.59h-6.36c-.88,0-1.59-.71-1.59-1.59Zm0,6.36c0-.88,.71-1.59,1.59-1.59h6.36c.87,0,1.59,.72,1.59,1.59s-.72,1.59-1.59,1.59h-6.36c-.88,0-1.59-.71-1.59-1.59Zm3.18,9.54h19.09c1.75,0,3.18,1.43,3.18,3.18v6.36c0,1.75-1.43,3.18-3.18,3.18h-19.09c-1.75,0-3.18-1.43-3.18-3.18v-6.36c0-1.75,1.43-3.18,3.18-3.18Zm19.09,3.18h-19.09v6.36h19.09v-6.36Zm-6.36-12.72c0,.88,.72,1.59,1.59,1.59h10.92c-.15-.45-.38-.86-.72-1.2l-10.59-10.59c-.34-.34-.76-.57-1.21-.73v10.93Zm9.54,28.63c0,.88-.71,1.59-1.59,1.59h-6.36c-.88,0-1.59-.71-1.59-1.59s.71-1.59,1.59-1.59h6.36c.88,0,1.59,.71,1.59,1.59Z"/>
  <g>
    <circle cx="58.31" cy="63.23" r="6.22"/>
    <path d="M57.98,73.28c-5.39,0-9.77-4.37-9.77-9.77s4.37-9.77,9.77-9.77,9.77,4.37,9.77,9.77-4.37,9.77-9.77,9.77Zm1.04-5.06l4.27-4.27c.24-.24,.24-.62,0-.86l-4.27-4.27c-.17-.17-.44-.23-.67-.13-.23,.09-.38,.32-.38,.56v2.44h-3.66c-.67,0-1.22,.55-1.22,1.22v1.22c0,.67,.55,1.22,1.22,1.22h3.66v2.44c0,.25,.15,.47,.38,.56,.23,.1,.49,.04,.67-.13Z" style="fill: #8dc63f;"/>
  </g>
</svg>