<?xml version="1.0" encoding="UTF-8"?>
<svg xmlns="http://www.w3.org/2000/svg" width="120px" height="80px"
     viewBox="0 0 120 80" version="1.1">
    <rect rx="4" ry="4" width="120" height="80"
          style="fill:rgb(97.647059%,89.019608%,9.803922%);fill-opacity:1;stroke:none;"/>
    <path style=" stroke:none;fill-rule:nonzero;fill:rgb(0%,0%,0%);fill-opacity:1;"
          d="M 55.820312 38.507812 C 52.015625 38.507812 48.917969 41.605469 48.917969 45.410156 C 48.917969 45.78125 48.949219 46.148438 49.007812 46.507812 L 52.796875 46.507812 C 52.671875 46.164062 52.601562 45.796875 52.601562 45.410156 C 52.601562 43.632812 54.046875 42.1875 55.820312 42.1875 C 57.597656 42.1875 59.042969 43.632812 59.042969 45.410156 C 59.042969 45.796875 58.96875 46.164062 58.84375 46.507812 L 62.632812 46.507812 C 62.691406 46.148438 62.722656 45.78125 62.722656 45.410156 C 62.722656 41.605469 59.625 38.507812 55.820312 38.507812 Z M 55.820312 38.507812 "/>
    <path style=" stroke:none;fill-rule:nonzero;fill:rgb(0%,0%,0%);fill-opacity:1;"
          d="M 83.660156 40.917969 C 82.246094 40.6875 80.898438 41.347656 80.175781 42.484375 C 80.03125 43.363281 79.839844 44.230469 79.59375 45.082031 C 79.3125 46.0625 79.878906 47.082031 80.855469 47.363281 C 81.027344 47.414062 81.199219 47.4375 81.367188 47.4375 C 82.167969 47.4375 82.902344 46.910156 83.136719 46.105469 C 83.613281 44.449219 83.921875 42.742188 84.066406 41.015625 C 83.933594 40.976562 83.796875 40.941406 83.660156 40.917969 Z M 83.660156 40.917969 "/>
    <path style=" stroke:none;fill-rule:nonzero;fill:rgb(0%,0%,0%);fill-opacity:1;"
          d="M 71.28125 30.238281 C 72.296875 30.238281 73.121094 29.417969 73.121094 28.398438 C 73.121094 27.382812 72.296875 26.558594 71.28125 26.558594 C 70.265625 26.558594 69.441406 27.382812 69.441406 28.398438 C 69.441406 29.417969 70.265625 30.238281 71.28125 30.238281 Z M 71.28125 30.238281 "/>
    <path style=" stroke:none;fill-rule:nonzero;fill:rgb(0%,0%,0%);fill-opacity:1;"
          d="M 90.589844 36.097656 C 90.378906 35.527344 89.746094 35.230469 89.171875 35.4375 L 89.167969 35.441406 C 87.519531 36.039062 85.800781 36.417969 84.066406 36.574219 C 83.476562 29.578125 80.128906 22.75 75.039062 18.351562 C 70.765625 14.660156 65.640625 13.035156 60.613281 13.773438 C 54.867188 14.621094 50.851562 18.8125 50.851562 23.96875 C 50.851562 27.980469 53.21875 31.449219 56.628906 33.054688 L 59.457031 30.152344 C 56.640625 29.503906 54.535156 26.980469 54.535156 23.96875 C 54.535156 21.285156 56.605469 18.089844 61.148438 17.417969 C 66.214844 16.675781 70.1875 19.03125 72.632812 21.140625 C 76.9375 24.859375 79.789062 30.617188 80.367188 36.5625 C 77.597656 36.296875 74.910156 35.457031 72.535156 34.113281 C 72.175781 33.910156 71.742188 33.828125 71.300781 33.914062 C 70.324219 34.105469 69.691406 35.054688 69.882812 36.03125 L 69.90625 36.148438 C 70.53125 38.996094 70.5 41.996094 69.835938 44.832031 C 69.703125 45.398438 69.546875 45.957031 69.363281 46.507812 L 73.207031 46.507812 C 73.28125 46.230469 73.355469 45.949219 73.421875 45.671875 C 73.960938 43.347656 74.148438 40.941406 73.96875 38.566406 C 76.101562 39.199219 78.3125 39.523438 80.511719 39.527344 C 83.800781 39.539062 87.066406 38.828125 90.011719 37.480469 C 90.527344 37.242188 90.789062 36.644531 90.589844 36.097656 Z M 90.589844 36.097656 "/>
    <path style=" stroke:none;fill-rule:nonzero;fill:rgb(0%,0%,0%);fill-opacity:1;"
          d="M 48.851562 24.878906 C 49.097656 24.382812 49.238281 23.847656 49.238281 23.285156 C 49.238281 22.34375 48.902344 21.472656 48.335938 20.742188 C 41.761719 24.957031 37.601562 32.3125 37.601562 40.347656 C 37.601562 42.449219 37.886719 44.519531 38.433594 46.507812 L 42.277344 46.507812 C 41.628906 44.539062 41.285156 42.460938 41.285156 40.347656 C 41.285156 34.203125 44.171875 28.527344 48.851562 24.878906 Z M 48.851562 24.878906 "/>
    <path style=" stroke:none;fill-rule:nonzero;fill:rgb(0%,0%,0%);fill-opacity:1;"
          d="M 34.023438 58.753906 L 34.023438 60.292969 L 36.3125 60.292969 L 36.3125 61.765625 C 35.6875 62.3125 34.933594 62.589844 34.046875 62.589844 C 33.03125 62.589844 32.191406 62.25 31.535156 61.566406 C 30.867188 60.894531 30.542969 60.039062 30.542969 59.007812 C 30.542969 57.96875 30.867188 57.097656 31.519531 56.414062 C 32.167969 55.734375 32.992188 55.394531 33.976562 55.394531 C 35.140625 55.394531 36.058594 55.875 36.742188 56.859375 L 37.859375 55.71875 C 36.914062 54.464844 35.617188 53.832031 33.953125 53.832031 C 32.46875 53.832031 31.242188 54.316406 30.265625 55.273438 C 29.292969 56.234375 28.800781 57.476562 28.800781 59.007812 C 28.800781 60.503906 29.292969 61.734375 30.273438 62.699219 C 31.25 63.660156 32.445312 64.144531 33.847656 64.144531 C 34.695312 64.144531 35.480469 63.976562 36.210938 63.628906 C 36.9375 63.285156 37.535156 62.835938 38 62.265625 L 38 58.753906 Z M 34.023438 58.753906 "/>
    <path style=" stroke:none;fill-rule:nonzero;fill:rgb(0%,0%,0%);fill-opacity:1;"
          d="M 45.625 57.875 C 44.921875 57.175781 44.070312 56.828125 43.066406 56.828125 C 42.042969 56.828125 41.1875 57.175781 40.496094 57.875 C 39.800781 58.578125 39.460938 59.449219 39.460938 60.496094 C 39.460938 61.542969 39.800781 62.40625 40.496094 63.105469 C 41.1875 63.792969 42.042969 64.144531 43.066406 64.144531 C 44.070312 64.144531 44.921875 63.792969 45.625 63.097656 C 46.324219 62.398438 46.671875 61.527344 46.671875 60.496094 C 46.671875 59.449219 46.324219 58.578125 45.625 57.875 Z M 44.453125 62.066406 C 44.089844 62.46875 43.621094 62.675781 43.066406 62.675781 C 42.496094 62.675781 42.027344 62.46875 41.65625 62.066406 C 41.289062 61.652344 41.109375 61.132812 41.109375 60.496094 C 41.109375 59.855469 41.289062 59.332031 41.65625 58.929688 C 42.027344 58.515625 42.496094 58.308594 43.066406 58.308594 C 43.621094 58.308594 44.089844 58.515625 44.453125 58.929688 C 44.816406 59.332031 45 59.855469 45 60.496094 C 45 61.132812 44.816406 61.652344 44.453125 62.066406 Z M 44.453125 62.066406 "/>
    <path style=" stroke:none;fill-rule:nonzero;fill:rgb(0%,0%,0%);fill-opacity:1;"
          d="M 55.808594 61.089844 C 55.054688 62.089844 54.097656 62.589844 52.933594 62.589844 C 51.925781 62.589844 51.085938 62.25 50.421875 61.566406 C 49.753906 60.894531 49.421875 60.039062 49.421875 59.007812 C 49.421875 57.96875 49.753906 57.097656 50.40625 56.414062 C 51.0625 55.734375 51.886719 55.394531 52.878906 55.394531 C 54.035156 55.394531 54.953125 55.875 55.644531 56.859375 L 56.738281 55.71875 C 55.816406 54.464844 54.519531 53.832031 52.84375 53.832031 C 51.355469 53.832031 50.117188 54.316406 49.144531 55.265625 C 48.167969 56.226562 47.6875 57.46875 47.6875 59.007812 C 47.6875 60.519531 48.175781 61.757812 49.160156 62.707031 C 50.144531 63.667969 51.386719 64.144531 52.902344 64.144531 C 54.558594 64.144531 55.878906 63.515625 56.878906 62.265625 Z M 55.808594 61.089844 "/>
    <path style=" stroke:none;fill-rule:nonzero;fill:rgb(0%,0%,0%);fill-opacity:1;"
          d="M 61.9375 56.898438 C 60.992188 56.898438 60.289062 57.183594 59.8125 57.753906 L 59.8125 57.003906 L 58.210938 57.003906 L 58.210938 63.984375 L 59.835938 63.984375 L 59.835938 61.25 C 59.835938 60.265625 60 59.554688 60.320312 59.109375 C 60.636719 58.667969 61.191406 58.445312 61.992188 58.445312 C 62.085938 58.445312 62.171875 58.445312 62.253906 58.453125 L 62.253906 56.914062 C 62.132812 56.90625 62.03125 56.898438 61.9375 56.898438 Z M 61.9375 56.898438 "/>
    <path style=" stroke:none;fill-rule:nonzero;fill:rgb(0%,0%,0%);fill-opacity:1;"
          d="M 65.050781 65.933594 L 66.757812 65.933594 L 70.339844 57 L 68.570312 57 L 66.714844 62.046875 L 64.890625 57 L 63.039062 57 L 65.804688 64.074219 Z M 65.050781 65.933594 "/>
    <path style=" stroke:none;fill-rule:nonzero;fill:rgb(0%,0%,0%);fill-opacity:1;"
          d="M 83.347656 58.453125 L 83.347656 57.003906 L 81.675781 57.003906 L 81.675781 55.042969 L 80.070312 55.042969 L 80.070312 57.003906 L 79.046875 57.003906 L 79.046875 58.453125 L 80.070312 58.453125 L 80.070312 61.519531 C 80.070312 62.421875 80.242188 63.066406 80.601562 63.4375 C 80.949219 63.816406 81.574219 64 82.476562 64 C 82.851562 64 83.144531 63.992188 83.347656 63.976562 L 83.347656 62.519531 L 82.820312 62.550781 C 82.367188 62.550781 82.058594 62.460938 81.90625 62.289062 C 81.757812 62.121094 81.675781 61.78125 81.675781 61.28125 L 81.675781 58.453125 Z M 83.347656 58.453125 "/>
    <path style=" stroke:none;fill-rule:nonzero;fill:rgb(0%,0%,0%);fill-opacity:1;"
          d="M 90.570312 57.875 C 89.871094 57.175781 89.015625 56.828125 88.011719 56.828125 C 86.996094 56.828125 86.140625 57.175781 85.441406 57.875 C 84.753906 58.578125 84.402344 59.449219 84.402344 60.496094 C 84.402344 61.542969 84.753906 62.40625 85.441406 63.105469 C 86.140625 63.792969 86.996094 64.144531 88.011719 64.144531 C 89.015625 64.144531 89.871094 63.792969 90.570312 63.097656 C 91.265625 62.398438 91.617188 61.527344 91.617188 60.496094 C 91.617188 59.449219 91.265625 58.578125 90.570312 57.875 Z M 89.40625 62.066406 C 89.03125 62.46875 88.574219 62.675781 88.011719 62.675781 C 87.4375 62.675781 86.972656 62.46875 86.605469 62.066406 C 86.242188 61.652344 86.058594 61.132812 86.058594 60.496094 C 86.058594 59.855469 86.242188 59.332031 86.605469 58.929688 C 86.972656 58.515625 87.4375 58.308594 88.011719 58.308594 C 88.574219 58.308594 89.03125 58.515625 89.40625 58.929688 C 89.769531 59.332031 89.953125 59.855469 89.953125 60.496094 C 89.953125 61.132812 89.769531 61.652344 89.40625 62.066406 Z M 89.40625 62.066406 "/>
    <path style=" stroke:none;fill-rule:nonzero;fill:rgb(0%,0%,0%);fill-opacity:1;"
          d="M 77.375 57.875 C 76.742188 57.175781 75.925781 56.828125 74.925781 56.828125 C 74.101562 56.828125 73.441406 57.097656 72.945312 57.628906 L 72.945312 57.003906 L 71.34375 57.003906 L 71.34375 65.933594 L 72.96875 65.933594 L 72.96875 63.476562 C 73.507812 63.921875 74.164062 64.144531 74.925781 64.144531 C 75.925781 64.144531 76.742188 63.800781 77.375 63.113281 C 78.007812 62.421875 78.332031 61.550781 78.332031 60.496094 C 78.332031 59.433594 78.007812 58.5625 77.375 57.875 Z M 76.183594 62.074219 C 75.851562 62.503906 75.402344 62.714844 74.804688 62.714844 C 74.210938 62.714844 73.746094 62.511719 73.425781 62.082031 C 73.101562 61.664062 72.945312 61.140625 72.945312 60.503906 C 72.945312 59.878906 73.101562 59.355469 73.425781 58.9375 C 73.746094 58.507812 74.210938 58.300781 74.804688 58.300781 C 75.402344 58.300781 75.851562 58.515625 76.183594 58.945312 C 76.511719 59.363281 76.675781 59.886719 76.675781 60.503906 C 76.675781 61.125 76.511719 61.644531 76.183594 62.074219 Z M 76.183594 62.074219 "/>
</svg>
