<svg id="ec65834e-0e62-434d-a364-86f052dec34c" data-name="Ebene 1" xmlns="http://www.w3.org/2000/svg" width="120" height="80" viewBox="0 0 120 80">
  <rect width="120" height="80" rx="4" style="fill: #fff"/>
  <g>
    <path d="M15.26,44.56H10V59.84h2.84V55.46h2.37a5.45,5.45,0,1,0,0-10.9Zm-.21,8.27H12.87V47.2h2.18a2.82,2.82,0,1,1,0,5.63Z"/>
    <path d="M31.52,49.06a5.12,5.12,0,0,0-3.93-1.72,6.06,6.06,0,0,0-6.07,6.39,6.13,6.13,0,0,0,6,6.36,5.07,5.07,0,0,0,4-1.84v1.59h2.83V47.59H31.52ZM28,57.49a3.79,3.79,0,1,1,3.66-3.81A3.71,3.71,0,0,1,28,57.49Z"/>
    <polygon points="41.91 55.84 38.49 47.59 35.48 47.59 40.5 59.23 37.93 65.49 40.8 65.49 48.1 47.59 45.13 47.59 41.91 55.84"/>
    <polygon points="92.77 32.26 92.69 32.26 89.41 21.04 84.1 21.04 84.1 35.19 87.62 35.19 87.42 23.58 87.5 23.58 91.03 35.19 96.12 35.19 96.12 21.04 92.58 21.04 92.77 32.26"/>
    <polygon points="28.47 22.37 28.55 22.37 30.45 35.34 34.29 35.34 31.66 21.04 25.3 21.04 22.65 35.34 26.52 35.34 28.47 22.37"/>
    <polygon points="46.9 21.04 45.13 31.97 45.05 31.97 43.29 21.04 37.46 21.04 37.15 35.34 40.72 35.34 40.81 22.49 40.89 22.49 43.28 35.34 46.91 35.34 49.3 22.49 49.37 22.49 49.46 35.34 53.04 35.34 52.72 21.04 46.9 21.04"/>
    <path d="M15.19,35.89c2.59,0,4.72-.88,5.06-3.26a7.11,7.11,0,0,0,0-2.35c-.6-3-6-3.88-6.43-5.55a1.77,1.77,0,0,1,0-.76,1.18,1.18,0,0,1,1.3-1,1.22,1.22,0,0,1,1.33,1.3v.88H20v-1c0-3.11-2.79-3.6-4.81-3.6-2.54,0-4.62.84-5,3.17a5,5,0,0,0,0,1.93c.62,2.92,5.7,3.76,6.44,5.61h0a1.93,1.93,0,0,1,0,1.06,1.24,1.24,0,0,1-1.4,1A1.27,1.27,0,0,1,13.84,32V30.64H10v1.1C10,34.93,12.51,35.89,15.19,35.89Z"/>
    <path d="M60.29,24.76a1.68,1.68,0,0,1,0-.74,1.17,1.17,0,0,1,1.29-.95,1.2,1.2,0,0,1,1.31,1.28v.88h3.54v-1c0-3.08-2.77-3.56-4.78-3.56-2.51,0-4.57.83-4.94,3.14a4.93,4.93,0,0,0,0,1.91c.61,2.89,5.64,3.72,6.37,5.56h0a1.77,1.77,0,0,1,0,1,1.23,1.23,0,0,1-1.38,1A1.26,1.26,0,0,1,60.33,32V30.62h-3.8v1.09c0,3.16,2.48,4.11,5.14,4.11s4.67-.87,5-3.23a6.73,6.73,0,0,0,0-2.32C66.06,27.3,60.69,26.42,60.29,24.76Z"/>
    <path d="M80.12,21H76.5V31.61a3.14,3.14,0,0,1,0,.55,1.29,1.29,0,0,1-1.37,1h0a1.28,1.28,0,0,1-1.37-1,3.09,3.09,0,0,1,0-.55V21H70.08V31.29c0,.26,0,.8,0,.94.25,2.67,2.36,3.53,5,3.53s4.74-.86,5-3.53a8.34,8.34,0,0,0,0-.94Z"/>
    <path d="M104.94,27.31v2.08h1.46v2.08a2.38,2.38,0,0,1,0,.54,1.35,1.35,0,0,1-1.46,1h0a1.33,1.33,0,0,1-1.46-1,3.12,3.12,0,0,1,0-.54V24.93a3.48,3.48,0,0,1,.06-.67,1.33,1.33,0,0,1,1.43-1,1.29,1.29,0,0,1,1.42,1,2.89,2.89,0,0,1,.05.54v.8H110v-.47a7.21,7.21,0,0,0,0-.94c-.26-2.68-2.48-3.53-5-3.53s-4.69.85-5,3.53c0,.24-.06.68-.06.94v6a7.33,7.33,0,0,0,.05.94c.23,2.6,2.49,3.53,5,3.53s4.79-.93,5-3.53c0-.47,0-.67,0-.94V27.31Z"/>
  </g>
</svg>
