<?xml version="1.0" encoding="UTF-8"?>
<svg id="uuid-82e5b735-9a53-40a6-96d1-1963c29a06da" data-name="Ebene 1" xmlns="http://www.w3.org/2000/svg" width="120" height="80" viewBox="0 0 120 80">
    <rect y="0" width="120" height="80" rx="4" ry="4" style="fill: #fff; stroke-width: 0px;"/>
    <path d="m34.95,24.89v18.2l-5.01,5.01v-21.54c0-3.6,2.99-6.68,6.68-6.68h30.02l.04.09,18.17-.09-2.41-2.31c-.97-.98-.97-2.56,0-3.54.98-.98,2.57-.98,3.45,0l6.68,6.68c.56.47.82,1.11.82,1.77s-.26,1.31-.82,1.68l-6.68,6.68c-.89,1.06-2.47,1.06-3.45,0-.97-.89-.97-2.47,0-3.45l2.41-2.49h-41.55m41.75,30.06v-18.02l5.01-5.01v21.36c0,3.78-3,6.68-6.68,6.68h-48.23l2.31,2.49c1.06.98,1.06,2.57,0,3.45-.89,1.06-2.47,1.06-3.45,0l-6.68-6.68c-.47-.38-.73-1.01-.73-1.77,0-.57.26-1.21.73-1.68l6.68-6.68c.98-.97,2.56-.97,3.45,0,1.06.98,1.06,2.57,0,3.45l-2.31,2.4h49.9Zm-33.03-15.03c0-4.41,3.5-7.98,7.98-7.98s7.98,3.57,7.98,7.98-3.57,7.98-7.98,7.98-7.98-3.5-7.98-7.98h0Z" style="stroke-width: 0px;"/>
</svg>