<?xml version="1.0" encoding="UTF-8"?>
<svg xmlns="http://www.w3.org/2000/svg" xmlns:xlink="http://www.w3.org/1999/xlink" width="120px" height="80px" viewBox="0 0 120 80" version="1.1">
<g id="surface1">
<path style=" stroke:none;fill-rule:nonzero;fill:rgb(0%,0%,0%);fill-opacity:1;" d="M 7.035156 40.078125 L 7.035156 75.359375 L 112.898438 75.359375 L 112.898438 4.800781 L 7.035156 4.800781 Z M 112.261719 40.078125 L 112.261719 74.71875 L 7.675781 74.71875 L 7.675781 5.441406 L 112.261719 5.441406 Z M 112.261719 40.078125 "/>
<path style=" stroke:none;fill-rule:nonzero;fill:rgb(0%,0%,0%);fill-opacity:1;" d="M 41.898438 40 C 41.898438 68.910156 41.929688 72.640625 42.136719 72.640625 C 42.34375 72.640625 42.378906 68.910156 42.378906 40 C 42.378906 11.089844 42.34375 7.359375 42.136719 7.359375 C 41.929688 7.359375 41.898438 11.089844 41.898438 40 Z M 41.898438 40 "/>
<path style=" stroke:none;fill-rule:nonzero;fill:rgb(0%,0%,0%);fill-opacity:1;" d="M 78.359375 14.558594 L 78.359375 15.199219 L 110.339844 15.199219 L 110.339844 13.921875 L 78.359375 13.921875 Z M 78.359375 14.558594 "/>
<path style=" stroke:none;fill-rule:nonzero;fill:rgb(0%,0%,0%);fill-opacity:1;" d="M 8.796875 14.71875 L 8.796875 15.359375 L 32.78125 15.359375 L 32.78125 14.078125 L 8.796875 14.078125 Z M 8.796875 14.71875 "/>
<path style=" stroke:none;fill-rule:nonzero;fill:rgb(0%,0%,0%);fill-opacity:1;" d="M 8.796875 17.519531 C 8.796875 17.726562 9.898438 17.761719 17.832031 17.761719 C 25.761719 17.761719 26.867188 17.726562 26.867188 17.519531 C 26.867188 17.3125 25.761719 17.28125 17.832031 17.28125 C 9.898438 17.28125 8.796875 17.3125 8.796875 17.519531 Z M 8.796875 17.519531 "/>
<path style=" stroke:none;fill-rule:nonzero;fill:rgb(0%,0%,0%);fill-opacity:1;" d="M 78.359375 18.398438 C 78.359375 18.71875 78.46875 18.71875 90.351562 18.71875 C 102.234375 18.71875 102.34375 18.71875 102.34375 18.398438 C 102.34375 18.078125 102.234375 18.078125 90.351562 18.078125 C 78.46875 18.078125 78.359375 18.078125 78.359375 18.398438 Z M 78.359375 18.398438 "/>
<path style=" stroke:none;fill-rule:nonzero;fill:rgb(0%,0%,0%);fill-opacity:1;" d="M 8.796875 19.921875 C 8.796875 20.128906 9.898438 20.160156 17.832031 20.160156 C 25.761719 20.160156 26.867188 20.128906 26.867188 19.921875 C 26.867188 19.710938 25.761719 19.679688 17.832031 19.679688 C 9.898438 19.679688 8.796875 19.710938 8.796875 19.921875 Z M 8.796875 19.921875 "/>
<path style=" stroke:none;fill-rule:nonzero;fill:rgb(0%,0%,0%);fill-opacity:1;" d="M 78.359375 21.601562 C 78.359375 21.921875 78.46875 21.921875 90.351562 21.921875 C 102.234375 21.921875 102.34375 21.921875 102.34375 21.601562 C 102.34375 21.28125 102.234375 21.28125 90.351562 21.28125 C 78.46875 21.28125 78.359375 21.28125 78.359375 21.601562 Z M 78.359375 21.601562 "/>
<path style=" stroke:none;fill-rule:nonzero;fill:rgb(0%,0%,0%);fill-opacity:1;" d="M 8.796875 22.320312 C 8.796875 22.527344 9.898438 22.558594 17.832031 22.558594 C 25.761719 22.558594 26.867188 22.527344 26.867188 22.320312 C 26.867188 22.113281 25.761719 22.078125 17.832031 22.078125 C 9.898438 22.078125 8.796875 22.113281 8.796875 22.320312 Z M 8.796875 22.320312 "/>
<path style=" stroke:none;fill-rule:nonzero;fill:rgb(0%,0%,0%);fill-opacity:1;" d="M 45.097656 28.160156 L 45.097656 33.441406 L 55.808594 33.441406 L 55.808594 22.878906 L 45.097656 22.878906 Z M 53.570312 28.238281 L 53.570312 31.359375 L 47.335938 31.359375 L 47.335938 25.121094 L 53.570312 25.121094 Z M 53.570312 28.238281 "/>
<path style=" stroke:none;fill-rule:nonzero;fill:rgb(0%,0%,0%);fill-opacity:1;" d="M 49.414062 28.238281 L 49.414062 29.28125 L 51.492188 29.28125 L 51.492188 27.199219 L 49.414062 27.199219 Z M 49.414062 28.238281 "/>
<path style=" stroke:none;fill-rule:nonzero;fill:rgb(0%,0%,0%);fill-opacity:1;" d="M 57.890625 26.078125 L 57.890625 29.28125 L 59.96875 29.28125 L 59.96875 31.359375 L 57.890625 31.359375 L 57.890625 33.441406 L 62.046875 33.441406 L 62.046875 27.199219 L 59.96875 27.199219 L 59.96875 24.960938 L 62.046875 24.960938 L 62.046875 22.878906 L 57.890625 22.878906 Z M 57.890625 26.078125 "/>
<path style=" stroke:none;fill-rule:nonzero;fill:rgb(0%,0%,0%);fill-opacity:1;" d="M 64.285156 28.160156 L 64.285156 33.441406 L 74.839844 33.441406 L 74.839844 22.878906 L 64.285156 22.878906 Z M 72.601562 28.238281 L 72.601562 31.359375 L 66.363281 31.359375 L 66.363281 25.121094 L 72.601562 25.121094 Z M 72.601562 28.238281 "/>
<path style=" stroke:none;fill-rule:nonzero;fill:rgb(0%,0%,0%);fill-opacity:1;" d="M 68.445312 28.238281 L 68.445312 29.28125 L 70.523438 29.28125 L 70.523438 27.199219 L 68.445312 27.199219 Z M 68.445312 28.238281 "/>
<path style=" stroke:none;fill-rule:nonzero;fill:rgb(0%,0%,0%);fill-opacity:1;" d="M 78.359375 24.960938 C 78.359375 25.28125 78.46875 25.28125 90.351562 25.28125 C 102.234375 25.28125 102.34375 25.28125 102.34375 24.960938 C 102.34375 24.640625 102.234375 24.640625 90.351562 24.640625 C 78.46875 24.640625 78.359375 24.640625 78.359375 24.960938 Z M 78.359375 24.960938 "/>
<path style=" stroke:none;fill-rule:nonzero;fill:rgb(0%,0%,0%);fill-opacity:1;" d="M 8.796875 25.039062 C 8.796875 25.246094 9.898438 25.28125 17.832031 25.28125 C 25.761719 25.28125 26.867188 25.246094 26.867188 25.039062 C 26.867188 24.832031 25.761719 24.800781 17.832031 24.800781 C 9.898438 24.800781 8.796875 24.832031 8.796875 25.039062 Z M 8.796875 25.039062 "/>
<path style=" stroke:none;fill-rule:nonzero;fill:rgb(0%,0%,0%);fill-opacity:1;" d="M 78.359375 28.480469 C 78.359375 28.800781 78.46875 28.800781 90.351562 28.800781 C 102.234375 28.800781 102.34375 28.800781 102.34375 28.480469 C 102.34375 28.160156 102.234375 28.160156 90.351562 28.160156 C 78.46875 28.160156 78.359375 28.160156 78.359375 28.480469 Z M 78.359375 28.480469 "/>
<path style=" stroke:none;fill-rule:nonzero;fill:rgb(0%,0%,0%);fill-opacity:1;" d="M 8.796875 33.28125 L 8.796875 33.921875 L 16.792969 33.921875 L 16.792969 32.640625 L 8.796875 32.640625 Z M 8.796875 33.28125 "/>
<path style=" stroke:none;fill-rule:nonzero;fill:rgb(0%,0%,0%);fill-opacity:1;" d="M 55.332031 39.761719 L 55.332031 44.160156 L 64.125 44.160156 L 64.125 35.359375 L 55.332031 35.359375 Z M 60.609375 37.441406 L 60.609375 38.558594 L 62.6875 38.558594 L 62.6875 40.480469 L 60.609375 40.480469 L 60.609375 42.558594 L 58.6875 42.558594 L 58.6875 40.480469 L 56.449219 40.480469 L 56.449219 38.558594 L 58.6875 38.558594 L 58.6875 36.320312 L 60.609375 36.320312 Z M 60.609375 37.441406 "/>
<path style=" stroke:none;fill-rule:nonzero;fill:rgb(0%,0%,0%);fill-opacity:1;" d="M 45.097656 36.71875 L 45.097656 37.761719 L 47.335938 37.761719 L 47.335938 39.839844 L 49.414062 39.839844 L 49.414062 37.761719 L 51.492188 37.761719 L 51.492188 39.839844 L 53.25 39.839844 L 53.25 35.679688 L 49.414062 35.679688 L 49.414062 37.761719 L 47.335938 37.761719 L 47.335938 35.679688 L 45.097656 35.679688 Z M 45.097656 36.71875 "/>
<path style=" stroke:none;fill-rule:nonzero;fill:rgb(0%,0%,0%);fill-opacity:1;" d="M 66.042969 36.71875 C 66.042969 37.3125 66.109375 37.761719 66.203125 37.761719 C 66.300781 37.761719 66.363281 38.207031 66.363281 38.800781 L 66.363281 39.839844 L 68.445312 39.839844 L 68.445312 35.679688 L 66.042969 35.679688 Z M 66.042969 36.71875 "/>
<path style=" stroke:none;fill-rule:nonzero;fill:rgb(0%,0%,0%);fill-opacity:1;" d="M 72.601562 36.71875 L 72.601562 37.761719 L 70.523438 37.761719 L 70.523438 41.921875 L 66.203125 41.921875 L 66.203125 44.160156 L 68.445312 44.160156 L 68.445312 48.320312 L 66.363281 48.320312 L 66.363281 46.238281 L 65.246094 46.238281 C 64.238281 46.238281 64.125 46.207031 64.125 45.921875 C 64.125 45.632812 64.015625 45.601562 63.085938 45.601562 C 62.160156 45.601562 62.046875 45.632812 62.046875 45.921875 C 62.046875 46.207031 61.933594 46.238281 61.007812 46.238281 C 60.078125 46.238281 59.96875 46.207031 59.96875 45.921875 C 59.96875 45.632812 59.855469 45.601562 58.929688 45.601562 L 57.890625 45.601562 L 57.890625 50.398438 L 59.96875 50.398438 L 59.96875 48.320312 L 62.046875 48.320312 L 62.046875 46.238281 L 64.125 46.238281 L 64.125 48.320312 L 66.363281 48.320312 L 66.363281 50.558594 L 59.96875 50.558594 L 59.96875 52.640625 L 68.445312 52.640625 L 68.445312 48.320312 L 72.601562 48.320312 L 72.601562 50.398438 L 70.523438 50.398438 L 70.523438 52.640625 L 72.601562 52.640625 L 72.601562 50.398438 L 74.839844 50.398438 L 74.839844 48.320312 L 72.601562 48.320312 L 72.601562 46.238281 L 74.839844 46.238281 L 74.839844 44.160156 L 72.601562 44.160156 L 72.601562 39.839844 L 74.839844 39.839844 L 74.839844 35.679688 L 72.601562 35.679688 Z M 72.601562 45.199219 L 72.601562 46.238281 L 70.523438 46.238281 L 70.523438 44.160156 L 72.601562 44.160156 Z M 72.601562 45.199219 "/>
<path style=" stroke:none;fill-rule:nonzero;fill:rgb(0%,0%,0%);fill-opacity:1;" d="M 8.796875 36.078125 C 8.796875 36.289062 10.332031 36.320312 21.589844 36.320312 C 32.847656 36.320312 34.382812 36.289062 34.382812 36.078125 C 34.382812 35.871094 32.847656 35.839844 21.589844 35.839844 C 10.332031 35.839844 8.796875 35.871094 8.796875 36.078125 Z M 8.796875 36.078125 "/>
<path style=" stroke:none;fill-rule:nonzero;fill:rgb(0%,0%,0%);fill-opacity:1;" d="M 78.359375 36.960938 L 78.359375 37.601562 L 110.339844 37.601562 L 110.339844 36.320312 L 78.359375 36.320312 Z M 78.359375 36.960938 "/>
<path style=" stroke:none;fill-rule:nonzero;fill:rgb(0%,0%,0%);fill-opacity:1;" d="M 78.359375 40.960938 C 78.359375 41.28125 78.46875 41.28125 90.351562 41.28125 C 102.234375 41.28125 102.34375 41.28125 102.34375 40.960938 C 102.34375 40.640625 102.234375 40.640625 90.351562 40.640625 C 78.46875 40.640625 78.359375 40.640625 78.359375 40.960938 Z M 78.359375 40.960938 "/>
<path style=" stroke:none;fill-rule:nonzero;fill:rgb(0%,0%,0%);fill-opacity:1;" d="M 45.097656 47.28125 L 45.097656 52.640625 L 55.648438 52.640625 L 55.648438 45.601562 L 53.570312 45.601562 L 53.570312 50.398438 L 47.335938 50.398438 L 47.335938 44.160156 L 53.25 44.160156 L 53.25 41.921875 L 45.097656 41.921875 Z M 45.097656 47.28125 "/>
<path style=" stroke:none;fill-rule:nonzero;fill:rgb(0%,0%,0%);fill-opacity:1;" d="M 8.796875 45.601562 L 8.796875 46.078125 L 32.78125 46.078125 L 32.78125 45.121094 L 8.796875 45.121094 Z M 8.796875 45.601562 "/>
<path style=" stroke:none;fill-rule:nonzero;fill:rgb(0%,0%,0%);fill-opacity:1;" d="M 49.414062 47.28125 L 49.414062 48.320312 L 51.492188 48.320312 L 51.492188 46.238281 L 49.414062 46.238281 Z M 49.414062 47.28125 "/>
<path style=" stroke:none;fill-rule:nonzero;fill:rgb(0%,0%,0%);fill-opacity:1;" d="M 8.796875 48.558594 C 8.796875 48.769531 9.898438 48.800781 17.832031 48.800781 C 25.761719 48.800781 26.867188 48.769531 26.867188 48.558594 C 26.867188 48.351562 25.761719 48.320312 17.832031 48.320312 C 9.898438 48.320312 8.796875 48.351562 8.796875 48.558594 Z M 8.796875 48.558594 "/>
<path style=" stroke:none;fill-rule:nonzero;fill:rgb(0%,0%,0%);fill-opacity:1;" d="M 8.796875 50.960938 C 8.796875 51.167969 9.898438 51.199219 17.832031 51.199219 C 25.761719 51.199219 26.867188 51.167969 26.867188 50.960938 C 26.867188 50.753906 25.761719 50.71875 17.832031 50.71875 C 9.898438 50.71875 8.796875 50.753906 8.796875 50.960938 Z M 8.796875 50.960938 "/>
<path style=" stroke:none;fill-rule:nonzero;fill:rgb(0%,0%,0%);fill-opacity:1;" d="M 78.359375 53.441406 L 78.359375 53.921875 L 102.34375 53.921875 L 102.34375 52.960938 L 78.359375 52.960938 Z M 78.359375 53.441406 "/>
<path style=" stroke:none;fill-rule:nonzero;fill:rgb(0%,0%,0%);fill-opacity:1;" d="M 8.796875 53.359375 C 8.796875 53.566406 9.898438 53.601562 17.832031 53.601562 C 25.761719 53.601562 26.867188 53.566406 26.867188 53.359375 C 26.867188 53.152344 25.761719 53.121094 17.832031 53.121094 C 9.898438 53.121094 8.796875 53.152344 8.796875 53.359375 Z M 8.796875 53.359375 "/>
<path style=" stroke:none;fill-rule:nonzero;fill:rgb(0%,0%,0%);fill-opacity:1;" d="M 78.359375 57.519531 C 78.359375 57.726562 79.351562 57.761719 86.355469 57.761719 C 93.359375 57.761719 94.351562 57.726562 94.351562 57.519531 C 94.351562 57.3125 93.359375 57.28125 86.355469 57.28125 C 79.351562 57.28125 78.359375 57.3125 78.359375 57.519531 Z M 78.359375 57.519531 "/>
<path style=" stroke:none;fill-rule:nonzero;fill:rgb(0%,0%,0%);fill-opacity:1;" d="M 97.148438 58.304688 C 96.492188 58.59375 95.820312 59.40625 95.707031 60.046875 C 95.660156 60.335938 95.628906 63.136719 95.660156 66.273438 C 95.707031 71.742188 95.726562 72 96.042969 72.414062 C 96.21875 72.65625 96.574219 73.007812 96.8125 73.183594 C 97.242188 73.503906 97.4375 73.519531 103.386719 73.519531 C 109.332031 73.519531 109.527344 73.503906 109.957031 73.183594 C 110.195312 73.007812 110.550781 72.65625 110.726562 72.414062 C 111.042969 71.984375 111.0625 71.792969 111.0625 65.839844 C 111.0625 59.886719 111.042969 59.695312 110.726562 59.265625 C 110.550781 59.023438 110.195312 58.671875 109.957031 58.496094 C 109.542969 58.175781 109.300781 58.160156 103.578125 58.128906 C 98.875 58.097656 97.53125 58.128906 97.148438 58.304688 Z M 106.984375 64.496094 C 106.984375 65.742188 106.917969 66.71875 106.839844 66.6875 C 106.757812 66.65625 105.257812 65.886719 103.480469 64.960938 C 100.316406 63.296875 100.265625 63.28125 100.265625 62.753906 L 100.265625 62.238281 L 106.984375 62.238281 Z M 103.59375 68.992188 C 103.625 69.070312 102.890625 69.121094 101.960938 69.121094 L 100.265625 69.121094 L 100.265625 66.832031 L 98.875 64.976562 C 98.089844 63.953125 97.371094 62.976562 97.242188 62.800781 C 97.117188 62.625 98.492188 63.921875 100.28125 65.679688 C 102.074219 67.441406 103.5625 68.929688 103.59375 68.992188 Z M 102.984375 65.199219 C 104.96875 66.414062 106.679688 67.488281 106.792969 67.601562 C 106.917969 67.710938 106.984375 68.03125 106.949219 68.382812 L 106.902344 68.960938 L 102.90625 65.902344 C 99.050781 62.960938 98.140625 62.222656 98.988281 62.753906 C 99.210938 62.878906 101.003906 63.984375 102.984375 65.199219 Z M 103.175781 66.734375 C 105.925781 68.863281 108.328125 70.734375 108.503906 70.894531 C 108.804688 71.199219 108.789062 71.199219 107.816406 71.199219 L 106.824219 71.199219 L 105.113281 69.566406 C 104.152344 68.671875 102.839844 67.425781 102.183594 66.800781 C 99.722656 64.511719 98.042969 62.878906 98.109375 62.878906 C 98.140625 62.878906 100.425781 64.625 103.175781 66.734375 Z M 103.175781 66.734375 "/>
<path style=" stroke:none;fill-rule:nonzero;fill:rgb(0%,0%,0%);fill-opacity:1;" d="M 78.359375 60.238281 C 78.359375 60.449219 79.351562 60.480469 86.355469 60.480469 C 93.359375 60.480469 94.351562 60.449219 94.351562 60.238281 C 94.351562 60.03125 93.359375 60 86.355469 60 C 79.351562 60 78.359375 60.03125 78.359375 60.238281 Z M 78.359375 60.238281 "/>
<path style=" stroke:none;fill-rule:nonzero;fill:rgb(0%,0%,0%);fill-opacity:1;" d="M 8.796875 61.761719 L 8.796875 62.238281 L 32.78125 62.238281 L 32.78125 61.28125 L 8.796875 61.28125 Z M 8.796875 61.761719 "/>
<path style=" stroke:none;fill-rule:nonzero;fill:rgb(0%,0%,0%);fill-opacity:1;" d="M 45.257812 61.761719 L 45.257812 62.238281 L 69.242188 62.238281 L 69.242188 61.28125 L 45.257812 61.28125 Z M 45.257812 61.761719 "/>
<path style=" stroke:none;fill-rule:nonzero;fill:rgb(0%,0%,0%);fill-opacity:1;" d="M 8.796875 64.398438 C 8.796875 64.609375 9.339844 64.640625 12.792969 64.640625 C 16.246094 64.640625 16.792969 64.609375 16.792969 64.398438 C 16.792969 64.191406 16.246094 64.160156 12.792969 64.160156 C 9.339844 64.160156 8.796875 64.191406 8.796875 64.398438 Z M 8.796875 64.398438 "/>
<path style=" stroke:none;fill-rule:nonzero;fill:rgb(0%,0%,0%);fill-opacity:1;" d="M 18.710938 64.398438 C 18.710938 64.609375 19.445312 64.640625 24.308594 64.640625 C 29.167969 64.640625 29.902344 64.609375 29.902344 64.398438 C 29.902344 64.191406 29.167969 64.160156 24.308594 64.160156 C 19.445312 64.160156 18.710938 64.191406 18.710938 64.398438 Z M 18.710938 64.398438 "/>
<path style=" stroke:none;fill-rule:nonzero;fill:rgb(0%,0%,0%);fill-opacity:1;" d="M 45.414062 64.398438 C 45.414062 64.609375 45.960938 64.640625 49.414062 64.640625 C 52.867188 64.640625 53.410156 64.609375 53.410156 64.398438 C 53.410156 64.191406 52.867188 64.160156 49.414062 64.160156 C 45.960938 64.160156 45.414062 64.191406 45.414062 64.398438 Z M 45.414062 64.398438 "/>
<path style=" stroke:none;fill-rule:nonzero;fill:rgb(0%,0%,0%);fill-opacity:1;" d="M 55.171875 64.398438 C 55.171875 64.609375 55.90625 64.640625 60.769531 64.640625 C 65.628906 64.640625 66.363281 64.609375 66.363281 64.398438 C 66.363281 64.191406 65.628906 64.160156 60.769531 64.160156 C 55.90625 64.160156 55.171875 64.191406 55.171875 64.398438 Z M 55.171875 64.398438 "/>
<path style=" stroke:none;fill-rule:nonzero;fill:rgb(0%,0%,0%);fill-opacity:1;" d="M 45.414062 70.382812 L 45.414062 72.976562 L 45.785156 72.929688 C 46.101562 72.878906 46.136719 72.785156 46.183594 71.792969 C 46.230469 70.769531 46.246094 70.71875 46.632812 70.71875 C 47.269531 70.71875 47.605469 70.976562 48.292969 72 C 48.789062 72.734375 49.03125 72.960938 49.332031 72.960938 C 49.558594 72.960938 49.734375 72.894531 49.734375 72.832031 C 49.734375 72.769531 49.414062 72.222656 49.03125 71.632812 C 48.390625 70.671875 48.359375 70.558594 48.628906 70.480469 C 49.140625 70.304688 49.460938 69.679688 49.351562 69.039062 C 49.191406 68.207031 48.710938 67.96875 46.933594 67.871094 L 45.414062 67.792969 Z M 48.359375 68.894531 C 48.964844 69.503906 48.34375 70.078125 47.0625 70.078125 L 46.214844 70.078125 L 46.214844 68.640625 L 47.160156 68.640625 C 47.816406 68.640625 48.199219 68.71875 48.359375 68.894531 Z M 48.359375 68.894531 "/>
<path style=" stroke:none;fill-rule:nonzero;fill:rgb(0%,0%,0%);fill-opacity:1;" d="M 50.214844 70.398438 L 50.214844 72.960938 L 53.890625 72.960938 L 53.890625 72.558594 C 53.890625 72.160156 53.875 72.160156 52.453125 72.160156 L 51.011719 72.160156 L 51.011719 70.71875 L 52.371094 70.71875 C 53.714844 70.71875 53.730469 70.71875 53.730469 70.320312 C 53.730469 69.921875 53.714844 69.921875 52.371094 69.921875 L 51.011719 69.921875 L 51.011719 68.640625 L 52.46875 68.640625 C 53.875 68.640625 53.90625 68.625 53.859375 68.273438 C 53.8125 67.9375 53.746094 67.921875 52.019531 67.871094 L 50.214844 67.824219 Z M 50.214844 70.398438 "/>
<path style=" stroke:none;fill-rule:nonzero;fill:rgb(0%,0%,0%);fill-opacity:1;" d="M 55.632812 68.207031 C 53.78125 69.441406 54.371094 72.671875 56.480469 72.910156 C 57.472656 73.023438 58.289062 72.640625 58.640625 71.921875 C 58.878906 71.425781 58.878906 71.328125 58.6875 71.199219 C 58.289062 70.945312 58.082031 71.023438 57.984375 71.441406 C 57.839844 72.03125 57.042969 72.382812 56.355469 72.160156 C 55.410156 71.839844 55.042969 70.574219 55.554688 69.359375 C 55.96875 68.382812 57.503906 68.273438 57.921875 69.199219 C 58.066406 69.503906 58.175781 69.585938 58.433594 69.503906 C 58.898438 69.359375 58.898438 69.359375 58.625 68.816406 C 58.113281 67.839844 56.640625 67.535156 55.632812 68.207031 Z M 55.632812 68.207031 "/>
<path style=" stroke:none;fill-rule:nonzero;fill:rgb(0%,0%,0%);fill-opacity:1;" d="M 59.648438 70.398438 L 59.648438 72.976562 L 60.015625 72.929688 C 60.335938 72.878906 60.367188 72.785156 60.414062 71.710938 L 60.464844 70.558594 L 62.671875 70.558594 L 62.71875 71.710938 C 62.765625 72.785156 62.796875 72.878906 63.132812 72.929688 L 63.484375 72.976562 L 63.484375 67.824219 L 63.132812 67.871094 C 62.796875 67.921875 62.765625 68.015625 62.71875 68.910156 L 62.671875 69.921875 L 60.464844 69.921875 L 60.414062 68.910156 C 60.367188 68.015625 60.335938 67.921875 60.015625 67.871094 L 59.648438 67.824219 Z M 59.648438 70.398438 "/>
<path style=" stroke:none;fill-rule:nonzero;fill:rgb(0%,0%,0%);fill-opacity:1;" d="M 64.445312 70.382812 C 64.445312 72.847656 64.460938 72.960938 64.765625 72.960938 C 65.070312 72.960938 65.085938 72.847656 65.085938 71.265625 C 65.085938 70.238281 65.148438 69.601562 65.246094 69.632812 C 65.324219 69.648438 65.886719 70.398438 66.476562 71.28125 C 67.242188 72.398438 67.675781 72.894531 67.933594 72.929688 L 68.285156 72.976562 L 68.285156 70.414062 C 68.285156 67.953125 68.269531 67.839844 67.964844 67.839844 C 67.660156 67.839844 67.644531 67.953125 67.644531 69.535156 C 67.644531 70.558594 67.578125 71.199219 67.484375 71.167969 C 67.402344 71.136719 66.84375 70.398438 66.253906 69.519531 C 65.484375 68.398438 65.054688 67.902344 64.8125 67.871094 L 64.445312 67.824219 Z M 64.445312 70.382812 "/>
<path style=" stroke:none;fill-rule:nonzero;fill:rgb(0%,0%,0%);fill-opacity:1;" d="M 69.242188 69.601562 C 69.242188 72.207031 69.675781 72.960938 71.160156 72.960938 C 72.058594 72.960938 72.875 72.496094 73.03125 71.886719 C 73.113281 71.648438 73.160156 70.640625 73.160156 69.679688 C 73.160156 67.984375 73.144531 67.921875 72.808594 67.871094 C 72.441406 67.824219 72.441406 67.839844 72.441406 69.550781 C 72.441406 71.761719 72.296875 72.0625 71.289062 72.128906 C 70.1875 72.191406 70.042969 71.902344 70.042969 69.648438 L 70.042969 67.839844 L 69.242188 67.839844 Z M 69.242188 69.601562 "/>
<path style=" stroke:none;fill-rule:nonzero;fill:rgb(0%,0%,0%);fill-opacity:1;" d="M 74.105469 68.046875 C 74.074219 68.160156 74.054688 69.296875 74.074219 70.558594 C 74.121094 72.816406 74.136719 72.878906 74.472656 72.929688 C 74.824219 72.976562 74.824219 72.945312 74.871094 71.167969 L 74.921875 69.359375 L 76.121094 71.121094 C 76.96875 72.367188 77.429688 72.894531 77.6875 72.929688 L 78.039062 72.976562 L 78.039062 67.824219 L 77.6875 67.871094 C 77.335938 67.921875 77.320312 68 77.269531 69.664062 L 77.222656 71.425781 L 76.039062 69.632812 C 75.160156 68.335938 74.742188 67.839844 74.519531 67.839844 C 74.328125 67.839844 74.152344 67.9375 74.105469 68.046875 Z M 74.105469 68.046875 "/>
<path style=" stroke:none;fill-rule:nonzero;fill:rgb(0%,0%,0%);fill-opacity:1;" d="M 79.957031 68.191406 C 79.140625 68.734375 78.804688 69.488281 78.886719 70.609375 C 78.949219 71.664062 79.300781 72.257812 80.132812 72.6875 C 80.851562 73.070312 82.101562 72.976562 82.882812 72.496094 C 83.460938 72.144531 83.476562 72.113281 83.476562 71.183594 L 83.476562 70.238281 L 82.355469 70.238281 C 81.269531 70.238281 81.238281 70.257812 81.238281 70.640625 C 81.238281 71.007812 81.300781 71.039062 81.957031 71.039062 C 82.5625 71.039062 82.675781 71.089844 82.675781 71.34375 C 82.675781 71.808594 82.066406 72.160156 81.269531 72.160156 C 80.277344 72.160156 79.636719 71.519531 79.636719 70.496094 C 79.636719 69.183594 80.195312 68.558594 81.363281 68.59375 C 81.8125 68.609375 82.050781 68.71875 82.371094 69.105469 C 82.660156 69.457031 82.867188 69.585938 83.058594 69.503906 C 83.394531 69.375 83.269531 68.863281 82.738281 68.335938 C 82.179688 67.742188 80.726562 67.664062 79.957031 68.191406 Z M 79.957031 68.191406 "/>
</g>
</svg>
