<?xml version="1.0" encoding="UTF-8"?>
<svg id="Ebene_1" data-name="Ebene 1" xmlns="http://www.w3.org/2000/svg" width="120" height="80" viewBox="0 0 120 80">
  <rect y="0" width="120" height="80" rx="4" ry="4" style="fill: #fff;"/>
  <g>
    <path d="M51.83,34.79h-2v11.37h2v-11.37Zm-6.5,5.76c.01,.86-.21,1.71-.66,2.44-.68,1.07-1.7,1.58-2.59,1.58-.77-.01-1.52-.31-2.09-.83-.8-.79-1.04-2.07-1.04-3.28,.01-1.72,.51-2.68,1.32-3.43,.48-.46,1.12-.72,1.78-.73,.69,.02,1.35,.26,1.89,.7,1.45,1.21,1.38,3.43,1.38,3.54m1.02,8.8c.85-1.12,.91-2.28,.98-4.66l-.03-9.89h-1.9v1.76c-.25-.4-.56-.76-.92-1.07-.77-.62-1.73-.95-2.72-.91-1.53,0-2.96,.76-3.82,2.03-.89,1.23-1.13,2.7-1.13,3.95-.01,.81,.1,1.62,.34,2.4,.28,.97,.83,1.84,1.59,2.5,.85,.69,1.93,1.03,3.02,.95,.99-.04,1.94-.38,2.72-.99,.29-.25,.55-.54,.77-.86l-.02,1.56c-.02,.52-.1,1.03-.26,1.51-.11,.32-.28,.61-.51,.86-.55,.63-1.25,.96-2.59,1.01-.98,0-1.96-.17-2.89-.48-.39-.15-.77-.33-1.12-.55l-.21,1.98c.32,.13,.56,.22,.9,.33,1.04,.32,2.12,.48,3.2,.48,1.57,0,2.57-.36,3.25-.73,.54-.29,1-.7,1.36-1.19m3.35-17.27h2.19v-2.25h-2.19v2.25Zm9.56,4.39c.47,0,.94,.1,1.38,.27v-2c-.1,0-.71-.09-1.22-.09-1.03-.05-2.01,.38-2.68,1.17-.2,.27-.39,.56-.56,.86l-.1-1.9h-1.91c.06,1.43,.11,2.42,.11,3.82,0,1.65-.03,2.81-.03,4.44v3.11h2.07v-5.57c.06-1.08,.12-2.51,1.23-3.48,.47-.42,1.09-.65,1.72-.64m10.46,3.89c0,1.24-.39,3.06-1.91,3.93-.91,.5-2.01,.53-2.95,.09-.2-.1-.38-.22-.56-.36-.48-.4-.85-.91-1.08-1.49-.28-.7-.41-1.45-.38-2.2,.04-1.58,.69-2.7,1.38-3.27,.62-.53,1.42-.82,2.23-.81,1.76,.02,2.54,1.23,2.93,2.15,.23,.63,.34,1.3,.34,1.97m.44,4.54c1.32-1.33,1.69-3.13,1.67-4.58-.06-2.79-1.53-4.46-2.91-5.19-.77-.37-1.62-.56-2.48-.54-2.55,0-4.19,1.32-4.97,2.68-.53,1-.8,2.11-.79,3.24-.02,2.28,.79,3.63,1.76,4.57,.23,.2,.47,.37,.72,.53,.64,.42,1.55,.77,3.06,.77,.82,.03,1.64-.12,2.4-.44,.57-.24,1.09-.59,1.53-1.02" style="fill: #1f3a6a;"/>
    <path d="M73.6,37.21c.06,2.2,.06,3.76,.06,5.97,0,2.76-.05,5.51-.06,8.27h2.03v-6.82c.19,.26,.41,.5,.64,.72,.77,.68,1.77,1.05,2.8,1.03,1.36,0,2.67-.56,3.59-1.56,1.7-1.82,1.56-4.29,1.56-4.66,0-.85-.16-1.69-.46-2.49-.55-1.41-1.84-3.14-4.52-3.14-.29,0-1.85,0-3.04,1.17-.27,.25-.51,.52-.7,.83l-.09-1.74h-1.91c.05,.91,.06,1.52,.09,2.42Zm2,3.17c0-.54,.08-1.07,.23-1.59,.53-1.61,1.73-2.49,3.08-2.49,1.08,0,2.16,.59,2.77,1.87,.33,.73,.47,1.53,.42,2.33,0,.6-.1,1.19-.3,1.75-.74,2.11-2.42,2.32-2.98,2.32-1.29,0-2.48-.87-2.99-2.44-.17-.57-.25-1.17-.23-1.77h0Z" style="fill: #1f3a6a;"/>
    <path d="M105.18,34.79l-2.54,6.16-1.15,2.98-.08,.16c-.29-.85-.69-1.92-1.05-2.93l-2.35-6.37h-2.18l4.57,11.37-2.23,5.29h2.04l7.12-16.66h-2.15Z" style="fill: #1f3a6a;"/>
    <path d="M94.34,36.26c-.59-.99-2.12-1.69-3.91-1.69-2.17,0-3.27,.78-3.57,.96v1.79c.46-.27,1.77-1.08,3.18-1.08s2.46,.79,2.75,1.54c.15,.49,.22,.99,.21,1.5-.53-.03-1.09-.05-1.63-.05-1.12,0-2.7,.05-3.82,.6-.87,.42-2.07,1.23-2.07,3.05-.02,1.01,.4,1.97,1.15,2.64,.64,.54,1.49,.75,2.36,.8,1.3,.04,2.41-.36,2.97-.76,.44-.36,.85-.76,1.2-1.21v1.81h1.74v-7.34c0-1.14-.26-2.1-.57-2.56Zm-1.29,4.78c.02,.52-.04,1.04-.17,1.54-.11,.35-.28,.68-.51,.97-.66,.9-1.76,1.2-2.58,1.2-.94,0-2.18-.49-2.18-1.82s1.55-2.03,2.41-2.17c.5-.07,1-.1,1.5-.09,.51,0,1.02,.02,1.53,.06v.31Z" style="fill: #1f3a6a;"/>
    <polygon points="24.8 34.91 23.5 34.91 23.5 35.26 24.52 35.26 27.1 45.74 13.92 45.74 16.49 35.26 17.52 35.26 17.52 34.91 16.22 34.91 13.36 46.17 27.65 46.17 24.8 34.91" style="fill: #1f3a6a;"/>
    <path d="M23.01,30.18h-5.01c-.28,0-.51,.23-.51,.51v4.92h.38v-4.92c0-.07,.06-.13,.13-.13h.93v3.55h-.98l1.41,1.5h2.29l1.41-1.5h-.98v-3.55h.93c.07,0,.13,.06,.13,.13v4.92h.38v-4.92c0-.28-.23-.51-.51-.51Z" style="fill: #5dc4e9;"/>
    <path d="M19.4,41.74h2.21c.14,0,.25-.11,.25-.25,0,0,0-.01,0-.02l-.08-1.45c-.01-.15-.13-.26-.28-.27h-1.98c-.15,0-.27,.12-.28,.27l-.08,1.45c0,.14,.09,.26,.23,.27,0,0,.01,0,.02,0Z" style="fill: #1f3a6a;"/>
    <path d="M18.46,39.76h-2c-.15,0-.28,.11-.32,.26l-.29,1.46c-.03,.11,.04,.23,.15,.26,.02,0,.04,0,.06,0h2.23c.15,0,.27-.12,.29-.27l.12-1.45c.01-.13-.08-.25-.22-.27,0,0-.02,0-.03,0Z" style="fill: #1f3a6a;"/>
    <path d="M19.49,39.3h2.03c.11,0,.2-.09,.2-.2,0,0,0-.01,0-.02l-.07-1.16c0-.12-.11-.21-.23-.21h-1.85c-.12,0-.22,.09-.23,.21l-.07,1.16c0,.11,.08,.21,.19,.21,0,0,.01,0,.02,0Z" style="fill: #1f3a6a;"/>
    <path d="M18.69,37.72h-1.87c-.12,0-.23,.09-.26,.21l-.23,1.17c-.02,.09,.03,.18,.12,.2,.02,0,.03,0,.05,0h2.05c.12,0,.22-.09,.23-.21l.1-1.16c.01-.11-.07-.2-.17-.21,0,0-.02,0-.02,0Z" style="fill: #1f3a6a;"/>
    <path d="M24.51,39.3c.09,0,.17-.07,.18-.16,0-.02,0-.03,0-.05l-.24-1.17c-.03-.12-.13-.21-.26-.21h-1.86c-.11,0-.19,.08-.2,.19,0,0,0,.02,0,.02l.1,1.16c.01,.12,.11,.21,.23,.21h2.04Z" style="fill: #1f3a6a;"/>
    <path d="M19.58,37.33h1.85c.1,0,.18-.08,.18-.17,0,0,0,0,0-.01l-.05-.89c0-.1-.09-.19-.2-.19h-1.71c-.1,0-.19,.08-.2,.19l-.05,.89c0,.1,.07,.18,.16,.19,0,0,0,0,.01,0Z" style="fill: #1f3a6a;"/>
    <path d="M24.14,37.33c.08,0,.15-.06,.15-.14,0-.01,0-.03,0-.04l-.18-.9c-.02-.1-.12-.18-.22-.18h-1.72c-.09,0-.17,.07-.17,.17,0,0,0,.01,0,.02l.08,.9c.01,.1,.1,.18,.2,.19h1.87Z" style="fill: #1f3a6a;"/>
    <path d="M18.86,36.06h-1.73c-.11,0-.2,.08-.22,.18l-.18,.9c-.02,.08,.03,.16,.11,.18,.01,0,.03,0,.04,0h1.88c.11,0,.19-.08,.2-.19l.08-.9c0-.09-.06-.18-.15-.19,0,0-.01,0-.02,0Z" style="fill: #1f3a6a;"/>
    <path d="M24.95,41.74c.12,0,.21-.08,.22-.2,0-.02,0-.04,0-.06l-.29-1.46c-.04-.15-.17-.26-.32-.26h-1.99c-.13,0-.24,.1-.25,.24,0,0,0,.02,0,.03l.12,1.45c.02,.15,.14,.26,.29,.27h2.22Z" style="fill: #1f3a6a;"/>
    <path d="M21.59,42.28h-2.17c-.18,0-.33,.14-.34,.32l-.11,1.84c-.01,.17,.11,.31,.28,.32,0,0,.02,0,.02,0h2.46c.17,0,.3-.13,.3-.3,0,0,0-.02,0-.02l-.11-1.84c-.01-.18-.16-.32-.34-.32Z" style="fill: #1f3a6a;"/>
    <path d="M18.19,42.28h-2.18c-.18,0-.34,.14-.38,.31l-.37,1.85c-.03,.14,.05,.27,.18,.31,.02,0,.05,0,.07,0h2.47c.18,0,.33-.14,.35-.32l.16-1.84c.02-.16-.1-.3-.26-.32-.01,0-.02,0-.03,0Z" style="fill: #1f3a6a;"/>
    <path d="M25.39,42.6c-.04-.18-.2-.31-.38-.31h-2.18c-.16,0-.29,.13-.29,.29,0,.01,0,.02,0,.03l.16,1.84c.02,.18,.17,.32,.35,.32h2.47c.14,0,.26-.1,.26-.24,0-.03,0-.05,0-.07l-.37-1.85Z" style="fill: #1f3a6a;"/>
  </g>
</svg>