<?xml version="1.0" encoding="UTF-8"?>
<svg id="Ebene_1" data-name="Ebene 1" xmlns="http://www.w3.org/2000/svg" width="120" height="80" xmlns:xlink="http://www.w3.org/1999/xlink" viewBox="0 0 120 80">
  <defs>
    <clipPath id="clippath">
      <path d="M255.55,1h-112.1c-2.18,0-3.95,1.83-3.95,4.09V76.41c0,2.26,1.77,4.09,3.95,4.09h112.1c2.18,0,3.95-1.83,3.95-4.09V5.09c0-2.26-1.77-4.09-3.95-4.09Zm-1.95,39.75c0,21.2-16.59,38.39-37.05,38.39h-73.09c-1.45,0-2.63-1.22-2.63-2.73V5.09c0-1.5,1.18-2.73,2.63-2.73h73.09c20.46,0,37.05,17.19,37.05,38.39h0Z" style="fill: none;"/>
    </clipPath>
    <clipPath id="clippath-1">
      <ellipse cx="199.5" cy="40.75" rx="71.18" ry="73.74" style="fill: none;"/>
    </clipPath>
  </defs>
  <g>
    <path d="M119.32,72.23c0,3.95-3.6,7.15-8.04,7.15H8.72c-4.44,0-8.04-3.2-8.04-7.15V7.77C.68,3.82,4.28,.62,8.72,.62H111.28c4.44,0,8.04,3.2,8.04,7.15V72.23Z" style="fill: #fff;"/>
    <path d="M1.36,7.77V72.23c0,3.59,3.28,6.53,7.36,6.53H111.28c4.08,0,7.35-2.93,7.36-6.53V7.77c0-3.6-3.28-6.53-7.36-6.53H8.72C4.65,1.24,1.37,4.17,1.36,7.77m7.36,72.23c-4.81,0-8.72-3.47-8.72-7.77V7.77C0,3.47,3.92,0,8.72,0H111.28c4.81,0,8.72,3.47,8.72,7.77V72.23c0,4.3-3.92,7.76-8.72,7.77H8.72Z" style="fill: #0064a6;"/>
  </g>
  <g>
    <path d="M18.75,56c0,1.5,1.07,1.67,2.02,1.67,4.2,0,5.58-3.17,5.58-6.06,0-3.63-2.33-6.26-6.08-6.26-.8,0-1.17,.06-1.52,.08v10.57Zm-1.91-9.12c0-1.75-.91-1.63-1.79-1.65v-.51c.76,.04,1.53,.04,2.29,.04,.82,0,1.92-.04,3.36-.04,5.03,0,7.77,3.36,7.77,6.8,0,1.93-1.13,6.76-8.01,6.76-.99,0-1.9-.04-2.82-.04s-1.73,.02-2.6,.04v-.51c1.16-.12,1.73-.16,1.79-1.48v-9.43Z" style="fill: #1d1d1b;"/>
    <path d="M31.25,46.42c-.51,0-.95-.47-.95-.97s.47-.93,.95-.93,.95,.41,.95,.93-.43,.97-.95,.97m-2.08,11.37h.37c.54,0,.93,0,.93-.64v-5.27c0-.85-.29-.97-1.01-1.36v-.31c.91-.27,2-.64,2.08-.7,.14-.08,.25-.1,.35-.1s.14,.12,.14,.27v7.46c0,.64,.43,.64,.97,.64h.33v.51c-.66,0-1.34-.04-2.04-.04s-1.4,.02-2.12,.04v-.51Z" style="fill: #1d1d1b;"/>
    <path d="M35.17,52c0-.72-.21-.91-1.13-1.28v-.37c.83-.27,1.63-.53,2.56-.93,.06,0,.12,.04,.12,.19v1.26c1.11-.8,2.06-1.46,3.37-1.46,1.65,0,2.23,1.21,2.23,2.72v5.01c0,.64,.43,.64,.97,.64h.35v.51c-.68,0-1.36-.04-2.06-.04s-1.4,.02-2.1,.04v-.51h.35c.54,0,.93,0,.93-.64v-5.03c0-1.11-.68-1.65-1.79-1.65-.62,0-1.61,.5-2.26,.93v5.75c0,.64,.43,.64,.97,.64h.35v.51c-.68,0-1.36-.04-2.06-.04s-1.4,.02-2.1,.04v-.51h.35c.54,0,.93,0,.93-.64v-5.15Z" style="fill: #1d1d1b;"/>
    <path d="M48.57,52.31c.48,0,.54-.25,.54-.49,0-.99-.6-1.79-1.69-1.79-1.18,0-2,.87-2.23,2.27h3.38Zm-3.44,.62c-.04,.17-.04,.47,0,1.13,.11,1.85,1.3,3.36,2.86,3.36,1.07,0,1.91-.58,2.62-1.3l.27,.27c-.89,1.19-2,2.2-3.59,2.2-3.09,0-3.71-2.99-3.71-4.24,0-3.81,2.57-4.94,3.92-4.94,1.58,0,3.27,.99,3.29,3.05,0,.12,0,.23-.02,.35l-.18,.12h-5.46Z" style="fill: #1d1d1b;"/>
    <path d="M51.23,57.79h.53c.54,0,.93,0,.93-.64v-5.46c0-.6-.72-.72-1.01-.88v-.29c1.42-.6,2.2-1.11,2.37-1.11,.11,0,.17,.06,.17,.25v1.75h.04c.48-.76,1.3-2,2.49-2,.49,0,1.11,.33,1.11,1.03,0,.52-.37,.99-.91,.99-.6,0-.6-.47-1.29-.47-.33,0-1.42,.45-1.42,1.62v4.56c0,.64,.39,.64,.93,.64h1.09v.51c-1.07-.02-1.88-.04-2.72-.04s-1.61,.02-2.31,.04v-.51Z" style="fill: #1d1d1b;"/>
    <path d="M58.71,55.6c.25,1.28,1.03,2.37,2.45,2.37,1.15,0,1.57-.7,1.57-1.38,0-2.29-4.24-1.56-4.24-4.68,0-1.09,.88-2.49,3.01-2.49,.62,0,1.46,.18,2.21,.56l.14,1.98h-.45c-.19-1.22-.87-1.92-2.12-1.92-.78,0-1.51,.45-1.51,1.28,0,2.28,4.51,1.57,4.51,4.63,0,1.28-1.03,2.64-3.34,2.64-.78,0-1.69-.27-2.37-.66l-.22-2.24,.35-.1Z" style="fill: #1d1d1b;"/>
    <path d="M81.84,48.25h-.48c-.37-2.27-1.98-3.19-4.16-3.19s-5.48,1.5-5.48,6.16c0,3.93,2.8,6.75,5.79,6.75,1.92,0,3.52-1.32,3.91-3.36l.45,.12-.45,2.84c-.82,.51-3.01,1.03-4.3,1.03-4.55,0-7.42-2.94-7.42-7.31,0-3.99,3.56-6.84,7.37-6.84,1.57,0,3.09,.51,4.59,1.03l.19,2.78Z" style="fill: #1d1d1b;"/>
    <path d="M82.54,57.79h.37c.55,0,.93,0,.93-.64v-10.82c0-1.26-.29-1.3-1.03-1.52v-.31c.78-.25,1.59-.6,2-.84,.21-.11,.37-.21,.43-.21,.12,0,.16,.12,.16,.27v13.43c0,.64,.43,.64,.97,.64h.33v.51c-.66,0-1.34-.04-2.04-.04s-1.4,.02-2.12,.04v-.51Z" style="fill: #1d1d1b;"/>
    <path d="M95.02,57.23c0,.35,.21,.37,.54,.37,.23,0,.52-.02,.78-.02v.41c-.84,.08-2.43,.49-2.8,.6l-.1-.06v-1.57c-1.16,.95-2.06,1.63-3.44,1.63-1.05,0-2.14-.68-2.14-2.31v-4.98c0-.51-.08-.99-1.16-1.09v-.37c.7-.02,2.25-.14,2.51-.14,.22,0,.22,.14,.22,.56v5.01c0,.58,0,2.25,1.69,2.25,.66,0,1.53-.5,2.35-1.18v-5.23c0-.39-.93-.6-1.63-.8v-.35c1.75-.12,2.84-.27,3.03-.27,.16,0,.16,.14,.16,.35v7.17Z" style="fill: #1d1d1b;"/>
    <path d="M98.88,56.1c0,.74,.7,1.98,2,1.98,2.08,0,2.95-2.04,2.95-3.77,0-2.1-1.59-3.85-3.11-3.85-.72,0-1.32,.47-1.85,.91v4.72Zm0-5.29c.78-.66,1.83-1.4,2.9-1.4,2.25,0,3.62,1.96,3.62,4.08,0,2.55-1.87,5.09-4.65,5.09-1.44,0-2.2-.47-2.7-.68l-.58,.45-.41-.21c.17-1.15,.27-2.27,.27-3.46v-8.36c0-1.26-.29-1.3-1.03-1.52v-.31c.78-.25,1.59-.6,2-.84,.21-.11,.37-.21,.43-.21,.12,0,.15,.12,.15,.27v7.09Z" style="fill: #1d1d1b;"/>
    <path d="M15.03,69.6h.15c.38,0,.78-.05,.78-.6v-5.54c0-.55-.4-.6-.78-.6h-.15v-.32c.41,0,1.05,.04,1.57,.04s1.16-.04,1.66-.04v.32h-.15c-.38,0-.78,.05-.78,.6v5.54c0,.55,.4,.6,.78,.6h.15v.32c-.51,0-1.14-.04-1.67-.04s-1.14,.04-1.56,.04v-.32Z" style="fill: #1d1d1b;"/>
    <path d="M18.21,69.87v-.23s-.1,0-.1,0c-.38,0-.83-.07-.83-.65v-5.54c0-.58,.45-.65,.83-.65h.1v-.23c-.49,0-1.1,.04-1.61,.04s-1.11-.04-1.52-.04v.23h.1c.38,0,.83,.07,.83,.65v5.54c0,.58-.45,.65-.83,.65h-.1v.23c.41,0,1.01-.04,1.51-.04s1.13,.04,1.63,.04m.05,.09c-.51,0-1.14-.04-1.67-.04s-1.14,.04-1.55,.04h-.05v-.41h.19c.38,0,.73-.04,.74-.56v-5.54c0-.52-.35-.55-.74-.56h-.19v-.41h.05c.42,0,1.05,.04,1.57,.04s1.16-.04,1.66-.04h.05v.41h-.19c-.38,0-.74,.04-.74,.56v5.54c0,.52,.35,.55,.74,.56h.19v.41h-.05Z" style="fill: #1d1d1b;"/>
    <path d="M25.53,67.83l.02-.02v-3.96c0-.87-.6-.99-.92-.99h-.23v-.32c.5,0,.98,.04,1.48,.04,.43,0,.87-.04,1.3-.04v.32h-.16c-.45,0-.94,.08-.94,1.34v4.81c0,.37,.01,.74,.06,1.07h-.4l-5.45-6.07v4.36c0,.92,.18,1.24,.99,1.24h.18v.32c-.45,0-.91-.04-1.36-.04s-.96,.04-1.44,.04v-.32h.15c.73,0,.95-.5,.95-1.34v-4.46c0-.59-.49-.95-.96-.95h-.14v-.32c.4,0,.81,.04,1.21,.04,.32,0,.63-.04,.94-.04l4.71,5.3Z" style="fill: #1d1d1b;"/>
    <path d="M25.5,67.81h0s0-.01,0-.01h0Zm.03,.03l.03-.03-.03,.03Zm.21,2.2h.35c-.05-.32-.06-.67-.06-1.02v-4.81c0-1.27,.53-1.39,.99-1.39h.11v-.22c-.42,0-.83,.04-1.25,.04-.48,0-.96-.04-1.43-.04v.22s.19,0,.19,0c.33,0,.97,.15,.97,1.04v4s-.03,.02-.03,.02l-.04,.03-4.7-5.32c-.31,0-.62,.04-.94,.04-.39,0-.78-.04-1.17-.04v.22s.09,0,.09,0c.5,0,1.01,.38,1.01,1v4.45c0,.85-.24,1.39-1,1.39h-.1s0,.22,0,.22c.46,0,.93-.04,1.39-.04s.88,.04,1.32,.04v-.22h-.13c-.83,0-1.04-.37-1.04-1.29v-4.48l5.49,6.14Zm.4,.09h-.44s-5.37-6-5.37-6v4.24c.01,.92,.15,1.18,.95,1.19h.23v.41h-.05c-.46,0-.91-.04-1.36-.04-.47,0-.96,.04-1.44,.04h-.05v-.41h.2c.7,0,.9-.45,.91-1.3v-4.45c0-.56-.46-.91-.92-.91h-.19v-.41h.05c.4,0,.82,.04,1.21,.04,.32,0,.62-.04,.98-.03l4.65,5.23v-3.89c0-.84-.57-.94-.87-.95h-.28v-.41h.05c.5,0,.99,.04,1.48,.04,.43,0,.86-.04,1.3-.04h.05v.41h-.2c-.44,.01-.88,.05-.9,1.3v4.81c0,.37,.01,.74,.06,1.06v.05s-.05,0-.05,0Z" style="fill: #1d1d1b;"/>
    <path d="M28.76,63.06c-.79,0-.82,.19-.98,.96h-.32c.04-.3,.09-.59,.13-.9,.04-.3,.06-.59,.06-.9h.25c.09,.32,.35,.31,.64,.31h5.45c.29,0,.55-.01,.57-.33l.25,.04c-.04,.28-.08,.57-.11,.86-.02,.29-.02,.57-.02,.86l-.32,.12c-.02-.39-.07-1.02-.78-1.02h-1.73v5.63c0,.82,.37,.91,.88,.91h.2v.32c-.41,0-1.15-.04-1.72-.04-.64,0-1.38,.04-1.79,.04v-.32h.2c.58,0,.88-.05,.88-.89v-5.65h-1.73Z" style="fill: #1d1d1b;"/>
    <path d="M32.93,69.96c-.42,0-1.16-.04-1.72-.04-.63,0-1.37,.04-1.79,.04h-.04v-.41h.25c.58-.01,.82-.02,.83-.84v-5.6h-1.69v-.09h1.78v5.7c0,.85-.34,.93-.92,.94h-.16v.22c.42,0,1.13-.04,1.74-.04,.55,0,1.26,.04,1.68,.04v-.22h-.15c-.51,0-.92-.13-.92-.96v-5.67h1.78c.71,0,.8,.61,.83,1l.23-.08c0-.28,0-.55,.02-.83,.03-.27,.07-.54,.11-.81l-.16-.03c-.05,.31-.35,.32-.61,.32h-5.51c-.25,0-.52-.01-.61-.31h-.17c0,.29-.02,.58-.06,.86-.03,.29-.08,.57-.12,.85h.23c.14-.74,.23-.98,1.02-.97v.09c-.78,.02-.77,.15-.94,.93v.04h-.42v-.05c.05-.3,.1-.59,.13-.9,.04-.29,.06-.59,.06-.89v-.05h.34v.03c.08,.27,.28,.27,.54,.27h5.51c.29,0,.51,0,.53-.29v-.05s.05,0,.05,0l.3,.05v.05c-.05,.28-.09,.57-.12,.85-.02,.28-.02,.57-.02,.85v.03h-.03s-.37,.15-.37,.15v-.06c-.03-.4-.07-.97-.74-.97h-1.69v5.58c.01,.8,.33,.85,.83,.86h.25v.41h-.05Z" style="fill: #1d1d1b;"/>
    <path d="M35.16,69.6h.15c.38,0,.78-.05,.78-.6v-5.54c0-.55-.4-.6-.78-.6h-.15v-.32c.64,0,1.75,.04,2.63,.04s1.99-.04,2.71-.04c-.02,.45,0,1.15,.02,1.62l-.32,.08c-.05-.69-.18-1.24-1.29-1.24h-1.47v2.77h1.26c.63,0,.77-.36,.84-.93h.32c-.02,.41-.03,.83-.03,1.24s.01,.8,.03,1.21l-.32,.06c-.06-.63-.09-1.05-.82-1.05h-1.27v2.46c0,.69,.61,.69,1.29,.69,1.27,0,1.83-.09,2.15-1.29l.29,.07c-.14,.56-.26,1.12-.36,1.68-.68,0-1.89-.04-2.84-.04s-2.21,.04-2.81,.04v-.32Z" style="fill: #1d1d1b;"/>
    <path d="M40.77,69.87c.09-.53,.21-1.07,.34-1.6l-.21-.05c-.32,1.18-.93,1.29-2.18,1.28-.67,0-1.33,0-1.34-.73v-2.51h1.31c.74,0,.81,.44,.87,1.04l.23-.05c-.02-.39-.03-.78-.03-1.17s.01-.79,.03-1.19h-.23c-.06,.55-.23,.94-.88,.93h-1.3v-2.86h1.52c1.1,0,1.28,.56,1.33,1.23l.23-.06c-.02-.3-.03-.68-.03-1.03,0-.18,0-.35,.01-.5-.72,0-1.79,.04-2.66,.04s-1.94-.04-2.59-.04v.22h.1c.38,0,.83,.07,.83,.65v5.54c0,.58-.45,.65-.83,.65h-.1v.22c.62,0,1.84-.04,2.77-.04s2.12,.04,2.8,.04m.04,.09c-.68,0-1.9-.04-2.84-.04s-2.21,.04-2.81,.04h-.04v-.41h.19c.38,0,.73-.04,.74-.56v-5.54c0-.52-.35-.55-.74-.56h-.19v-.41h.04c.65,0,1.75,.04,2.63,.04s1.99-.04,2.71-.04h.05v.05c0,.16-.01,.35-.01,.55,0,.37,.01,.77,.03,1.07v.04s-.03,.01-.03,.01l-.37,.1v-.05c-.06-.69-.16-1.19-1.25-1.2h-1.43v2.68s1.21,0,1.21,0c.61,0,.72-.32,.79-.89v-.04h.41v.05c-.02,.41-.03,.82-.03,1.24s.01,.8,.03,1.2v.04s-.04,0-.04,0l-.37,.07v-.05c-.08-.65-.08-1-.78-1.01h-1.22v2.42c0,.64,.56,.64,1.24,.64,1.27,0,1.78-.07,2.1-1.26v-.04s.06,0,.06,0l.34,.09v.04c-.15,.56-.27,1.12-.37,1.68v.04h-.04Z" style="fill: #1d1d1b;"/>
    <path d="M43.95,66.11h.52c1.06,0,1.63-.4,1.63-1.65,0-.94-.6-1.54-1.55-1.54-.32,0-.45,.03-.6,.04v3.15Zm-1.35-2.45c0-.77-.42-.8-.75-.8h-.19v-.32c.34,0,.99,.04,1.64,.04s1.14-.04,1.7-.04c1.33,0,2.52,.36,2.52,1.86,0,.95-.63,1.53-1.47,1.86l1.81,2.71c.3,.45,.51,.57,1.03,.63v.32c-.35,0-.69-.04-1.04-.04-.33,0-.67,.04-.99,.04-.81-1.07-1.51-2.21-2.2-3.43h-.7v2.26c0,.81,.38,.85,.86,.85h.19v.32c-.6,0-1.22-.04-1.82-.04-.51,0-1,.04-1.53,.04v-.32h.19c.39,0,.75-.18,.75-.57v-5.37Z" style="fill: #1d1d1b;"/>
    <path d="M44.47,66.06c1.05-.01,1.57-.37,1.58-1.6,0-.92-.58-1.5-1.5-1.5-.29,0-.42,.03-.56,.04v3.06h.47Zm-.52,.09h-.05v-3.24h.04c.14-.01,.29-.04,.61-.04,.96,0,1.59,.63,1.59,1.59,0,1.26-.61,1.69-1.67,1.69h-.52Zm0,.29h.72v.02c.7,1.21,1.4,2.36,2.18,3.4,.32,0,.66-.04,.99-.04s.66,.04,.99,.04v-.23c-.5-.06-.73-.21-1.02-.65l-1.84-2.75,.05-.02c.83-.33,1.44-.89,1.44-1.82,0-1.47-1.14-1.81-2.47-1.81-.56,0-1.07,.04-1.7,.04s-1.25-.04-1.59-.04v.22h.15c.33,0,.8,.06,.8,.85v5.37c0,.42-.4,.62-.8,.62h-.15v.22c.51,0,.99-.04,1.49-.04,.59,0,1.19,.04,1.77,.04v-.22h-.14c-.48,0-.91-.06-.91-.9v-2.31h.05Zm4.93,3.52c-.35,0-.69-.04-1.04-.04-.32,0-.66,.04-1.03,.02-.81-1.06-1.51-2.2-2.19-3.41h-.62v2.22c.01,.8,.33,.79,.82,.8h.24v.41h-.05c-.6,0-1.22-.04-1.82-.04-.51,0-1,.04-1.53,.04h-.05v-.41h.24c.38,0,.7-.17,.7-.52v-5.37c0-.75-.38-.75-.7-.76h-.24v-.41h.05c.34,0,1,.04,1.64,.04s1.14-.04,1.7-.04c1.33,0,2.56,.37,2.56,1.91,0,.95-.63,1.55-1.45,1.88l1.78,2.66c.3,.44,.48,.55,.99,.61h.04v.41h-.04Z" style="fill: #1d1d1b;"/>
    <path d="M56.06,67.83l.02-.02v-3.96c0-.87-.6-.99-.92-.99h-.23v-.32c.5,0,.98,.04,1.48,.04,.43,0,.87-.04,1.3-.04v.32h-.16c-.44,0-.94,.08-.94,1.34v4.81c0,.37,.01,.74,.06,1.07h-.4l-5.45-6.07v4.36c0,.92,.18,1.24,.99,1.24h.18v.32c-.45,0-.91-.04-1.36-.04-.48,0-.96,.04-1.44,.04v-.32h.15c.73,0,.95-.5,.95-1.34v-4.46c0-.59-.49-.95-.96-.95h-.14v-.32c.4,0,.82,.04,1.22,.04,.31,0,.62-.04,.94-.04l4.71,5.3Z" style="fill: #1d1d1b;"/>
    <path d="M56.04,67.81h0s0-.01,0-.01h0Zm.03,.03l.03-.03-.03,.03Zm.21,2.2h.35c-.05-.32-.06-.67-.06-1.02v-4.81c0-1.27,.54-1.39,.99-1.39h.11v-.22c-.42,0-.83,.04-1.25,.04-.49,0-.96-.04-1.44-.04v.22h.19c.33,0,.97,.15,.97,1.04l-.02,4-.02,.02-.03,.03-4.71-5.32c-.31,0-.62,.04-.94,.04-.39,0-.79-.04-1.17-.04v.22h.09c.5,0,1.01,.38,1.01,1v4.45c0,.85-.24,1.39-1,1.39h-.1s0,.22,0,.22c.46,0,.93-.04,1.39-.04s.88,.04,1.32,.04v-.22h-.13c-.83,0-1.04-.36-1.04-1.29v-4.47l5.49,6.14Zm.4,.09h-.43s-5.37-6-5.37-6v4.24c.01,.92,.15,1.18,.95,1.19h.22v.41h-.05c-.46,0-.91-.04-1.36-.04s-.96,.04-1.44,.04h-.05v-.41h.19c.7,0,.9-.45,.91-1.3v-4.45c0-.56-.46-.9-.91-.9h-.19v-.41h.05c.4,0,.82,.04,1.22,.04,.31,0,.62-.04,.97-.03l4.65,5.23v-3.89c0-.84-.57-.94-.87-.95h-.28v-.41h.05c.5,0,.99,.04,1.48,.04,.43,0,.86-.04,1.3-.04h.05v.41h-.2c-.44,.01-.89,.05-.9,1.3v4.81c0,.37,0,.74,.06,1.06v.05s-.05,0-.05,0Z" style="fill: #1d1d1b;"/>
    <path d="M60.96,63.72h-.02l-.98,2.99h1.98l-.97-2.99Zm-1.54,4.69c-.11,.36-.23,.64-.23,.82,0,.32,.45,.37,.79,.37h.12v.32c-.42-.02-.86-.04-1.28-.04-.38,0-.76,.02-1.14,.04v-.32h.06c.41,0,.76-.24,.92-.69l1.69-4.85c.14-.39,.33-.92,.39-1.31,.34-.12,.76-.33,.96-.45,.03-.01,.05-.02,.08-.02s.05,0,.07,.03c.03,.08,.06,.18,.09,.26l1.95,5.53c.13,.37,.25,.76,.39,1.08,.13,.3,.35,.42,.7,.42h.06v.32c-.48-.02-.95-.04-1.46-.04s-1.05,.02-1.59,.04v-.32h.12c.24,0,.66-.04,.66-.31,0-.14-.1-.42-.21-.76l-.41-1.23h-2.4l-.34,1.1Z" style="fill: #1d1d1b;"/>
    <path d="M60.91,63.73h.02s-.02,0-.02,0Zm-.9,2.93h1.85l-.92-2.83-.93,2.83Zm-.13,.09l1.01-3.09h.06v.05h-.01s.01,0,.01,0v-.05h.03l1,3.09h-2.11Zm2.16,3.11c.52-.02,1.04-.04,1.54-.04s.95,.02,1.41,.04v-.22h-.02c-.36,0-.61-.14-.74-.45-.14-.32-.27-.71-.39-1.08l-1.95-5.53c-.03-.08-.06-.18-.09-.25-.01-.01,0-.01-.02-.01h-.02s-.03,0-.06,.01c-.2,.13-.63,.34-.94,.42-.06,.4-.26,.93-.39,1.32l-1.69,4.85c-.16,.46-.53,.72-.96,.72h-.02v.22c.36-.02,.73-.04,1.1-.04,.41,0,.83,.02,1.23,.04v-.22h-.07c-.35,0-.83-.04-.84-.42,0-.21,.13-.48,.23-.84h.05s-.05,0-.05,0l.35-1.13h2.47l.42,1.26c.12,.34,.22,.62,.22,.78-.02,.32-.46,.35-.7,.35h-.07v.22Zm3,.09c-.47-.02-.95-.04-1.46-.04s-1.05,.02-1.59,.04h-.05s0-.04,0-.04v-.37h.16c.25,0,.61-.06,.61-.26,0-.12-.09-.41-.21-.75l-.4-1.2h-2.33l-.33,1.07c-.11,.36-.23,.64-.23,.81,0,.26,.4,.32,.75,.32h.16v.41h-.05c-.42-.02-.85-.05-1.28-.05-.38,0-.76,.02-1.14,.04h-.05s0-.04,0-.04v-.37h.11c.39,0,.72-.23,.87-.65l1.69-4.85c.14-.39,.33-.92,.42-1.34,.33-.11,.76-.33,.96-.45,.03-.01,.06-.02,.1-.02,.03,0,.08,0,.12,.06,.03,.09,.06,.18,.1,.27l1.95,5.53c.12,.37,.25,.76,.39,1.07,.12,.28,.32,.39,.66,.39h.11v.41h-.05Z" style="fill: #1d1d1b;"/>
    <path d="M65.51,63.06c-.79,0-.83,.19-.98,.96h-.32c.04-.3,.1-.59,.13-.9,.04-.3,.06-.59,.06-.9h.26c.08,.32,.35,.31,.63,.31h5.46c.28,0,.55-.01,.57-.33l.25,.04c-.04,.28-.08,.57-.11,.86-.02,.29-.02,.57-.02,.86l-.32,.12c-.02-.39-.07-1.02-.78-1.02h-1.73v5.63c0,.82,.37,.91,.88,.91h.2v.32c-.41,0-1.15-.04-1.72-.04-.63,0-1.38,.04-1.79,.04v-.32h.2c.58,0,.88-.05,.88-.89v-5.65h-1.73Z" style="fill: #1d1d1b;"/>
    <path d="M69.68,69.96c-.42,0-1.16-.04-1.73-.04-.63,0-1.37,.04-1.79,.04h-.05v-.41h.25c.58-.01,.82-.02,.83-.84v-5.6h-1.69v-.09h1.78v5.7c0,.85-.34,.93-.92,.93h-.16v.23c.42,0,1.13-.04,1.74-.04,.55,0,1.26,.04,1.68,.04v-.23h-.16c-.51,0-.92-.12-.92-.96v-5.67h1.78c.71,0,.8,.61,.82,1l.23-.08c0-.28,0-.55,.02-.83,.03-.27,.07-.54,.11-.81l-.16-.03c-.05,.31-.35,.32-.61,.32h-5.51c-.25,0-.52-.01-.62-.31h-.17c0,.29-.02,.58-.06,.86-.03,.29-.08,.57-.12,.85h.23c.14-.74,.23-.98,1.02-.97v.09c-.78,.01-.77,.15-.94,.93v.04h-.42v-.05c.05-.3,.1-.59,.13-.9,.04-.3,.06-.59,.06-.89v-.05h.34v.03c.08,.27,.28,.27,.55,.27h5.51c.29,0,.51,0,.53-.28v-.05s.05,0,.05,0l.3,.05v.05c-.05,.28-.09,.57-.12,.85-.02,.28-.02,.57-.02,.85v.03h-.03s-.37,.15-.37,.15v-.06c-.03-.4-.07-.97-.74-.97h-1.69v5.58c.01,.8,.33,.85,.83,.86h.25v.41h-.04Z" style="fill: #1d1d1b;"/>
    <path d="M71.96,69.6h.15c.38,0,.78-.05,.78-.6v-5.54c0-.55-.4-.6-.78-.6h-.15v-.32c.41,0,1.05,.04,1.56,.04s1.16-.04,1.66-.04v.32h-.15c-.38,0-.78,.05-.78,.6v5.54c0,.55,.4,.6,.78,.6h.15v.32c-.51,0-1.14-.04-1.67-.04s-1.14,.04-1.56,.04v-.32Z" style="fill: #1d1d1b;"/>
    <path d="M75.14,69.87v-.22h-.1c-.38,0-.83-.07-.83-.65v-5.54c0-.58,.45-.65,.83-.65h.1v-.22c-.49,0-1.1,.04-1.61,.04s-1.11-.04-1.52-.04v.22h.1c.38,0,.83,.07,.83,.65v5.54c0,.58-.45,.65-.83,.65h-.1v.22c.41,0,1.01-.04,1.51-.04s1.12,.04,1.62,.04m.05,.09c-.51,0-1.14-.04-1.67-.04s-1.14,.04-1.56,.04h-.05v-.41h.19c.38,0,.73-.04,.73-.56v-5.54c0-.52-.35-.55-.73-.56h-.19v-.41h.05c.41,0,1.05,.04,1.56,.04s1.16-.04,1.66-.04h.04v.41h-.19c-.39,0-.73,.04-.74,.56v5.54c0,.52,.35,.55,.74,.56h.19v.41h-.04Z" style="fill: #1d1d1b;"/>
    <path d="M79.57,69.61c2.05,0,2.41-1.81,2.41-3.35s-.83-3.42-2.59-3.42c-1.85,0-2.4,1.65-2.4,3.07,0,1.89,.87,3.7,2.58,3.7m-.16-7.23c2.25,0,4.05,1.4,4.05,3.65,0,2.43-1.75,4.05-4,4.05s-3.96-1.52-3.96-3.8,1.7-3.9,3.9-3.9" style="fill: #1d1d1b;"/>
    <path d="M76.94,65.91c0-1.42,.56-3.11,2.45-3.11,1.8,0,2.63,1.91,2.64,3.46,0,1.54-.37,3.4-2.46,3.4v-.09c2.01,0,2.36-1.76,2.36-3.31,0-1.53-.83-3.37-2.54-3.37-1.81,0-2.35,1.61-2.35,3.02,0,1.88,.86,3.65,2.54,3.66v.09c-1.76,0-2.62-1.84-2.63-3.75m-1.48,.37c0-2.22,1.73-3.94,3.95-3.95v.09c-2.17,0-3.86,1.68-3.86,3.86,0,2.25,1.69,3.75,3.91,3.75,2.23,0,3.95-1.59,3.95-4,0-2.22-1.77-3.6-4.01-3.6v-.09c2.27,0,4.09,1.41,4.1,3.69,0,2.46-1.77,4.09-4.04,4.1-2.26,0-4-1.54-4-3.84" style="fill: #1d1d1b;"/>
    <path d="M90.58,67.83l.02-.02v-3.96c0-.87-.6-.99-.92-.99h-.23v-.32c.5,0,.98,.04,1.48,.04,.44,0,.87-.04,1.3-.04v.32h-.16c-.44,0-.94,.08-.94,1.34v4.81c0,.37,.01,.74,.06,1.07h-.4l-5.45-6.07v4.36c0,.92,.18,1.24,.99,1.24h.18v.32c-.46,0-.91-.04-1.36-.04s-.96,.04-1.44,.04v-.32h.15c.73,0,.95-.5,.95-1.34v-4.46c0-.59-.48-.95-.96-.95h-.14v-.32c.4,0,.81,.04,1.22,.04,.32,0,.62-.04,.94-.04l4.71,5.3Z" style="fill: #1d1d1b;"/>
    <path d="M90.56,67.81h0s0-.01,0-.01h0Zm.02,.03l.03-.03-.03,.03Zm.21,2.2h.35c-.04-.32-.06-.67-.06-1.02v-4.81c0-1.27,.53-1.39,.99-1.39h.11v-.22c-.42,0-.84,.04-1.26,.04-.48,0-.95-.04-1.43-.04v.22h.19c.33,0,.96,.15,.96,1.04v4s-.03,.02-.03,.02l-.03,.03-4.71-5.32c-.31,0-.62,.04-.94,.04-.39,0-.79-.04-1.17-.04v.22h.09c.5,0,1.01,.38,1.01,1v4.46c0,.85-.24,1.39-1,1.39h-.1s0,.22,0,.22c.46,0,.93-.04,1.39-.04s.88,.04,1.32,.04v-.22h-.14c-.83,0-1.04-.36-1.04-1.29v-4.48l5.49,6.14Zm.4,.09h-.44s-5.37-6-5.37-6v4.24c.01,.92,.15,1.18,.95,1.19h.23v.41h-.04c-.46,0-.91-.04-1.36-.04s-.96,.04-1.44,.04h-.04v-.41h.19c.7,0,.9-.45,.91-1.29v-4.46c0-.56-.46-.9-.92-.9h-.18v-.41h.04c.41,0,.82,.04,1.22,.04,.31,0,.62-.04,.98-.03l4.65,5.23v-3.89c0-.84-.57-.94-.88-.95h-.28v-.41h.05c.5,0,.98,.04,1.48,.04,.43,0,.86-.04,1.3-.04h.04v.41h-.2c-.44,.01-.89,.05-.89,1.3v4.81c0,.37,0,.74,.06,1.06v.05s-.04,0-.04,0Z" style="fill: #1d1d1b;"/>
    <path d="M95.48,63.72h-.02l-.99,2.99h1.98l-.97-2.99Zm-1.55,4.69c-.1,.36-.23,.64-.23,.82,0,.32,.45,.37,.79,.37h.12v.32c-.42-.02-.86-.04-1.28-.04-.38,0-.76,.02-1.14,.04v-.32h.06c.41,0,.76-.24,.92-.69l1.7-4.85c.14-.39,.33-.92,.39-1.31,.34-.12,.76-.33,.97-.45,.03-.01,.05-.02,.08-.02,.03,0,.05,0,.07,.03,.03,.08,.06,.18,.1,.26l1.95,5.53c.13,.37,.25,.76,.39,1.08,.13,.3,.35,.42,.7,.42h.06v.32c-.48-.02-.95-.04-1.46-.04s-1.05,.02-1.59,.04v-.32h.12c.24,0,.66-.04,.66-.31,0-.14-.09-.42-.21-.76l-.41-1.23h-2.4l-.34,1.1Z" style="fill: #1d1d1b;"/>
    <path d="M95.44,63.73h.02s-.02,0-.02,0Zm-.9,2.93h1.85l-.92-2.83-.93,2.83Zm-.13,.09l1.02-3.09h.05v.05h-.01s.01,0,.01,0v-.05h.03l1,3.09h-2.1Zm2.16,3.11c.52-.02,1.04-.04,1.54-.04s.95,.02,1.41,.04v-.22h-.02c-.36,0-.61-.14-.74-.45-.14-.32-.27-.71-.39-1.08l-1.95-5.53c-.03-.08-.06-.18-.09-.25,0-.01,0-.01-.01-.01h-.02s-.03,0-.06,.01c-.21,.13-.63,.34-.94,.42-.07,.4-.26,.93-.39,1.32l-1.69,4.85c-.16,.46-.53,.72-.96,.72h-.02v.22c.36-.02,.73-.04,1.1-.04,.41,0,.83,.02,1.23,.04v-.22h-.07c-.34,0-.83-.04-.84-.42,0-.21,.13-.48,.24-.84h.04s-.04,0-.04,0l.35-1.13h2.46l.42,1.26c.12,.34,.21,.62,.21,.78-.02,.32-.46,.35-.7,.35h-.07v.22Zm3,.09c-.48-.02-.95-.04-1.46-.04s-1.05,.02-1.58,.04h-.05s0-.04,0-.04v-.36h.16c.25,0,.61-.06,.61-.26,0-.12-.09-.41-.21-.75l-.4-1.2h-2.33l-.33,1.07c-.11,.36-.23,.64-.23,.81,0,.26,.4,.32,.75,.32h.16v.41h-.05c-.42-.02-.86-.04-1.28-.04-.38,0-.76,.02-1.14,.04h-.05s0-.04,0-.04v-.36h.11c.39,0,.72-.23,.88-.66l1.69-4.85c.14-.39,.33-.92,.42-1.34,.33-.12,.76-.33,.96-.46,.03-.01,.06-.02,.1-.02,.03,0,.08,0,.11,.06,.03,.08,.06,.18,.1,.26l1.94,5.53c.13,.37,.25,.76,.39,1.08,.12,.28,.32,.39,.65,.39h.11v.41h-.05Z" style="fill: #1d1d1b;"/>
    <path d="M102.24,68.88c0,.43,.29,.55,.63,.59,.43,.03,.91,.03,1.4-.02,.44-.05,.82-.31,1.01-.57,.17-.23,.26-.53,.33-.76h.31c-.12,.6-.26,1.2-.39,1.8-.93,0-1.86-.04-2.79-.04s-1.86,.04-2.79,.04v-.32h.15c.38,0,.8-.05,.8-.71v-5.44c0-.55-.41-.6-.8-.6h-.15v-.32c.56,0,1.11,.04,1.67,.04s1.07-.04,1.61-.04v.32h-.27c-.4,0-.72,.01-.72,.57v5.46Z" style="fill: #1d1d1b;"/>
    <path d="M105.49,69.87c.12-.57,.26-1.14,.37-1.71h-.22c-.06,.23-.16,.51-.32,.74-.2,.27-.59,.53-1.05,.59-.28,.03-.55,.04-.81,.04-.2,0-.4,0-.59-.02-.34-.04-.68-.19-.68-.64v-5.46c0-.59,.37-.62,.77-.62h.22v-.22c-.52,0-1.04,.04-1.56,.04s-1.08-.04-1.62-.04v.22h.1c.38,0,.84,.07,.84,.65v5.44c0,.68-.46,.76-.84,.76h-.1v.22c.91,0,1.83-.04,2.75-.04s1.84,.04,2.75,.04m.04,.09c-.93,0-1.86-.04-2.79-.04s-1.86,.04-2.79,.04h-.04v-.41h.19c.38,0,.75-.04,.75-.66v-5.44c0-.51-.37-.55-.75-.56h-.19v-.41h.04c.56,0,1.11,.04,1.67,.04s1.06-.04,1.61-.04h.04v.41h-.31c-.41,.01-.66,0-.67,.53v5.46c0,.4,.26,.5,.59,.55,.19,.01,.38,.02,.59,.02,.26,0,.53-.01,.8-.04,.43-.05,.8-.3,.98-.55,.16-.23,.26-.52,.32-.75v-.03h.41v.06c-.13,.6-.27,1.19-.4,1.8v.04h-.04Z" style="fill: #1d1d1b;"/>
    <path d="M105.61,63.35h.13c.14,0,.21-.11,.21-.28s-.1-.24-.22-.24h-.12v.52Zm-.38,.59v-.05c.14-.02,.16-.02,.16-.1v-.83c0-.12-.01-.16-.16-.15v-.06h.57c.2,0,.38,.09,.38,.3,0,.17-.11,.29-.26,.34l.18,.26c.09,.12,.18,.22,.25,.26v.04h-.22c-.1,0-.2-.22-.4-.51h-.12v.37c0,.07,.03,.07,.16,.09v.05h-.54Zm.55,.32c.5,0,.88-.42,.88-.9s-.38-.91-.88-.91-.88,.43-.88,.91,.38,.9,.88,.9m0-2.02c.64,0,1.11,.49,1.11,1.12s-.48,1.11-1.11,1.11-1.11-.48-1.11-1.11,.48-1.12,1.11-1.12" style="fill: #1d1d1b;"/>
  </g>
  <g>
    <path d="M39.73,25.2c0-9.89,8.02-17.91,17.91-17.91s17.91,8.02,17.91,17.91-8.02,17.91-17.91,17.91-17.91-8.02-17.91-17.91Z" style="fill: #fff;"/>
    <path d="M57.67,43.43c-10.26,.05-18.71-8.27-18.71-18.39,0-11.06,8.45-18.71,18.71-18.71h4.81c10.14,0,19.4,7.65,19.4,18.71,0,10.12-9.26,18.39-19.4,18.39h-4.81Zm.04-35.57c-9.38,0-16.98,7.6-16.98,16.98,0,9.38,7.6,16.98,16.98,16.98,9.38,0,16.98-7.6,16.98-16.98,0-9.38-7.6-16.98-16.98-16.98Zm-3.86,27.03V14.8c-4.04,1.55-6.9,5.46-6.91,10.05,.01,4.58,2.87,8.49,6.91,10.04Zm14.62-10.04c0-4.59-2.87-8.5-6.91-10.05v20.09c4.04-1.55,6.91-5.46,6.91-10.05Z" style="fill: #0064a6;"/>
  </g>
  <g style="clip-path: url(#clippath);">
    <g style="clip-path: url(#clippath-1);">
      <g>
        <polygon points="173.45 141.48 102.26 13.76 225.56 -59.98 296.74 67.74 173.45 141.48" style="fill: #dc4b0d;"/>
        <polygon points="174.74 143.8 103.55 16.07 226.85 -57.67 298.03 70.06 174.74 143.8" style="fill: #dd4c0c;"/>
        <polygon points="176.03 146.11 104.84 18.39 228.14 -55.35 299.32 72.37 176.03 146.11" style="fill: #dd4c0c;"/>
        <polygon points="177.32 148.43 106.13 20.7 229.43 -53.04 300.61 74.69 177.32 148.43" style="fill: #dd4d0c;"/>
        <polygon points="178.61 150.74 107.42 23.02 230.72 -50.72 301.9 77 178.61 150.74" style="fill: #de4e0c;"/>
        <polygon points="179.9 153.06 108.71 25.33 232.01 -48.41 303.19 79.31 179.9 153.06" style="fill: #de4f0c;"/>
        <polygon points="181.19 155.37 110 27.65 233.3 -46.09 304.48 81.63 181.19 155.37" style="fill: #df500b;"/>
        <polygon points="182.48 157.69 111.29 29.96 234.59 -43.78 305.77 83.94 182.48 157.69" style="fill: #df510b;"/>
        <polygon points="183.77 160 112.58 32.28 235.88 -41.47 307.06 86.26 183.77 160" style="fill: #e0520b;"/>
        <polygon points="185.06 162.32 113.87 34.59 237.17 -39.15 308.35 88.57 185.06 162.32" style="fill: #e0530b;"/>
        <polygon points="186.35 164.63 115.16 36.91 238.46 -36.84 309.64 90.89 186.35 164.63" style="fill: #e0540b;"/>
        <polygon points="187.64 166.94 116.45 39.22 239.75 -34.52 310.93 93.2 187.64 166.94" style="fill: #e1550a;"/>
        <polygon points="188.93 169.26 117.74 41.54 241.04 -32.21 312.22 95.52 188.93 169.26" style="fill: #e1560a;"/>
        <polygon points="190.22 171.57 119.03 43.85 242.33 -29.89 313.51 97.83 190.22 171.57" style="fill: #e2570a;"/>
      </g>
    </g>
  </g>
</svg>
