<?xml version="1.0" encoding="UTF-8"?>
<svg id="a" xmlns="http://www.w3.org/2000/svg" width="120" height="77" xmlns:xlink="http://www.w3.org/1999/xlink"
     viewBox="0 0 120 77">
    <defs>
        <linearGradient id="c" x1="63.77" y1="32.93" x2="57.78" y2="42.28"
                        gradientTransform="translate(0 78.02) scale(1 -1)" gradientUnits="userSpaceOnUse">
            <stop offset="0" stop-color="#ff9200"/>
            <stop offset=".21" stop-color="#ff8d00"/>
            <stop offset=".45" stop-color="#ff8000"/>
            <stop offset=".62" stop-color="#ff7100"/>
            <stop offset=".82" stop-color="#ff5e00"/>
            <stop offset="1" stop-color="#ff5200"/>
        </linearGradient>
        <linearGradient id="d" x1="62.82" y1="33.05" x2="54.08" y2="50.13"
                        gradientTransform="translate(0 78.02) scale(1 -1)" gradientUnits="userSpaceOnUse">
            <stop offset="0" stop-color="#ff7100" stop-opacity="0"/>
            <stop offset=".03" stop-color="#ff6e00" stop-opacity=".03"/>
            <stop offset=".21" stop-color="#ff5a00" stop-opacity=".25"/>
            <stop offset=".39" stop-color="#ff4900" stop-opacity=".42"/>
            <stop offset=".56" stop-color="#ff3c00" stop-opacity=".56"/>
            <stop offset=".72" stop-color="#f30" stop-opacity=".66"/>
            <stop offset=".86" stop-color="#ff2d00" stop-opacity=".72"/>
            <stop offset=".98" stop-color="#ff2b00" stop-opacity=".74"/>
        </linearGradient>
        <clipPath id="e">
            <path
                d="m67.99,38.18c0,4.77-3.86,8.65-8.63,8.66-4.77,0-8.65-3.86-8.66-8.63,0-4.77,3.86-8.65,8.63-8.66,0,0,0,0,.01,0,4.77,0,8.63,3.86,8.64,8.63Z"
                fill="none" stroke-width="0"/>
        </clipPath>
        <clipPath id="f">
            <path
                d="m116.05,0H3.95C1.77,0,0,1.77,0,3.95h0v68.83c0,2.18,1.77,3.95,3.95,3.95h112.1c2.18,0,3.95-1.77,3.95-3.95V3.95C120,1.77,118.23,0,116.05,0h0Zm-1.95,38.38c0,20.46-16.6,37.04-37.06,37.04H3.95c-1.46,0-2.63-1.18-2.63-2.63V3.95c0-1.46,1.18-2.63,2.63-2.63h73.09c20.47,0,37.06,16.59,37.06,37.06,0,0,0,0,0,0Z"
                fill="none" stroke-width="0"/>
        </clipPath>
        <clipPath id="g">
            <circle cx="60.05" cy="38.38" r="71.19" fill="none" stroke-width="0"/>
        </clipPath>
    </defs>
    <g id="b">
        <path
            d="m1.32,3.95v68.83c0,1.46,1.18,2.63,2.63,2.63h73.09c20.46,0,37.05-16.58,37.06-37.04h0c0-20.47-16.59-37.06-37.06-37.06h0s-73.09,0-73.09,0c-1.46,0-2.63,1.18-2.63,2.63h0Z"
            fill="#fff" stroke-width="0"/>
        <path
            d="m10.22,30.04h-4.68v16.31h4.6c2.11.12,4.18-.55,5.82-1.88,1.88-1.54,2.98-3.83,3-6.26,0-4.81-3.56-8.17-8.75-8.17Zm3.72,12.25c-1.22.99-2.79,1.47-4.36,1.32h-.84v-10.8h.84c1.57-.16,3.14.32,4.36,1.32,1.13,1.05,1.77,2.52,1.77,4.06,0,1.56-.63,3.04-1.77,4.11Z"
            fill="#261f20" stroke-width="0"/>
        <rect x="20.45" y="30.04" width="3.17" height="16.31" fill="#261f20" stroke-width="0"/>
        <path
            d="m31.39,36.29c-1.91-.7-2.46-1.17-2.46-2.04s1-1.82,2.37-1.82c1.01.02,1.95.51,2.56,1.32l1.67-2.19c-1.32-1.18-3.03-1.82-4.8-1.8-2.64-.16-4.92,1.85-5.08,4.5,0,.06,0,.12,0,.18,0,2.24,1.03,3.4,4.02,4.47.76.24,1.49.55,2.19.94.6.35.97.99.96,1.69-.01,1.28-1.06,2.31-2.34,2.3-.05,0-.09,0-.14,0-1.48.03-2.84-.83-3.46-2.17l-2.06,1.98c1.17,1.99,3.33,3.18,5.64,3.11,2.9.2,5.42-2,5.61-4.9.01-.15.01-.3.01-.45,0-2.58-1.07-3.75-4.69-5.09Z"
            fill="#261f20" stroke-width="0"/>
        <path
            d="m37.1,38.2c-.04,4.66,3.69,8.47,8.35,8.51.09,0,.18,0,.27,0,1.38-.02,2.73-.36,3.95-1v-3.69c-.96,1.12-2.37,1.77-3.85,1.78-2.91.12-5.36-2.13-5.49-5.04,0-.19,0-.39,0-.58-.12-3,2.22-5.52,5.21-5.63.05,0,.11,0,.16,0,1.52.02,2.96.69,3.95,1.84v-3.7c-1.21-.67-2.57-1.02-3.95-1.01-4.74-.02-8.59,3.8-8.62,8.54h0Z"
            fill="#261f20" stroke-width="0"/>
        <polygon points="74.91 41 70.56 30.04 67.08 30.04 74.01 46.77 75.72 46.77 82.76 30.04 79.32 30.04 74.91 41"
                 fill="#261f20" stroke-width="0"/>
        <polygon
            points="84.21 46.35 93.22 46.35 93.22 43.59 87.38 43.59 87.38 39.19 93.01 39.19 93.01 36.43 87.38 36.43 87.38 32.8 93.22 32.8 93.22 30.04 84.21 30.04 84.21 46.35"
            fill="#261f20" stroke-width="0"/>
        <path
            d="m105.83,34.86c0-3.06-2.11-4.82-5.78-4.82h-4.72v16.31h3.17v-6.59h.42l4.4,6.59h3.95l-5.14-6.86c2.25-.34,3.86-2.35,3.69-4.62Zm-6.39,2.63h-.94v-4.89h.99c1.98,0,3.06.83,3.06,2.42s-1.08,2.52-3.11,2.52v-.05Z"
            fill="#261f20" stroke-width="0"/>
        <path
            d="m108.35,30.89c0-.28-.2-.43-.54-.43h-.46v1.44h.34v-.55l.4.55h.42l-.47-.59c.19-.04.33-.21.32-.41Zm-.61.2h0v-.37h0c.17,0,.26,0,.26.18s-.09.18-.26.18Z"
            fill="#261f20" stroke-width="0"/>
        <path
            d="m107.88,29.9c-.69.23-1.07.97-.84,1.66.13.4.44.71.84.84.69-.23,1.07-.97.84-1.66-.13-.4-.44-.71-.84-.84Zm0,2.28c-.57,0-1.03-.46-1.03-1.03,0-.57.46-1.03,1.03-1.03.57,0,1.03.46,1.03,1.03,0,.57-.46,1.03-1.03,1.03Z"
            fill="#261f20" stroke-width="0"/>
        <path
            d="m67.99,38.18c0,4.77-3.86,8.65-8.63,8.66-4.77,0-8.65-3.86-8.66-8.63,0-4.77,3.86-8.65,8.63-8.66,0,0,.02,0,.03,0,4.76,0,8.62,3.87,8.63,8.63Z"
            fill="url(#c)" stroke-width="0"/>
        <path
            d="m67.99,38.18c0,4.77-3.86,8.65-8.63,8.66-4.77,0-8.65-3.86-8.66-8.63,0-4.77,3.86-8.65,8.63-8.66,0,0,.02,0,.03,0,4.76,0,8.62,3.87,8.63,8.63Z"
            fill="url(#d)" isolation="isolate" opacity=".65" stroke-width="0"/>
        <g opacity=".5">
            <g clip-path="url(#e)">
                <path
                    d="m59.39,29.42c4.87,0,8.82,3.93,8.83,8.8,0,4.87-3.93,8.82-8.8,8.83-4.87,0-8.82-3.93-8.83-8.8,0,0,0-.02,0-.03,0-4.85,3.92-8.79,8.77-8.8,0,0,.02,0,.03,0Z"
                    fill="#020000" stroke-width="0"/>
                <path
                    d="m59.4,29.43c4.87,0,8.82,3.93,8.83,8.8,0,4.87-3.93,8.82-8.8,8.83-4.87,0-8.82-3.93-8.83-8.8,0,0,0-.02,0-.03,0-4.86,3.94-8.8,8.8-8.8h0Z"
                    fill="#030100" stroke-width="0"/>
                <path
                    d="m59.41,29.44c4.87,0,8.81,3.95,8.81,8.81s-3.95,8.81-8.81,8.81-8.81-3.95-8.81-8.81c0,0,0,0,0-.01,0-4.85,3.92-8.79,8.77-8.8.01,0,.03,0,.04,0Z"
                    fill="#050100" stroke-width="0"/>
                <path d="m59.41,29.46c4.86,0,8.8,3.94,8.8,8.8s-3.94,8.8-8.8,8.8-8.8-3.94-8.8-8.8,3.94-8.8,8.8-8.8h0Z"
                      fill="#070200" stroke-width="0"/>
                <path d="m59.43,29.47c4.86,0,8.8,3.94,8.8,8.8s-3.94,8.8-8.8,8.8-8.8-3.94-8.8-8.8,3.94-8.8,8.8-8.8h0Z"
                      fill="#080200" stroke-width="0"/>
                <path d="m59.44,29.48c4.86,0,8.8,3.94,8.8,8.8s-3.94,8.8-8.8,8.8-8.8-3.94-8.8-8.8,3.94-8.8,8.8-8.8h0Z"
                      fill="#0a0300" stroke-width="0"/>
                <path
                    d="m59.45,29.5c4.86,0,8.8,3.94,8.8,8.8s-3.94,8.8-8.8,8.8-8.8-3.94-8.8-8.8c0-4.85,3.92-8.79,8.77-8.8,0,0,.02,0,.03,0Z"
                    fill="#0c0300" stroke-width="0"/>
                <path
                    d="m59.45,29.51c4.86-.02,8.81,3.89,8.84,8.75-.02,4.88-3.96,8.82-8.84,8.85-4.86,0-8.8-3.94-8.8-8.8s3.94-8.8,8.8-8.8Z"
                    fill="#0e0400" stroke-width="0"/>
                <path
                    d="m59.47,29.52c4.85-.03,8.81,3.88,8.84,8.73h0c-.01,4.88-3.96,8.84-8.84,8.87-4.86,0-8.8-3.94-8.8-8.8s3.94-8.8,8.8-8.8Z"
                    fill="#0f0400" stroke-width="0"/>
                <path
                    d="m59.48,29.55c4.85-.03,8.8,3.87,8.84,8.72-.02,4.88-3.96,8.83-8.84,8.87-4.86.19-8.95-3.6-9.13-8.45-.19-4.86,3.6-8.95,8.45-9.13.23,0,.45,0,.68,0Z"
                    fill="#110500" stroke-width="0"/>
                <path
                    d="m59.48,29.56c4.85-.04,8.81,3.85,8.85,8.69,0,0,0,0,0,.01-.01,4.89-3.97,8.85-8.85,8.88-4.86-.19-8.64-4.28-8.45-9.13.18-4.59,3.86-8.28,8.45-8.45Z"
                    fill="#130500" stroke-width="0"/>
                <path
                    d="m59.49,29.58c4.85-.04,8.81,3.85,8.85,8.69,0,0,0,0,0,0-.01,4.89-3.97,8.85-8.85,8.88-4.85,0-8.79-3.93-8.79-8.79s3.93-8.79,8.79-8.79Z"
                    fill="#140600" stroke-width="0"/>
                <path
                    d="m59.51,29.59c4.85-.04,8.81,3.85,8.85,8.69,0,0,0,0,0,0-.03,4.88-3.97,8.84-8.85,8.88-4.85,0-8.79-3.93-8.79-8.79s3.93-8.79,8.79-8.79Z"
                    fill="#160600" stroke-width="0"/>
                <path
                    d="m59.52,29.6c4.84-.04,8.8,3.84,8.85,8.68-.02,4.89-3.97,8.85-8.85,8.89-4.85,0-8.79-3.93-8.79-8.79s3.93-8.79,8.79-8.79Z"
                    fill="#180600" stroke-width="0"/>
                <path
                    d="m59.52,29.61c4.85-.05,8.81,3.84,8.87,8.68,0,0,0,0,0,0-.03,4.89-3.98,8.85-8.87,8.89-4.85,0-8.79-3.93-8.79-8.79s3.93-8.79,8.79-8.79Z"
                    fill="#190700" stroke-width="0"/>
                <path
                    d="m59.53,29.63c4.84-.05,8.81,3.83,8.87,8.67-.03,4.89-3.98,8.86-8.87,8.91-4.85,0-8.79-3.93-8.79-8.79s3.93-8.79,8.79-8.79Z"
                    fill="#1b0700" stroke-width="0"/>
                <path
                    d="m59.55,29.64c4.84-.06,8.81,3.82,8.87,8.65h0c-.03,4.89-3.97,8.86-8.87,8.92-4.85,0-8.79-3.93-8.79-8.79s3.93-8.79,8.79-8.79h0Z"
                    fill="#1d0800" stroke-width="0"/>
                <path
                    d="m59.55,29.65c4.84-.06,8.81,3.81,8.88,8.66-.03,4.9-3.98,8.87-8.88,8.92-4.85,0-8.79-3.93-8.79-8.79s3.93-8.79,8.79-8.79h0Z"
                    fill="#1f0800" stroke-width="0"/>
                <path
                    d="m59.56,29.67c4.84-.06,8.81,3.81,8.88,8.64-.04,4.9-3.98,8.86-8.88,8.92-4.85-.19-8.63-4.27-8.44-9.12.18-4.59,3.85-8.26,8.44-8.44Z"
                    fill="#200900" stroke-width="0"/>
                <path
                    d="m59.57,29.69c4.83-.07,8.81,3.8,8.88,8.63-.04,4.9-3.98,8.86-8.88,8.92-4.85,0-8.77-3.93-8.77-8.77,0-4.84,3.93-8.77,8.77-8.77Z"
                    fill="#220900" stroke-width="0"/>
                <path
                    d="m59.59,29.71c4.83-.07,8.81,3.78,8.88,8.61,0,0,0,0,0,0-.04,4.9-3.98,8.87-8.88,8.93-4.85,0-8.77-3.93-8.77-8.77,0-4.85,3.93-8.77,8.77-8.77,0,0,0,0,0,0Z"
                    fill="#240a00" stroke-width="0"/>
                <path
                    d="m59.59,29.72c4.83-.07,8.81,3.78,8.89,8.62-.04,4.9-3.99,8.87-8.89,8.93-4.85,0-8.77-3.93-8.77-8.77,0-4.84,3.93-8.77,8.77-8.77Z"
                    fill="#250a00" stroke-width="0"/>
                <path
                    d="m59.6,29.73c4.83-.07,8.81,3.77,8.89,8.6-.04,4.9-3.99,8.87-8.89,8.95-4.85,0-8.77-3.93-8.77-8.77,0-4.85,3.93-8.77,8.77-8.77,0,0,0,0,0,0Z"
                    fill="#270b00" stroke-width="0"/>
                <path
                    d="m59.61,29.75c4.82-.07,8.8,3.77,8.89,8.59-.04,4.9-3.99,8.88-8.89,8.96-4.85,0-8.77-3.93-8.77-8.77,0-4.85,3.93-8.77,8.77-8.77,0,0,0,0,0,0Z"
                    fill="#290b00" stroke-width="0"/>
                <path
                    d="m59.61,29.76c4.83-.08,8.81,3.76,8.91,8.59-.04,4.91-4,8.89-8.91,8.96-4.85,0-8.77-3.93-8.77-8.77,0-4.84,3.93-8.77,8.77-8.77Z"
                    fill="#2a0c00" stroke-width="0"/>
                <path
                    d="m59.62,29.77c4.83-.09,8.81,3.75,8.91,8.58-.04,4.91-4,8.89-8.91,8.96-4.84-.19-8.61-4.27-8.43-9.11.18-4.58,3.85-8.25,8.43-8.43Z"
                    fill="#2c0c00" stroke-width="0"/>
                <path
                    d="m59.64,29.79c4.83-.09,8.81,3.75,8.91,8.58-.06,4.9-4,8.87-8.91,8.96-4.84.19-8.92-3.59-9.11-8.43-.19-4.84,3.59-8.92,8.43-9.11.23,0,.45,0,.68,0Z"
                    fill="#2e0d00" stroke-width="0"/>
                <path
                    d="m59.65,29.8c4.82-.08,8.8,3.75,8.91,8.56-.05,4.91-4,8.89-8.91,8.97-4.84.19-8.92-3.59-9.11-8.43-.19-4.84,3.59-8.92,8.43-9.11.23,0,.45,0,.68,0Z"
                    fill="#300d00" stroke-width="0"/>
                <path
                    d="m59.65,29.83c4.82-.1,8.82,3.72,8.92,8.55,0,0,0,0,0,0-.06,4.91-4.01,8.89-8.92,8.97-4.84,0-8.76-3.92-8.76-8.76,0-4.84,3.92-8.76,8.76-8.76,0,0,0,0,0,0Z"
                    fill="#310d00" stroke-width="0"/>
                <path
                    d="m59.66,29.9c4.82-.1,8.81,3.72,8.92,8.54-.06,4.91-4.01,8.89-8.92,8.98-4.84,0-8.76-3.93-8.76-8.76,0-4.84,3.92-8.76,8.76-8.76Z"
                    fill="#330e00" stroke-width="0"/>
                <path
                    d="m59.68,29.9c4.81-.1,8.8,3.71,8.92,8.52-.06,4.92-4,8.9-8.92,9-4.84,0-8.76-3.93-8.76-8.76,0-4.84,3.92-8.76,8.76-8.76Z"
                    fill="#350e00" stroke-width="0"/>
                <path
                    d="m59.68,29.9c4.82-.11,8.82,3.7,8.93,8.52-.06,4.92-4.01,8.91-8.93,9-4.84,0-8.76-3.93-8.76-8.76,0-4.84,3.92-8.76,8.76-8.76Z"
                    fill="#360f00" stroke-width="0"/>
                <path
                    d="m59.69,29.9c4.81-.11,8.81,3.7,8.93,8.51-.06,4.92-4.01,8.9-8.93,9.01-4.84,0-8.76-3.92-8.76-8.76,0-4.84,3.92-8.76,8.76-8.76h0Z"
                    fill="#380f00" stroke-width="0"/>
                <path
                    d="m59.7,29.9c4.81-.11,8.81,3.7,8.93,8.51-.06,4.92-4.01,8.9-8.93,9-4.83.19-8.91-3.58-9.09-8.41s3.58-8.91,8.41-9.09c.23,0,.45,0,.68,0Z"
                    fill="#3a1000" stroke-width="0"/>
                <path
                    d="m59.72,29.9c4.81-.12,8.81,3.69,8.93,8.5-.06,4.92-4.01,8.9-8.93,9.01-4.83.19-8.91-3.58-9.09-8.41s3.58-8.91,8.41-9.09c.23,0,.45,0,.68,0Z"
                    fill="#3b1000" stroke-width="0"/>
                <path
                    d="m59.72,29.9c4.81-.12,8.82,3.68,8.95,8.5-.07,4.92-4.02,8.9-8.95,9.01-4.83-.19-8.6-4.26-8.41-9.09.18-4.57,3.84-8.24,8.41-8.41Z"
                    fill="#3d1100" stroke-width="0"/>
                <path
                    d="m59.73,29.9c4.81-.12,8.81,3.68,8.95,8.48-.1,4.91-4.04,8.88-8.95,9.02-4.83-.19-8.6-4.26-8.41-9.09.18-4.57,3.84-8.24,8.41-8.41Z"
                    fill="#3f1100" stroke-width="0"/>
                <path
                    d="m59.74,29.9c4.8-.11,8.79,3.67,8.95,8.47-.1,4.92-4.03,8.89-8.95,9.04-4.83-.19-8.6-4.26-8.41-9.09.18-4.57,3.84-8.24,8.41-8.41Z"
                    fill="#411200" stroke-width="0"/>
                <path
                    d="m59.74,29.97c4.81-.13,8.81,3.65,8.96,8.46-.1,4.92-4.04,8.9-8.96,9.04-4.83,0-8.75-3.92-8.74-8.75,0-4.83,3.92-8.74,8.74-8.74Z"
                    fill="#421200" stroke-width="0"/>
                <path
                    d="m59.76,29.98c4.8-.13,8.81,3.64,8.96,8.44-.09,4.93-4.03,8.91-8.96,9.05-4.83,0-8.75-3.91-8.75-8.74,0-4.83,3.91-8.75,8.74-8.75,0,0,0,0,0,0Z"
                    fill="#441300" stroke-width="0"/>
                <path
                    d="m59.77,30c4.8-.13,8.81,3.64,8.96,8.44-.1,4.92-4.04,8.9-8.96,9.04-4.83.19-8.89-3.57-9.08-8.4s3.57-8.89,8.4-9.08c.23,0,.45,0,.68,0Z"
                    fill="#461300" stroke-width="0"/>
                <path
                    d="m59.78,30.01c4.8-.13,8.8,3.63,8.96,8.43-.09,4.93-4.03,8.91-8.96,9.05-4.83.19-8.89-3.57-9.08-8.4s3.57-8.89,8.4-9.08c.23,0,.45,0,.68,0Z"
                    fill="#471300" stroke-width="0"/>
                <path
                    d="m59.78,30.02c4.8-.15,8.81,3.62,8.97,8.42-.08,4.94-4.04,8.93-8.97,9.06-4.83-.19-8.59-4.25-8.4-9.08.18-4.56,3.84-8.22,8.4-8.4Z"
                    fill="#491400" stroke-width="0"/>
                <path
                    d="m59.8,30.04c4.8-.15,8.81,3.62,8.97,8.42-.08,4.94-4.04,8.93-8.97,9.06-4.83-.19-8.59-4.25-8.4-9.08.18-4.56,3.84-8.22,8.4-8.4Z"
                    fill="#4b1400" stroke-width="0"/>
                <path
                    d="m59.81,30.05c4.8-.15,8.81,3.61,8.97,8.4-.08,4.94-4.03,8.94-8.97,9.08-4.83.19-8.89-3.57-9.08-8.4s3.57-8.89,8.4-9.08c.23,0,.45,0,.68,0Z"
                    fill="#4c1500" stroke-width="0"/>
                <path
                    d="m59.81,30.06c4.83.08,8.98,3.57,8.98,8.4-.08,4.95-4.04,8.95-8.98,9.08-4.83-.19-8.59-4.25-8.4-9.08.18-4.56,3.84-8.22,8.4-8.4Z"
                    fill="#4e1500" stroke-width="0"/>
                <path
                    d="m59.82,30.08c4.82.08,8.98,3.57,8.98,8.39-.07,4.95-4.04,8.96-8.98,9.09-4.83-.19-8.59-4.25-8.4-9.08.18-4.56,3.84-8.22,8.4-8.4Z"
                    fill="#501600" stroke-width="0"/>
                <path
                    d="m59.84,30.1c4.82.07,8.98,3.54,8.98,8.38-.07,4.95-4.04,8.96-8.98,9.09-4.82,0-8.73-3.91-8.73-8.73,0-4.82,3.91-8.73,8.73-8.73Z"
                    fill="#521600" stroke-width="0"/>
                <path
                    d="m59.85,30.12c4.82.07,8.98,3.54,8.98,8.37-.07,4.95-4.04,8.96-8.98,9.09-4.82.19-8.88-3.57-9.07-8.39s3.57-8.88,8.39-9.07c.23,0,.45,0,.68,0Z"
                    fill="#531700" stroke-width="0"/>
                <path
                    d="m59.85,30.13c4.82,0,9,3.53,9,8.35-.06,4.96-4.04,8.98-9,9.1-4.82-.19-8.58-4.25-8.39-9.07.18-4.56,3.83-8.21,8.39-8.39Z"
                    fill="#551700" stroke-width="0"/>
                <path
                    d="m59.86,30.14c4.82.08,9,3.53,9,8.35-.06,4.96-4.04,8.98-9,9.1-4.82.19-8.88-3.57-9.07-8.39s3.57-8.88,8.39-9.07c.23,0,.45,0,.68,0Z"
                    fill="#571800" stroke-width="0"/>
                <path
                    d="m59.87,30.15c4.82.08,9,3.52,9,8.34-.1,4.95-4.05,8.96-9,9.12-4.82.19-8.88-3.57-9.07-8.39s3.57-8.88,8.39-9.07c.23,0,.45,0,.68,0Z"
                    fill="#581800" stroke-width="0"/>
                <path
                    d="m59.87,30.17c4.82.08,9.01,3.52,9.01,8.34-.1,4.95-4.06,8.96-9.01,9.12-4.82-.19-8.58-4.25-8.39-9.07.18-4.56,3.83-8.21,8.39-8.39Z"
                    fill="#5a1900" stroke-width="0"/>
                <path
                    d="m59.89,30.18c4.82.08,9.01,3.5,9.01,8.33-.1,4.95-4.06,8.96-9.01,9.13-4.82-.19-8.58-4.25-8.39-9.07.18-4.56,3.83-8.21,8.39-8.39Z"
                    fill="#5c1900" stroke-width="0"/>
                <path
                    d="m59.9,30.19c4.81.08,9.01,3.5,9.01,8.33-.1,4.95-4.06,8.96-9.01,9.13-4.82-.19-8.58-4.25-8.39-9.07.18-4.56,3.83-8.21,8.39-8.39Z"
                    fill="#5e1a00" stroke-width="0"/>
                <path
                    d="m59.91,30.21c4.81.09,9.01,3.49,9.01,8.31-.1,4.95-4.06,8.96-9.01,9.13-4.82,0-8.72-3.9-8.72-8.72s3.9-8.72,8.72-8.72Z"
                    fill="#5f1a00" stroke-width="0"/>
                <path
                    d="m59.91,30.22c4.82.09,9.02,3.49,9.02,8.3-.1,4.96-4.07,8.98-9.02,9.14-4.82,0-8.72-3.9-8.72-8.72s3.9-8.72,8.72-8.72Z"
                    fill="#611a00" stroke-width="0"/>
                <path
                    d="m59.93,30.25c4.81.08,9.02,3.46,9.02,8.29-.11,4.96-4.07,8.97-9.02,9.14-4.81.19-8.87-3.56-9.05-8.38-.19-4.81,3.56-8.87,8.38-9.05.23,0,.45,0,.68,0Z"
                    fill="#631b00" stroke-width="0"/>
                <path
                    d="m59.94,30.26c4.81.08,9.02,3.46,9.02,8.27-.07,4.99-4.04,9.04-9.02,9.22-4.81.19-8.87-3.56-9.05-8.38-.19-4.81,3.56-8.87,8.38-9.05.23,0,.45,0,.68,0v-.07Z"
                    fill="#641b00" stroke-width="0"/>
                <path
                    d="m59.94,30.27c4.82.09,9.04,3.45,9.04,8.27-.08,4.99-4.05,9.04-9.04,9.22-4.81-.19-8.56-4.24-8.38-9.05.18-4.55,3.83-8.2,8.38-8.38v-.07Z"
                    fill="#661c00" stroke-width="0"/>
                <path
                    d="m59.95,30.29c4.81.09,9.04,3.45,9.04,8.26-.09,4.98-4.06,9.03-9.04,9.22-4.81-.19-8.56-4.24-8.38-9.05.18-4.55,3.83-8.2,8.38-8.38v-.05Z"
                    fill="#681c00" stroke-width="0"/>
                <path
                    d="m59.97,30.3c4.81.09,9.04,3.44,9.04,8.26-.09,4.98-4.06,9.03-9.04,9.22-4.81-.19-8.56-4.24-8.38-9.05.18-4.55,3.83-8.2,8.38-8.38v-.05Z"
                    fill="#691d00" stroke-width="0"/>
                <path
                    d="m59.98,30.31c4.81.09,9.04,3.44,9.04,8.25-.09,4.98-4.06,9.03-9.04,9.22-4.78.04-8.68-3.81-8.72-8.59,0-.04,0-.08,0-.12,0-4.83,3.9-8.75,8.72-8.76Z"
                    fill="#6b1d00" stroke-width="0"/>
                <path
                    d="m59.98,30.33c4.81.09,9.05,3.43,9.05,8.23-.1,4.98-4.07,9.03-9.05,9.22-4.78.03-8.68-3.82-8.71-8.6,0-.04,0-.07,0-.11,0-4.82,3.89-8.73,8.71-8.75Z"
                    fill="#6d1e00" stroke-width="0"/>
                <path
                    d="m59.99,30.34c4.81.11,9.05,3.43,9.05,8.23-.1,4.98-4.07,9.03-9.05,9.22-4.78.03-8.68-3.82-8.71-8.6,0-.04,0-.07,0-.11,0-4.82,3.89-8.73,8.71-8.75Z"
                    fill="#6f1e00" stroke-width="0"/>
                <path
                    d="m60.01,30.35c4.81.11,9.05,3.41,9.05,8.22-.11,4.98-4.07,9.02-9.05,9.22-4.78.03-8.68-3.82-8.71-8.6,0-.02,0-.04,0-.07-.01-4.83,3.88-8.75,8.71-8.77Z"
                    fill="#701f00" stroke-width="0"/>
                <path
                    d="m60.01,30.37c4.81.11,9.06,3.41,9.06,8.22-.11,4.98-4.08,9.02-9.06,9.22-4.77.03-8.67-3.82-8.69-8.59,0-.03,0-.06,0-.09-.01-4.82,3.88-8.74,8.69-8.76Z"
                    fill="#721f00" stroke-width="0"/>
                <path
                    d="m60.02,30.39c4.81.09,9.06,3.39,9.06,8.19-.12,4.98-4.09,9.01-9.06,9.22-4.81-.19-8.55-4.23-8.36-9.04.18-4.54,3.82-8.19,8.36-8.36h0Z"
                    fill="#742000" stroke-width="0"/>
                <path
                    d="m60.03,30.41c4.81.11,9.06,3.39,9.06,8.19-.13,4.98-4.09,9.01-9.06,9.22-4.81.19-8.85-3.56-9.04-8.36-.19-4.81,3.56-8.85,8.36-9.04.23,0,.45,0,.68,0h0Z"
                    fill="#752000" stroke-width="0"/>
                <path
                    d="m60.05,30.42c4.8.11,9.06,3.37,9.06,8.18-.13,4.98-4.09,9-9.06,9.22-4.81.19-8.85-3.56-9.04-8.36-.19-4.81,3.56-8.85,8.36-9.04.23,0,.45,0,.68,0Z"
                    fill="#772000" stroke-width="0"/>
                <path
                    d="m60.05,30.43c4.81.11,9.08,3.37,9.08,8.17-.13,4.98-4.1,9.01-9.08,9.22-4.77.03-8.67-3.82-8.69-8.59,0-.04,0-.07,0-.11.01-4.8,3.9-8.68,8.69-8.69Z"
                    fill="#792100" stroke-width="0"/>
                <path
                    d="m60.06,30.44c4.8.11,9.08,3.36,9.08,8.17-.13,4.98-4.1,9.01-9.08,9.22-4.77.04-8.66-3.8-8.69-8.56,0-.04,0-.09,0-.13.01-4.8,3.9-8.68,8.69-8.69Z"
                    fill="#7a2100" stroke-width="0"/>
                <path
                    d="m60.07,30.46c4.8.11,9.08,3.36,9.08,8.15-.14,4.98-4.1,9-9.08,9.22-4.76.04-8.65-3.78-8.69-8.54,0-.06,0-.11,0-.17.03-4.79,3.91-8.65,8.69-8.67Z"
                    fill="#7c2200" stroke-width="0"/>
                <path
                    d="m60.07,30.47c4.81.12,9.08,3.35,9.08,8.15-.14,4.98-4.1,9-9.08,9.22-4.77.03-8.65-3.81-8.68-8.58,0-.05,0-.1,0-.15.04-4.78,3.91-8.63,8.68-8.66Z"
                    fill="#7e2200" stroke-width="0"/>
                <path
                    d="m60.09,30.48c4.8.12,9.08,3.35,9.08,8.14-.15,4.98-4.1,9-9.08,9.22-4.77.03-8.67-3.82-8.69-8.59,0-.04,0-.07,0-.11.04-4.78,3.91-8.64,8.69-8.67Z"
                    fill="#802300" stroke-width="0"/>
                <path
                    d="m60.1,30.5c4.8.12,9.08,3.33,9.08,8.13-.15,4.97-4.11,8.99-9.08,9.22-4.77.03-8.67-3.82-8.69-8.59,0-.04,0-.07,0-.11.05-4.77,3.92-8.63,8.69-8.66Z"
                    fill="#812300" stroke-width="0"/>
                <path
                    d="m60.11,30.52c4.8.11,9.08,3.32,9.08,8.12-.16,4.97-4.11,8.98-9.08,9.22-4.77.04-8.66-3.8-8.69-8.56,0-.04,0-.09,0-.13.04-4.78,3.92-8.63,8.69-8.64Z"
                    fill="#832400" stroke-width="0"/>
                <path
                    d="m60.11,30.54c4.8.11,9.09,3.31,9.09,8.1-.16,4.97-4.12,8.99-9.09,9.22-4.76.04-8.65-3.79-8.68-8.55,0-.04,0-.09,0-.13.04-4.77,3.91-8.63,8.68-8.64Z"
                    fill="#852400" stroke-width="0"/>
                <path
                    d="m60.13,30.55c4.8.12,9.09,3.31,9.09,8.1-.17,4.97-4.12,8.98-9.09,9.22-4.76.04-8.65-3.79-8.68-8.55,0-.04,0-.09,0-.13.04-4.77,3.91-8.63,8.68-8.64Z"
                    fill="#862500" stroke-width="0"/>
                <path
                    d="m60.2,30.56c4.8.12,9.09,3.29,9.09,8.09-.17,4.97-4.12,8.98-9.09,9.22-4.75.04-8.64-3.77-8.68-8.52,0-.05,0-.11,0-.16.04-4.77,3.91-8.61,8.68-8.63Z"
                    fill="#882500" stroke-width="0"/>
                <path
                    d="m60.2,30.58c4.8.12,9.1,3.29,9.1,8.09-.18,4.97-4.13,8.98-9.1,9.22-4.76.04-8.65-3.79-8.68-8.55,0-.04,0-.09,0-.13.06-4.76,3.92-8.6,8.68-8.63Z"
                    fill="#8a2600" stroke-width="0"/>
                <path
                    d="m60.2,30.59c4.8.12,9.1,3.28,9.1,8.08-.15,4.99-4.11,9.04-9.1,9.29-4.76.04-8.65-3.79-8.68-8.55,0-.04,0-.09,0-.13.03-4.78,3.9-8.65,8.68-8.68Z"
                    fill="#8b2600" stroke-width="0"/>
                <path
                    d="m60.2,30.6c4.8.13,9.1,3.28,9.1,8.06-.14,5-4.11,9.05-9.1,9.3-4.76.04-8.65-3.79-8.68-8.55,0-.04,0-.09,0-.13.03-4.78,3.9-8.65,8.68-8.68Z"
                    fill="#8d2600" stroke-width="0"/>
                <path
                    d="m60.2,30.62c4.78.13,9.1,3.27,9.1,8.06-.15,5-4.11,9.04-9.1,9.3-4.75.04-8.64-3.77-8.68-8.52,0-.05,0-.11,0-.16.02-4.79,3.9-8.66,8.68-8.68Z"
                    fill="#8f2700" stroke-width="0"/>
                <path
                    d="m60.2,30.63c4.8.13,9.12,3.27,9.12,8.05-.15,5-4.12,9.06-9.12,9.31-4.75.04-8.63-3.79-8.67-8.54,0-.05,0-.1,0-.15.02-4.78,3.89-8.65,8.67-8.68Z"
                    fill="#912700" stroke-width="0"/>
                <path
                    d="m60.2,30.64c4.78.13,9.12,3.25,9.12,8.05-.16,5-4.12,9.04-9.12,9.3-4.76.04-8.64-3.79-8.68-8.55,0-.04,0-.08,0-.12.03-4.78,3.9-8.65,8.68-8.68Z"
                    fill="#922800" stroke-width="0"/>
                <path
                    d="m60.2,30.67c4.78.12,9.12,3.24,9.12,8.02-.16,5-4.12,9.05-9.12,9.31-4.76.04-8.64-3.79-8.68-8.55,0-.04,0-.08,0-.12.03-4.78,3.9-8.65,8.68-8.67Z"
                    fill="#942800" stroke-width="0"/>
                <path
                    d="m60.2,30.68c4.8.13,9.13,3.23,9.13,8.02-.16,5-4.13,9.05-9.13,9.31-4.75.04-8.63-3.79-8.67-8.54,0-.04,0-.09,0-.13.03-4.78,3.89-8.64,8.67-8.67Z"
                    fill="#962900" stroke-width="0"/>
                <path
                    d="m60.2,30.69c4.78.13,9.13,3.23,9.13,8.01-.16,5.01-4.13,9.06-9.13,9.33-4.75.04-8.63-3.79-8.67-8.54,0-.04,0-.09,0-.13.03-4.78,3.89-8.64,8.67-8.67Z"
                    fill="#972900" stroke-width="0"/>
                <path
                    d="m60.2,30.71c4.78.13,9.13,3.21,9.13,8-.16,5.01-4.13,9.06-9.13,9.34-4.74.04-8.62-3.77-8.67-8.51,0-.05,0-.11,0-.16.03-4.78,3.89-8.64,8.67-8.67Z"
                    fill="#992a00" stroke-width="0"/>
                <path
                    d="m60.2,30.72c4.78.13,9.13,3.2,9.13,8-.17,5.01-4.13,9.06-9.13,9.34-4.74.04-8.62-3.77-8.67-8.51,0-.05,0-.11,0-.16.03-4.78,3.89-8.64,8.67-8.67Z"
                    fill="#9b2a00" stroke-width="0"/>
                <path
                    d="m60.2,30.73c4.78.14,9.14,3.2,9.14,7.98-.16,5.02-4.13,9.08-9.14,9.35-4.75.04-8.63-3.79-8.67-8.54,0-.04,0-.09,0-.13.03-4.78,3.89-8.64,8.67-8.67Z"
                    fill="#9c2b00" stroke-width="0"/>
                <path
                    d="m60.2,30.75c4.78.14,9.14,3.19,9.14,7.98-.17,5.01-4.14,9.06-9.14,9.34-4.74.04-8.62-3.77-8.67-8.51,0-.05,0-.1,0-.15.03-4.78,3.89-8.64,8.67-8.67Z"
                    fill="#9e2b00" stroke-width="0"/>
                <path
                    d="m60.27,30.76c4.78.14,9.14,3.19,9.14,7.97-.17,5.01-4.13,9.07-9.14,9.35-4.74.04-8.62-3.77-8.67-8.51,0-.05,0-.1,0-.15.03-4.78,3.89-8.64,8.67-8.67Z"
                    fill="#a02c00" stroke-width="0"/>
                <path
                    d="m60.27,30.77c4.78.14,9.22,3.17,9.22,7.97-.18,5.04-4.19,9.1-9.22,9.35-4.74.04-8.61-3.76-8.66-8.5,0-.05,0-.11,0-.16.02-4.77,3.88-8.64,8.66-8.67Z"
                    fill="#a22c00" stroke-width="0"/>
                <path
                    d="m60.28,30.79c4.78.14,9.16,3.17,9.16,7.9-.18,5.02-4.14,9.08-9.16,9.37-4.74.04-8.61-3.76-8.66-8.5,0-.05,0-.11,0-.16.05-4.75,3.9-8.59,8.66-8.62Z"
                    fill="#a32d00" stroke-width="0"/>
                <path
                    d="m60.3,30.81c4.78.14,9.22,3.15,9.22,7.9-.18,5.04-4.18,9.12-9.22,9.38-4.74.04-8.61-3.76-8.66-8.5,0-.05,0-.11,0-.16.04-4.76,3.89-8.61,8.66-8.63Z"
                    fill="#a52d00" stroke-width="0"/>
                <path
                    d="m60.31,30.83c4.77.14,9.22,3.15,9.22,7.9-.18,5.04-4.18,9.11-9.22,9.38-4.75.04-8.63-3.79-8.67-8.54,0-.04,0-.08,0-.12.04-4.76,3.91-8.61,8.67-8.63Z"
                    fill="#a72d00" stroke-width="0"/>
                <path
                    d="m60.31,30.84c4.78.14,9.22,3.14,9.22,7.9-.18,5.04-4.18,9.12-9.22,9.39-4.74.04-8.61-3.76-8.66-8.5,0-.05,0-.11,0-.16.03-4.77,3.89-8.62,8.66-8.64Z"
                    fill="#a82e00" stroke-width="0"/>
                <path
                    d="m60.32,30.85c4.78.14,9.22,3.14,9.22,7.9-.19,5.04-4.19,9.1-9.22,9.38-4.73.05-8.6-3.74-8.66-8.47,0-.06,0-.11,0-.17.03-4.77,3.89-8.62,8.66-8.64Z"
                    fill="#aa2e00" stroke-width="0"/>
                <path
                    d="m60.34,30.87c4.77.14,9.22,3.12,9.22,7.9-.19,5.04-4.18,9.11-9.22,9.39-4.73.05-8.6-3.74-8.66-8.47,0-.06,0-.11,0-.17.02-4.77,3.88-8.63,8.66-8.66Z"
                    fill="#ac2f00" stroke-width="0"/>
                <path
                    d="m60.34,30.88c4.78.16,9.22,3.12,9.22,7.9-.19,5.04-4.18,9.12-9.22,9.41-4.73.04-8.6-3.75-8.64-8.48,0-.05,0-.11,0-.16.01-4.77,3.87-8.64,8.64-8.67Z"
                    fill="#ad2f00" stroke-width="0"/>
                <path
                    d="m60.35,30.89c4.77.16,9.22,3.11,9.22,7.9-.19,5.04-4.19,9.11-9.22,9.41-4.72.05-8.59-3.73-8.64-8.46,0-.06,0-.12,0-.19.01-4.77,3.87-8.64,8.64-8.67Z"
                    fill="#af3000" stroke-width="0"/>
                <path
                    d="m60.36,30.91c4.77.16,9.22,3.11,9.22,7.9-.19,5.05-4.18,9.12-9.22,9.42-4.73.05-8.6-3.74-8.66-8.47,0-.06,0-.11,0-.17.02-4.78,3.88-8.65,8.66-8.68Z"
                    fill="#b13000" stroke-width="0"/>
                <path
                    d="m60.38,30.92c4.77.16,9.22,3.1,9.22,7.9s-4.41,9.42-9.22,9.42c-4.73.05-8.6-3.74-8.66-8.47,0-.06,0-.11,0-.17.02-4.78,3.88-8.65,8.66-8.68Z"
                    fill="#b33100" stroke-width="0"/>
                <path
                    d="m60.38,30.95c4.77.16,9.22,3.08,9.22,7.9-.19,5.05-4.18,9.12-9.22,9.43-4.73.04-8.6-3.75-8.64-8.48,0-.05,0-.11,0-.16,0-4.78,3.86-8.67,8.64-8.69Z"
                    fill="#b43100" stroke-width="0"/>
                <path
                    d="m60.39,30.96c4.77.16,9.22,3.07,9.22,7.9s-4.43,9.43-9.22,9.43c-4.72.05-8.59-3.73-8.64-8.46,0-.06,0-.12,0-.19,0-4.78,3.86-8.67,8.64-8.69Z"
                    fill="#b63200" stroke-width="0"/>
                <path
                    d="m60.4,30.97c4.77.16,9.22,3.07,9.22,7.9s-4.43,9.43-9.22,9.43c-4.71.06-8.58-3.72-8.64-8.43,0-.07,0-.13,0-.2-.01-4.79,3.85-8.69,8.64-8.71Z"
                    fill="#b83200" stroke-width="0"/>
                <path
                    d="m60.4,30.98c4.77.16,9.22,3.06,9.22,7.83s-4.43,9.45-9.22,9.45c-4.71.05-8.58-3.73-8.63-8.44,0-.06,0-.12,0-.19.02-4.76,3.87-8.61,8.63-8.64Z"
                    fill="#b93300" stroke-width="0"/>
                <path
                    d="m69.62,38.82c0,4.77-4.44,9.45-9.22,9.45-4.72.05-8.59-3.74-8.64-8.46,0-.06,0-.11,0-.17.04-4.76,3.88-8.61,8.64-8.64,4.78.22,9.22,3.06,9.22,7.83Z"
                    fill="#b30" stroke-width="0"/>
                <path
                    d="m60.43,31.01c4.77.16,9.22,3.06,9.22,7.83s-4.45,9.51-9.22,9.51c-4.72.05-8.59-3.73-8.64-8.46,0-.06,0-.12,0-.19,0-4.78,3.86-8.67,8.64-8.69Z"
                    fill="#bc3502" isolation="isolate" opacity=".99" stroke-width="0"/>
                <path
                    d="m60.43,31.02c4.77.16,9.22,3.07,9.22,7.84s-4.45,9.49-9.22,9.49c-4.72.04-8.59-3.75-8.63-8.47,0-.06,0-.11,0-.17,0-4.77,3.85-8.65,8.63-8.68Z"
                    fill="#bc3705" isolation="isolate" opacity=".98" stroke-width="0"/>
                <path
                    d="m60.44,31.02c4.77.17,9.22,3.08,9.22,7.9s-4.45,9.42-9.22,9.42c-4.72.05-8.59-3.73-8.64-8.46,0-.06,0-.12,0-.19.01-4.77,3.87-8.65,8.64-8.68Z"
                    fill="#bd3907" isolation="isolate" opacity=".97" stroke-width="0"/>
                <path
                    d="m60.44,31.04c4.77.16,9.22,3.08,9.22,7.9-.19,5.04-4.18,9.12-9.22,9.42-4.71.05-8.58-3.73-8.63-8.44,0-.06,0-.12,0-.19,0-4.78,3.85-8.66,8.63-8.69Z"
                    fill="#bd3a09" isolation="isolate" opacity=".96" stroke-width="0"/>
                <path
                    d="m60.45,31.05c4.77.16,9.22,3.1,9.22,7.9-.19,5.04-4.19,9.11-9.22,9.41-4.72.05-8.59-3.74-8.64-8.46,0-.06,0-.11,0-.17.01-4.77,3.87-8.65,8.64-8.68Z"
                    fill="#be3c0c" isolation="isolate" opacity=".95" stroke-width="0"/>
                <path
                    d="m60.45,31.06c4.77.16,9.22,3.1,9.22,7.9-.19,5.04-4.19,9.11-9.22,9.41-4.71.05-8.58-3.73-8.63-8.44,0-.06,0-.12,0-.19,0-4.77,3.86-8.65,8.63-8.68Z"
                    fill="#bf3e0e" isolation="isolate" opacity=".95" stroke-width="0"/>
                <path
                    d="m60.47,31.08c4.77.16,9.22,3.11,9.22,7.9-.19,5.04-4.18,9.11-9.22,9.39-4.73.04-8.6-3.75-8.64-8.48,0-.05,0-.11,0-.16.02-4.77,3.88-8.63,8.64-8.66Z"
                    fill="#bf4010" isolation="isolate" opacity=".94" stroke-width="0"/>
                <path
                    d="m60.48,31.09c4.76.14,9.16,3.11,9.16,7.9-.21,5-4.16,9.04-9.16,9.35-4.73.04-8.6-3.75-8.64-8.48,0-.05,0-.11,0-.16.04-4.75,3.89-8.59,8.64-8.62Z"
                    fill="#c04213" isolation="isolate" opacity=".93" stroke-width="0"/>
                <path
                    d="m60.48,31.09c4.77.16,9.22,3.12,9.22,7.9-.19,5.04-4.18,9.11-9.22,9.39-4.72.04-8.59-3.75-8.63-8.47,0-.06,0-.11,0-.17.01-4.76,3.87-8.63,8.63-8.66Z"
                    fill="#c14415" isolation="isolate" opacity=".92" stroke-width="0"/>
                <path
                    d="m60.49,31.1c4.77.16,9.22,3.14,9.22,7.9-.19,5.04-4.19,9.1-9.22,9.38-4.73.04-8.6-3.75-8.64-8.48,0-.05,0-.11,0-.16.02-4.76,3.88-8.62,8.64-8.64Z"
                    fill="#c14617" isolation="isolate" opacity=".91" stroke-width="0"/>
                <path
                    d="m60.49,31.12c4.77.14,9.22,3.14,9.22,7.9-.19,5.04-4.19,9.1-9.22,9.37-4.71.05-8.58-3.73-8.63-8.44,0-.06,0-.12,0-.19.02-4.76,3.87-8.61,8.63-8.64Z"
                    fill="#c24719" isolation="isolate" opacity=".9" stroke-width="0"/>
                <path
                    d="m60.51,31.13c4.77.14,9.14,3.15,9.14,7.9-.2,4.99-4.15,9.02-9.14,9.31-4.72.05-8.59-3.74-8.64-8.46,0-.06,0-.11,0-.17.05-4.74,3.9-8.57,8.64-8.59Z"
                    fill="#c2491c" isolation="isolate" opacity=".89" stroke-width="0"/>
                <path
                    d="m60.51,31.14c4.77.14,9.14,3.15,9.14,7.9-.18,5.01-4.14,9.06-9.14,9.35-4.72.04-8.59-3.75-8.63-8.47,0-.06,0-.11,0-.17.04-4.75,3.88-8.59,8.63-8.62Z"
                    fill="#c34b1e" isolation="isolate" opacity=".88" stroke-width="0"/>
                <path
                    d="m60.52,31.22c4.77.14,9.13,3.15,9.13,7.9-.17,5.01-4.13,9.06-9.13,9.35-4.74.04-8.61-3.77-8.64-8.51,0-.04,0-.09,0-.13.04-4.75,3.89-8.59,8.64-8.62Z"
                    fill="#c44d20" isolation="isolate" opacity=".87" stroke-width="0"/>
                <path
                    d="m60.53,31.22c4.76.13,9.13,3.16,9.13,7.9-.18,5-4.13,9.05-9.13,9.34-4.72.05-8.59-3.73-8.64-8.46,0-.06,0-.12,0-.19.04-4.75,3.89-8.58,8.64-8.6Z"
                    fill="#c44f23" isolation="isolate" opacity=".86" stroke-width="0"/>
                <path
                    d="m60.53,31.22c4.77.14,9.13,3.17,9.13,7.9-.18,5-4.13,9.05-9.13,9.34-4.74.04-8.61-3.77-8.64-8.51,0-.04,0-.09,0-.13.06-4.74,3.9-8.57,8.64-8.6Z"
                    fill="#c55125" isolation="isolate" opacity=".85" stroke-width="0"/>
                <path
                    d="m60.55,31.22c4.77.14,9.12,3.19,9.12,7.9-.17,5-4.12,9.04-9.12,9.31-4.73.04-8.6-3.75-8.64-8.48,0-.05,0-.1,0-.15.06-4.74,3.9-8.56,8.64-8.59Z"
                    fill="#c65327" isolation="isolate" opacity=".85" stroke-width="0"/>
                <path
                    d="m60.55,31.22c4.77.14,9.12,3.19,9.12,7.9-.17,5-4.12,9.04-9.12,9.31-4.71.05-8.58-3.73-8.63-8.44,0-.06,0-.12,0-.19.05-4.74,3.89-8.56,8.63-8.59Z"
                    fill="#c6542a" isolation="isolate" opacity=".84" stroke-width="0"/>
                <path
                    d="m60.56,31.22c4.77.13,9.1,3.19,9.1,7.9-.16,4.99-4.11,9.04-9.1,9.31-4.74.04-8.61-3.77-8.64-8.51,0-.04,0-.09,0-.13.06-4.74,3.9-8.55,8.64-8.58Z"
                    fill="#c7562c" isolation="isolate" opacity=".83" stroke-width="0"/>
                <path
                    d="m60.56,31.22c4.77.13,9.1,3.2,9.1,7.9-.16,4.99-4.12,9.03-9.1,9.3-4.73.04-8.59-3.77-8.63-8.5,0-.05,0-.1,0-.15.06-4.73,3.9-8.54,8.63-8.56Z"
                    fill="#c7582e" isolation="isolate" opacity=".82" stroke-width="0"/>
                <path
                    d="m60.57,31.22c4.77.13,9.1,3.2,9.1,7.97-.16,4.99-4.12,9.03-9.1,9.3-4.74.04-8.61-3.77-8.64-8.51,0-.04,0-.09,0-.13.03-4.76,3.88-8.61,8.64-8.63Z"
                    fill="#c85a31" isolation="isolate" opacity=".81" stroke-width="0"/>
                <path
                    d="m60.57,31.22c4.77.13,9.1,3.23,9.1,8-.16,4.99-4.12,9.02-9.1,9.29-4.73.04-8.59-3.77-8.63-8.5,0-.05,0-.1,0-.15.02-4.76,3.87-8.61,8.63-8.64Z"
                    fill="#c95c33" isolation="isolate" opacity=".8" stroke-width="0"/>
                <path
                    d="m60.59,31.22c4.77.13,9.09,3.23,9.09,8-.19,4.96-4.13,8.96-9.09,9.22-4.73.04-8.6-3.75-8.64-8.48,0-.05,0-.1,0-.15.06-4.74,3.9-8.56,8.64-8.59Z"
                    fill="#c95e35" isolation="isolate" opacity=".79" stroke-width="0"/>
                <path
                    d="m60.6,31.22c4.76.13,9.08,3.23,9.08,8-.18,4.96-4.12,8.97-9.08,9.22-4.72.05-8.59-3.74-8.64-8.46,0-.06,0-.11,0-.17.05-4.74,3.9-8.57,8.64-8.59Z"
                    fill="#ca6038" isolation="isolate" opacity=".78" stroke-width="0"/>
                <path
                    d="m60.6,31.22c4.77.13,9.08,3.24,9.08,8.01-.18,4.96-4.12,8.97-9.08,9.22-4.74.04-8.61-3.77-8.64-8.51,0-.04,0-.09,0-.13.05-4.74,3.9-8.57,8.64-8.59Z"
                    fill="#ca613a" isolation="isolate" opacity=".77" stroke-width="0"/>
                <path
                    d="m60.61,31.29c4.77.12,9.06,3.24,9.06,8.01-.17,4.96-4.11,8.96-9.06,9.22-4.74.04-8.61-3.77-8.64-8.51,0-.04,0-.09,0-.13.05-4.74,3.9-8.57,8.64-8.59Z"
                    fill="#cb633c" isolation="isolate" opacity=".76" stroke-width="0"/>
                <path
                    d="m60.61,31.3c4.77.12,9.08,3.25,9.08,8.02-.17,4.96-4.12,8.97-9.08,9.22-4.73.04-8.59-3.77-8.63-8.5,0-.05,0-.1,0-.15.04-4.75,3.88-8.58,8.63-8.6Z"
                    fill="#cc653f" isolation="isolate" opacity=".75" stroke-width="0"/>
                <path
                    d="m60.63,31.3c4.77.13,9.06,3.27,9.06,8.04-.16,4.96-4.1,8.97-9.06,9.22-4.74.04-8.61-3.77-8.64-8.51,0-.04,0-.09,0-.13.04-4.75,3.89-8.59,8.64-8.62Z"
                    fill="#cc6741" isolation="isolate" opacity=".75" stroke-width="0"/>
                <path
                    d="m60.63,31.31c4.77.12,9.06,3.27,9.06,8.04-.15,4.97-4.1,8.98-9.06,9.22-4.73.04-8.59-3.77-8.63-8.5,0-.04,0-.09,0-.13.03-4.75,3.88-8.6,8.63-8.63Z"
                    fill="#cd6943" isolation="isolate" opacity=".74" stroke-width="0"/>
                <path
                    d="m60.64,31.33c4.77.12,9.05,3.28,9.05,8.05-.15,4.97-4.09,8.98-9.05,9.22-4.73.04-8.6-3.75-8.64-8.48,0-.05,0-.1,0-.15.02-4.76,3.88-8.62,8.64-8.64Z"
                    fill="#ce6b46" isolation="isolate" opacity=".73" stroke-width="0"/>
                <path
                    d="m60.64,31.34c4.77.12,9.05,3.28,9.05,8.05-.15,4.97-4.09,8.98-9.05,9.22-4.73.04-8.59-3.77-8.63-8.5,0-.04,0-.09,0-.13.01-4.76,3.87-8.62,8.63-8.64Z"
                    fill="#ce6c48" isolation="isolate" opacity=".72" stroke-width="0"/>
                <path
                    d="m60.65,31.35c4.77.12,9.04,3.29,9.04,8.06-.14,4.96-4.08,8.98-9.04,9.22-4.77.19-8.79-3.53-8.97-8.3-.19-4.77,3.53-8.79,8.3-8.97.22,0,.45,0,.67,0h0Z"
                    fill="#cf6e4a" isolation="isolate" opacity=".71" stroke-width="0"/>
                <path
                    d="m60.67,31.37c4.77.11,9.04,3.29,9.04,8.06-.14,4.96-4.08,8.98-9.04,9.22-4.74.04-8.61-3.77-8.64-8.51,0-.04,0-.09,0-.13.01-4.77,3.88-8.63,8.64-8.64Z"
                    fill="#cf704c" isolation="isolate" opacity=".7" stroke-width="0"/>
                <path
                    d="m60.67,31.37c4.77.12,9.04,3.31,9.04,8.08-.13,4.97-4.07,8.99-9.04,9.22-4.73.04-8.59-3.77-8.63-8.5,0-.05,0-.1,0-.15,0-4.77,3.86-8.63,8.63-8.66Z"
                    fill="#d0724f" isolation="isolate" opacity=".69" stroke-width="0"/>
                <path
                    d="m60.68,31.38c4.77.12,9.02,3.32,9.02,8.09-.13,4.96-4.06,8.99-9.02,9.22-4.74.03-8.61-3.79-8.64-8.54,0-.04,0-.07,0-.11,0-4.77,3.87-8.65,8.64-8.67Z"
                    fill="#d17451" isolation="isolate" opacity=".68" stroke-width="0"/>
                <path
                    d="m60.68,31.39c4.77.12,9.02,3.32,9.02,8.09-.12,4.97-4.06,8.99-9.02,9.22-4.73.04-8.59-3.77-8.63-8.5,0-.04,0-.09,0-.13,0-4.78,3.85-8.66,8.63-8.68Z"
                    fill="#d17653" isolation="isolate" opacity=".67" stroke-width="0"/>
                <path
                    d="m60.69,31.41c4.77.11,9.01,3.33,9.01,8.1-.11,4.97-4.05,9-9.01,9.22-4.74.04-8.61-3.77-8.64-8.51,0-.04,0-.08,0-.12,0-4.78,3.86-8.67,8.64-8.69Z"
                    fill="#d27856" isolation="isolate" opacity=".66" stroke-width="0"/>
                <path
                    d="m60.69,31.42c4.77.11,9.01,3.33,9.01,8.1-.11,4.97-4.05,9-9.01,9.22-4.74.03-8.6-3.79-8.63-8.52,0-.04,0-.08,0-.12,0-4.78,3.85-8.66,8.63-8.68Z"
                    fill="#d27958" isolation="isolate" opacity=".65" stroke-width="0"/>
                <path
                    d="m60.7,31.43c4.77.11,9.01,3.33,9.01,8.1-.1,4.97-4.04,9.01-9.01,9.22-4.74.03-8.61-3.79-8.64-8.54,0-.04,0-.07,0-.11,0-4.78,3.86-8.66,8.64-8.68Z"
                    fill="#d37b5a" isolation="isolate" opacity=".65" stroke-width="0"/>
                <path
                    d="m60.7,31.43c4.77.11,9.01,3.36,9.01,8.13-.09,4.97-4.04,9.01-9.01,9.22-4.74.03-8.6-3.79-8.63-8.52,0-.04,0-.08,0-.12-.01-4.78,3.84-8.68,8.63-8.71Z"
                    fill="#d47d5d" isolation="isolate" opacity=".64" stroke-width="0"/>
                <path
                    d="m60.72,31.45c4.77.11,9,3.36,9,8.13-.13,4.94-4.06,8.94-9,9.16-4.75.02-8.62-3.81-8.64-8.56,0-.03,0-.05,0-.08.03-4.76,3.88-8.61,8.64-8.64Z"
                    fill="#d47f5f" isolation="isolate" opacity=".63" stroke-width="0"/>
                <path
                    d="m60.73,31.46c4.77.11,8.98,3.37,8.98,8.14-.13,4.93-4.05,8.92-8.98,9.13-4.74.04-8.61-3.77-8.64-8.51,0-.04,0-.08,0-.12.01-4.77,3.88-8.63,8.64-8.64Z"
                    fill="#d58161" isolation="isolate" opacity=".62" stroke-width="0"/>
                <path
                    d="m60.73,31.47c4.77.11,8.98,3.37,8.98,8.14-.13,4.93-4.05,8.92-8.98,9.13-4.73.04-8.59-3.77-8.63-8.5,0-.04,0-.09,0-.13,0-4.76,3.86-8.63,8.63-8.64Z"
                    fill="#d68364" isolation="isolate" opacity=".61" stroke-width="0"/>
                <path
                    d="m60.74,31.49c4.77.09,8.97,3.37,8.97,8.14-.11,4.93-4.04,8.93-8.97,9.13-4.77.19-8.79-3.53-8.97-8.3-.19-4.77,3.53-8.79,8.3-8.97.22,0,.45,0,.67,0Z"
                    fill="#d68566" isolation="isolate" opacity=".6" stroke-width="0"/>
                <path
                    d="m60.74,31.5c4.77.09,8.98,3.39,8.98,8.15-.13,4.93-4.06,8.92-8.98,9.12-4.77-.19-8.48-4.2-8.3-8.97.18-4.51,3.79-8.12,8.3-8.3Z"
                    fill="#d78668" isolation="isolate" opacity=".59" stroke-width="0"/>
                <path
                    d="m60.76,31.51c4.77.09,8.97,3.39,8.97,8.15-.12,4.93-4.05,8.92-8.97,9.12-4.77.19-8.79-3.53-8.97-8.3-.19-4.77,3.53-8.79,8.3-8.97.22,0,.45,0,.67,0Z"
                    fill="#d7886b" isolation="isolate" opacity=".58" stroke-width="0"/>
                <path
                    d="m60.76,31.51c4.77.11,8.97,3.41,8.97,8.18-.11,4.93-4.05,8.92-8.97,9.1-4.74.03-8.6-3.79-8.63-8.52,0-.04,0-.08,0-.12.02-4.76,3.87-8.61,8.63-8.64Z"
                    fill="#d88a6d" isolation="isolate" opacity=".57" stroke-width="0"/>
                <path
                    d="m60.77,31.52c4.77.09,8.96,3.41,8.96,8.18-.11,4.92-4.04,8.9-8.96,9.09-4.74.03-8.61-3.79-8.64-8.54,0-.03,0-.06,0-.09.02-4.76,3.88-8.62,8.64-8.64Z"
                    fill="#d98c6f" isolation="isolate" opacity=".56" stroke-width="0"/>
                <path
                    d="m60.78,31.54c4.77.09,8.95,3.41,8.95,8.18-.1,4.92-4.03,8.91-8.95,9.09-4.77.19-8.79-3.53-8.97-8.3-.19-4.77,3.53-8.79,8.3-8.97.22,0,.45,0,.67,0Z"
                    fill="#d98e72" isolation="isolate" opacity=".55" stroke-width="0"/>
                <path
                    d="m60.78,31.55c4.77.09,8.95,3.43,8.95,8.19-.11,4.92-4.03,8.9-8.95,9.08-4.77.19-8.79-3.53-8.97-8.3-.19-4.77,3.53-8.79,8.3-8.97.22,0,.45,0,.67,0Z"
                    fill="#da9074" isolation="isolate" opacity=".55" stroke-width="0"/>
                <path
                    d="m60.8,31.56c4.77.08,8.93,3.43,8.93,8.19-.07,4.93-4.01,8.92-8.93,9.08-4.77.19-8.79-3.53-8.97-8.3-.19-4.77,3.53-8.79,8.3-8.97.22,0,.45,0,.67,0Z"
                    fill="#db9276" isolation="isolate" opacity=".54" stroke-width="0"/>
                <path
                    d="m60.8,31.58c4.77.08,8.95,3.44,8.95,8.21-.08,4.93-4.02,8.92-8.95,9.06-4.77-.19-8.48-4.2-8.3-8.97.18-4.51,3.79-8.12,8.3-8.3Z"
                    fill="#db9379" isolation="isolate" opacity=".53" stroke-width="0"/>
                <path
                    d="m60.81,31.58c4.77.09,8.93,3.45,8.93,8.22-.08,4.92-4.01,8.91-8.93,9.06-4.77,0-8.64-3.87-8.64-8.65,0-4.77,3.87-8.64,8.64-8.64Z"
                    fill="#dc957b" isolation="isolate" opacity=".52" stroke-width="0"/>
                <path
                    d="m60.81,31.59c4.77.09,8.93,3.45,8.93,8.22-.09,4.92-4.02,8.9-8.93,9.05-4.77-.19-8.48-4.2-8.3-8.97.18-4.51,3.79-8.12,8.3-8.3Z"
                    fill="#dc977d" isolation="isolate" opacity=".51" stroke-width="0"/>
                <path
                    d="m60.82,31.6c4.77.08,8.92,3.46,8.92,8.23-.1,4.91-4.02,8.88-8.92,9.04-4.77.19-8.79-3.53-8.97-8.3-.19-4.77,3.53-8.79,8.3-8.97.22,0,.45,0,.67,0Z"
                    fill="#dd9980" isolation="isolate" opacity=".5" stroke-width="0"/>
                <path
                    d="m60.82,31.62c4.77.08,8.92,3.46,8.92,8.23-.1,4.91-4.02,8.88-8.92,9.04-4.77-.19-8.48-4.2-8.3-8.97.18-4.51,3.79-8.12,8.3-8.3Z"
                    fill="#de9b82" isolation="isolate" opacity=".49" stroke-width="0"/>
                <path
                    d="m60.84,31.63c4.77.08,8.91,3.48,8.91,8.25-.1,4.9-4.01,8.86-8.91,9.02-4.77.19-8.79-3.53-8.97-8.3-.19-4.77,3.53-8.79,8.3-8.97.22,0,.45,0,.67,0Z"
                    fill="#de9d84" isolation="isolate" opacity=".48" stroke-width="0"/>
                <path
                    d="m60.85,31.64c4.77.08,8.91,3.48,8.91,8.25-.1,4.9-4.01,8.86-8.91,9.02-4.77.19-8.79-3.53-8.97-8.3-.19-4.77,3.53-8.79,8.3-8.97.22,0,.45,0,.67,0Z"
                    fill="#df9f86" isolation="isolate" opacity=".47" stroke-width="0"/>
                <path
                    d="m60.85,31.64c4.77.08,8.91,3.49,8.91,8.26-.1,4.9-4.01,8.86-8.91,9.02-4.77,0-8.64-3.87-8.64-8.65,0-4.77,3.87-8.64,8.64-8.64Z"
                    fill="#dfa089" isolation="isolate" opacity=".46" stroke-width="0"/>
                <path
                    d="m60.86,31.66c4.77.08,8.89,3.5,8.89,8.27-.12,4.88-4.01,8.82-8.89,9-4.77.19-8.79-3.53-8.97-8.3-.19-4.77,3.53-8.79,8.3-8.97.22,0,.45,0,.67,0Z"
                    fill="#e0a28b" isolation="isolate" opacity=".45" stroke-width="0"/>
                <path
                    d="m60.86,31.67c4.77.08,8.89,3.5,8.89,8.27-.12,4.88-4.01,8.82-8.89,9-4.77-.19-8.48-4.2-8.3-8.97.18-4.51,3.79-8.12,8.3-8.3Z"
                    fill="#e1a48d" isolation="isolate" opacity=".45" stroke-width="0"/>
                <path
                    d="m60.88,31.68c4.77,0,8.88,3.52,8.88,8.29-.12,4.87-4.01,8.81-8.88,8.98-4.77.19-8.79-3.53-8.97-8.3-.19-4.77,3.53-8.79,8.3-8.97.22,0,.45,0,.67,0Z"
                    fill="#e1a690" isolation="isolate" opacity=".44" stroke-width="0"/>
                <path
                    d="m60.88,31.7c4.77.07,8.88,3.52,8.88,8.29-.12,4.87-4.01,8.81-8.88,8.98-4.77-.19-8.48-4.2-8.3-8.97.18-4.51,3.79-8.12,8.3-8.3Z"
                    fill="#e2a892" isolation="isolate" opacity=".43" stroke-width="0"/>
                <path
                    d="m60.89,31.71c4.77.07,8.88,3.52,8.88,8.29-.08,4.89-3.99,8.84-8.88,8.98-4.77.19-8.79-3.53-8.97-8.3-.19-4.77,3.53-8.79,8.3-8.97.22,0,.45,0,.67,0Z"
                    fill="#e3aa94" isolation="isolate" opacity=".42" stroke-width="0"/>
                <path
                    d="m60.89,31.71c4.77.08,8.88,3.54,8.88,8.31-.08,4.88-4,8.84-8.88,8.97-4.77,0-8.64-3.87-8.64-8.65,0-4.77,3.87-8.64,8.64-8.64Z"
                    fill="#e3ac97" isolation="isolate" opacity=".41" stroke-width="0"/>
                <path
                    d="m60.9,31.72c4.74-.14,8.7,3.57,8.87,8.31-.08,4.88-3.99,8.83-8.87,8.97-4.77,0-8.64-3.87-8.64-8.65,0-4.77,3.87-8.64,8.64-8.64Z"
                    fill="#e4ad99" isolation="isolate" opacity=".4" stroke-width="0"/>
                <path
                    d="m60.92,31.74c4.74-.13,8.7,3.59,8.85,8.33-.08,4.87-3.98,8.82-8.85,8.95-4.77.19-8.79-3.53-8.97-8.3-.19-4.77,3.53-8.79,8.3-8.97.22,0,.45,0,.67,0Z"
                    fill="#e4af9b" isolation="isolate" opacity=".39" stroke-width="0"/>
                <path
                    d="m60.92,31.75c4.74-.13,8.7,3.59,8.85,8.33-.08,4.87-3.98,8.82-8.85,8.95-4.77-.19-8.48-4.2-8.3-8.97.18-4.51,3.79-8.12,8.3-8.3Z"
                    fill="#e5b19e" isolation="isolate" opacity=".38" stroke-width="0"/>
                <path
                    d="m60.93,31.76c4.74-.14,8.7,3.59,8.84,8.33-.07,4.87-3.97,8.82-8.84,8.95-4.77.19-8.79-3.53-8.97-8.3-.19-4.77,3.53-8.79,8.3-8.97.22,0,.45,0,.67,0Z"
                    fill="#e6b3a0" isolation="isolate" opacity=".37" stroke-width="0"/>
                <path
                    d="m60.93,31.78c4.74-.13,8.7,3.6,8.85,8.34-.08,4.87-3.98,8.81-8.85,8.93-4.77-.19-8.48-4.2-8.3-8.97.18-4.51,3.79-8.12,8.3-8.3Z"
                    fill="#e6b5a2" isolation="isolate" opacity=".36" stroke-width="0"/>
                <path
                    d="m60.94,31.79c4.74-.13,8.7,3.6,8.84,8.34-.07,4.87-3.97,8.81-8.84,8.93-4.77.19-8.79-3.53-8.97-8.3-.19-4.77,3.53-8.79,8.3-8.97.22,0,.45,0,.67,0Z"
                    fill="#e7b7a5" isolation="isolate" opacity=".35" stroke-width="0"/>
                <path
                    d="m60.94,31.79c4.75-.12,8.7,3.62,8.84,8.37-.08,4.86-3.98,8.8-8.84,8.92-4.77,0-8.64-3.87-8.64-8.65,0-4.77,3.87-8.64,8.64-8.64Z"
                    fill="#e8b9a7" isolation="isolate" opacity=".35" stroke-width="0"/>
                <path
                    d="m60.96,31.8c4.74-.12,8.69,3.62,8.83,8.37-.07,4.86-3.97,8.79-8.83,8.91-4.77.19-8.79-3.53-8.97-8.3-.19-4.77,3.53-8.79,8.3-8.97.22,0,.45,0,.67,0Z"
                    fill="#e8baa9" isolation="isolate" opacity=".34" stroke-width="0"/>
                <path
                    d="m60.97,31.81c4.74-.12,8.68,3.62,8.81,8.37-.06,4.86-3.95,8.8-8.81,8.91-4.77.19-8.79-3.53-8.97-8.3-.19-4.77,3.53-8.79,8.3-8.97.22,0,.45,0,.67,0Z"
                    fill="#e9bcac" isolation="isolate" opacity=".33" stroke-width="0"/>
                <path
                    d="m60.97,31.83c4.75-.12,8.69,3.63,8.81,8.38-.06,4.85-3.96,8.79-8.81,8.89-4.77.19-8.79-3.53-8.97-8.3-.19-4.77,3.53-8.79,8.3-8.97.22,0,.45,0,.67,0Z"
                    fill="#e9beae" isolation="isolate" opacity=".32" stroke-width="0"/>
                <path
                    d="m60.98,31.84c4.75-.12,8.69,3.63,8.81,8.38-.06,4.85-3.96,8.79-8.81,8.89-4.77.19-8.79-3.53-8.97-8.3-.19-4.77,3.53-8.79,8.3-8.97.22,0,.45,0,.67,0Z"
                    fill="#eac0b0" isolation="isolate" opacity=".31" stroke-width="0"/>
                <path
                    d="m60.98,31.85c4.75-.11,8.69,3.64,8.81,8.39-.06,4.85-3.96,8.78-8.81,8.88-4.77-.19-8.48-4.2-8.3-8.97.18-4.51,3.79-8.12,8.3-8.3Z"
                    fill="#ebc2b3" isolation="isolate" opacity=".3" stroke-width="0"/>
                <path
                    d="m60.99,31.85c4.75-.1,8.69,3.66,8.8,8.4-.06,4.85-3.95,8.78-8.8,8.88-4.77,0-8.64-3.87-8.64-8.65,0-4.77,3.87-8.64,8.64-8.64Z"
                    fill="#ebc4b5" isolation="isolate" opacity=".29" stroke-width="0"/>
                <path
                    d="m60.99,31.87c4.75-.1,8.69,3.66,8.8,8.4-.06,4.85-3.95,8.77-8.8,8.87-4.77-.19-8.48-4.2-8.3-8.97.18-4.51,3.79-8.12,8.3-8.3Z"
                    fill="#ecc6b7" isolation="isolate" opacity=".28" stroke-width="0"/>
                <path
                    d="m61.01,31.88c4.75-.1,8.68,3.67,8.79,8.42-.06,4.84-3.95,8.76-8.79,8.85-4.77.19-8.79-3.53-8.97-8.3-.19-4.77,3.53-8.79,8.3-8.97.22,0,.45,0,.67,0Z"
                    fill="#ecc7b9" isolation="isolate" opacity=".27" stroke-width="0"/>
                <path
                    d="m61.01,31.89c4.75-.1,8.68,3.67,8.79,8.42-.05,4.84-3.94,8.77-8.79,8.85-4.77-.19-8.48-4.2-8.3-8.97.18-4.51,3.79-8.12,8.3-8.3Z"
                    fill="#edc9bc" isolation="isolate" opacity=".26" stroke-width="0"/>
                <path
                    d="m61.02,31.91c4.75-.1,8.69,3.68,8.79,8.43-.06,4.84-3.95,8.75-8.79,8.84-4.77.19-8.79-3.53-8.97-8.3-.19-4.77,3.53-8.79,8.3-8.97.22,0,.45,0,.67,0Z"
                    fill="#eecbbe" isolation="isolate" opacity=".25" stroke-width="0"/>
                <path
                    d="m61.03,31.92c4.75-.1,8.68,3.68,8.77,8.43,0,0,0,0,0,0-.05,4.84-3.94,8.75-8.77,8.84-4.77.19-8.79-3.53-8.97-8.3-.19-4.77,3.53-8.79,8.3-8.97.22,0,.45,0,.67,0Z"
                    fill="#eecdc0" isolation="isolate" opacity=".25" stroke-width="0"/>
                <path
                    d="m61.03,31.92c4.75-.09,8.68,3.69,8.77,8.44-.04,4.84-3.94,8.76-8.77,8.84-4.77,0-8.64-3.87-8.64-8.65,0-4.77,3.87-8.64,8.64-8.64Z"
                    fill="#efcfc3" isolation="isolate" opacity=".24" stroke-width="0"/>
                <path
                    d="m61.05,31.93c4.76-.08,8.68,3.71,8.76,8.47,0,.01,0,.03,0,.04-.04,4.83-3.93,8.74-8.76,8.81-4.77.19-8.79-3.53-8.97-8.3-.19-4.77,3.53-8.79,8.3-8.97.22,0,.45,0,.67,0v-.05Z"
                    fill="#f0d1c5" isolation="isolate" opacity=".23" stroke-width="0"/>
                <path
                    d="m61.05,31.95c4.76-.08,8.68,3.71,8.76,8.47,0,0,0,.02,0,.03-.04,4.83-3.93,8.74-8.76,8.81-4.77-.19-8.48-4.2-8.3-8.97.18-4.51,3.79-8.12,8.3-8.3v-.04Z"
                    fill="#f0d2c7" isolation="isolate" opacity=".22" stroke-width="0"/>
                <path
                    d="m61.06,31.96c4.76-.07,8.67,3.72,8.75,8.48,0,0,0,0,0,0-.04,4.82-3.93,8.73-8.75,8.8-4.77.19-8.79-3.53-8.97-8.3-.19-4.77,3.53-8.79,8.3-8.97.22,0,.45,0,.67,0h0Z"
                    fill="#f1d4ca" isolation="isolate" opacity=".21" stroke-width="0"/>
                <path
                    d="m61.06,31.97c4.76-.08,8.68,3.71,8.76,8.47,0,0,0,0,0,0-.04,4.83-3.93,8.74-8.76,8.8-4.77-.19-8.48-4.2-8.3-8.97.18-4.51,3.79-8.12,8.3-8.3Z"
                    fill="#f1d6cc" isolation="isolate" opacity=".2" stroke-width="0"/>
                <path
                    d="m61.07,31.99c4.75-.07,8.66,3.71,8.75,8.46-.04,4.82-3.92,8.74-8.75,8.8-4.77.19-8.79-3.53-8.97-8.3-.19-4.77,3.53-8.79,8.3-8.97.22,0,.45,0,.67,0h0Z"
                    fill="#f2d8ce" isolation="isolate" opacity=".19" stroke-width="0"/>
                <path
                    d="m61.07,31.99c4.75-.07,8.65,3.71,8.75,8.46-.04,4.82-3.92,8.73-8.75,8.79-4.77,0-8.64-3.87-8.64-8.65,0-4.77,3.87-8.64,8.64-8.64v.04Z"
                    fill="#f3dad1" isolation="isolate" opacity=".18" stroke-width="0"/>
                <path
                    d="m61.09,32c4.74-.07,8.64,3.71,8.73,8.44-.04,4.82-3.92,8.72-8.73,8.77-4.77.19-8.79-3.53-8.97-8.3-.19-4.77,3.53-8.79,8.3-8.97.22,0,.45,0,.67,0v.05Z"
                    fill="#f3dcd3" isolation="isolate" opacity=".17" stroke-width="0"/>
                <path
                    d="m61.1,32.01c4.76-.06,8.66,3.75,8.72,8.51,0,0,0,0,0,0-.03,4.81-3.91,8.71-8.72,8.76-4.77.19-8.79-3.53-8.97-8.3-.19-4.77,3.53-8.79,8.3-8.97.22,0,.45,0,.67,0Z"
                    fill="#f4ded5" isolation="isolate" opacity=".16" stroke-width="0"/>
                <path
                    d="m61.1,32.03c4.76-.06,8.66,3.75,8.72,8.51,0,0,0,0,0,0-.03,4.81-3.91,8.71-8.72,8.76-4.77-.19-8.48-4.2-8.3-8.97.18-4.51,3.79-8.12,8.3-8.3Z"
                    fill="#f4dfd8" isolation="isolate" opacity=".15" stroke-width="0"/>
                <path
                    d="m61.11,32.04c4.76-.06,8.66,3.75,8.72,8.51,0,0,0,0,0,0-.03,4.81-3.91,8.71-8.72,8.76-4.77.19-8.79-3.53-8.97-8.3-.19-4.77,3.53-8.79,8.3-8.97.22,0,.45,0,.67,0Z"
                    fill="#f5e1da" isolation="isolate" opacity=".15" stroke-width="0"/>
                <path
                    d="m61.11,32.05c4.76-.05,8.66,3.76,8.72,8.52-.03,4.81-3.91,8.7-8.72,8.75-4.77-.19-8.48-4.2-8.3-8.97.18-4.51,3.79-8.12,8.3-8.3Z"
                    fill="#f6e3dc" isolation="isolate" opacity=".14" stroke-width="0"/>
                <path
                    d="m61.13,32.05c4.76-.04,8.66,3.78,8.71,8.54-.03,4.8-3.9,8.7-8.71,8.75-4.77,0-8.64-3.87-8.64-8.65,0-4.77,3.87-8.64,8.64-8.64Z"
                    fill="#f6e5df" isolation="isolate" opacity=".13" stroke-width="0"/>
                <path
                    d="m61.13,32.06c4.76-.04,8.66,3.79,8.71,8.55-.03,4.8-3.91,8.69-8.71,8.73-4.77,0-8.64-3.87-8.64-8.65,0-4.77,3.87-8.64,8.64-8.64Z"
                    fill="#f7e7e1" isolation="isolate" opacity=".12" stroke-width="0"/>
                <path
                    d="m61.14,32.08c4.76-.04,8.65,3.79,8.69,8.55-.02,4.8-3.9,8.69-8.69,8.72-4.77.19-8.79-3.53-8.97-8.3-.19-4.77,3.53-8.79,8.3-8.97.22,0,.45,0,.67,0Z"
                    fill="#f8e9e3" isolation="isolate" opacity=".11" stroke-width="0"/>
                <path
                    d="m61.15,32.09c4.76-.04,8.65,3.79,8.68,8.55,0,0,0,0,0,0,0,4.8-3.88,8.69-8.68,8.72-4.77.19-8.79-3.53-8.97-8.3-.19-4.77,3.53-8.79,8.3-8.97.22,0,.45,0,.67,0Z"
                    fill="#f8ebe6" isolation="isolate" opacity=".1" stroke-width="0"/>
                <path
                    d="m61.15,32.1c4.77-.04,8.66,3.8,8.69,8.56,0,0,0,0,0,0-.02,4.8-3.9,8.68-8.69,8.71-4.77.19-8.79-3.53-8.97-8.3-.19-4.77,3.53-8.79,8.3-8.97.22,0,.45,0,.67,0Z"
                    fill="#f9ece8" isolation="isolate" opacity=".09" stroke-width="0"/>
                <path
                    d="m61.17,32.12c4.76-.04,8.64,3.79,8.68,8.55,0,0,0,0,0,.01-.01,4.79-3.89,8.68-8.68,8.71-4.77.19-8.79-3.53-8.97-8.3-.19-4.77,3.53-8.79,8.3-8.97.22,0,.45,0,.67,0Z"
                    fill="#f9eeea" isolation="isolate" opacity=".08" stroke-width="0"/>
                <path
                    d="m61.17,32.13c4.77-.03,8.65,3.81,8.68,8.58h0c-.01,4.79-3.89,8.67-8.68,8.7-4.77-.19-8.48-4.2-8.3-8.97.18-4.51,3.79-8.12,8.3-8.3Z"
                    fill="#faf0ec" isolation="isolate" opacity=".07" stroke-width="0"/>
                <path
                    d="m61.18,32.13c4.77,0,8.64,3.87,8.64,8.64s-3.87,8.64-8.64,8.64-8.64-3.87-8.64-8.64c0-4.77,3.85-8.63,8.62-8.64,0,0,.02,0,.03,0Z"
                    fill="#fbf2ef" isolation="isolate" opacity=".06" stroke-width="0"/>
                <path
                    d="m61.18,32.14c4.77,0,8.65,3.86,8.66,8.63,0,4.77-3.86,8.65-8.63,8.66-4.77,0-8.65-3.86-8.66-8.63,0,0,0,0,0-.01,0-4.77,3.85-8.63,8.62-8.64,0,0,0,0,.01,0Z"
                    fill="#fbf4f1" isolation="isolate" opacity=".05" stroke-width="0"/>
                <path
                    d="m61.19,32.16c4.77,0,8.64,3.87,8.64,8.64s-3.87,8.64-8.64,8.64-8.64-3.87-8.64-8.64c0-4.77,3.85-8.63,8.62-8.64,0,0,.02,0,.03,0Z"
                    fill="#fcf6f3" isolation="isolate" opacity=".05" stroke-width="0"/>
                <path
                    d="m61.19,32.17c4.77,0,8.65,3.86,8.66,8.63,0,4.77-3.86,8.65-8.63,8.66-4.77,0-8.65-3.86-8.66-8.63,0,0,0-.02,0-.03,0-4.77,3.86-8.63,8.63-8.63Z"
                    fill="#fdf8f6" isolation="isolate" opacity=".04" stroke-width="0"/>
                <path
                    d="m61.21,32.18c4.77,0,8.64,3.87,8.64,8.64,0,4.77-3.87,8.64-8.64,8.64-4.77,0-8.64-3.87-8.64-8.64,0,0,0,0,0-.01,0-4.77,3.87-8.63,8.64-8.63Z"
                    fill="#fdf9f8" isolation="isolate" opacity=".03" stroke-width="0"/>
                <path
                    d="m61.22,32.2c4.77,0,8.64,3.87,8.64,8.64,0,4.77-3.87,8.64-8.64,8.64-4.77,0-8.64-3.87-8.64-8.64,0,0,0,0,0-.01,0-4.77,3.86-8.63,8.63-8.63,0,0,0,0,.01,0Z"
                    fill="#fefbfa" isolation="isolate" opacity=".02" stroke-width="0"/>
                <path
                    d="m61.22,32.2c4.77,0,8.65,3.86,8.66,8.63,0,4.77-3.86,8.65-8.63,8.66-4.77,0-8.65-3.86-8.66-8.63,0,0,0,0,0-.01,0-4.77,3.86-8.63,8.63-8.64Z"
                    fill="#fefdfd" isolation="isolate" opacity="0" stroke-width="0"/>
                <path
                    d="m69.86,40.85c0,4.77-3.87,8.64-8.64,8.64s-8.64-3.87-8.64-8.64c0-4.77,3.87-8.64,8.64-8.64,0,0,0,0,.01,0,4.77,0,8.63,3.86,8.63,8.63,0,0,0,0,0,.01Z"
                    fill="rgba(255,255,255,0)" stroke-width="0"/>
            </g>
        </g>
        <g clip-path="url(#f)">
            <g clip-path="url(#g)">
                <rect x="-11.15" y="-32.81" width="142.37" height="142.37"
                      transform="translate(-11.14 35.16) rotate(-30)" fill="#e04e15" stroke-width="0"/>
                <rect x="-9.65" y="-30.25" width="142.37" height="142.37"
                      transform="translate(-12.22 36.25) rotate(-30)" fill="#e04f15" stroke-width="0"/>
                <rect x="-8.17" y="-27.73" width="142.86" height="142.86"
                      transform="translate(-13.36 37.33) rotate(-29.89)" fill="#e15015" stroke-width="0"/>
                <rect x="-6.7" y="-25.12" width="142.37" height="142.37" transform="translate(-14.39 38.41) rotate(-30)"
                      fill="#e15115" stroke-width="0"/>
                <rect x="-5.19" y="-22.6" width="142.86" height="142.86"
                      transform="translate(-15.52 39.5) rotate(-29.89)" fill="#e25215" stroke-width="0"/>
                <rect x="-3.74" y="-19.98" width="142.37" height="142.37"
                      transform="translate(-16.57 40.58) rotate(-30)" fill="#e25316" stroke-width="0"/>
                <rect x="-2.25" y="-17.41" width="142.37" height="142.37"
                      transform="translate(-17.65 41.67) rotate(-30)" fill="#e35416" stroke-width="0"/>
                <rect x="-.76" y="-14.85" width="142.37" height="142.37" transform="translate(-18.73 42.76) rotate(-30)"
                      fill="#e35516" stroke-width="0"/>
                <rect x=".76" y="-12.27" width="142.86" height="142.86"
                      transform="translate(-19.88 43.84) rotate(-29.89)" fill="#e35616" stroke-width="0"/>
                <rect x="2.2" y="-9.72" width="142.37" height="142.37" transform="translate(-20.9 44.92) rotate(-30)"
                      fill="#e45716" stroke-width="0"/>
                <rect x="3.68" y="-7.16" width="142.37" height="142.37" transform="translate(-21.98 46.01) rotate(-30)"
                      fill="#e45716" stroke-width="0"/>
                <rect x="5.23" y="-4.55" width="142.86" height="142.86"
                      transform="translate(-23.13 47.09) rotate(-29.89)" fill="#e55816" stroke-width="0"/>
                <rect x="6.64" y="-2.02" width="142.37" height="142.37" transform="translate(-24.16 48.18) rotate(-30)"
                      fill="#e55916" stroke-width="0"/>
                <rect x="8.13" y=".55" width="142.37" height="142.37" transform="translate(-25.24 49.27) rotate(-30)"
                      fill="#e55a16" stroke-width="0"/>
                <rect x="9.69" y="3.19" width="142.86" height="142.86"
                      transform="translate(-26.39 50.34) rotate(-29.89)" fill="#e65b16" stroke-width="0"/>
                <rect x="11.19" y="5.76" width="142.86" height="142.86"
                      transform="translate(-27.47 51.43) rotate(-29.89)" fill="#e65c17" stroke-width="0"/>
                <rect x="12.67" y="8.34" width="142.86" height="142.86"
                      transform="translate(-28.56 52.51) rotate(-29.89)" fill="#e75d17" stroke-width="0"/>
                <rect x="14.05" y="10.82" width="142.37" height="142.37" transform="translate(-29.58 53.6) rotate(-30)"
                      fill="#e75e17" stroke-width="0"/>
                <rect x="15.53" y="13.38" width="142.37" height="142.37" transform="translate(-30.67 54.69) rotate(-30)"
                      fill="#e85f17" stroke-width="0"/>
                <rect x="17.03" y="15.96" width="142.37" height="142.37" transform="translate(-31.75 55.78) rotate(-30)"
                      fill="#e86017" stroke-width="0"/>
                <rect x="17.59" y="16.94" width="142.37" height="142.37" transform="translate(-32.17 56.19) rotate(-30)"
                      fill="#e86117" stroke-width="0"/>
                <rect x="18.17" y="17.94" width="142.37" height="142.37" transform="translate(-32.59 56.62) rotate(-30)"
                      fill="#e96217" stroke-width="0"/>
                <rect x="18.73" y="18.93" width="142.37" height="142.37" transform="translate(-33.01 57.03) rotate(-30)"
                      fill="#e96317" stroke-width="0"/>
                <rect x="19.31" y="19.92" width="142.37" height="142.37" transform="translate(-33.43 57.45) rotate(-30)"
                      fill="#e96418" stroke-width="0"/>
                <rect x="20.01" y="21.06" width="142.86" height="142.86"
                      transform="translate(-33.92 57.86) rotate(-29.89)" fill="#e96518" stroke-width="0"/>
                <rect x="20.45" y="21.92" width="142.37" height="142.37" transform="translate(-34.27 58.29) rotate(-30)"
                      fill="#ea6618" stroke-width="0"/>
                <rect x="21.03" y="22.89" width="142.37" height="142.37" transform="translate(-34.68 58.71) rotate(-30)"
                      fill="#ea6718" stroke-width="0"/>
                <rect x="21.59" y="23.89" width="142.37" height="142.37" transform="translate(-35.11 59.12) rotate(-30)"
                      fill="#ea6818" stroke-width="0"/>
                <rect x="22.17" y="24.88" width="142.37" height="142.37" transform="translate(-35.53 59.55) rotate(-30)"
                      fill="#ea6918" stroke-width="0"/>
                <rect x="22.73" y="25.88" width="142.37" height="142.37" transform="translate(-35.95 59.96) rotate(-30)"
                      fill="#eb6a18" stroke-width="0"/>
                <rect x="23.31" y="26.87" width="142.37" height="142.37" transform="translate(-36.37 60.38) rotate(-30)"
                      fill="#eb6b19" stroke-width="0"/>
                <rect x="23.89" y="27.87" width="142.37" height="142.37" transform="translate(-36.79 60.81) rotate(-30)"
                      fill="#eb6c19" stroke-width="0"/>
                <rect x="24.61" y="29.01" width="142.86" height="142.86"
                      transform="translate(-37.27 61.21) rotate(-29.89)" fill="#eb6d19" stroke-width="0"/>
                <rect x="25.03" y="29.84" width="142.37" height="142.37" transform="translate(-37.62 61.64) rotate(-30)"
                      fill="#ec6e19" stroke-width="0"/>
                <rect x="25.76" y="31.01" width="142.86" height="142.86"
                      transform="translate(-38.12 62.05) rotate(-29.89)" fill="#ec6f19" stroke-width="0"/>
                <rect x="26.17" y="31.83" width="142.37" height="142.37" transform="translate(-38.46 62.48) rotate(-30)"
                      fill="#ec7019" stroke-width="0"/>
                <rect x="26.75" y="32.82" width="142.37" height="142.37" transform="translate(-38.88 62.9) rotate(-30)"
                      fill="#ec7119" stroke-width="0"/>
                <rect x="27.32" y="33.82" width="142.37" height="142.37" transform="translate(-39.31 63.32) rotate(-30)"
                      fill="#ed7219" stroke-width="0"/>
                <rect x="27.91" y="34.8" width="142.37" height="142.37" transform="translate(-39.72 63.74) rotate(-30)"
                      fill="#ed731a" stroke-width="0"/>
                <rect x="28.47" y="35.79" width="142.37" height="142.37" transform="translate(-40.14 64.16) rotate(-30)"
                      fill="#ed741a" stroke-width="0"/>
                <rect x="29.05" y="36.79" width="142.37" height="142.37" transform="translate(-40.56 64.58) rotate(-30)"
                      fill="#ed751a" stroke-width="0"/>
                <rect x="29.61" y="37.79" width="142.37" height="142.37" transform="translate(-40.98 65) rotate(-30)"
                      fill="#ee761a" stroke-width="0"/>
                <rect x="30.19" y="38.77" width="142.37" height="142.37" transform="translate(-41.4 65.42) rotate(-30)"
                      fill="#ee771a" stroke-width="0"/>
                <rect x="30.93" y="39.99" width="142.86" height="142.86"
                      transform="translate(-41.9 65.82) rotate(-29.89)" fill="#ee781a" stroke-width="0"/>
                <rect x="31.34" y="40.75" width="142.37" height="142.37" transform="translate(-42.23 66.26) rotate(-30)"
                      fill="#ef791a" stroke-width="0"/>
                <rect x="31.91" y="41.75" width="142.37" height="142.37" transform="translate(-42.65 66.68) rotate(-30)"
                      fill="#ef7a1b" stroke-width="0"/>
                <rect x="32.49" y="42.75" width="142.37" height="142.37" transform="translate(-43.08 67.1) rotate(-30)"
                      fill="#ef7b1b" stroke-width="0"/>
                <rect x="33.23" y="43.96" width="142.86" height="142.86"
                      transform="translate(-43.58 67.5) rotate(-29.89)" fill="#ef7c1b" stroke-width="0"/>
                <rect x="33.81" y="44.95" width="142.86" height="142.86" transform="translate(-44 67.92) rotate(-29.89)"
                      fill="#f07d1b" stroke-width="0"/>
                <rect x="34.38" y="45.96" width="142.86" height="142.86"
                      transform="translate(-44.42 68.34) rotate(-29.89)" fill="#f07e1b" stroke-width="0"/>
                <rect x="34.78" y="46.72" width="142.37" height="142.37" transform="translate(-44.76 68.78) rotate(-30)"
                      fill="#f07f1b" stroke-width="0"/>
                <rect x="35.54" y="47.94" width="142.86" height="142.86"
                      transform="translate(-45.26 69.17) rotate(-29.89)" fill="#f0801b" stroke-width="0"/>
                <rect x="36.12" y="48.94" width="142.86" height="142.86"
                      transform="translate(-45.68 69.6) rotate(-29.89)" fill="#f1801c" stroke-width="0"/>
                <rect x="36.49" y="49.69" width="142.37" height="142.37" transform="translate(-46.01 70.03) rotate(-30)"
                      fill="#f1811c" stroke-width="0"/>
                <rect x="37.06" y="50.68" width="142.37" height="142.37" transform="translate(-46.43 70.45) rotate(-30)"
                      fill="#f1821c" stroke-width="0"/>
                <rect x="37.63" y="51.69" width="142.37" height="142.37" transform="translate(-46.86 70.87) rotate(-30)"
                      fill="#f1831c" stroke-width="0"/>
                <rect x="38.22" y="52.67" width="142.37" height="142.37" transform="translate(-47.27 71.3) rotate(-30)"
                      fill="#f2841c" stroke-width="0"/>
                <rect x="38.78" y="53.65" width="142.37" height="142.37" transform="translate(-47.69 71.71) rotate(-30)"
                      fill="#f2851c" stroke-width="0"/>
                <rect x="39.37" y="54.65" width="142.37" height="142.37" transform="translate(-48.11 72.13) rotate(-30)"
                      fill="#f2861c" stroke-width="0"/>
                <rect x="39.93" y="55.65" width="142.37" height="142.37" transform="translate(-48.53 72.55) rotate(-30)"
                      fill="#f2871d" stroke-width="0"/>
                <rect x="40.5" y="56.63" width="142.37" height="142.37" transform="translate(-48.95 72.97) rotate(-30)"
                      fill="#f3881d" stroke-width="0"/>
                <rect x="41.07" y="57.63" width="142.37" height="142.37" transform="translate(-49.37 73.38) rotate(-30)"
                      fill="#f3891d" stroke-width="0"/>
                <rect x="41.66" y="58.63" width="142.37" height="142.37" transform="translate(-49.79 73.81) rotate(-30)"
                      fill="#f38a1d" stroke-width="0"/>
                <rect x="42.22" y="59.61" width="142.37" height="142.37" transform="translate(-50.2 74.23) rotate(-30)"
                      fill="#f48b1d" stroke-width="0"/>
                <rect x="43.02" y="60.89" width="142.86" height="142.86"
                      transform="translate(-50.71 74.62) rotate(-29.89)" fill="#f48c1d" stroke-width="0"/>
                <rect x="43.59" y="61.9" width="142.86" height="142.86"
                      transform="translate(-51.14 75.04) rotate(-29.89)" fill="#f48d1d" stroke-width="0"/>
                <rect x="44.17" y="62.89" width="142.86" height="142.86"
                      transform="translate(-51.56 75.46) rotate(-29.89)" fill="#f48e1e" stroke-width="0"/>
                <rect x="44.51" y="63.58" width="142.37" height="142.37" transform="translate(-51.88 75.9) rotate(-30)"
                      fill="#f58f1e" stroke-width="0"/>
                <rect x="45.09" y="64.59" width="142.37" height="142.37" transform="translate(-52.31 76.33) rotate(-30)"
                      fill="#f5901e" stroke-width="0"/>
                <rect x="45.66" y="65.56" width="142.37" height="142.37" transform="translate(-52.72 76.74) rotate(-30)"
                      fill="#f5911e" stroke-width="0"/>
                <rect x="46.46" y="66.87" width="142.86" height="142.86"
                      transform="translate(-53.24 77.13) rotate(-29.89)" fill="#f5921e" stroke-width="0"/>
                <rect x="47.04" y="67.87" width="142.86" height="142.86"
                      transform="translate(-53.66 77.56) rotate(-29.89)" fill="#f6931e" stroke-width="0"/>
                <rect x="47.37" y="68.55" width="142.37" height="142.37" transform="translate(-53.98 78) rotate(-30)"
                      fill="#f6941e" stroke-width="0"/>
                <rect x="47.94" y="69.54" width="142.37" height="142.37" transform="translate(-54.4 78.42) rotate(-30)"
                      fill="#f6951e" stroke-width="0"/>
                <rect x="48.53" y="70.54" width="142.37" height="142.37" transform="translate(-54.82 78.84) rotate(-30)"
                      fill="#f6961f" stroke-width="0"/>
                <rect x="49.1" y="71.52" width="142.37" height="142.37" transform="translate(-55.24 79.26) rotate(-30)"
                      fill="#f7971f" stroke-width="0"/>
                <rect x="49.66" y="72.51" width="142.37" height="142.37" transform="translate(-55.66 79.68) rotate(-30)"
                      fill="#f7981f" stroke-width="0"/>
                <rect x="50.25" y="73.51" width="142.37" height="142.37" transform="translate(-56.08 80.1) rotate(-30)"
                      fill="#f7991f" stroke-width="0"/>
                <rect x="51.06" y="74.85" width="142.86" height="142.86"
                      transform="translate(-56.6 80.49) rotate(-29.89)" fill="#f79a1f" stroke-width="0"/>
                <rect x="51.38" y="75.49" width="142.37" height="142.37" transform="translate(-56.92 80.93) rotate(-30)"
                      fill="#f89b1f" stroke-width="0"/>
                <rect x="51.97" y="76.5" width="142.37" height="142.37" transform="translate(-57.34 81.36) rotate(-30)"
                      fill="#f89c1f" stroke-width="0"/>
                <rect x="52.8" y="77.83" width="142.86" height="142.86"
                      transform="translate(-57.85 81.75) rotate(-29.89)" fill="#f89d20" stroke-width="0"/>
                <rect x="53.1" y="78.46" width="142.37" height="142.37" transform="translate(-58.17 82.19) rotate(-30)"
                      fill="#f89e20" stroke-width="0"/>
                <rect x="53.68" y="79.46" width="142.37" height="142.37" transform="translate(-58.59 82.62) rotate(-30)"
                      fill="#f99f20" stroke-width="0"/>
                <rect x="54.25" y="80.46" width="142.37" height="142.37" transform="translate(-59.02 83.03) rotate(-30)"
                      fill="#f9a020" stroke-width="0"/>
            </g>
        </g>
    </g>
</svg>
