<?xml version="1.0" encoding="UTF-8"?>
<svg id="Ebene_1" data-name="Ebene 1" xmlns="http://www.w3.org/2000/svg" width="120" height="80" viewBox="0 0 120 80">
  <rect y="0" width="120" height="80" rx="4" ry="4" style="fill: #a78fff;"/>
  <rect width="120" height="79.46" rx="8.92" ry="8.92" style="fill: #a78fff;"/>
  <path d="M29.59,39.28c0,3.07-2.26,5.44-5.02,5.44-1.5,0-2.59-.56-3.33-1.5v5.34h-2.65v-14.43h2.65v1.22c.74-.95,1.83-1.51,3.33-1.51,2.76,0,5.02,2.37,5.02,5.44Zm-2.65,0c0-1.73-1.21-2.91-2.86-2.91s-2.84,1.18-2.84,2.91,1.21,2.91,2.84,2.91,2.86-1.18,2.86-2.91Z" style="fill: #fff;"/>
  <path d="M30.51,39.26c0-3.06,2.41-5.42,5.43-5.42s5.45,2.36,5.45,5.42-2.43,5.42-5.45,5.42-5.43-2.36-5.43-5.42Zm8.23,0c0-1.66-1.21-2.83-2.8-2.83s-2.78,1.17-2.78,2.83,1.21,2.83,2.78,2.83,2.8-1.17,2.8-2.83Z" style="fill: #fff;"/>
  <path d="M42.85,34.14h2.68v10.24h-2.68v-10.24Z" style="fill: #fff;"/>
  <path d="M57.02,38.09v6.3h-2.65v-5.97c0-1.39-.84-2.11-2.04-2.11-1.3,0-2.26,.76-2.26,2.54v5.54h-2.65v-10.25h2.65v1.15c.62-.92,1.69-1.44,3.07-1.44,2.18,0,3.89,1.52,3.89,4.25Z" style="fill: #fff;"/>
  <path d="M62.36,36.65v4.26c0,1.11,.8,1.13,2.32,1.05v2.4c-3.71,.41-4.96-.68-4.96-3.45v-4.26h-1.79v-2.54h1.79v-2.07l2.65-.8v2.87h2.31v2.54h-2.32Z" style="fill: #fff;"/>
  <path d="M74.23,41.4c0,2.22-1.93,3.29-4.13,3.29-2.06,0-3.58-.86-4.32-2.44l2.3-1.29c.29,.84,.99,1.33,2.02,1.33,.84,0,1.42-.29,1.42-.88,0-1.5-5.31-.68-5.31-4.29,0-2.09,1.79-3.27,3.91-3.27,1.67,0,3.11,.76,3.91,2.18l-2.26,1.23c-.31-.66-.88-1.05-1.65-1.05-.66,0-1.19,.29-1.19,.84,0,1.52,5.31,.58,5.31,4.36Z" style="fill: #fff;"/>
  <path d="M86.27,39.28c0,3.07-2.26,5.44-5.02,5.44-1.5,0-2.59-.56-3.33-1.5v5.34h-2.65v-14.43h2.65v1.22c.74-.95,1.83-1.51,3.33-1.51,2.76,0,5.02,2.37,5.02,5.44Zm-2.65,0c0-1.73-1.21-2.91-2.86-2.91s-2.84,1.18-2.84,2.91,1.21,2.91,2.84,2.91,2.86-1.18,2.86-2.91Z" style="fill: #fff;"/>
  <path d="M98.19,34.13v10.27h-2.65v-1.21c-.74,.92-1.85,1.5-3.35,1.5-2.74,0-5-2.36-5-5.42s2.26-5.42,5-5.42c1.5,0,2.61,.58,3.35,1.5v-1.21h2.65Zm-2.65,5.13c0-1.73-1.21-2.9-2.86-2.9s-2.84,1.17-2.84,2.9,1.21,2.9,2.84,2.9,2.86-1.17,2.86-2.9Z" style="fill: #fff;"/>
  <path d="M109.8,34.14l-3.75,10.29c-1.07,2.96-2.82,4.26-5.43,4.12v-2.47c1.46,.02,2.2-.6,2.7-1.98l-4.22-9.96h2.9l2.68,6.91,2.28-6.91h2.84Z" style="fill: #fff;"/>
  <path d="M15.91,39.29c0-1.73-1.22-2.91-2.87-2.91s-2.85,1.18-2.85,2.91,1.22,2.91,2.85,2.91,2.87-1.18,2.87-2.91Z" style="fill: #fff;"/>
</svg>