<?xml version="1.0" standalone="no"?>
<!DOCTYPE svg PUBLIC "-//W3C//DTD SVG 20010904//EN"
 "http://www.w3.org/TR/2001/REC-SVG-20010904/DTD/svg10.dtd">
<svg version="1.0" xmlns="http://www.w3.org/2000/svg"
 width="750.000000pt" height="400.000000pt" viewBox="0 0 750.000000 400.000000"
 preserveAspectRatio="xMidYMid meet">
<metadata>
Created by potrace 1.13, written by Peter Selinger 2001-2015
</metadata>
<g transform="translate(0.000000,400.000000) scale(0.100000,-0.100000)"
fill="#000000" stroke="none">
<path d="M2744 2618 c-89 -23 -174 -119 -189 -215 -7 -43 -7 -43 25 -43 97 0
208 129 198 231 -3 34 -4 35 -34 27z"/>
<path d="M3480 2525 c-8 -2 -45 -7 -82 -10 l-68 -7 0 -524 0 -524 45 0 45 0 0
219 0 219 118 4 c100 3 125 7 172 29 77 36 124 80 157 147 23 49 27 70 28 147
0 74 -4 98 -23 137 -31 62 -98 120 -163 141 -49 16 -197 30 -229 22z m217
-113 c79 -41 121 -130 108 -226 -18 -137 -110 -206 -275 -206 -43 0 -85 3 -94
6 -14 5 -16 35 -16 223 0 120 3 221 8 225 4 4 57 6 117 4 89 -3 118 -8 152
-26z"/>
<path d="M2315 2331 c-202 -50 -280 -307 -177 -585 31 -84 105 -199 160 -248
50 -45 96 -50 180 -18 67 25 144 25 201 0 55 -25 117 -25 158 -1 41 26 103
108 147 198 37 74 42 93 28 93 -5 0 -28 17 -52 37 -119 102 -120 291 -2 394
l36 32 -42 38 c-79 69 -184 87 -290 48 -87 -33 -104 -33 -185 -5 -77 26 -108
30 -162 17z"/>
<path d="M4100 2226 c-48 -13 -106 -41 -113 -54 -7 -10 21 -75 30 -70 113 58
201 68 264 32 42 -24 79 -94 79 -149 l0 -41 -98 -11 c-54 -7 -124 -22 -156
-34 -166 -64 -229 -256 -123 -376 43 -49 99 -73 172 -73 64 0 140 29 182 69
12 11 25 21 27 21 3 0 9 -18 12 -41 7 -40 7 -40 48 -37 30 2 40 7 37 18 -1 8
-6 143 -10 300 -6 271 -7 287 -30 333 -52 106 -181 152 -321 113z m260 -461
c0 -104 -9 -132 -57 -177 -84 -80 -217 -74 -260 12 -20 40 -16 118 8 157 36
58 142 98 267 102 l42 1 0 -95z"/>
<path d="M4545 2210 c3 -5 67 -169 141 -362 l134 -352 -29 -61 c-40 -85 -101
-158 -165 -197 -31 -18 -56 -38 -56 -45 0 -21 23 -63 34 -63 22 0 112 59 148
97 50 51 120 176 167 298 22 55 82 210 134 345 52 135 104 269 116 298 l21 52
-49 0 -49 0 -29 -77 c-17 -43 -65 -178 -109 -300 -73 -207 -93 -250 -94 -205
-1 9 -49 143 -108 297 l-108 280 -53 3 c-36 2 -51 0 -46 -8z"/>
</g>
</svg>
