<?xml version="1.0" encoding="UTF-8"?>
<svg id="Ebene_1" data-name="Ebene 1" xmlns="http://www.w3.org/2000/svg" width="120" height="80" viewBox="0 0 120 80">
  <rect y="0" width="120" height="80" rx="4" ry="4" style="fill: #fff;"/>
  <g>
    <path id="path2437" d="M59.87,40h.09c.1,0,.15-.08,.15-.2s-.08-.17-.16-.17h-.09v.37h0Zm-.27,.42v-.04c.1-.01,.12,0,.12-.07v-.59c0-.08-.01-.11-.12-.11v-.04h.41c.14,0,.27,.07,.27,.21,0,.12-.08,.21-.19,.24l.13,.18c.06,.08,.13,.16,.18,.19v.03h-.15c-.08,0-.14-.16-.29-.37h-.09v.26c0,.05,.02,.05,.12,.06v.04h-.39Zm.4,.23c.36,0,.64-.3,.64-.65s-.27-.65-.64-.65-.64,.31-.64,.65,.27,.65,.64,.65h0Zm0-1.45c.46,0,.8,.35,.8,.8s-.34,.8-.8,.8-.8-.35-.8-.8,.34-.8,.8-.8Z" style="fill: #231f20; fill-rule: evenodd;"/>
    <g>
      <path id="path2432" d="M19.75,68.65h.13c.34,0,.69-.04,.69-.53v-4.88c0-.49-.36-.53-.69-.53h-.13v-.28c.37,0,.93,.04,1.39,.04s1.03-.04,1.47-.04v.28h-.13c-.34,0-.69,.04-.69,.53v4.88c0,.49,.36,.53,.69,.53h.13v.28c-.45,0-1.01-.04-1.48-.04s-1.01,.04-1.38,.04v-.28h0Zm9.29-1.55l.02-.02v-3.49c0-.76-.53-.87-.82-.87h-.2v-.28c.44,0,.87,.04,1.31,.04,.38,0,.77-.04,1.15-.04v.28h-.14c-.39,0-.84,.07-.84,1.18v4.24c0,.33,.01,.65,.06,.94h-.36l-4.82-5.34v3.83c0,.81,.16,1.09,.88,1.09h.16v.28c-.4,0-.81-.04-1.21-.04s-.85,.04-1.27,.04v-.28h.13c.65,0,.84-.44,.84-1.18v-3.92c0-.52-.43-.84-.85-.84h-.12v-.28c.35,0,.72,.04,1.08,.04,.28,0,.56-.04,.83-.04l4.17,4.67Zm2.86-4.2c-.7,0-.73,.17-.87,.85h-.28c.04-.26,.08-.52,.11-.79,.04-.26,.06-.52,.06-.79h.22c.08,.28,.31,.27,.56,.27h4.83c.25,0,.49,0,.51-.29l.22,.04c-.03,.25-.07,.5-.1,.75-.02,.25-.02,.5-.02,.75l-.28,.1c-.02-.35-.07-.9-.69-.9h-1.54v4.95c0,.72,.33,.8,.78,.8h.18v.28c-.36,0-1.02-.04-1.53-.04-.56,0-1.22,.04-1.58,.04v-.28h.18c.52,0,.78-.04,.78-.78v-4.97h-1.54Zm5.67,5.75h.13c.34,0,.69-.04,.69-.53v-4.88c0-.49-.36-.53-.69-.53h-.13v-.28c.57,0,1.55,.04,2.33,.04s1.76-.04,2.4-.04c-.02,.4,0,1.02,.02,1.43l-.28,.07c-.04-.6-.16-1.09-1.14-1.09h-1.3v2.44h1.11c.56,0,.69-.31,.74-.82h.28c-.02,.36-.03,.72-.03,1.09s0,.71,.03,1.06l-.28,.06c-.05-.56-.08-.92-.73-.92h-1.12v2.17c0,.61,.54,.61,1.14,.61,1.13,0,1.62-.07,1.9-1.14l.26,.07c-.12,.49-.23,.98-.32,1.48-.6,0-1.68-.04-2.52-.04s-1.96,.04-2.49,.04v-.28Zm7.79-3.07h.46c.94,0,1.44-.35,1.44-1.45,0-.83-.53-1.36-1.37-1.36-.28,0-.4,.03-.53,.04v2.77Zm-1.2-2.16c0-.68-.37-.71-.67-.71h-.17v-.28c.3,0,.88,.04,1.45,.04s1.01-.04,1.51-.04c1.18,0,2.23,.32,2.23,1.64,0,.84-.56,1.35-1.3,1.64l1.6,2.38c.26,.39,.45,.5,.91,.56v.28c-.31,0-.61-.04-.92-.04-.29,0-.59,.04-.88,.04-.72-.94-1.34-1.95-1.95-3.02h-.62v1.99c0,.72,.34,.74,.77,.74h.17v.28c-.54,0-1.08-.04-1.61-.04-.45,0-.89,.04-1.36,.04v-.28h.17c.34,0,.67-.16,.67-.5v-4.73Zm11.92,3.68l.02-.02v-3.49c0-.76-.53-.87-.81-.87h-.21v-.28c.44,0,.87,.04,1.31,.04,.39,0,.77-.04,1.15-.04v.28h-.14c-.39,0-.84,.07-.84,1.18v4.24c0,.33,0,.65,.05,.94h-.35l-4.82-5.34v3.83c0,.81,.16,1.09,.88,1.09h.16v.28c-.4,0-.81-.04-1.21-.04s-.85,.04-1.27,.04v-.28h.13c.65,0,.84-.44,.84-1.18v-3.92c0-.52-.43-.84-.85-.84h-.12v-.28c.35,0,.72,.04,1.08,.04,.28,0,.55-.04,.83-.04l4.17,4.67Zm4.34-3.62h-.02l-.87,2.63h1.75l-.86-2.63Zm-1.37,4.12c-.1,.32-.21,.56-.21,.72,0,.28,.4,.33,.7,.33h.1v.28c-.38-.02-.76-.04-1.14-.04-.34,0-.67,.02-1.01,.04v-.28h.05c.37,0,.68-.21,.81-.6l1.5-4.27c.12-.35,.29-.81,.35-1.16,.3-.1,.67-.29,.85-.4,.03,0,.04-.02,.08-.02,.03,0,.04,0,.07,.03,.03,.07,.06,.16,.09,.23l1.72,4.87c.11,.33,.23,.67,.35,.95,.11,.26,.31,.37,.62,.37h.05v.28c-.42-.02-.84-.04-1.29-.04s-.93,.02-1.4,.04v-.28h.1c.21,0,.58-.03,.58-.27,0-.12-.08-.37-.19-.67l-.37-1.08h-2.13l-.3,.97h0Zm5.4-4.7c-.7,0-.73,.17-.87,.85h-.28c.04-.26,.09-.52,.11-.79,.04-.26,.06-.52,.06-.79h.22c.07,.28,.31,.27,.56,.27h4.83c.25,0,.48,0,.5-.29l.23,.04c-.04,.25-.07,.5-.1,.75-.02,.25-.02,.5-.02,.75l-.28,.1c-.02-.35-.06-.9-.69-.9h-1.54v4.95c0,.72,.33,.8,.78,.8h.18v.28c-.36,0-1.02-.04-1.53-.04-.56,0-1.22,.04-1.59,.04v-.28h.18c.52,0,.78-.04,.78-.78v-4.97h-1.54Zm5.71,5.75h.13c.34,0,.69-.04,.69-.53v-4.88c0-.49-.35-.53-.69-.53h-.13v-.28c.37,0,.93,.04,1.39,.04s1.03-.04,1.47-.04v.28h-.13c-.34,0-.7,.04-.7,.53v4.88c0,.49,.36,.53,.7,.53h.13v.28c-.45,0-1.01-.04-1.48-.04s-1.01,.04-1.38,.04v-.28Zm6.73,.01c1.82,0,2.13-1.59,2.13-2.95s-.74-3.01-2.29-3.01c-1.64,0-2.13,1.45-2.13,2.7,0,1.67,.77,3.26,2.28,3.26m-.14-6.37c2,0,3.59,1.23,3.59,3.21,0,2.14-1.54,3.56-3.54,3.56s-3.5-1.34-3.5-3.34,1.51-3.43,3.45-3.43m9.9,4.8l.02-.02v-3.49c0-.76-.53-.87-.82-.87h-.2v-.28c.44,0,.87,.04,1.31,.04,.39,0,.77-.04,1.15-.04v.28h-.14c-.4,0-.84,.07-.84,1.18v4.24c0,.33,.01,.65,.06,.94h-.36l-4.82-5.34v3.83c0,.81,.16,1.09,.88,1.09h.16v.28c-.4,0-.8-.04-1.21-.04s-.85,.04-1.28,.04v-.28h.13c.65,0,.84-.44,.84-1.18v-3.92c0-.52-.43-.84-.85-.84h-.12v-.28c.36,0,.72,.04,1.08,.04,.28,0,.55-.04,.83-.04l4.17,4.67h0Zm4.33-3.62h-.02l-.87,2.63h1.76l-.86-2.63Zm-1.37,4.12c-.09,.32-.21,.56-.21,.72,0,.28,.4,.33,.7,.33h.1v.28c-.38-.02-.76-.04-1.13-.04-.34,0-.68,.02-1.01,.04v-.28h.05c.37,0,.68-.21,.82-.6l1.5-4.27c.12-.35,.29-.81,.35-1.16,.3-.1,.67-.29,.85-.4,.03,0,.05-.02,.08-.02,.03,0,.04,0,.06,.03,.03,.07,.06,.16,.09,.23l1.72,4.87c.11,.33,.22,.67,.35,.95,.11,.26,.31,.37,.62,.37h.06v.28c-.42-.02-.84-.04-1.29-.04s-.93,.02-1.41,.04v-.28h.1c.21,0,.58-.03,.58-.27,0-.12-.09-.37-.19-.67l-.36-1.08h-2.13l-.3,.97Zm7.36,.42c0,.37,.26,.48,.56,.52,.38,.03,.8,.03,1.24-.02,.39-.05,.73-.27,.9-.5,.15-.21,.23-.46,.29-.67h.27c-.1,.53-.24,1.05-.35,1.58-.82,0-1.65-.04-2.47-.04s-1.65,.04-2.47,.04v-.28h.13c.34,0,.71-.04,.71-.62v-4.78c0-.49-.36-.53-.71-.53h-.13v-.28c.5,0,.98,.04,1.48,.04s.95-.04,1.43-.04v.28h-.24c-.36,0-.63,0-.63,.5v4.8Z" style="fill: #231f20; fill-rule: evenodd;"/>
      <path id="path2441" d="M81.94,45.63c-.05,0-.19,.09-.38,.19-.36,.21-1.09,.51-1.77,.74v.27c.65,.19,.91,.22,.91,1.34v9.52c0,.57-.34,.57-.83,.57h-.33v.45c.64-.02,1.26-.03,1.88-.03s1.23,.03,1.81,.03v-.45h-.29c-.48,0-.86,0-.86-.57v-11.82c0-.14-.03-.24-.14-.24h0Zm11.95,0c-.05,0-.19,.09-.38,.19-.36,.21-1.08,.51-1.77,.73v.28c.65,.19,.91,.22,.91,1.34v7.36c0,1.04-.09,2.04-.24,3.05l.36,.19,.52-.39c.45,.19,1.12,.6,2.39,.6,2.46,0,4.12-2.24,4.12-4.48,0-1.86-1.21-3.59-3.2-3.59-.95,0-1.88,.65-2.57,1.23v-6.24c0-.14-.03-.24-.14-.24Zm-19.2,.87c-3.38,0-6.52,2.52-6.52,6.02,0,3.85,2.54,6.43,6.57,6.43,1.14,0,3.08-.46,3.81-.91l.4-2.5-.4-.1c-.34,1.8-1.76,2.96-3.46,2.96-2.65,0-5.13-2.48-5.13-5.94,0-4.1,2.88-5.42,4.86-5.42s3.36,.8,3.68,2.81h.43l-.17-2.45c-1.33-.46-2.67-.91-4.06-.91Zm-40.58,.07c-.43,0-.84,.39-.84,.82s.39,.86,.84,.86,.84-.39,.84-.86-.4-.82-.84-.82Zm-14.34,.19v.44c.77,.02,1.58-.08,1.58,1.45v8.3c-.05,1.16-.55,1.2-1.58,1.3v.45c.77-.02,1.53-.03,2.31-.03s1.62,.03,2.5,.03c6.09,0,7.09-4.26,7.09-5.95,0-3.03-2.43-5.99-6.89-5.99-1.27,0-2.26,.03-2.98,.03-.67,0-1.36,0-2.03-.03Zm4.61,.55c3.32,0,5.39,2.31,5.39,5.51,0,2.55-1.22,5.34-4.94,5.34-.84,0-1.79-.15-1.79-1.47v-9.31c.31-.02,.64-.07,1.34-.07h0Zm10.3,3.58c-.09,0-.19,.02-.31,.08-.07,.05-1.03,.38-1.84,.62v.28c.64,.34,.9,.44,.9,1.19v4.63c0,.57-.34,.57-.83,.57h-.33v.45c.64-.02,1.26-.03,1.88-.03s1.22,.03,1.81,.03v-.45h-.29c-.48,0-.86,0-.86-.57v-6.57c0-.14-.03-.24-.12-.24h0Zm4.18,0c-.83,.36-1.53,.58-2.27,.82v.33c.81,.32,1,.5,1,1.13v4.53c0,.57-.34,.57-.83,.57h-.31v.45c.62-.02,1.24-.03,1.86-.03s1.23,.03,1.83,.03v-.45h-.31c-.48,0-.86,0-.86-.57v-5.06c.57-.38,1.45-.82,2-.82,.98,0,1.58,.48,1.58,1.45v4.43c0,.57-.34,.57-.83,.57h-.31v.45c.62-.02,1.24-.03,1.86-.03s1.22,.03,1.82,.03v-.45h-.31c-.48,0-.86,0-.86-.57v-4.41c0-1.34-.52-2.4-1.98-2.4-1.15,0-2,.58-2.98,1.28v-1.12c0-.14-.05-.17-.1-.17Zm9.64,0c-1.2,0-3.47,.99-3.47,4.35,0,1.09,.55,3.73,3.29,3.73,1.41,0,2.39-.89,3.19-1.93l-.24-.24c-.64,.63-1.38,1.15-2.33,1.15-1.38,0-2.43-1.33-2.53-2.96-.04-.58-.04-.84,0-.99h4.84l.16-.1c.02-.1,.02-.2,.02-.31-.02-1.81-1.52-2.68-2.91-2.68h0Zm5.81,0c-.16,0-.85,.44-2.1,.98v.25c.26,.14,.89,.24,.89,.77v4.8c0,.57-.34,.57-.82,.57h-.47v.45c.62-.02,1.34-.03,2.05-.03s1.46,.02,2.41,.03v-.45h-.97c-.48,0-.83,0-.83-.57v-4.02c0-1.03,.97-1.42,1.26-1.42,.6,0,.6,.41,1.14,.41,.48,0,.81-.41,.81-.87,0-.62-.55-.91-.98-.91-1.05,0-1.77,1.1-2.2,1.76h-.04v-1.54c0-.17-.05-.22-.15-.22h0Zm6.61,0c-1.89,0-2.67,1.23-2.67,2.19,0,2.75,3.75,2.1,3.75,4.12,0,.6-.38,1.22-1.39,1.22-1.26,0-1.94-.96-2.17-2.09l-.31,.09,.19,1.97c.6,.34,1.41,.58,2.1,.58,2.05,0,2.96-1.2,2.96-2.33,0-2.69-3.99-2.07-3.99-4.07,0-.74,.65-1.13,1.34-1.13,1.1,0,1.71,.62,1.88,1.7h.39l-.12-1.75c-.67-.34-1.41-.49-1.96-.49Zm24.53,.26c-.23,0-1.6,.1-2.22,.12v.32c.96,.08,1.03,.51,1.03,.96v4.38c0,1.44,.96,2.03,1.89,2.03,1.22,0,2.02-.6,3.05-1.44v1.38l.08,.05c.33-.1,1.74-.46,2.48-.53v-.36c-.22,0-.48,.02-.69,.02-.29,0-.48-.01-.48-.32v-6.31c0-.19,0-.31-.14-.31-.17,0-1.14,.13-2.69,.24v.31c.62,.17,1.44,.36,1.44,.7v4.61c-.72,.59-1.5,1.04-2.08,1.04-1.5,0-1.5-1.47-1.5-1.99v-4.41c0-.38,0-.49-.19-.49h0Zm-37.02,.29c.96,0,1.5,.7,1.5,1.58,0,.2-.05,.43-.48,.43h-3c.21-1.23,.93-2,1.98-2Zm47.23,.38c1.34,0,2.75,1.54,2.75,3.39,0,1.52-.77,3.32-2.62,3.32-1.16,0-1.77-1.09-1.77-1.75v-4.16c.47-.39,1-.81,1.64-.81Z" style="fill: #231f20; fill-rule: evenodd;"/>
      <path id="path2446" d="M58.64,43.47c-9.06,.04-16.51-7.25-16.51-16.13,0-9.7,7.45-16.41,16.51-16.41h4.25c8.95,0,17.12,6.7,17.12,16.41,0,8.87-8.17,16.13-17.12,16.13h-4.25Z" style="fill: #004c97; fill-rule: evenodd;"/>
      <path id="path2453" d="M58.64,43.47c-9.06,.04-16.51-7.25-16.51-16.13,0-9.7,7.45-16.41,16.51-16.41h.24c8.95,0,16.78,6.7,16.78,16.41,0,8.87-7.83,16.13-16.78,16.13h-.24Z" style="fill: #004c97; fill-rule: evenodd;"/>
      <path id="path2457" d="M58.68,12.28c-8.28,0-14.98,6.67-14.98,14.89s6.71,14.89,14.98,14.89c8.28,0,14.98-6.67,14.99-14.89,0-8.23-6.71-14.89-14.99-14.89" style="fill: #fefefe; fill-rule: evenodd;"/>
      <path id="path2459" d="M55.28,35.98V18.36c-3.56,1.36-6.09,4.79-6.1,8.81,0,4.02,2.54,7.45,6.1,8.81m12.9-8.81c0-4.02-2.54-7.45-6.1-8.81v17.62c3.57-1.36,6.09-4.79,6.1-8.81" style="fill: #004c97; fill-rule: evenodd;"/>
    </g>
  </g>
</svg>