<?xml version="1.0" encoding="UTF-8"?>
<svg xmlns="http://www.w3.org/2000/svg" width="120" height="80" xmlns:xlink="http://www.w3.org/1999/xlink" viewBox="0 0 120 80">
  <defs>
    <clipPath id="clippath">
      <path d="M116.03,.34H3.94C1.75,.34-.02,2.18-.02,4.44V75.75c0,2.26,1.77,4.09,3.95,4.09H116.03c2.18,0,3.95-1.83,3.95-4.09V4.44c0-2.26-1.77-4.09-3.95-4.09Zm-1.95,39.75c0,21.2-16.59,38.39-37.05,38.39H3.94c-1.45,0-2.63-1.22-2.63-2.73V4.44c0-1.5,1.18-2.73,2.63-2.73H77.02c20.46,0,37.05,17.19,37.05,38.39h0Z" style="fill: none;"/>
    </clipPath>
    <clipPath id="clippath-1">
      <ellipse cx="59.99" cy="40.09" rx="71.18" ry="73.74" style="fill: none;"/>
    </clipPath>
    <linearGradient id="linear-gradient" x1="64.72" y1="47.31" x2="58.74" y2="37.94" gradientUnits="userSpaceOnUse">
      <stop offset="0" stop-color="#f6a000"/>
      <stop offset=".23" stop-color="#f59b00"/>
      <stop offset=".49" stop-color="#f28d00"/>
      <stop offset=".62" stop-color="#f18400"/>
      <stop offset=".77" stop-color="#ef7902"/>
      <stop offset="1" stop-color="#ed6d05"/>
    </linearGradient>
    <linearGradient id="linear-gradient-2" x1="63.77" y1="47.18" x2="55.03" y2="30.1" gradientUnits="userSpaceOnUse">
      <stop offset="0" stop-color="#f18400" stop-opacity="0"/>
      <stop offset=".11" stop-color="#ea7b06" stop-opacity=".13"/>
      <stop offset=".31" stop-color="#e06e11" stop-opacity=".35"/>
      <stop offset=".5" stop-color="#d96319" stop-opacity=".52"/>
      <stop offset=".68" stop-color="#d35c20" stop-opacity=".64"/>
      <stop offset=".85" stop-color="#d05723" stop-opacity=".71"/>
      <stop offset=".98" stop-color="#cf5625" stop-opacity=".74"/>
    </linearGradient>
    <clipPath id="clippath-2">
      <path d="M68.93,40.39c0,4.77-3.87,8.64-8.64,8.64s-8.64-3.87-8.64-8.64,3.87-8.64,8.64-8.64,8.64,3.87,8.64,8.64Z" style="fill: none;"/>
    </clipPath>
  </defs>
  <g style="isolation: isolate;">
    <g id="Ebene_1" data-name="Ebene 1">
      <path d="M2.27,4.53V74.95c0,1.49,1.19,2.7,2.66,2.7H78.63c20.64,0,37.37-16.97,37.37-37.9h0C115.99,18.8,99.26,1.83,78.63,1.83H4.92c-1.46,0-2.66,1.21-2.66,2.7Z" style="fill: #fff;"/>
      <g style="clip-path: url(#clippath);">
        <g style="clip-path: url(#clippath-1);">
          <g>
            <polygon points="33.93 140.83 -37.25 13.1 86.04 -60.64 157.23 67.08 33.93 140.83" style="fill: #dc4b0d;"/>
            <polygon points="35.22 143.14 -35.96 15.42 87.33 -58.33 158.52 69.4 35.22 143.14" style="fill: #dd4c0c;"/>
            <polygon points="36.51 145.46 -34.67 17.73 88.62 -56.01 159.81 71.71 36.51 145.46" style="fill: #dd4c0c;"/>
            <polygon points="37.8 147.77 -33.38 20.05 89.91 -53.7 161.1 74.03 37.8 147.77" style="fill: #dd4d0c;"/>
            <polygon points="39.09 150.08 -32.09 22.36 91.2 -51.38 162.39 76.34 39.09 150.08" style="fill: #de4e0c;"/>
            <polygon points="40.38 152.4 -30.8 24.68 92.49 -49.07 163.68 78.66 40.38 152.4" style="fill: #de4f0c;"/>
            <polygon points="41.67 154.71 -29.51 26.99 93.78 -46.75 164.97 80.97 41.67 154.71" style="fill: #df500b;"/>
            <polygon points="42.96 157.03 -28.22 29.3 95.07 -44.44 166.26 83.29 42.96 157.03" style="fill: #df510b;"/>
            <polygon points="44.25 159.34 -26.93 31.62 96.36 -42.12 167.55 85.6 44.25 159.34" style="fill: #e0520b;"/>
            <polygon points="45.54 161.66 -25.64 33.93 97.65 -39.81 168.84 87.92 45.54 161.66" style="fill: #e0530b;"/>
            <polygon points="46.83 163.97 -24.35 36.25 98.94 -37.49 170.13 90.23 46.83 163.97" style="fill: #e0540b;"/>
            <polygon points="48.12 166.29 -23.06 38.56 100.23 -35.18 171.42 92.55 48.12 166.29" style="fill: #e1550a;"/>
            <polygon points="49.41 168.6 -21.77 40.88 101.52 -32.86 172.71 94.86 49.41 168.6" style="fill: #e1560a;"/>
            <polygon points="50.7 170.92 -20.48 43.19 102.81 -30.55 174 97.18 50.7 170.92" style="fill: #e2570a;"/>
            <polygon points="51.99 173.23 -19.19 45.51 104.1 -28.23 175.29 99.49 51.99 173.23" style="fill: #e2580a;"/>
            <polygon points="53.28 175.55 -17.9 47.82 105.39 -25.92 176.58 101.81 53.28 175.55" style="fill: #e3590a;"/>
            <polygon points="54.57 177.86 -16.61 50.14 106.68 -23.6 177.87 104.12 54.57 177.86" style="fill: #e35a09;"/>
            <polygon points="55.86 180.18 -15.32 52.45 107.97 -21.29 179.16 106.43 55.86 180.18" style="fill: #e35b09;"/>
            <polygon points="57.15 182.49 -14.03 54.77 109.26 -18.98 180.45 108.75 57.15 182.49" style="fill: #e45c09;"/>
            <polygon points="58.44 184.81 -12.74 57.08 110.55 -16.66 181.74 111.06 58.44 184.81" style="fill: #e45d09;"/>
            <polygon points="59.73 187.12 -11.45 59.4 111.84 -14.35 183.03 113.38 59.73 187.12" style="fill: #e55e09;"/>
            <polygon points="61.02 189.44 -10.16 61.71 113.13 -12.03 184.32 115.69 61.02 189.44" style="fill: #e55f08;"/>
            <polygon points="62.31 191.75 -8.87 64.03 114.42 -9.72 185.61 118.01 62.31 191.75" style="fill: #e66008;"/>
            <polygon points="63.6 194.06 -7.58 66.34 115.71 -7.4 186.9 120.32 63.6 194.06" style="fill: #e66108;"/>
            <polygon points="64.89 196.38 -6.29 68.65 117 -5.09 188.19 122.64 64.89 196.38" style="fill: #e66208;"/>
            <polygon points="65.44 197.36 -5.75 69.64 117.55 -4.11 188.73 123.62 65.44 197.36" style="fill: #e76308;"/>
            <polygon points="65.99 198.34 -5.2 70.62 118.1 -3.13 189.28 124.6 65.99 198.34" style="fill: #e76408;"/>
            <polygon points="66.53 199.32 -4.65 71.6 118.64 -2.14 189.83 125.58 66.53 199.32" style="fill: #e76508;"/>
            <polygon points="67.08 200.3 -4.11 72.58 119.19 -1.16 190.37 126.56 67.08 200.3" style="fill: #e76607;"/>
            <polygon points="67.62 201.28 -3.56 73.56 119.74 -.18 190.92 127.54 67.62 201.28" style="fill: #e86707;"/>
            <polygon points="68.17 202.26 -3.01 74.54 120.28 .8 191.47 128.52 68.17 202.26" style="fill: #e86807;"/>
            <polygon points="68.72 203.24 -2.47 75.52 120.83 1.78 192.01 129.5 68.72 203.24" style="fill: #e86907;"/>
            <polygon points="69.26 204.22 -1.92 76.5 121.38 2.76 192.56 130.48 69.26 204.22" style="fill: #e86a07;"/>
            <polygon points="69.81 205.21 -1.37 77.48 121.92 3.74 193.11 131.46 69.81 205.21" style="fill: #e96b07;"/>
            <polygon points="70.36 206.19 -.83 78.46 122.47 4.72 193.65 132.44 70.36 206.19" style="fill: #e96c07;"/>
            <polygon points="70.9 207.17 -.28 79.44 123.02 5.7 194.2 133.42 70.9 207.17" style="fill: #e96d07;"/>
            <polygon points="71.45 208.15 .27 80.42 123.56 6.68 194.75 134.41 71.45 208.15" style="fill: #e96e06;"/>
            <polygon points="72 209.13 .81 81.4 124.11 7.66 195.29 135.39 72 209.13" style="fill: #ea6f06;"/>
            <polygon points="72.54 210.11 1.36 82.38 124.65 8.64 195.84 136.37 72.54 210.11" style="fill: #ea7006;"/>
            <polygon points="73.09 211.09 1.91 83.36 125.2 9.62 196.39 137.35 73.09 211.09" style="fill: #ea7106;"/>
            <polygon points="73.64 212.07 2.45 84.35 125.75 10.6 196.93 138.33 73.64 212.07" style="fill: #ea7206;"/>
            <polygon points="74.18 213.05 3 85.33 126.29 11.58 197.48 139.31 74.18 213.05" style="fill: #eb7306;"/>
            <polygon points="74.73 214.03 3.55 86.31 126.84 12.57 198.03 140.29 74.73 214.03" style="fill: #eb7406;"/>
            <polygon points="75.28 215.01 4.09 87.29 127.39 13.55 198.57 141.27 75.28 215.01" style="fill: #eb7506;"/>
            <polygon points="75.82 215.99 4.64 88.27 127.93 14.53 199.12 142.25 75.82 215.99" style="fill: #eb7605;"/>
            <polygon points="76.37 216.97 5.18 89.25 128.48 15.51 199.67 143.23 76.37 216.97" style="fill: #ec7705;"/>
            <polygon points="76.92 217.95 5.73 90.23 129.03 16.49 200.21 144.21 76.92 217.95" style="fill: #ec7805;"/>
            <polygon points="77.46 218.93 6.28 91.21 129.57 17.47 200.76 145.19 77.46 218.93" style="fill: #ec7905;"/>
            <polygon points="78.01 219.92 6.82 92.19 130.12 18.45 201.31 146.17 78.01 219.92" style="fill: #ec7a05;"/>
            <polygon points="78.56 220.9 7.37 93.17 130.67 19.43 201.85 147.15 78.56 220.9" style="fill: #ed7b05;"/>
            <polygon points="79.1 221.88 7.92 94.15 131.21 20.41 202.4 148.13 79.1 221.88" style="fill: #ed7c05;"/>
            <polygon points="79.65 222.86 8.46 95.13 131.76 21.39 202.95 149.12 79.65 222.86" style="fill: #ed7d05;"/>
            <polygon points="80.2 223.84 9.01 96.11 132.31 22.37 203.49 150.1 80.2 223.84" style="fill: #ed7e04;"/>
            <polygon points="80.74 224.82 9.56 97.09 132.85 23.35 204.04 151.08 80.74 224.82" style="fill: #ee7f04;"/>
            <polygon points="81.29 225.8 10.1 98.07 133.4 24.33 204.58 152.06 81.29 225.8" style="fill: #ee8004;"/>
            <polygon points="81.84 226.78 10.65 99.06 133.95 25.31 205.13 153.04 81.84 226.78" style="fill: #ee8104;"/>
            <polygon points="82.38 227.76 11.2 100.04 134.49 26.29 205.68 154.02 82.38 227.76" style="fill: #ee8204;"/>
            <polygon points="82.93 228.74 11.74 101.02 135.04 27.27 206.22 155 82.93 228.74" style="fill: #ef8304;"/>
            <polygon points="83.48 229.72 12.29 102 135.59 28.26 206.77 155.98 83.48 229.72" style="fill: #ef8404;"/>
            <polygon points="84.02 230.7 12.84 102.98 136.13 29.24 207.32 156.96 84.02 230.7" style="fill: #ef8504;"/>
            <polygon points="84.57 231.68 13.38 103.96 136.68 30.22 207.86 157.94 84.57 231.68" style="fill: #ef8603;"/>
            <polygon points="85.11 232.66 13.93 104.94 137.23 31.2 208.41 158.92 85.11 232.66" style="fill: #f08703;"/>
            <polygon points="85.66 233.64 14.48 105.92 137.77 32.18 208.96 159.9 85.66 233.64" style="fill: #f08803;"/>
            <polygon points="86.21 234.63 15.02 106.9 138.32 33.16 209.5 160.88 86.21 234.63" style="fill: #f08903;"/>
            <polygon points="86.75 235.61 15.57 107.88 138.87 34.14 210.05 161.86 86.75 235.61" style="fill: #f08a03;"/>
            <polygon points="87.3 236.59 16.12 108.86 139.41 35.12 210.6 162.84 87.3 236.59" style="fill: #f08b03;"/>
            <polygon points="87.85 237.57 16.66 109.84 139.96 36.1 211.14 163.83 87.85 237.57" style="fill: #f18c03;"/>
            <polygon points="88.39 238.55 17.21 110.82 140.5 37.08 211.69 164.81 88.39 238.55" style="fill: #f18d03;"/>
            <polygon points="88.94 239.53 17.76 111.8 141.05 38.06 212.24 165.79 88.94 239.53" style="fill: #f18e02;"/>
            <polygon points="89.49 240.51 18.3 112.78 141.6 39.04 212.78 166.77 89.49 240.51" style="fill: #f18f02;"/>
            <polygon points="90.03 241.49 18.85 113.77 142.14 40.02 213.33 167.75 90.03 241.49" style="fill: #f29002;"/>
            <polygon points="90.58 242.47 19.4 114.75 142.69 41 213.88 168.73 90.58 242.47" style="fill: #f29102;"/>
            <polygon points="91.13 243.45 19.94 115.73 143.24 41.98 214.42 169.71 91.13 243.45" style="fill: #f29202;"/>
            <polygon points="91.67 244.43 20.49 116.71 143.78 42.97 214.97 170.69 91.67 244.43" style="fill: #f29302;"/>
            <polygon points="92.22 245.41 21.03 117.69 144.33 43.95 215.52 171.67 92.22 245.41" style="fill: #f39402;"/>
            <polygon points="92.77 246.39 21.58 118.67 144.88 44.93 216.06 172.65 92.77 246.39" style="fill: #f39502;"/>
            <polygon points="93.31 247.37 22.13 119.65 145.42 45.91 216.61 173.63 93.31 247.37" style="fill: #f39601;"/>
            <polygon points="93.86 248.35 22.67 120.63 145.97 46.89 217.16 174.61 93.86 248.35" style="fill: #f39701;"/>
            <polygon points="94.41 249.34 23.22 121.61 146.52 47.87 217.7 175.59 94.41 249.34" style="fill: #f49801;"/>
            <polygon points="94.95 250.32 23.77 122.59 147.06 48.85 218.25 176.57 94.95 250.32" style="fill: #f49801;"/>
            <polygon points="95.5 251.3 24.31 123.57 147.61 49.83 218.8 177.55 95.5 251.3" style="fill: #f49901;"/>
            <polygon points="96.05 252.28 24.86 124.55 148.16 50.81 219.34 178.54 96.05 252.28" style="fill: #f49a01;"/>
            <polygon points="96.59 253.26 25.41 125.53 148.7 51.79 219.89 179.52 96.59 253.26" style="fill: #f59b01;"/>
            <polygon points="97.14 254.24 25.95 126.51 149.25 52.77 220.43 180.5 97.14 254.24" style="fill: #f59c01;"/>
            <polygon points="97.69 255.22 26.5 127.49 149.8 53.75 220.98 181.48 97.69 255.22" style="fill: #f59d00;"/>
            <polygon points="98.23 256.2 27.05 128.48 150.34 54.73 221.53 182.46 98.23 256.2" style="fill: #f59e00;"/>
            <polygon points="98.78 257.18 27.59 129.46 150.89 55.71 222.07 183.44 98.78 257.18" style="fill: #f69f00;"/>
            <polygon points="99.33 258.16 28.14 130.44 151.44 56.69 222.62 184.42 99.33 258.16" style="fill: #f6a000;"/>
          </g>
        </g>
      </g>
      <g>
        <path d="M11.16,32.25H6.49v16.31h4.64c2.47,0,4.25-.58,5.82-1.88,1.86-1.54,2.96-3.86,2.96-6.26,0-4.81-3.6-8.17-8.75-8.17Zm3.72,12.25c-1,.9-2.3,1.3-4.35,1.3h-.85v-10.78h.85c2.05,0,3.3,.37,4.35,1.32,1.1,.98,1.76,2.5,1.76,4.06s-.66,3.13-1.76,4.11Z" style="fill: #231f20;"/>
        <rect x="21.38" y="32.25" width="3.18" height="16.31" style="fill: #231f20;"/>
        <path d="M32.34,38.51c-1.91-.71-2.47-1.17-2.47-2.05,0-1.03,1-1.81,2.37-1.81,.95,0,1.74,.39,2.57,1.32l1.66-2.18c-1.37-1.2-3-1.81-4.79-1.81-2.89,0-5.09,2-5.09,4.67,0,2.25,1.03,3.4,4.01,4.47,1.24,.44,1.88,.73,2.2,.93,.64,.41,.95,1,.95,1.69,0,1.32-1.05,2.3-2.47,2.3-1.52,0-2.74-.76-3.47-2.17l-2.05,1.98c1.47,2.15,3.23,3.1,5.65,3.1,3.31,0,5.63-2.2,5.63-5.35,0-2.59-1.07-3.76-4.69-5.09Z" style="fill: #231f20;"/>
        <path d="M38.03,40.41c0,4.79,3.76,8.51,8.61,8.51,1.37,0,2.54-.27,3.99-.95v-3.75c-1.27,1.27-2.4,1.79-3.84,1.79-3.2,0-5.48-2.32-5.48-5.63,0-3.13,2.35-5.6,5.33-5.6,1.52,0,2.67,.54,3.99,1.83v-3.74c-1.4-.71-2.54-1-3.91-1-4.82,0-8.68,3.79-8.68,8.53Z" style="fill: #231f20;"/>
        <polygon points="75.85 43.2 71.5 32.25 68.03 32.25 74.95 48.98 76.66 48.98 83.7 32.25 80.26 32.25 75.85 43.2" style="fill: #231f20;"/>
        <polygon points="85.14 48.56 94.16 48.56 94.16 45.8 88.32 45.8 88.32 41.39 93.95 41.39 93.95 38.63 88.32 38.63 88.32 35.01 94.16 35.01 94.16 32.25 85.14 32.25 85.14 48.56" style="fill: #231f20;"/>
        <path d="M106.76,37.06c0-3.05-2.1-4.81-5.77-4.81h-4.72v16.31h3.18v-6.55h.42l4.4,6.55h3.91l-5.13-6.87c2.4-.49,3.72-2.13,3.72-4.62Zm-6.38,2.69h-.93v-4.94h.98c1.98,0,3.06,.83,3.06,2.42s-1.08,2.52-3.11,2.52Z" style="fill: #231f20;"/>
        <g>
          <path d="M109.29,33.1c0-.29-.2-.44-.55-.44h-.46v1.44h.34v-.56l.4,.56h.42l-.47-.59c.2-.05,.31-.2,.31-.4Zm-.61,.2h-.06v-.38h.06c.17,0,.26,.06,.26,.18s-.09,.19-.26,.19Z" style="fill: #231f20;"/>
          <path d="M108.82,32.12c-.7,0-1.25,.56-1.25,1.25s.56,1.25,1.25,1.25,1.24-.56,1.24-1.25-.56-1.25-1.24-1.25Zm0,2.28c-.55,0-1-.46-1-1.03s.45-1.03,1-1.03,.99,.47,.99,1.03-.45,1.03-.99,1.03Z" style="fill: #231f20;"/>
        </g>
        <g>
          <g>
            <path d="M68.93,40.38c0,4.77-3.87,8.64-8.64,8.64s-8.64-3.87-8.64-8.64,3.87-8.64,8.64-8.64,8.64,3.87,8.64,8.64Z" style="fill: url(#linear-gradient);"/>
            <path d="M68.93,40.38c0,4.77-3.87,8.64-8.64,8.64s-8.64-3.87-8.64-8.64,3.87-8.64,8.64-8.64,8.64,3.87,8.64,8.64Z" style="fill: url(#linear-gradient-2); mix-blend-mode: multiply; opacity: .65;"/>
          </g>
          <g style="mix-blend-mode: multiply; opacity: .5;">
            <g style="clip-path: url(#clippath-2);">
              <g>
                <path d="M69.13,40.41c0,4.87-3.94,8.81-8.81,8.81s-8.81-3.94-8.81-8.81,3.94-8.81,8.81-8.81,8.81,3.94,8.81,8.81Z" style="fill: #3e1313; mix-blend-mode: multiply;"/>
                <path d="M60.33,31.61c4.86,0,8.81,3.94,8.81,8.81s-3.94,8.81-8.81,8.81-8.81-3.94-8.81-8.81c0-4.87,3.94-8.81,8.81-8.81Z" style="fill: #3f1313;"/>
                <path d="M60.34,31.62c4.86,0,8.81,3.94,8.81,8.81s-3.94,8.81-8.81,8.81-8.81-3.94-8.81-8.81c0-4.87,3.94-8.81,8.81-8.81Z" style="fill: #3f1413;"/>
                <path d="M60.34,31.63c4.86,0,8.81,3.94,8.81,8.81s-3.94,8.81-8.81,8.81-8.81-3.94-8.81-8.81c0-4.87,3.95-8.81,8.81-8.81Z" style="fill: #401413;"/>
                <path d="M60.35,31.63c4.86,0,8.81,3.94,8.81,8.81s-3.94,8.81-8.81,8.81-8.81-3.94-8.81-8.81c0-4.87,3.95-8.81,8.81-8.81Z" style="fill: #411413;"/>
                <path d="M60.35,31.64c4.86,0,8.8,3.94,8.8,8.81s-3.94,8.8-8.8,8.8-8.81-3.94-8.81-8.8c0-4.87,3.95-8.81,8.81-8.81Z" style="fill: #411513;"/>
                <path d="M60.36,31.65c4.86,0,8.8,3.94,8.8,8.8s-3.94,8.8-8.8,8.8-8.81-3.94-8.8-8.8c0-4.87,3.95-8.81,8.8-8.8Z" style="fill: #421514;"/>
                <path d="M60.36,31.66c4.86,0,8.8,3.94,8.8,8.8s-3.94,8.8-8.8,8.8-8.81-3.94-8.8-8.8c0-4.87,3.95-8.81,8.8-8.8Z" style="fill: #431614;"/>
                <path d="M60.37,31.66c4.86,0,8.8,3.94,8.8,8.8s-3.94,8.8-8.8,8.8-8.81-3.94-8.8-8.8c0-4.87,3.95-8.81,8.8-8.8Z" style="fill: #441614;"/>
                <path d="M60.38,31.67c4.86,0,8.8,3.94,8.8,8.8s-3.94,8.8-8.8,8.8-8.81-3.94-8.8-8.8c0-4.87,3.95-8.81,8.8-8.8Z" style="fill: #441614;"/>
                <path d="M60.38,31.68c4.86,0,8.8,3.94,8.8,8.8s-3.94,8.8-8.8,8.8-8.81-3.94-8.8-8.8c0-4.87,3.95-8.81,8.8-8.8Z" style="fill: #451714;"/>
                <path d="M60.39,31.69c4.86,0,8.8,3.94,8.8,8.8s-3.94,8.8-8.8,8.8-8.81-3.94-8.8-8.8c0-4.87,3.95-8.81,8.8-8.8Z" style="fill: #461714;"/>
                <path d="M60.39,31.69c4.86,0,8.8,3.94,8.8,8.8s-3.94,8.8-8.8,8.8-8.81-3.94-8.8-8.8c0-4.87,3.95-8.81,8.8-8.8Z" style="fill: #461714;"/>
                <path d="M60.4,31.7c4.86,.01,8.8,3.94,8.8,8.8s-3.94,8.8-8.8,8.8-8.81-3.94-8.8-8.8c0-4.87,3.95-8.81,8.8-8.8Z" style="fill: #471814;"/>
                <path d="M60.4,31.71c4.86,.01,8.8,3.94,8.8,8.8s-3.94,8.8-8.8,8.8-8.81-3.94-8.8-8.8c.01-4.87,3.95-8.81,8.8-8.8Z" style="fill: #481814;"/>
                <path d="M60.41,31.71c4.86,.01,8.8,3.94,8.8,8.8s-3.94,8.8-8.8,8.8-8.81-3.94-8.8-8.8c.01-4.87,3.95-8.81,8.8-8.8Z" style="fill: #481814;"/>
                <path d="M60.42,31.72c4.86,.01,8.8,3.94,8.8,8.8s-3.94,8.8-8.8,8.8-8.81-3.94-8.8-8.8c.01-4.87,3.95-8.81,8.8-8.8Z" style="fill: #491914;"/>
                <path d="M60.42,31.73c4.86,.01,8.79,3.94,8.79,8.8s-3.94,8.79-8.79,8.79-8.81-3.94-8.8-8.79c.01-4.87,3.96-8.81,8.8-8.8Z" style="fill: #4a1914;"/>
                <path d="M60.43,31.74c4.86,.01,8.79,3.94,8.79,8.79s-3.94,8.79-8.79,8.79-8.81-3.94-8.79-8.79c.01-4.87,3.96-8.81,8.79-8.79Z" style="fill: #4a1915;"/>
                <path d="M60.43,31.74c4.86,.02,8.79,3.94,8.79,8.79s-3.94,8.79-8.79,8.79-8.81-3.94-8.79-8.79c.01-4.87,3.96-8.81,8.79-8.79Z" style="fill: #4b1a15;"/>
                <path d="M60.44,31.75c4.85,.02,8.79,3.94,8.79,8.79s-3.94,8.79-8.79,8.79-8.81-3.94-8.79-8.79c.01-4.87,3.96-8.81,8.79-8.79Z" style="fill: #4c1a15;"/>
                <path d="M60.44,31.76c4.85,.02,8.79,3.94,8.79,8.79s-3.94,8.79-8.79,8.79-8.81-3.94-8.79-8.79c.02-4.87,3.96-8.81,8.79-8.79Z" style="fill: #4d1b15;"/>
                <path d="M60.45,31.77c4.85,.02,8.79,3.94,8.79,8.79s-3.94,8.79-8.79,8.79-8.81-3.94-8.79-8.79c.02-4.87,3.96-8.81,8.79-8.79Z" style="fill: #4d1b15;"/>
                <path d="M60.46,31.77c4.85,.02,8.79,3.94,8.79,8.79s-3.94,8.79-8.79,8.79-8.81-3.94-8.79-8.79c.02-4.87,3.96-8.81,8.79-8.79Z" style="fill: #4e1b15;"/>
                <path d="M60.46,31.78c4.85,.02,8.79,3.94,8.79,8.79s-3.94,8.79-8.79,8.79-8.81-3.93-8.79-8.79c.02-4.87,3.96-8.81,8.79-8.79Z" style="fill: #4f1c15;"/>
                <path d="M60.47,31.79c4.85,.02,8.79,3.93,8.79,8.79s-3.93,8.79-8.79,8.79-8.81-3.93-8.79-8.79c.02-4.87,3.96-8.81,8.79-8.79Z" style="fill: #4f1c15;"/>
                <path d="M60.47,31.8c4.85,.02,8.79,3.93,8.79,8.79s-3.93,8.79-8.79,8.79-8.81-3.93-8.79-8.79c.02-4.87,3.96-8.81,8.79-8.79Z" style="fill: #501c15;"/>
                <path d="M60.48,31.8c4.85,.02,8.79,3.93,8.79,8.79s-3.93,8.79-8.79,8.79-8.81-3.93-8.79-8.79c.02-4.87,3.96-8.81,8.79-8.79Z" style="fill: #511d15;"/>
                <path d="M60.49,31.81c4.85,.02,8.79,3.93,8.79,8.79s-3.93,8.79-8.79,8.79-8.81-3.93-8.79-8.79c.02-4.87,3.96-8.81,8.79-8.79Z" style="fill: #511d15;"/>
                <path d="M60.49,31.82c4.85,.02,8.78,3.93,8.78,8.78s-3.93,8.78-8.78,8.78-8.81-3.93-8.78-8.78c.02-4.87,3.96-8.81,8.78-8.78Z" style="fill: #521d15;"/>
                <path d="M60.5,31.82c4.85,.02,8.78,3.93,8.78,8.78s-3.93,8.78-8.78,8.78-8.81-3.93-8.78-8.78c.02-4.87,3.96-8.81,8.78-8.78Z" style="fill: #531e16;"/>
                <path d="M60.5,31.83c4.85,.03,8.78,3.93,8.78,8.78s-3.93,8.78-8.78,8.78-8.81-3.93-8.78-8.78c.02-4.87,3.96-8.81,8.78-8.78Z" style="fill: #531e16;"/>
                <path d="M60.51,31.84c4.85,.03,8.78,3.93,8.78,8.78s-3.93,8.78-8.78,8.78-8.81-3.93-8.78-8.78c.02-4.87,3.97-8.81,8.78-8.78Z" style="fill: #541e16;"/>
                <path d="M60.51,31.85c4.85,.03,8.78,3.93,8.78,8.78s-3.93,8.78-8.78,8.78-8.81-3.93-8.78-8.78c.02-4.87,3.97-8.81,8.78-8.78Z" style="fill: #551f16;"/>
                <path d="M60.52,31.85c4.85,.03,8.78,3.93,8.78,8.78s-3.93,8.78-8.78,8.78-8.81-3.93-8.78-8.78c.03-4.87,3.97-8.81,8.78-8.78Z" style="fill: #561f16;"/>
                <path d="M60.53,31.86c4.85,.03,8.78,3.93,8.78,8.78s-3.93,8.78-8.78,8.78-8.81-3.93-8.78-8.78c.03-4.87,3.97-8.81,8.78-8.78Z" style="fill: #562016;"/>
                <path d="M60.53,31.87c4.85,.03,8.78,3.93,8.78,8.78s-3.93,8.78-8.78,8.78-8.8-3.93-8.78-8.78c.03-4.87,3.97-8.81,8.78-8.78Z" style="fill: #572016;"/>
                <path d="M60.54,31.88c4.85,.03,8.78,3.93,8.78,8.78s-3.93,8.78-8.78,8.78-8.8-3.93-8.78-8.78c.03-4.87,3.97-8.81,8.78-8.78Z" style="fill: #582016;"/>
                <path d="M60.54,31.88c4.85,.03,8.78,3.93,8.78,8.78s-3.93,8.78-8.78,8.78-8.8-3.93-8.78-8.78c.03-4.87,3.97-8.81,8.78-8.78Z" style="fill: #582116;"/>
                <path d="M60.55,31.89c4.85,.03,8.78,3.93,8.78,8.78s-3.93,8.78-8.78,8.78-8.8-3.93-8.78-8.78c.03-4.87,3.97-8.81,8.78-8.78Z" style="fill: #592116;"/>
                <path d="M60.55,31.9c4.85,.03,8.77,3.93,8.77,8.78s-3.93,8.77-8.77,8.77-8.8-3.93-8.78-8.77c.03-4.87,3.97-8.81,8.78-8.78Z" style="fill: #5a2116;"/>
                <path d="M60.56,31.91c4.84,.03,8.77,3.93,8.77,8.77s-3.93,8.77-8.77,8.77-8.8-3.93-8.77-8.77c.03-4.87,3.97-8.81,8.77-8.77Z" style="fill: #5a2216;"/>
                <path d="M60.57,31.91c4.84,.03,8.77,3.93,8.77,8.77s-3.93,8.77-8.77,8.77-8.8-3.93-8.77-8.77c.03-4.87,3.97-8.81,8.77-8.77Z" style="fill: #5b2217;"/>
                <path d="M60.57,31.92c4.84,.04,8.77,3.93,8.77,8.77s-3.93,8.77-8.77,8.77-8.8-3.93-8.77-8.77c.03-4.87,3.97-8.81,8.77-8.77Z" style="fill: #5c2217;"/>
                <path d="M60.58,31.93c4.84,.04,8.77,3.93,8.77,8.77s-3.93,8.77-8.77,8.77-8.8-3.93-8.77-8.77c.03-4.87,3.97-8.81,8.77-8.77Z" style="fill: #5c2317;"/>
                <path d="M60.58,31.94c4.84,.04,8.77,3.93,8.77,8.77s-3.93,8.77-8.77,8.77-8.8-3.93-8.77-8.77c.03-4.87,3.97-8.81,8.77-8.77Z" style="fill: #5d2317;"/>
                <path d="M60.59,31.94c4.84,.04,8.77,3.93,8.77,8.77s-3.93,8.77-8.77,8.77-8.8-3.93-8.77-8.77c.03-4.87,3.97-8.81,8.77-8.77Z" style="fill: #5e2317;"/>
                <path d="M60.59,31.95c4.84,.04,8.77,3.93,8.77,8.77s-3.93,8.77-8.77,8.77-8.8-3.93-8.77-8.77c.03-4.87,3.98-8.81,8.77-8.77Z" style="fill: #5f2417;"/>
                <path d="M60.6,31.96c4.84,.04,8.77,3.93,8.77,8.77s-3.93,8.77-8.77,8.77-8.8-3.93-8.77-8.77c.04-4.87,3.98-8.81,8.77-8.77Z" style="fill: #5f2417;"/>
                <path d="M60.61,31.96c4.84,.04,8.77,3.93,8.77,8.77s-3.93,8.77-8.77,8.77-8.8-3.93-8.77-8.77c.04-4.87,3.98-8.81,8.77-8.77Z" style="fill: #602517;"/>
                <path d="M60.61,31.97c4.84,.04,8.77,3.93,8.77,8.77s-3.93,8.77-8.77,8.77-8.8-3.92-8.77-8.77c.04-4.87,3.98-8.81,8.77-8.77Z" style="fill: #612517;"/>
                <path d="M60.62,31.98c4.84,.04,8.77,3.92,8.77,8.77s-3.92,8.77-8.77,8.77-8.8-3.92-8.77-8.77c.04-4.87,3.98-8.81,8.77-8.77Z" style="fill: #612517;"/>
                <path d="M60.62,31.99c4.84,.04,8.76,3.92,8.76,8.76s-3.92,8.76-8.76,8.76-8.8-3.92-8.77-8.76c.04-4.87,3.98-8.81,8.77-8.76Z" style="fill: #622617;"/>
                <path d="M60.63,31.99c4.84,.04,8.76,3.92,8.76,8.76s-3.92,8.76-8.76,8.76-8.8-3.92-8.76-8.76c.04-4.87,3.98-8.81,8.76-8.76Z" style="fill: #632617;"/>
                <path d="M60.63,32c4.84,.04,8.76,3.92,8.76,8.76s-3.92,8.76-8.76,8.76-8.8-3.92-8.76-8.76c.04-4.87,3.98-8.81,8.76-8.76Z" style="fill: #632618;"/>
                <path d="M60.64,32.01c4.84,.05,8.76,3.92,8.76,8.76s-3.92,8.76-8.76,8.76-8.8-3.92-8.76-8.76c.04-4.87,3.98-8.81,8.76-8.76Z" style="fill: #642718;"/>
                <path d="M60.65,32.02c4.84,.05,8.76,3.92,8.76,8.76s-3.92,8.76-8.76,8.76-8.8-3.92-8.76-8.76c.04-4.87,3.98-8.81,8.76-8.76Z" style="fill: #652718;"/>
                <path d="M60.65,32.02c4.84,.05,8.76,3.92,8.76,8.76s-3.92,8.76-8.76,8.76-8.8-3.92-8.76-8.76c.04-4.87,3.98-8.81,8.76-8.76Z" style="fill: #652718;"/>
                <path d="M60.66,32.03c4.84,.05,8.76,3.92,8.76,8.76s-3.92,8.76-8.76,8.76-8.8-3.92-8.76-8.76c.04-4.87,3.98-8.81,8.76-8.76Z" style="fill: #662818;"/>
                <path d="M60.66,32.04c4.84,.05,8.76,3.92,8.76,8.76s-3.92,8.76-8.76,8.76-8.8-3.92-8.76-8.76c.04-4.87,3.98-8.81,8.76-8.76Z" style="fill: #672818;"/>
                <path d="M60.67,32.05c4.84,.05,8.76,3.92,8.76,8.76s-3.92,8.76-8.76,8.76-8.8-3.92-8.76-8.76c.04-4.87,3.98-8.81,8.76-8.76Z" style="fill: #672818;"/>
                <path d="M60.67,32.05c4.84,.05,8.76,3.92,8.76,8.76s-3.92,8.76-8.76,8.76-8.8-3.92-8.76-8.76c.05-4.87,3.98-8.81,8.76-8.76Z" style="fill: #682918;"/>
                <path d="M60.68,32.06c4.83,.05,8.76,3.92,8.76,8.76s-3.92,8.76-8.76,8.76-8.8-3.92-8.76-8.76c.05-4.87,3.99-8.8,8.76-8.76Z" style="fill: #692918;"/>
                <path d="M60.69,32.07c4.83,.05,8.76,3.92,8.76,8.76s-3.92,8.76-8.76,8.76-8.8-3.92-8.76-8.76c.05-4.87,3.99-8.8,8.76-8.76Z" style="fill: #6a2a18;"/>
                <path d="M60.69,32.07c4.83,.05,8.75,3.92,8.75,8.75s-3.92,8.75-8.75,8.75-8.8-3.92-8.75-8.75c.05-4.87,3.99-8.8,8.75-8.75Z" style="fill: #6a2a18;"/>
                <path d="M60.7,32.08c4.83,.05,8.75,3.92,8.75,8.75s-3.92,8.75-8.75,8.75-8.8-3.92-8.75-8.75c.05-4.87,3.99-8.8,8.75-8.75Z" style="fill: #6b2a18;"/>
                <path d="M60.7,32.09c4.83,.05,8.75,3.92,8.75,8.75s-3.92,8.75-8.75,8.75-8.8-3.92-8.75-8.75c.05-4.87,3.99-8.8,8.75-8.75Z" style="fill: #6c2b19;"/>
                <path d="M60.71,32.1c4.83,.05,8.75,3.92,8.75,8.75s-3.92,8.75-8.75,8.75-8.8-3.92-8.75-8.75c.05-4.87,3.99-8.8,8.75-8.75Z" style="fill: #6c2b19;"/>
                <path d="M60.71,32.1c4.83,.06,8.75,3.92,8.75,8.75s-3.92,8.75-8.75,8.75-8.8-3.92-8.75-8.75c.05-4.87,3.99-8.8,8.75-8.75Z" style="fill: #6d2b19;"/>
                <path d="M60.72,32.11c4.83,.06,8.75,3.92,8.75,8.75s-3.92,8.75-8.75,8.75-8.8-3.92-8.75-8.75c.05-4.87,3.99-8.8,8.75-8.75Z" style="fill: #6e2c19;"/>
                <path d="M60.73,32.12c4.83,.06,8.75,3.92,8.75,8.75s-3.92,8.75-8.75,8.75-8.8-3.92-8.75-8.75c.05-4.87,3.99-8.8,8.75-8.75Z" style="fill: #6e2c19;"/>
                <path d="M60.73,32.13c4.83,.06,8.75,3.92,8.75,8.75s-3.92,8.75-8.75,8.75-8.8-3.92-8.75-8.75c.05-4.87,3.99-8.8,8.75-8.75Z" style="fill: #6f2c19;"/>
                <path d="M60.74,32.13c4.83,.06,8.75,3.92,8.75,8.75s-3.92,8.75-8.75,8.75-8.8-3.92-8.75-8.75c.05-4.87,3.99-8.8,8.75-8.75Z" style="fill: #702d19;"/>
                <path d="M60.74,32.14c4.83,.06,8.75,3.92,8.75,8.75s-3.92,8.75-8.75,8.75-8.8-3.92-8.75-8.75c.05-4.87,3.99-8.8,8.75-8.75Z" style="fill: #702d19;"/>
                <path d="M60.75,32.15c4.83,.06,8.75,3.92,8.75,8.75s-3.92,8.75-8.75,8.75-8.8-3.92-8.75-8.75c.05-4.87,3.99-8.8,8.75-8.75Z" style="fill: #712e19;"/>
                <path d="M60.76,32.16c4.83,.06,8.74,3.92,8.74,8.75s-3.92,8.74-8.74,8.74-8.8-3.92-8.75-8.74c.06-4.87,3.99-8.8,8.75-8.75Z" style="fill: #722e19;"/>
                <path d="M60.76,32.16c4.83,.06,8.74,3.91,8.74,8.74s-3.91,8.74-8.74,8.74-8.8-3.92-8.74-8.74c.06-4.87,3.99-8.8,8.74-8.74Z" style="fill: #732e19;"/>
                <path d="M60.77,32.17c4.83,.06,8.74,3.91,8.74,8.74s-3.91,8.74-8.74,8.74-8.8-3.91-8.74-8.74c.06-4.87,4-8.8,8.74-8.74Z" style="fill: #732f1a;"/>
                <path d="M60.77,32.18c4.83,.06,8.74,3.91,8.74,8.74s-3.91,8.74-8.74,8.74-8.8-3.91-8.74-8.74c.06-4.87,4-8.8,8.74-8.74Z" style="fill: #742f1a;"/>
                <path d="M60.78,32.19c4.83,.06,8.74,3.91,8.74,8.74s-3.91,8.74-8.74,8.74-8.8-3.91-8.74-8.74c.06-4.87,4-8.8,8.74-8.74Z" style="fill: #752f1a;"/>
                <path d="M60.78,32.19c4.83,.07,8.74,3.91,8.74,8.74s-3.91,8.74-8.74,8.74-8.8-3.91-8.74-8.74c.06-4.87,4-8.8,8.74-8.74Z" style="fill: #75301a;"/>
                <path d="M60.79,32.2c4.83,.07,8.74,3.91,8.74,8.74s-3.91,8.74-8.74,8.74-8.8-3.91-8.74-8.74c.06-4.87,4-8.8,8.74-8.74Z" style="fill: #76301a;"/>
                <path d="M60.8,32.21c4.82,.07,8.74,3.91,8.74,8.74s-3.91,8.74-8.74,8.74-8.8-3.91-8.74-8.74c.06-4.87,4-8.8,8.74-8.74Z" style="fill: #77301a;"/>
                <path d="M60.8,32.21c4.82,.07,8.74,3.91,8.74,8.74s-3.91,8.74-8.74,8.74-8.8-3.91-8.74-8.74c.06-4.87,4-8.8,8.74-8.74Z" style="fill: #77311a;"/>
                <path d="M60.81,32.22c4.82,.07,8.74,3.91,8.74,8.74s-3.91,8.74-8.74,8.74-8.8-3.91-8.74-8.74c.06-4.87,4-8.8,8.74-8.74Z" style="fill: #78311a;"/>
                <path d="M60.81,32.23c4.82,.07,8.74,3.91,8.74,8.74s-3.91,8.74-8.74,8.74-8.8-3.91-8.74-8.74c.06-4.87,4-8.8,8.74-8.74Z" style="fill: #79311a;"/>
                <path d="M60.82,32.24c4.82,.07,8.74,3.91,8.74,8.74s-3.91,8.74-8.74,8.74-8.8-3.91-8.74-8.74c.06-4.87,4-8.8,8.74-8.74Z" style="fill: #79321a;"/>
                <path d="M60.82,32.24c4.82,.07,8.73,3.91,8.73,8.73s-3.91,8.73-8.73,8.73-8.8-3.91-8.73-8.73c.06-4.87,4-8.8,8.73-8.73Z" style="fill: #7a321a;"/>
                <path d="M60.83,32.25c4.82,.07,8.73,3.91,8.73,8.73s-3.91,8.73-8.73,8.73-8.8-3.91-8.73-8.73c.07-4.87,4-8.8,8.73-8.73Z" style="fill: #7b331a;"/>
                <path d="M60.84,32.26c4.82,.07,8.73,3.91,8.73,8.73s-3.91,8.73-8.73,8.73-8.8-3.91-8.73-8.73c.07-4.87,4-8.8,8.73-8.73Z" style="fill: #7c331b;"/>
                <path d="M60.84,32.27c4.82,.07,8.73,3.91,8.73,8.73s-3.91,8.73-8.73,8.73-8.8-3.91-8.73-8.73c.07-4.87,4-8.8,8.73-8.73Z" style="fill: #7c331b;"/>
                <path d="M60.85,32.27c4.82,.07,8.73,3.91,8.73,8.73s-3.91,8.73-8.73,8.73-8.8-3.91-8.73-8.73c.07-4.87,4-8.8,8.73-8.73Z" style="fill: #7d341b;"/>
                <path d="M60.85,32.28c4.82,.08,8.73,3.91,8.73,8.73s-3.91,8.73-8.73,8.73-8.8-3.91-8.73-8.73c.07-4.87,4.01-8.8,8.73-8.73Z" style="fill: #7e341b;"/>
                <path d="M60.86,32.29c4.82,.08,8.73,3.91,8.73,8.73s-3.91,8.73-8.73,8.73-8.8-3.91-8.73-8.73c.07-4.87,4.01-8.8,8.73-8.73Z" style="fill: #7e341b;"/>
                <path d="M60.86,32.3c4.82,.08,8.73,3.91,8.73,8.73s-3.91,8.73-8.73,8.73-8.8-3.91-8.73-8.73c.07-4.87,4.01-8.8,8.73-8.73Z" style="fill: #7f351b;"/>
                <path d="M60.87,32.3c4.82,.08,8.73,3.91,8.73,8.73s-3.91,8.73-8.73,8.73-8.8-3.91-8.73-8.73c.07-4.87,4.01-8.8,8.73-8.73Z" style="fill: #80351b;"/>
                <path d="M60.88,32.31c4.82,.08,8.73,3.91,8.73,8.73s-3.91,8.73-8.73,8.73-8.8-3.91-8.73-8.73c.07-4.87,4.01-8.8,8.73-8.73Z" style="fill: #80351b;"/>
                <path d="M60.88,32.32c4.82,.08,8.73,3.91,8.73,8.73s-3.91,8.73-8.73,8.73-8.8-3.91-8.73-8.73c.07-4.87,4.01-8.8,8.73-8.73Z" style="fill: #81361b;"/>
                <path d="M60.89,32.32c4.82,.08,8.72,3.91,8.72,8.73s-3.91,8.73-8.72,8.73-8.8-3.91-8.73-8.73c.07-4.87,4.01-8.8,8.73-8.73Z" style="fill: #82361b;"/>
                <path d="M60.89,32.33c4.82,.08,8.72,3.91,8.72,8.72s-3.91,8.72-8.72,8.72-8.8-3.91-8.72-8.72c.07-4.87,4.01-8.8,8.72-8.72Z" style="fill: #82361b;"/>
                <path d="M60.9,32.34c4.82,.08,8.72,3.91,8.72,8.72s-3.91,8.72-8.72,8.72-8.8-3.91-8.72-8.72c.07-4.87,4.01-8.8,8.72-8.72Z" style="fill: #83371b;"/>
                <path d="M60.9,32.35c4.82,.08,8.72,3.91,8.72,8.72s-3.91,8.72-8.72,8.72-8.8-3.91-8.72-8.72c.07-4.87,4.01-8.8,8.72-8.72Z" style="fill: #84371c;"/>
                <path d="M60.91,32.35c4.82,.08,8.72,3.9,8.72,8.72s-3.9,8.72-8.72,8.72-8.8-3.91-8.72-8.72c.08-4.87,4.01-8.8,8.72-8.72Z" style="fill: #85381c;"/>
                <path d="M60.92,32.36c4.81,.08,8.72,3.9,8.72,8.72s-3.9,8.72-8.72,8.72-8.8-3.91-8.72-8.72c.08-4.87,4.01-8.8,8.72-8.72Z" style="fill: #85381c;"/>
                <path d="M60.92,32.37c4.81,.09,8.72,3.9,8.72,8.72s-3.9,8.72-8.72,8.72-8.8-3.9-8.72-8.72c.08-4.87,4.01-8.8,8.72-8.72Z" style="fill: #86381c;"/>
                <path d="M60.93,32.38c4.81,.09,8.72,3.9,8.72,8.72s-3.9,8.72-8.72,8.72-8.8-3.9-8.72-8.72c.08-4.87,4.01-8.8,8.72-8.72Z" style="fill: #87391c;"/>
                <path d="M60.93,32.38c4.81,.09,8.72,3.9,8.72,8.72s-3.9,8.72-8.72,8.72-8.8-3.9-8.72-8.72c.08-4.87,4.02-8.8,8.72-8.72Z" style="fill: #87391c;"/>
                <path d="M60.94,32.39c4.81,.09,8.72,3.9,8.72,8.72s-3.9,8.72-8.72,8.72-8.8-3.9-8.72-8.72c.08-4.87,4.02-8.8,8.72-8.72Z" style="fill: #88391c;"/>
                <path d="M60.94,32.4c4.81,.09,8.72,3.9,8.72,8.72s-3.9,8.72-8.72,8.72-8.8-3.9-8.72-8.72c.08-4.87,4.02-8.8,8.72-8.72Z" style="fill: #893a1c;"/>
                <path d="M60.95,32.41c4.81,.09,8.72,3.9,8.72,8.72s-3.9,8.72-8.72,8.72-8.79-3.9-8.72-8.72c.08-4.87,4.02-8.8,8.72-8.72Z" style="fill: #893a1c;"/>
                <path d="M60.96,32.41c4.81,.09,8.71,3.9,8.71,8.71s-3.9,8.71-8.71,8.71-8.79-3.9-8.72-8.71c.08-4.87,4.02-8.8,8.72-8.71Z" style="fill: #8a3a1c;"/>
                <path d="M60.96,32.42c4.81,.09,8.71,3.9,8.71,8.71s-3.9,8.71-8.71,8.71-8.79-3.9-8.71-8.71c.08-4.87,4.02-8.8,8.71-8.71Z" style="fill: #8b3b1c;"/>
                <path d="M60.97,32.43c4.81,.09,8.71,3.9,8.71,8.71s-3.9,8.71-8.71,8.71-8.79-3.9-8.71-8.71c.08-4.87,4.02-8.8,8.71-8.71Z" style="fill: #8b3b1c;"/>
                <path d="M60.97,32.44c4.81,.09,8.71,3.9,8.71,8.71s-3.9,8.71-8.71,8.71-8.79-3.9-8.71-8.71c.08-4.87,4.02-8.8,8.71-8.71Z" style="fill: #8c3b1d;"/>
                <path d="M60.98,32.44c4.81,.09,8.71,3.9,8.71,8.71s-3.9,8.71-8.71,8.71-8.79-3.9-8.71-8.71c.08-4.87,4.02-8.8,8.71-8.71Z" style="fill: #8d3c1d;"/>
                <path d="M60.98,32.45c4.81,.09,8.71,3.9,8.71,8.71s-3.9,8.71-8.71,8.71-8.79-3.9-8.71-8.71c.09-4.87,4.02-8.8,8.71-8.71Z" style="fill: #8e3c1d;"/>
                <path d="M60.99,32.46c4.81,.1,8.71,3.9,8.71,8.71s-3.9,8.71-8.71,8.71-8.79-3.9-8.71-8.71c.09-4.87,4.02-8.8,8.71-8.71Z" style="fill: #8e3d1d;"/>
                <path d="M61,32.46c4.81,.1,8.71,3.9,8.71,8.71s-3.9,8.71-8.71,8.71-8.79-3.9-8.71-8.71c.09-4.87,4.02-8.8,8.71-8.71Z" style="fill: #8f3d1d;"/>
                <path d="M61,32.47c4.81,.1,8.71,3.9,8.71,8.71s-3.9,8.71-8.71,8.71-8.79-3.9-8.71-8.71c.09-4.87,4.02-8.8,8.71-8.71Z" style="fill: #903d1d;"/>
                <path d="M61.01,32.48c4.81,.1,8.71,3.9,8.71,8.71s-3.9,8.71-8.71,8.71-8.79-3.9-8.71-8.71c.09-4.87,4.02-8.8,8.71-8.71Z" style="fill: #903e1d;"/>
                <path d="M61.01,32.49c4.81,.1,8.71,3.9,8.71,8.71s-3.9,8.71-8.71,8.71-8.79-3.9-8.71-8.71c.09-4.87,4.02-8.8,8.71-8.71Z" style="fill: #913e1d;"/>
                <path d="M61.02,32.49c4.81,.1,8.71,3.9,8.71,8.71s-3.9,8.71-8.71,8.71-8.79-3.9-8.71-8.71c.09-4.87,4.03-8.8,8.71-8.71Z" style="fill: #923e1d;"/>
                <path d="M61.03,32.5c4.81,.1,8.7,3.9,8.7,8.7s-3.9,8.7-8.7,8.7-8.79-3.9-8.7-8.7c.09-4.87,4.03-8.8,8.7-8.7Z" style="fill: #923f1d;"/>
                <path d="M61.03,32.51c4.81,.1,8.7,3.9,8.7,8.7s-3.9,8.7-8.7,8.7-8.79-3.9-8.7-8.7c.09-4.87,4.03-8.8,8.7-8.7Z" style="fill: #933f1d;"/>
                <path d="M61.04,32.52c4.8,.1,8.7,3.9,8.7,8.7s-3.9,8.7-8.7,8.7-8.79-3.9-8.7-8.7c.09-4.87,4.03-8.8,8.7-8.7Z" style="fill: #943f1d;"/>
                <path d="M61.04,32.52c4.8,.1,8.7,3.9,8.7,8.7s-3.9,8.7-8.7,8.7-8.79-3.9-8.7-8.7c.09-4.87,4.03-8.8,8.7-8.7Z" style="fill: #94401e;"/>
                <path d="M61.05,32.53c4.8,.1,8.7,3.9,8.7,8.7s-3.9,8.7-8.7,8.7-8.79-3.9-8.7-8.7c.09-4.88,4.03-8.8,8.7-8.7Z" style="fill: #95401e;"/>
                <path d="M61.05,32.54c4.8,.1,8.7,3.9,8.7,8.7s-3.9,8.7-8.7,8.7-8.79-3.9-8.7-8.7c.09-4.88,4.03-8.8,8.7-8.7Z" style="fill: #96401e;"/>
                <path d="M61.06,32.55c4.8,.11,8.7,3.89,8.7,8.7s-3.89,8.7-8.7,8.7-8.79-3.9-8.7-8.7c.09-4.88,4.03-8.8,8.7-8.7Z" style="fill: #97411e;"/>
                <path d="M61.07,32.55c4.8,.11,8.7,3.89,8.7,8.7s-3.89,8.7-8.7,8.7-8.79-3.9-8.7-8.7c.1-4.88,4.03-8.8,8.7-8.7Z" style="fill: #97411e;"/>
                <path d="M61.07,32.56c4.8,.11,8.7,3.89,8.7,8.7s-3.89,8.7-8.7,8.7-8.79-3.9-8.7-8.7c.1-4.88,4.03-8.8,8.7-8.7Z" style="fill: #98421e;"/>
                <path d="M61.08,32.57c4.8,.11,8.7,3.89,8.7,8.7s-3.89,8.7-8.7,8.7-8.79-3.89-8.7-8.7c.1-4.88,4.03-8.8,8.7-8.7Z" style="fill: #99421e;"/>
                <path d="M61.08,32.57c4.8,.11,8.7,3.89,8.7,8.7s-3.89,8.7-8.7,8.7-8.79-3.89-8.7-8.7c.1-4.88,4.03-8.8,8.7-8.7Z" style="fill: #99421e;"/>
                <path d="M61.09,32.58c4.8,.11,8.69,3.89,8.69,8.7s-3.89,8.7-8.69,8.7-8.79-3.89-8.7-8.7c.1-4.88,4.03-8.8,8.7-8.7Z" style="fill: #9a431e;"/>
                <path d="M61.09,32.59c4.8,.11,8.69,3.89,8.69,8.69s-3.89,8.69-8.69,8.69-8.79-3.89-8.69-8.69c.1-4.88,4.03-8.8,8.69-8.69Z" style="fill: #9b431e;"/>
                <path d="M61.1,32.6c4.8,.11,8.69,3.89,8.69,8.69s-3.89,8.69-8.69,8.69-8.79-3.89-8.69-8.69c.1-4.88,4.03-8.8,8.69-8.69Z" style="fill: #9b431e;"/>
                <path d="M61.11,32.6c4.8,.11,8.69,3.89,8.69,8.69s-3.89,8.69-8.69,8.69-8.79-3.89-8.69-8.69c.1-4.88,4.04-8.8,8.69-8.69Z" style="fill: #9c441f;"/>
                <path d="M61.11,32.61c4.8,.11,8.69,3.89,8.69,8.69s-3.89,8.69-8.69,8.69-8.79-3.89-8.69-8.69c.1-4.88,4.04-8.8,8.69-8.69Z" style="fill: #9d441f;"/>
                <path d="M61.12,32.62c4.8,.11,8.69,3.89,8.69,8.69s-3.89,8.69-8.69,8.69-8.79-3.89-8.69-8.69c.1-4.88,4.04-8.8,8.69-8.69Z" style="fill: #9d441f;"/>
                <path d="M61.12,32.63c4.8,.11,8.69,3.89,8.69,8.69s-3.89,8.69-8.69,8.69-8.79-3.89-8.69-8.69c.1-4.88,4.04-8.8,8.69-8.69Z" style="fill: #9e451f;"/>
                <path d="M61.13,32.63c4.8,.11,8.69,3.89,8.69,8.69s-3.89,8.69-8.69,8.69-8.79-3.89-8.69-8.69c.1-4.88,4.04-8.8,8.69-8.69Z" style="fill: #9f451f;"/>
                <path d="M61.13,32.64c4.8,.12,8.69,3.89,8.69,8.69s-3.89,8.69-8.69,8.69-8.79-3.89-8.69-8.69c.1-4.88,4.04-8.8,8.69-8.69Z" style="fill: #a0461f;"/>
                <path d="M61.14,32.65c4.8,.12,8.69,3.89,8.69,8.69s-3.89,8.69-8.69,8.69-8.79-3.89-8.69-8.69c.11-4.88,4.04-8.8,8.69-8.69Z" style="fill: #a0461f;"/>
                <path d="M61.15,32.66c4.8,.12,8.69,3.89,8.69,8.69s-3.89,8.69-8.69,8.69-8.79-3.89-8.69-8.69c.11-4.88,4.04-8.8,8.69-8.69Z" style="fill: #a1461f;"/>
                <path d="M61.15,32.66c4.79,.12,8.69,3.89,8.69,8.69s-3.89,8.69-8.69,8.69-8.79-3.89-8.69-8.69c.11-4.88,4.04-8.8,8.69-8.69Z" style="fill: #a2471f;"/>
                <path d="M61.16,32.67c4.79,.12,8.68,3.89,8.68,8.68s-3.89,8.68-8.68,8.68-8.79-3.89-8.69-8.68c.11-4.88,4.04-8.8,8.69-8.68Z" style="fill: #a2471f;"/>
                <path d="M61.16,32.68c4.79,.12,8.68,3.89,8.68,8.68s-3.89,8.68-8.68,8.68-8.79-3.89-8.68-8.68c.11-4.88,4.04-8.8,8.68-8.68Z" style="fill: #a3471f;"/>
                <path d="M61.17,32.69c4.79,.12,8.68,3.89,8.68,8.68s-3.89,8.68-8.68,8.68-8.79-3.89-8.68-8.68c.11-4.88,4.04-8.8,8.68-8.68Z" style="fill: #a4481f;"/>
                <path d="M61.17,32.69c4.79,.12,8.68,3.89,8.68,8.68s-3.89,8.68-8.68,8.68-8.79-3.89-8.68-8.68c.11-4.88,4.04-8.8,8.68-8.68Z" style="fill: #a44820;"/>
                <path d="M61.18,32.7c4.79,.12,8.68,3.89,8.68,8.68s-3.89,8.68-8.68,8.68-8.79-3.89-8.68-8.68c.11-4.88,4.04-8.8,8.68-8.68Z" style="fill: #a54820;"/>
                <path d="M61.19,32.71c4.79,.12,8.68,3.89,8.68,8.68s-3.89,8.68-8.68,8.68-8.79-3.89-8.68-8.68c.11-4.88,4.04-8.8,8.68-8.68Z" style="fill: #a64920;"/>
                <path d="M61.19,32.71c4.79,.12,8.68,3.89,8.68,8.68s-3.89,8.68-8.68,8.68-8.79-3.89-8.68-8.68c.11-4.88,4.05-8.8,8.68-8.68Z" style="fill: #a64920;"/>
                <path d="M61.2,32.72c4.79,.12,8.68,3.89,8.68,8.68s-3.89,8.68-8.68,8.68-8.79-3.89-8.68-8.68c.11-4.88,4.05-8.8,8.68-8.68Z" style="fill: #a74920;"/>
                <path d="M61.2,32.73c4.79,.13,8.68,3.88,8.68,8.68s-3.88,8.68-8.68,8.68-8.79-3.89-8.68-8.68c.11-4.88,4.05-8.8,8.68-8.68Z" style="fill: #a84a20;"/>
                <path d="M61.21,32.74c4.79,.13,8.68,3.88,8.68,8.68s-3.88,8.68-8.68,8.68-8.79-3.89-8.68-8.68c.11-4.88,4.05-8.8,8.68-8.68Z" style="fill: #a84a20;"/>
                <path d="M61.21,32.74c4.79,.13,8.68,3.88,8.68,8.68s-3.88,8.68-8.68,8.68-8.79-3.89-8.68-8.68c.11-4.88,4.05-8.8,8.68-8.68Z" style="fill: #a94b20;"/>
                <path d="M61.22,32.75c4.79,.13,8.68,3.88,8.68,8.68s-3.88,8.68-8.68,8.68-8.79-3.89-8.68-8.68c.12-4.88,4.05-8.8,8.68-8.68Z" style="fill: #aa4b20;"/>
                <path d="M61.23,32.76c4.79,.13,8.67,3.88,8.67,8.67s-3.88,8.67-8.67,8.67-8.79-3.89-8.67-8.67c.12-4.88,4.05-8.8,8.67-8.67Z" style="fill: #ab4b20;"/>
                <path d="M61.23,32.77c4.79,.13,8.67,3.88,8.67,8.67s-3.88,8.67-8.67,8.67-8.79-3.88-8.67-8.67c.12-4.88,4.05-8.8,8.67-8.67Z" style="fill: #ab4c20;"/>
                <path d="M61.24,32.77c4.79,.13,8.67,3.88,8.67,8.67s-3.88,8.67-8.67,8.67-8.79-3.88-8.67-8.67c.12-4.88,4.05-8.8,8.67-8.67Z" style="fill: #ac4c20;"/>
                <path d="M61.24,32.78c4.79,.13,8.67,3.88,8.67,8.67s-3.88,8.67-8.67,8.67-8.79-3.88-8.67-8.67c.12-4.88,4.05-8.8,8.67-8.67Z" style="fill: #ad4c21;"/>
                <path d="M61.25,32.79c4.79,.13,8.67,3.88,8.67,8.67s-3.88,8.67-8.67,8.67-8.79-3.88-8.67-8.67c.12-4.88,4.05-8.8,8.67-8.67Z" style="fill: #ad4d21;"/>
                <path d="M61.25,32.8c4.79,.13,8.67,3.88,8.67,8.67s-3.88,8.67-8.67,8.67-8.79-3.88-8.67-8.67c.12-4.88,4.05-8.8,8.67-8.67Z" style="fill: #ae4d21;"/>
                <path d="M61.26,32.8c4.79,.13,8.67,3.88,8.67,8.67s-3.88,8.67-8.67,8.67-8.79-3.88-8.67-8.67c.12-4.88,4.05-8.8,8.67-8.67Z" style="fill: #af4d21;"/>
                <path d="M61.27,32.81c4.79,.13,8.67,3.88,8.67,8.67s-3.88,8.67-8.67,8.67-8.79-3.88-8.67-8.67c.12-4.88,4.05-8.8,8.67-8.67Z" style="fill: #af4e21;"/>
                <path d="M61.27,32.82c4.78,.14,8.67,3.88,8.67,8.67s-3.88,8.67-8.67,8.67-8.79-3.88-8.67-8.67c.12-4.88,4.05-8.8,8.67-8.67Z" style="fill: #b04e21;"/>
                <path d="M61.28,32.82c4.78,.14,8.67,3.88,8.67,8.67s-3.88,8.67-8.67,8.67-8.79-3.88-8.67-8.67c.12-4.88,4.06-8.8,8.67-8.67Z" style="fill: #b14e21;"/>
                <path d="M61.28,32.83c4.78,.14,8.67,3.88,8.67,8.67s-3.88,8.67-8.67,8.67-8.79-3.88-8.67-8.67c.12-4.88,4.06-8.8,8.67-8.67Z" style="fill: #b14f21;"/>
                <path d="M61.29,32.84c4.78,.14,8.66,3.88,8.66,8.66s-3.88,8.67-8.66,8.67-8.79-3.88-8.67-8.67c.12-4.88,4.06-8.8,8.67-8.66Z" style="fill: #b24f21;"/>
                <path d="M61.3,32.85c4.78,.14,8.66,3.88,8.66,8.66s-3.88,8.66-8.66,8.66-8.79-3.88-8.66-8.66c.13-4.88,4.06-8.8,8.66-8.66Z" style="fill: #b35021;"/>
                <path d="M61.3,32.85c4.78,.14,8.66,3.88,8.66,8.66s-3.88,8.66-8.66,8.66-8.79-3.88-8.66-8.66c.13-4.88,4.06-8.8,8.66-8.66Z" style="fill: #b45021;"/>
                <path d="M61.31,32.86c4.78,.14,8.66,3.88,8.66,8.66s-3.88,8.66-8.66,8.66-8.79-3.88-8.66-8.66c.13-4.88,4.06-8.8,8.66-8.66Z" style="fill: #b45021;"/>
                <path d="M61.31,32.87c4.78,.14,8.66,3.88,8.66,8.66s-3.88,8.66-8.66,8.66-8.79-3.88-8.66-8.66c.13-4.88,4.06-8.8,8.66-8.66Z" style="fill: #b55122;"/>
                <path d="M61.32,32.88c4.78,.14,8.66,3.88,8.66,8.66s-3.88,8.66-8.66,8.66-8.79-3.88-8.66-8.66c.13-4.88,4.06-8.8,8.66-8.66Z" style="fill: #b65122;"/>
                <path d="M61.32,32.88c4.78,.14,8.66,3.88,8.66,8.66s-3.88,8.66-8.66,8.66-8.79-3.88-8.66-8.66c.13-4.88,4.06-8.8,8.66-8.66Z" style="fill: #b65122;"/>
                <path d="M61.33,32.89c4.78,.14,8.66,3.88,8.66,8.66s-3.88,8.66-8.66,8.66-8.79-3.88-8.66-8.66c.13-4.88,4.06-8.8,8.66-8.66Z" style="fill: #b75222;"/>
                <path d="M61.34,32.9c4.78,.14,8.66,3.88,8.66,8.66s-3.88,8.66-8.66,8.66-8.79-3.88-8.66-8.66c.13-4.88,4.06-8.8,8.66-8.66Z" style="fill: #b85222;"/>
                <path d="M61.34,32.91c4.78,.15,8.66,3.88,8.66,8.66s-3.88,8.66-8.66,8.66-8.79-3.88-8.66-8.66c.13-4.88,4.06-8.8,8.66-8.66Z" style="fill: #b85222;"/>
                <path d="M61.35,32.91c4.78,.15,8.66,3.88,8.66,8.66s-3.88,8.66-8.66,8.66-8.79-3.88-8.66-8.66c.13-4.88,4.06-8.8,8.66-8.66Z" style="fill: #b95322;"/>
                <path d="M61.35,32.92c4.78,.15,8.66,3.87,8.66,8.66s-3.87,8.66-8.66,8.66-8.79-3.88-8.66-8.66c.13-4.88,4.06-8.8,8.66-8.66Z" style="fill: #ba5322;"/>
                <path d="M61.36,32.93c4.78,.15,8.65,3.87,8.65,8.65s-3.87,8.65-8.65,8.65-8.79-3.88-8.65-8.65c.13-4.88,4.07-8.8,8.65-8.65Z" style="fill: #ba5322;"/>
                <path d="M61.36,32.94c4.78,.15,8.65,3.87,8.65,8.65s-3.87,8.65-8.65,8.65-8.79-3.88-8.65-8.65c.13-4.88,4.07-8.8,8.65-8.65Z" style="fill: #bb5422;"/>
                <path d="M61.37,32.94c4.78,.15,8.65,3.87,8.65,8.65s-3.87,8.65-8.65,8.65-8.78-3.88-8.65-8.65c.13-4.88,4.07-8.8,8.65-8.65Z" style="fill: #bc5422;"/>
                <path d="M61.38,32.95c4.78,.15,8.65,3.87,8.65,8.65s-3.87,8.65-8.65,8.65-8.78-3.88-8.65-8.65c.14-4.88,4.07-8.8,8.65-8.65Z" style="fill: #bd5522;"/>
                <path d="M61.38,32.96c4.78,.15,8.65,3.87,8.65,8.65s-3.87,8.65-8.65,8.65-8.78-3.88-8.65-8.65c.14-4.88,4.07-8.8,8.65-8.65Z" style="fill: #bd5523;"/>
                <path d="M61.39,32.96c4.78,.15,8.65,3.87,8.65,8.65s-3.87,8.65-8.65,8.65-8.78-3.87-8.65-8.65c.14-4.88,4.07-8.8,8.65-8.65Z" style="fill: #be5523;"/>
                <path d="M61.39,32.97c4.77,.15,8.65,3.87,8.65,8.65s-3.87,8.65-8.65,8.65-8.78-3.87-8.65-8.65c.14-4.88,4.07-8.8,8.65-8.65Z" style="fill: #bf5623;"/>
                <path d="M61.4,32.98c4.77,.15,8.65,3.87,8.65,8.65s-3.87,8.65-8.65,8.65-8.78-3.87-8.65-8.65c.14-4.88,4.07-8.8,8.65-8.65Z" style="fill: #bf5623;"/>
                <path d="M61.4,32.99c4.77,.15,8.65,3.87,8.65,8.65s-3.87,8.65-8.65,8.65-8.78-3.87-8.65-8.65c.14-4.88,4.07-8.8,8.65-8.65Z" style="fill: #c05623;"/>
                <path d="M61.41,32.99c4.77,.16,8.65,3.87,8.65,8.65s-3.87,8.65-8.65,8.65-8.78-3.87-8.65-8.65c.14-4.88,4.07-8.8,8.65-8.65Z" style="fill: #c15723;"/>
                <path d="M61.42,33c4.77,.16,8.65,3.87,8.65,8.65s-3.87,8.65-8.65,8.65-8.78-3.87-8.65-8.65c.14-4.88,4.07-8.79,8.65-8.65Z" style="fill: #c15723;"/>
                <path d="M61.42,33.01c4.77,.16,8.64,3.87,8.64,8.65s-3.87,8.65-8.64,8.65-8.78-3.87-8.65-8.65c.14-4.88,4.07-8.79,8.65-8.64Z" style="fill: #c25723;"/>
                <path d="M61.43,33.02c4.77,.16,8.64,3.87,8.64,8.64s-3.87,8.64-8.64,8.64-8.78-3.87-8.64-8.64c.14-4.88,4.07-8.79,8.64-8.64Z" style="fill: #c35823;"/>
                <path d="M61.43,33.02c4.77,.16,8.64,3.87,8.64,8.64s-3.87,8.64-8.64,8.64-8.78-3.87-8.64-8.64c.14-4.88,4.07-8.79,8.64-8.64Z" style="fill: #c35823;"/>
                <path d="M61.44,33.03c4.77,.16,8.64,3.87,8.64,8.64s-3.87,8.64-8.64,8.64-8.78-3.87-8.64-8.64c.14-4.88,4.07-8.79,8.64-8.64Z" style="fill: #c45823;"/>
                <path d="M61.44,33.04c4.77,.16,8.64,3.87,8.64,8.64s-3.87,8.64-8.64,8.64-8.78-3.87-8.64-8.64c.14-4.88,4.08-8.79,8.64-8.64Z" style="fill: #c55923;"/>
                <path d="M61.45,33.05c4.77,.16,8.64,3.87,8.64,8.64s-3.87,8.64-8.64,8.64-8.78-3.87-8.64-8.64c.15-4.88,4.08-8.79,8.64-8.64Z" style="fill: #c65924;"/>
                <path d="M61.46,33.05c4.77,.16,8.64,3.87,8.64,8.64s-3.87,8.64-8.64,8.64-8.78-3.87-8.64-8.64c.15-4.88,4.08-8.79,8.64-8.64Z" style="fill: #c65a24;"/>
                <path d="M61.46,33.06c4.77,.16,8.64,3.87,8.64,8.64s-3.87,8.64-8.64,8.64-8.78-3.87-8.64-8.64c.15-4.88,4.08-8.79,8.64-8.64Z" style="fill: #c75a24;"/>
                <path d="M61.47,33.07c4.77,.16,8.64,3.87,8.64,8.64s-3.87,8.64-8.64,8.64-8.78-3.87-8.64-8.64c.15-4.88,4.08-8.79,8.64-8.64Z" style="fill: #c85a24;"/>
                <path d="M61.47,33.07c4.77,.16,8.64,3.87,8.64,8.64s-3.87,8.64-8.64,8.64-8.78-3.87-8.64-8.64c.15-4.88,4.08-8.79,8.64-8.64Z" style="fill: #c85b24;"/>
                <path d="M70.12,41.72c0,4.77-3.87,8.64-8.64,8.64s-8.78-3.87-8.64-8.64c.15-4.88,4.08-8.79,8.64-8.64,4.77,.16,8.64,3.87,8.64,8.64Z" style="fill: #c95b24;"/>
                <path d="M61.48,33.09c4.77,.16,8.64,3.87,8.64,8.64s-3.87,8.64-8.64,8.64-8.78-3.87-8.64-8.64c.15-4.88,4.08-8.79,8.64-8.64Z" style="fill: #c95c25; opacity: 1;"/>
                <path d="M61.49,33.09c4.77,.16,8.64,3.87,8.64,8.64s-3.87,8.64-8.64,8.64-8.78-3.87-8.64-8.64c.15-4.88,4.08-8.79,8.64-8.64Z" style="fill: #ca5d26; opacity: .99;"/>
                <path d="M61.49,33.1c4.77,.16,8.64,3.87,8.64,8.64s-3.87,8.64-8.64,8.64-8.78-3.87-8.64-8.64c.15-4.88,4.08-8.79,8.64-8.64Z" style="fill: #ca5d27; opacity: .99;"/>
                <path d="M61.5,33.1c4.77,.16,8.64,3.87,8.64,8.64s-3.87,8.64-8.64,8.64-8.78-3.87-8.64-8.64c.15-4.88,4.08-8.79,8.64-8.64Z" style="fill: #ca5e28; opacity: .98;"/>
                <path d="M61.5,33.1c4.77,.16,8.64,3.87,8.64,8.64s-3.87,8.64-8.64,8.64-8.78-3.87-8.64-8.64c.15-4.88,4.07-8.79,8.64-8.64Z" style="fill: #ca5f29; opacity: .98;"/>
                <path d="M61.5,33.11c4.77,.16,8.64,3.87,8.64,8.64s-3.87,8.64-8.64,8.64-8.78-3.87-8.64-8.64c.14-4.88,4.07-8.79,8.64-8.64Z" style="fill: #cb602b; opacity: .97;"/>
                <path d="M61.51,33.11c4.77,.16,8.64,3.87,8.64,8.64s-3.87,8.64-8.64,8.64-8.78-3.87-8.64-8.64c.14-4.88,4.07-8.79,8.64-8.64Z" style="fill: #cb612c; opacity: .97;"/>
                <path d="M61.51,33.12c4.77,.16,8.64,3.87,8.64,8.64s-3.87,8.64-8.64,8.64-8.78-3.87-8.64-8.64c.14-4.88,4.07-8.79,8.64-8.64Z" style="fill: #cb622d; opacity: .96;"/>
                <path d="M61.52,33.12c4.77,.16,8.64,3.87,8.64,8.64s-3.87,8.64-8.64,8.64-8.78-3.87-8.64-8.64c.14-4.88,4.07-8.79,8.64-8.64Z" style="fill: #cb622e; opacity: .96;"/>
                <path d="M61.52,33.12c4.77,.16,8.64,3.87,8.64,8.64s-3.87,8.64-8.64,8.64-8.78-3.87-8.64-8.64c.14-4.88,4.07-8.79,8.64-8.64Z" style="fill: #cc632f; opacity: .95;"/>
                <path d="M61.52,33.13c4.77,.16,8.64,3.87,8.64,8.64s-3.87,8.64-8.64,8.64-8.77-3.87-8.64-8.64c.14-4.87,4.07-8.79,8.64-8.64Z" style="fill: #cc6430; opacity: .95;"/>
                <path d="M61.53,33.13c4.77,.16,8.64,3.87,8.64,8.64s-3.87,8.64-8.64,8.64-8.77-3.87-8.64-8.64c.14-4.87,4.07-8.78,8.64-8.64Z" style="fill: #cc6531; opacity: .94;"/>
                <path d="M61.53,33.14c4.77,.15,8.64,3.87,8.64,8.64s-3.87,8.64-8.64,8.64-8.77-3.87-8.64-8.64c.14-4.87,4.07-8.78,8.64-8.64Z" style="fill: #cc6632; opacity: .94;"/>
                <path d="M61.54,33.14c4.77,.15,8.64,3.87,8.64,8.64s-3.87,8.64-8.64,8.64-8.77-3.87-8.64-8.64c.14-4.87,4.06-8.78,8.64-8.64Z" style="fill: #cd6633; opacity: .93;"/>
                <path d="M61.54,33.15c4.77,.15,8.64,3.87,8.64,8.64s-3.87,8.64-8.64,8.64-8.77-3.87-8.64-8.64c.14-4.87,4.06-8.78,8.64-8.64Z" style="fill: #cd6734; opacity: .93;"/>
                <path d="M61.54,33.15c4.77,.15,8.64,3.87,8.64,8.64s-3.87,8.64-8.64,8.64-8.77-3.87-8.64-8.64c.14-4.87,4.06-8.78,8.64-8.64Z" style="fill: #cd6835; opacity: .92;"/>
                <path d="M61.55,33.15c4.77,.15,8.64,3.87,8.64,8.64s-3.87,8.64-8.64,8.64-8.77-3.87-8.64-8.64c.14-4.87,4.06-8.78,8.64-8.64Z" style="fill: #ce6937; opacity: .92;"/>
                <path d="M61.55,33.16c4.77,.15,8.64,3.87,8.64,8.64s-3.87,8.64-8.64,8.64-8.77-3.87-8.64-8.64c.14-4.87,4.06-8.78,8.64-8.64Z" style="fill: #ce6a38; opacity: .91;"/>
                <path d="M61.56,33.16c4.77,.15,8.64,3.87,8.64,8.64s-3.87,8.64-8.64,8.64-8.77-3.87-8.64-8.64c.13-4.87,4.06-8.78,8.64-8.64Z" style="fill: #ce6b39; opacity: .91;"/>
                <path d="M61.56,33.17c4.77,.15,8.64,3.87,8.64,8.64s-3.87,8.64-8.64,8.64-8.77-3.87-8.64-8.64c.13-4.87,4.06-8.78,8.64-8.64Z" style="fill: #ce6b3a; opacity: .9;"/>
                <path d="M61.56,33.17c4.77,.15,8.64,3.87,8.64,8.64s-3.87,8.64-8.64,8.64-8.77-3.87-8.64-8.64c.13-4.87,4.06-8.78,8.64-8.64Z" style="fill: #cf6c3b; opacity: .9;"/>
                <path d="M61.57,33.18c4.77,.15,8.64,3.87,8.64,8.64s-3.87,8.64-8.64,8.64-8.77-3.87-8.64-8.64c.13-4.87,4.06-8.78,8.64-8.64Z" style="fill: #cf6d3c; opacity: .89;"/>
                <path d="M61.57,33.18c4.77,.15,8.64,3.87,8.64,8.64s-3.87,8.64-8.64,8.64-8.77-3.87-8.64-8.64c.13-4.87,4.05-8.78,8.64-8.64Z" style="fill: #cf6e3d; opacity: .89;"/>
                <path d="M61.58,33.18c4.77,.15,8.64,3.87,8.64,8.64s-3.87,8.64-8.64,8.64-8.76-3.87-8.64-8.64c.13-4.87,4.05-8.78,8.64-8.64Z" style="fill: #cf6f3e; opacity: .88;"/>
                <path d="M61.58,33.19c4.77,.14,8.64,3.87,8.64,8.64s-3.87,8.64-8.64,8.64-8.76-3.87-8.64-8.64c.13-4.87,4.05-8.77,8.64-8.64Z" style="fill: #d06f3f; opacity: .88;"/>
                <path d="M61.58,33.19c4.77,.14,8.64,3.87,8.64,8.64s-3.87,8.64-8.64,8.64-8.76-3.87-8.64-8.64c.13-4.87,4.05-8.77,8.64-8.64Z" style="fill: #d07040; opacity: .87;"/>
                <path d="M61.59,33.2c4.77,.14,8.64,3.87,8.64,8.64s-3.87,8.64-8.64,8.64-8.76-3.87-8.64-8.64c.13-4.87,4.05-8.77,8.64-8.64Z" style="fill: #d07141; opacity: .87;"/>
                <path d="M61.59,33.2c4.77,.14,8.64,3.87,8.64,8.64s-3.87,8.64-8.64,8.64-8.76-3.87-8.64-8.64c.13-4.87,4.05-8.77,8.64-8.64Z" style="fill: #d17243; opacity: .86;"/>
                <path d="M61.6,33.21c4.77,.14,8.64,3.87,8.64,8.64s-3.87,8.64-8.64,8.64-8.76-3.87-8.64-8.64c.13-4.86,4.05-8.77,8.64-8.64Z" style="fill: #d17344; opacity: .86;"/>
                <path d="M61.6,33.21c4.77,.14,8.64,3.87,8.64,8.64s-3.87,8.64-8.64,8.64-8.76-3.87-8.64-8.64c.13-4.86,4.05-8.77,8.64-8.64Z" style="fill: #d17345; opacity: .85;"/>
                <path d="M61.6,33.21c4.77,.14,8.64,3.87,8.64,8.64s-3.87,8.64-8.64,8.64-8.76-3.87-8.64-8.64c.13-4.86,4.05-8.77,8.64-8.64Z" style="fill: #d17446; opacity: .85;"/>
                <path d="M61.61,33.22c4.77,.14,8.64,3.87,8.64,8.64s-3.87,8.64-8.64,8.64-8.76-3.87-8.64-8.64c.13-4.86,4.05-8.77,8.64-8.64Z" style="fill: #d27547; opacity: .84;"/>
                <path d="M61.61,33.22c4.77,.14,8.64,3.87,8.64,8.64s-3.87,8.64-8.64,8.64-8.76-3.87-8.64-8.64c.12-4.86,4.04-8.77,8.64-8.64Z" style="fill: #d27648; opacity: .84;"/>
                <path d="M61.62,33.23c4.77,.14,8.64,3.87,8.64,8.64s-3.87,8.64-8.64,8.64-8.76-3.87-8.64-8.64c.12-4.86,4.04-8.77,8.64-8.64Z" style="fill: #d27749; opacity: .83;"/>
                <path d="M61.62,33.23c4.77,.14,8.64,3.87,8.64,8.64s-3.87,8.64-8.64,8.64-8.76-3.87-8.64-8.64c.12-4.86,4.04-8.77,8.64-8.64Z" style="fill: #d2784a; opacity: .83;"/>
                <path d="M61.62,33.23c4.77,.14,8.64,3.87,8.64,8.64s-3.87,8.64-8.64,8.64-8.76-3.87-8.64-8.64c.12-4.86,4.04-8.77,8.64-8.64Z" style="fill: #d3784b; opacity: .82;"/>
                <path d="M61.63,33.24c4.77,.13,8.64,3.87,8.64,8.64s-3.87,8.64-8.64,8.64-8.76-3.87-8.64-8.64c.12-4.86,4.04-8.77,8.64-8.64Z" style="fill: #d3794c; opacity: .82;"/>
                <path d="M61.63,33.24c4.77,.13,8.64,3.87,8.64,8.64s-3.87,8.64-8.64,8.64-8.75-3.87-8.64-8.64c.12-4.86,4.04-8.76,8.64-8.64Z" style="fill: #d37a4d; opacity: .81;"/>
                <path d="M61.64,33.25c4.77,.13,8.64,3.87,8.64,8.64s-3.87,8.64-8.64,8.64-8.75-3.87-8.64-8.64c.12-4.86,4.04-8.76,8.64-8.64Z" style="fill: #d37b4e; opacity: .81;"/>
                <path d="M61.64,33.25c4.77,.13,8.64,3.87,8.64,8.64s-3.87,8.64-8.64,8.64-8.75-3.87-8.64-8.64c.12-4.86,4.04-8.76,8.64-8.64Z" style="fill: #d47c50; opacity: .8;"/>
                <path d="M61.64,33.26c4.77,.13,8.64,3.87,8.64,8.64s-3.87,8.64-8.64,8.64-8.75-3.87-8.64-8.64c.12-4.86,4.04-8.76,8.64-8.64Z" style="fill: #d47c51; opacity: .8;"/>
                <path d="M61.65,33.26c4.77,.13,8.64,3.87,8.64,8.64s-3.87,8.64-8.64,8.64-8.75-3.87-8.64-8.64c.12-4.86,4.03-8.76,8.64-8.64Z" style="fill: #d47d52; opacity: .79;"/>
                <path d="M61.65,33.26c4.77,.13,8.64,3.87,8.64,8.64s-3.87,8.64-8.64,8.64-8.75-3.87-8.64-8.64c.12-4.86,4.03-8.76,8.64-8.64Z" style="fill: #d57e53; opacity: .79;"/>
                <path d="M61.66,33.27c4.77,.13,8.64,3.87,8.64,8.64s-3.87,8.64-8.64,8.64-8.75-3.87-8.64-8.64c.12-4.86,4.03-8.76,8.64-8.64Z" style="fill: #d57f54; opacity: .78;"/>
                <path d="M61.66,33.27c4.77,.13,8.64,3.87,8.64,8.64s-3.87,8.64-8.64,8.64-8.75-3.87-8.64-8.64c.12-4.86,4.03-8.76,8.64-8.64Z" style="fill: #d58055; opacity: .78;"/>
                <path d="M61.66,33.28c4.77,.13,8.64,3.87,8.64,8.64s-3.87,8.64-8.64,8.64-8.75-3.87-8.64-8.64c.11-4.86,4.03-8.76,8.64-8.64Z" style="fill: #d58156; opacity: .77;"/>
                <path d="M61.67,33.28c4.77,.13,8.64,3.87,8.64,8.64s-3.87,8.64-8.64,8.64-8.75-3.87-8.64-8.64c.11-4.85,4.03-8.76,8.64-8.64Z" style="fill: #d68157; opacity: .77;"/>
                <path d="M61.67,33.29c4.77,.13,8.64,3.87,8.64,8.64s-3.87,8.64-8.64,8.64-8.75-3.87-8.64-8.64c.11-4.85,4.03-8.76,8.64-8.64Z" style="fill: #d68258; opacity: .76;"/>
                <path d="M61.68,33.29c4.77,.12,8.64,3.87,8.64,8.64s-3.87,8.64-8.64,8.64-8.75-3.87-8.64-8.64c.11-4.85,4.03-8.76,8.64-8.64Z" style="fill: #d68359; opacity: .76;"/>
                <path d="M61.68,33.29c4.77,.12,8.64,3.87,8.64,8.64s-3.87,8.64-8.64,8.64-8.75-3.87-8.64-8.64c.11-4.85,4.03-8.75,8.64-8.64Z" style="fill: #d6845a; opacity: .75;"/>
                <path d="M61.68,33.3c4.77,.12,8.64,3.87,8.64,8.64s-3.87,8.64-8.64,8.64-8.75-3.87-8.64-8.64c.11-4.85,4.03-8.75,8.64-8.64Z" style="fill: #d7855c; opacity: .75;"/>
                <path d="M61.69,33.3c4.77,.12,8.64,3.87,8.64,8.64s-3.87,8.64-8.64,8.64-8.74-3.87-8.64-8.64c.11-4.85,4.02-8.75,8.64-8.64Z" style="fill: #d7855d; opacity: .74;"/>
                <path d="M61.69,33.31c4.77,.12,8.64,3.87,8.64,8.64s-3.87,8.64-8.64,8.64-8.74-3.87-8.64-8.64c.11-4.85,4.02-8.75,8.64-8.64Z" style="fill: #d7865e; opacity: .74;"/>
                <path d="M61.7,33.31c4.77,.12,8.64,3.87,8.64,8.64s-3.87,8.64-8.64,8.64-8.74-3.87-8.64-8.64c.11-4.85,4.02-8.75,8.64-8.64Z" style="fill: #d8875f; opacity: .73;"/>
                <path d="M61.7,33.32c4.77,.12,8.64,3.87,8.64,8.64s-3.87,8.64-8.64,8.64-8.74-3.87-8.64-8.64c.11-4.85,4.02-8.75,8.64-8.64Z" style="fill: #d88860; opacity: .73;"/>
                <path d="M61.7,33.32c4.77,.12,8.64,3.87,8.64,8.64s-3.87,8.64-8.64,8.64-8.74-3.87-8.64-8.64c.11-4.85,4.02-8.75,8.64-8.64Z" style="fill: #d88961; opacity: .72;"/>
                <path d="M61.71,33.32c4.77,.12,8.64,3.87,8.64,8.64s-3.87,8.64-8.64,8.64-8.74-3.87-8.64-8.64c.11-4.85,4.02-8.75,8.64-8.64Z" style="fill: #d88a62; opacity: .72;"/>
                <path d="M61.71,33.33c4.77,.12,8.64,3.87,8.64,8.64s-3.87,8.64-8.64,8.64-8.74-3.87-8.64-8.64c.11-4.85,4.02-8.75,8.64-8.64Z" style="fill: #d98a63; opacity: .71;"/>
                <path d="M61.72,33.33c4.77,.12,8.64,3.87,8.64,8.64s-3.87,8.64-8.64,8.64-8.74-3.87-8.64-8.64c.11-4.85,4.02-8.75,8.64-8.64Z" style="fill: #d98b64; opacity: .71;"/>
                <path d="M61.72,33.34c4.77,.12,8.64,3.87,8.64,8.64s-3.87,8.64-8.64,8.64-8.74-3.87-8.64-8.64c.1-4.85,4.02-8.75,8.64-8.64Z" style="fill: #d98c65; opacity: .7;"/>
                <path d="M61.73,33.34c4.77,.11,8.64,3.87,8.64,8.64s-3.87,8.64-8.64,8.64-8.74-3.87-8.64-8.64c.1-4.85,4.01-8.75,8.64-8.64Z" style="fill: #d98d66; opacity: .7;"/>
                <path d="M61.73,33.35c4.77,.11,8.64,3.87,8.64,8.64s-3.87,8.64-8.64,8.64-8.74-3.87-8.64-8.64c.1-4.85,4.01-8.75,8.64-8.64Z" style="fill: #da8e68; opacity: .69;"/>
                <path d="M61.73,33.35c4.77,.11,8.64,3.87,8.64,8.64s-3.87,8.64-8.64,8.64-8.74-3.87-8.64-8.64c.1-4.85,4.01-8.74,8.64-8.64Z" style="fill: #da8e69; opacity: .69;"/>
                <path d="M61.74,33.35c4.77,.11,8.64,3.87,8.64,8.64s-3.87,8.64-8.64,8.64-8.74-3.87-8.64-8.64c.1-4.85,4.01-8.74,8.64-8.64Z" style="fill: #da8f6a; opacity: .68;"/>
                <path d="M61.74,33.36c4.77,.11,8.64,3.87,8.64,8.64s-3.87,8.64-8.64,8.64-8.74-3.87-8.64-8.64c.1-4.84,4.01-8.74,8.64-8.64Z" style="fill: #da906b; opacity: .68;"/>
                <path d="M61.75,33.36c4.77,.11,8.64,3.87,8.64,8.64s-3.87,8.64-8.64,8.64-8.73-3.87-8.64-8.64c.1-4.84,4.01-8.74,8.64-8.64Z" style="fill: #db916c; opacity: .67;"/>
                <path d="M61.75,33.37c4.77,.11,8.64,3.87,8.64,8.64s-3.87,8.64-8.64,8.64-8.73-3.87-8.64-8.64c.1-4.84,4.01-8.74,8.64-8.64Z" style="fill: #db926d; opacity: .67;"/>
                <path d="M61.75,33.37c4.77,.11,8.64,3.87,8.64,8.64s-3.87,8.64-8.64,8.64-8.73-3.87-8.64-8.64c.1-4.84,4.01-8.74,8.64-8.64Z" style="fill: #db926e; opacity: .66;"/>
                <path d="M61.76,33.37c4.77,.11,8.64,3.87,8.64,8.64s-3.87,8.64-8.64,8.64-8.73-3.87-8.64-8.64c.1-4.84,4.01-8.74,8.64-8.64Z" style="fill: #dc936f; opacity: .66;"/>
                <path d="M61.76,33.38c4.77,.11,8.64,3.87,8.64,8.64s-3.87,8.64-8.64,8.64-8.73-3.87-8.64-8.64c.1-4.84,4.01-8.74,8.64-8.64Z" style="fill: #dc9470; opacity: .65;"/>
                <path d="M61.77,33.38c4.77,.11,8.64,3.87,8.64,8.64s-3.87,8.64-8.64,8.64-8.73-3.87-8.64-8.64c.1-4.84,4-8.74,8.64-8.64Z" style="fill: #dc9571; opacity: .65;"/>
                <path d="M61.77,33.39c4.77,.11,8.64,3.87,8.64,8.64s-3.87,8.64-8.64,8.64-8.73-3.87-8.64-8.64c.1-4.84,4-8.74,8.64-8.64Z" style="fill: #dc9672; opacity: .64;"/>
                <path d="M61.77,33.39c4.77,.11,8.64,3.87,8.64,8.64s-3.87,8.64-8.64,8.64-8.73-3.87-8.64-8.64c.09-4.84,4-8.74,8.64-8.64Z" style="fill: #dd9774; opacity: .64;"/>
                <path d="M61.78,33.4c4.77,.1,8.64,3.87,8.64,8.64s-3.87,8.64-8.64,8.64-8.73-3.87-8.64-8.64c.09-4.84,4-8.74,8.64-8.64Z" style="fill: #dd9775; opacity: .63;"/>
                <path d="M61.78,33.4c4.77,.1,8.64,3.87,8.64,8.64s-3.87,8.64-8.64,8.64-8.73-3.87-8.64-8.64c.09-4.84,4-8.74,8.64-8.64Z" style="fill: #dd9876; opacity: .63;"/>
                <path d="M61.79,33.4c4.77,.1,8.64,3.87,8.64,8.64s-3.87,8.64-8.64,8.64-8.73-3.87-8.64-8.64c.09-4.84,4-8.73,8.64-8.64Z" style="fill: #d97; opacity: .62;"/>
                <path d="M61.79,33.41c4.77,.1,8.64,3.87,8.64,8.64s-3.87,8.64-8.64,8.64-8.73-3.87-8.64-8.64c.09-4.84,4-8.73,8.64-8.64Z" style="fill: #de9a78; opacity: .62;"/>
                <path d="M61.79,33.41c4.77,.1,8.64,3.87,8.64,8.64s-3.87,8.64-8.64,8.64-8.73-3.87-8.64-8.64c.09-4.84,4-8.73,8.64-8.64Z" style="fill: #de9b79; opacity: .61;"/>
                <path d="M61.8,33.42c4.77,.1,8.64,3.87,8.64,8.64s-3.87,8.64-8.64,8.64-8.72-3.87-8.64-8.64c.09-4.84,4-8.73,8.64-8.64Z" style="fill: #de9b7a; opacity: .61;"/>
                <path d="M61.8,33.42c4.77,.1,8.64,3.87,8.64,8.64s-3.87,8.64-8.64,8.64-8.72-3.87-8.64-8.64c.09-4.84,3.99-8.73,8.64-8.64Z" style="fill: #de9c7b; opacity: .6;"/>
                <path d="M61.81,33.43c4.77,.1,8.64,3.87,8.64,8.64s-3.87,8.64-8.64,8.64-8.72-3.87-8.64-8.64c.09-4.84,3.99-8.73,8.64-8.64Z" style="fill: #df9d7c; opacity: .6;"/>
                <path d="M61.81,33.43c4.77,.1,8.64,3.87,8.64,8.64s-3.87,8.64-8.64,8.64-8.72-3.87-8.64-8.64c.09-4.84,3.99-8.73,8.64-8.64Z" style="fill: #df9e7d; opacity: .59;"/>
                <path d="M61.81,33.43c4.77,.1,8.64,3.87,8.64,8.64s-3.87,8.64-8.64,8.64-8.72-3.87-8.64-8.64c.09-4.83,3.99-8.73,8.64-8.64Z" style="fill: #df9f7e; opacity: .59;"/>
                <path d="M61.82,33.44c4.77,.1,8.64,3.87,8.64,8.64s-3.87,8.64-8.64,8.64-8.72-3.87-8.64-8.64c.09-4.83,3.99-8.73,8.64-8.64Z" style="fill: #e0a080; opacity: .58;"/>
                <path d="M61.82,33.44c4.77,.1,8.64,3.87,8.64,8.64s-3.87,8.64-8.64,8.64-8.72-3.87-8.64-8.64c.09-4.83,3.99-8.73,8.64-8.64Z" style="fill: #e0a081; opacity: .58;"/>
                <path d="M61.83,33.45c4.77,.09,8.64,3.87,8.64,8.64s-3.87,8.64-8.64,8.64-8.72-3.87-8.64-8.64c.09-4.83,3.99-8.73,8.64-8.64Z" style="fill: #e0a182; opacity: .57;"/>
                <path d="M61.83,33.45c4.77,.09,8.64,3.87,8.64,8.64s-3.87,8.64-8.64,8.64-8.72-3.87-8.64-8.64c.08-4.83,3.99-8.73,8.64-8.64Z" style="fill: #e0a283; opacity: .57;"/>
                <path d="M61.83,33.46c4.77,.09,8.64,3.87,8.64,8.64s-3.87,8.64-8.64,8.64-8.72-3.87-8.64-8.64c.08-4.83,3.99-8.73,8.64-8.64Z" style="fill: #e1a384; opacity: .56;"/>
                <path d="M61.84,33.46c4.77,.09,8.64,3.87,8.64,8.64s-3.87,8.64-8.64,8.64-8.72-3.87-8.64-8.64c.08-4.83,3.99-8.72,8.64-8.64Z" style="fill: #e1a485; opacity: .56;"/>
                <path d="M61.84,33.46c4.77,.09,8.64,3.87,8.64,8.64s-3.87,8.64-8.64,8.64-8.72-3.87-8.64-8.64c.08-4.83,3.98-8.72,8.64-8.64Z" style="fill: #e1a486; opacity: .55;"/>
                <path d="M61.85,33.47c4.77,.09,8.64,3.87,8.64,8.64s-3.87,8.64-8.64,8.64-8.72-3.87-8.64-8.64c.08-4.83,3.98-8.72,8.64-8.64Z" style="fill: #e1a587; opacity: .55;"/>
                <path d="M61.85,33.47c4.77,.09,8.64,3.87,8.64,8.64s-3.87,8.64-8.64,8.64-8.72-3.87-8.64-8.64c.08-4.83,3.98-8.72,8.64-8.64Z" style="fill: #e2a688; opacity: .54;"/>
                <path d="M61.85,33.48c4.77,.09,8.64,3.87,8.64,8.64s-3.87,8.64-8.64,8.64-8.71-3.87-8.64-8.64c.08-4.83,3.98-8.72,8.64-8.64Z" style="fill: #e2a789; opacity: .54;"/>
                <path d="M61.86,33.48c4.77,.09,8.64,3.87,8.64,8.64s-3.87,8.64-8.64,8.64-8.71-3.87-8.64-8.64c.08-4.83,3.98-8.72,8.64-8.64Z" style="fill: #e2a88a; opacity: .53;"/>
                <path d="M61.86,33.49c4.77,.09,8.64,3.87,8.64,8.64s-3.87,8.64-8.64,8.64-8.71-3.87-8.64-8.64c.08-4.83,3.98-8.72,8.64-8.64Z" style="fill: #e3a98c; opacity: .53;"/>
                <path d="M61.87,33.49c4.77,.09,8.64,3.87,8.64,8.64s-3.87,8.64-8.64,8.64-8.71-3.87-8.64-8.64c.08-4.83,3.98-8.72,8.64-8.64Z" style="fill: #e3a98d; opacity: .52;"/>
                <path d="M61.87,33.49c4.77,.09,8.64,3.87,8.64,8.64s-3.87,8.64-8.64,8.64-8.71-3.87-8.64-8.64c.08-4.83,3.98-8.72,8.64-8.64Z" style="fill: #e3aa8e; opacity: .52;"/>
                <path d="M61.87,33.5c4.77,.08,8.64,3.87,8.64,8.64s-3.87,8.64-8.64,8.64-8.71-3.87-8.64-8.64c.08-4.83,3.98-8.72,8.64-8.64Z" style="fill: #e3ab8f; opacity: .51;"/>
                <path d="M61.88,33.5c4.77,.08,8.64,3.87,8.64,8.64s-3.87,8.64-8.64,8.64-8.71-3.87-8.64-8.64c.08-4.83,3.97-8.72,8.64-8.64Z" style="fill: #e4ac90; opacity: .51;"/>
                <path d="M61.88,33.51c4.77,.08,8.64,3.87,8.64,8.64s-3.87,8.64-8.64,8.64-8.71-3.87-8.64-8.64c.07-4.83,3.97-8.72,8.64-8.64Z" style="fill: #e4ad91; opacity: .5;"/>
                <path d="M61.89,33.51c4.77,.08,8.64,3.87,8.64,8.64s-3.87,8.64-8.64,8.64-8.71-3.87-8.64-8.64c.07-4.83,3.97-8.71,8.64-8.64Z" style="fill: #e4ad92; opacity: .5;"/>
                <path d="M61.89,33.51c4.77,.08,8.64,3.87,8.64,8.64s-3.87,8.64-8.64,8.64-8.71-3.87-8.64-8.64c.07-4.82,3.97-8.71,8.64-8.64Z" style="fill: #e4ae93; opacity: .49;"/>
                <path d="M61.89,33.52c4.77,.08,8.64,3.87,8.64,8.64s-3.87,8.64-8.64,8.64-8.71-3.87-8.64-8.64c.07-4.82,3.97-8.71,8.64-8.64Z" style="fill: #e5af94; opacity: .49;"/>
                <path d="M61.9,33.52c4.77,.08,8.64,3.87,8.64,8.64s-3.87,8.64-8.64,8.64-8.71-3.87-8.64-8.64c.07-4.82,3.97-8.71,8.64-8.64Z" style="fill: #e5b095; opacity: .48;"/>
                <path d="M61.9,33.53c4.77,.08,8.64,3.87,8.64,8.64s-3.87,8.64-8.64,8.64-8.71-3.87-8.64-8.64c.07-4.82,3.97-8.71,8.64-8.64Z" style="fill: #e5b196; opacity: .48;"/>
                <path d="M61.91,33.53c4.77,.08,8.64,3.87,8.64,8.64s-3.87,8.64-8.64,8.64-8.71-3.87-8.64-8.64c.07-4.82,3.97-8.71,8.64-8.64Z" style="fill: #e5b197; opacity: .47;"/>
                <path d="M61.91,33.54c4.77,.08,8.64,3.87,8.64,8.64s-3.87,8.64-8.64,8.64-8.7-3.87-8.64-8.64c.07-4.82,3.97-8.71,8.64-8.64Z" style="fill: #e6b299; opacity: .47;"/>
                <path d="M61.91,33.54c4.77,.08,8.64,3.87,8.64,8.64s-3.87,8.64-8.64,8.64-8.7-3.87-8.64-8.64c.07-4.82,3.97-8.71,8.64-8.64Z" style="fill: #e6b39a; opacity: .46;"/>
                <path d="M61.92,33.54c4.77,.08,8.64,3.87,8.64,8.64s-3.87,8.64-8.64,8.64-8.7-3.87-8.64-8.64c.07-4.82,3.96-8.71,8.64-8.64Z" style="fill: #e6b49b; opacity: .46;"/>
                <path d="M61.92,33.55c4.77,.07,8.64,3.87,8.64,8.64s-3.87,8.64-8.64,8.64-8.7-3.87-8.64-8.64c.07-4.82,3.96-8.71,8.64-8.64Z" style="fill: #e7b59c; opacity: .45;"/>
                <path d="M61.93,33.55c4.77,.07,8.64,3.87,8.64,8.64s-3.87,8.64-8.64,8.64-8.7-3.87-8.64-8.64c.07-4.82,3.96-8.71,8.64-8.64Z" style="fill: #e7b69d; opacity: .45;"/>
                <path d="M61.93,33.56c4.77,.07,8.64,3.87,8.64,8.64s-3.87,8.64-8.64,8.64-8.7-3.87-8.64-8.64c.07-4.82,3.96-8.71,8.64-8.64Z" style="fill: #e7b69e; opacity: .44;"/>
                <path d="M61.93,33.56c4.77,.07,8.64,3.87,8.64,8.64s-3.87,8.64-8.64,8.64-8.7-3.87-8.64-8.64c.07-4.82,3.96-8.71,8.64-8.64Z" style="fill: #e7b79f; opacity: .44;"/>
                <path d="M61.94,33.57c4.77,.07,8.64,3.87,8.64,8.64s-3.87,8.64-8.64,8.64-8.7-3.87-8.64-8.64c.06-4.82,3.96-8.7,8.64-8.64Z" style="fill: #e8b8a0; opacity: .43;"/>
                <path d="M61.94,33.57c4.77,.07,8.64,3.87,8.64,8.64s-3.87,8.64-8.64,8.64-8.7-3.87-8.64-8.64c.06-4.82,3.96-8.7,8.64-8.64Z" style="fill: #e8b9a1; opacity: .43;"/>
                <path d="M61.95,33.57c4.77,.07,8.64,3.87,8.64,8.64s-3.87,8.64-8.64,8.64-8.7-3.87-8.64-8.64c.06-4.82,3.96-8.7,8.64-8.64Z" style="fill: #e8baa2; opacity: .42;"/>
                <path d="M61.95,33.58c4.77,.07,8.64,3.87,8.64,8.64s-3.87,8.64-8.64,8.64-8.7-3.87-8.64-8.64c.06-4.82,3.96-8.7,8.64-8.64Z" style="fill: #e8baa3; opacity: .42;"/>
                <path d="M61.95,33.58c4.77,.07,8.64,3.87,8.64,8.64s-3.87,8.64-8.64,8.64-8.7-3.87-8.64-8.64c.06-4.82,3.95-8.7,8.64-8.64Z" style="fill: #e9bba5; opacity: .41;"/>
                <path d="M61.96,33.59c4.77,.07,8.64,3.87,8.64,8.64s-3.87,8.64-8.64,8.64-8.7-3.87-8.64-8.64c.06-4.82,3.95-8.7,8.64-8.64Z" style="fill: #e9bca6; opacity: .41;"/>
                <path d="M61.96,33.59c4.77,.07,8.64,3.87,8.64,8.64s-3.87,8.64-8.64,8.64-8.7-3.87-8.64-8.64c.06-4.81,3.95-8.7,8.64-8.64Z" style="fill: #e9bda7; opacity: .4;"/>
                <path d="M61.97,33.6c4.77,.07,8.64,3.87,8.64,8.64s-3.87,8.64-8.64,8.64-8.69-3.87-8.64-8.64c.06-4.81,3.95-8.7,8.64-8.64Z" style="fill: #eabea8; opacity: .4;"/>
                <path d="M61.97,33.6c4.77,.06,8.64,3.87,8.64,8.64s-3.87,8.64-8.64,8.64-8.69-3.87-8.64-8.64c.06-4.81,3.95-8.7,8.64-8.64Z" style="fill: #eabfa9; opacity: .39;"/>
                <path d="M61.98,33.6c4.77,.06,8.64,3.87,8.64,8.64s-3.87,8.64-8.64,8.64-8.69-3.87-8.64-8.64c.06-4.81,3.95-8.7,8.64-8.64Z" style="fill: #eabfaa; opacity: .39;"/>
                <path d="M61.98,33.61c4.77,.06,8.64,3.87,8.64,8.64s-3.87,8.64-8.64,8.64-8.69-3.87-8.64-8.64c.06-4.81,3.95-8.7,8.64-8.64Z" style="fill: #eac0ab; opacity: .38;"/>
                <path d="M61.98,33.61c4.77,.06,8.64,3.87,8.64,8.64s-3.87,8.64-8.64,8.64-8.69-3.87-8.64-8.64c.06-4.81,3.95-8.7,8.64-8.64Z" style="fill: #ebc1ac; opacity: .38;"/>
                <path d="M61.99,33.62c4.77,.06,8.64,3.87,8.64,8.64s-3.87,8.64-8.64,8.64-8.69-3.87-8.64-8.64c.06-4.81,3.95-8.7,8.64-8.64Z" style="fill: #ebc2ad; opacity: .37;"/>
                <path d="M61.99,33.62c4.77,.06,8.64,3.87,8.64,8.64s-3.87,8.64-8.64,8.64-8.69-3.87-8.64-8.64c.05-4.81,3.94-8.69,8.64-8.64Z" style="fill: #ebc3ae; opacity: .37;"/>
                <path d="M62,33.63c4.77,.06,8.64,3.87,8.64,8.64s-3.87,8.64-8.64,8.64-8.69-3.87-8.64-8.64c.05-4.81,3.94-8.69,8.64-8.64Z" style="fill: #ebc3af; opacity: .36;"/>
                <path d="M62,33.63c4.77,.06,8.64,3.87,8.64,8.64s-3.87,8.64-8.64,8.64-8.69-3.87-8.64-8.64c.05-4.81,3.94-8.69,8.64-8.64Z" style="fill: #ecc4b1; opacity: .36;"/>
                <path d="M62,33.63c4.77,.06,8.64,3.87,8.64,8.64s-3.87,8.64-8.64,8.64-8.69-3.87-8.64-8.64c.05-4.81,3.94-8.69,8.64-8.64Z" style="fill: #ecc5b2; opacity: .35;"/>
                <path d="M62.01,33.64c4.77,.06,8.64,3.87,8.64,8.64s-3.87,8.64-8.64,8.64-8.69-3.87-8.64-8.64c.05-4.81,3.94-8.69,8.64-8.64Z" style="fill: #ecc6b3; opacity: .35;"/>
                <path d="M62.01,33.64c4.77,.06,8.64,3.87,8.64,8.64s-3.87,8.64-8.64,8.64-8.69-3.87-8.64-8.64c.05-4.81,3.94-8.69,8.64-8.64Z" style="fill: #ecc7b4; opacity: .34;"/>
                <path d="M62.02,33.65c4.77,.06,8.64,3.87,8.64,8.64s-3.87,8.64-8.64,8.64-8.69-3.87-8.64-8.64c.05-4.81,3.94-8.69,8.64-8.64Z" style="fill: #edc8b5; opacity: .34;"/>
                <path d="M62.02,33.65c4.77,.05,8.64,3.87,8.64,8.64s-3.87,8.64-8.64,8.64-8.69-3.87-8.64-8.64c.05-4.81,3.94-8.69,8.64-8.64Z" style="fill: #edc8b6; opacity: .33;"/>
                <path d="M62.02,33.65c4.77,.05,8.64,3.87,8.64,8.64s-3.87,8.64-8.64,8.64-8.68-3.87-8.64-8.64c.05-4.81,3.94-8.69,8.64-8.64Z" style="fill: #edc9b7; opacity: .33;"/>
                <path d="M62.03,33.66c4.77,.05,8.64,3.87,8.64,8.64s-3.87,8.64-8.64,8.64-8.68-3.87-8.64-8.64c.05-4.81,3.94-8.69,8.64-8.64Z" style="fill: #eecab8; opacity: .32;"/>
                <path d="M62.03,33.66c4.77,.05,8.64,3.87,8.64,8.64s-3.87,8.64-8.64,8.64-8.68-3.87-8.64-8.64c.05-4.81,3.93-8.69,8.64-8.64Z" style="fill: #eecbb9; opacity: .32;"/>
                <path d="M62.04,33.67c4.77,.05,8.64,3.87,8.64,8.64s-3.87,8.64-8.64,8.64-8.68-3.87-8.64-8.64c.05-4.8,3.93-8.69,8.64-8.64Z" style="fill: #eeccba; opacity: .31;"/>
                <path d="M62.04,33.67c4.77,.05,8.64,3.87,8.64,8.64s-3.87,8.64-8.64,8.64-8.68-3.87-8.64-8.64c.05-4.8,3.93-8.69,8.64-8.64Z" style="fill: #ecb; opacity: .31;"/>
                <path d="M62.04,33.68c4.77,.05,8.64,3.87,8.64,8.64s-3.87,8.64-8.64,8.64-8.68-3.87-8.64-8.64c.05-4.8,3.93-8.68,8.64-8.64Z" style="fill: #efcdbd; opacity: .3;"/>
                <path d="M62.05,33.68c4.77,.05,8.64,3.87,8.64,8.64s-3.87,8.64-8.64,8.64-8.68-3.87-8.64-8.64c.04-4.8,3.93-8.68,8.64-8.64Z" style="fill: #efcebe; opacity: .3;"/>
                <path d="M62.05,33.68c4.77,.05,8.64,3.87,8.64,8.64s-3.87,8.64-8.64,8.64-8.68-3.87-8.64-8.64c.04-4.8,3.93-8.68,8.64-8.64Z" style="fill: #efcfbf; opacity: .29;"/>
                <path d="M62.06,33.69c4.77,.05,8.64,3.87,8.64,8.64s-3.87,8.64-8.64,8.64-8.68-3.87-8.64-8.64c.04-4.8,3.93-8.68,8.64-8.64Z" style="fill: #efd0c0; opacity: .29;"/>
                <path d="M62.06,33.69c4.77,.05,8.64,3.87,8.64,8.64s-3.87,8.64-8.64,8.64-8.68-3.87-8.64-8.64c.04-4.8,3.93-8.68,8.64-8.64Z" style="fill: #f0d0c1; opacity: .28;"/>
                <path d="M62.06,33.7c4.77,.05,8.64,3.87,8.64,8.64s-3.87,8.64-8.64,8.64-8.68-3.87-8.64-8.64c.04-4.8,3.93-8.68,8.64-8.64Z" style="fill: #f0d1c2; opacity: .28;"/>
                <path d="M62.07,33.7c4.77,.05,8.64,3.87,8.64,8.64s-3.87,8.64-8.64,8.64-8.68-3.87-8.64-8.64c.04-4.8,3.92-8.68,8.64-8.64Z" style="fill: #f0d2c3; opacity: .27;"/>
                <path d="M62.07,33.71c4.77,.04,8.64,3.87,8.64,8.64s-3.87,8.64-8.64,8.64-8.68-3.87-8.64-8.64c.04-4.8,3.92-8.68,8.64-8.64Z" style="fill: #f0d3c4; opacity: .27;"/>
                <path d="M62.08,33.71c4.77,.04,8.64,3.87,8.64,8.64s-3.87,8.64-8.64,8.64-8.67-3.87-8.64-8.64c.04-4.8,3.92-8.68,8.64-8.64Z" style="fill: #f1d4c5; opacity: .26;"/>
                <path d="M62.08,33.71c4.77,.04,8.64,3.87,8.64,8.64s-3.87,8.64-8.64,8.64-8.67-3.87-8.64-8.64c.04-4.8,3.92-8.68,8.64-8.64Z" style="fill: #f1d5c6; opacity: .26;"/>
                <path d="M62.08,33.72c4.77,.04,8.64,3.87,8.64,8.64s-3.87,8.64-8.64,8.64-8.67-3.87-8.64-8.64c.04-4.8,3.92-8.68,8.64-8.64Z" style="fill: #f1d5c7; opacity: .25;"/>
                <path d="M62.09,33.72c4.77,.04,8.64,3.87,8.64,8.64s-3.87,8.64-8.64,8.64-8.67-3.87-8.64-8.64c.04-4.8,3.92-8.68,8.64-8.64Z" style="fill: #f2d6c9; opacity: .25;"/>
                <path d="M62.09,33.73c4.77,.04,8.64,3.87,8.64,8.64s-3.87,8.64-8.64,8.64-8.67-3.87-8.64-8.64c.04-4.8,3.92-8.67,8.64-8.64Z" style="fill: #f2d7ca; opacity: .24;"/>
                <path d="M62.1,33.73c4.77,.04,8.64,3.87,8.64,8.64s-3.87,8.64-8.64,8.64-8.67-3.87-8.64-8.64c.04-4.8,3.92-8.67,8.64-8.64Z" style="fill: #f2d8cb; opacity: .24;"/>
                <path d="M62.1,33.74c4.77,.04,8.64,3.87,8.64,8.64s-3.87,8.64-8.64,8.64-8.67-3.87-8.64-8.64c.03-4.8,3.92-8.67,8.64-8.64Z" style="fill: #f2d9cc; opacity: .23;"/>
                <path d="M62.1,33.74c4.77,.04,8.64,3.87,8.64,8.64s-3.87,8.64-8.64,8.64-8.67-3.87-8.64-8.64c.03-4.8,3.92-8.67,8.64-8.64Z" style="fill: #f3d9cd; opacity: .23;"/>
                <path d="M62.11,33.74c4.77,.04,8.64,3.87,8.64,8.64s-3.87,8.64-8.64,8.64-8.67-3.87-8.64-8.64c.03-4.79,3.91-8.67,8.64-8.64Z" style="fill: #f3dace; opacity: .22;"/>
                <path d="M62.11,33.75c4.77,.04,8.64,3.87,8.64,8.64s-3.87,8.64-8.64,8.64-8.67-3.87-8.64-8.64c.03-4.79,3.91-8.67,8.64-8.64Z" style="fill: #f3dbcf; opacity: .22;"/>
                <path d="M62.12,33.75c4.77,.04,8.64,3.87,8.64,8.64s-3.87,8.64-8.64,8.64-8.67-3.87-8.64-8.64c.03-4.79,3.91-8.67,8.64-8.64Z" style="fill: #f3dcd0; opacity: .21;"/>
                <path d="M62.12,33.76c4.77,.03,8.64,3.87,8.64,8.64s-3.87,8.64-8.64,8.64-8.67-3.87-8.64-8.64c.03-4.79,3.91-8.67,8.64-8.64Z" style="fill: #f4ddd1; opacity: .21;"/>
                <path d="M62.12,33.76c4.77,.03,8.64,3.87,8.64,8.64s-3.87,8.64-8.64,8.64-8.67-3.87-8.64-8.64c.03-4.79,3.91-8.67,8.64-8.64Z" style="fill: #f4ded2; opacity: .2;"/>
                <path d="M62.13,33.77c4.77,.03,8.64,3.87,8.64,8.64s-3.87,8.64-8.64,8.64-8.67-3.87-8.64-8.64c.03-4.79,3.91-8.67,8.64-8.64Z" style="fill: #f4ded3; opacity: .2;"/>
                <path d="M62.13,33.77c4.77,.03,8.64,3.87,8.64,8.64s-3.87,8.64-8.64,8.64-8.66-3.87-8.64-8.64c.03-4.79,3.91-8.67,8.64-8.64Z" style="fill: #f5dfd5; opacity: .19;"/>
                <path d="M62.14,33.77c4.77,.03,8.64,3.87,8.64,8.64s-3.87,8.64-8.64,8.64-8.66-3.87-8.64-8.64c.03-4.79,3.91-8.67,8.64-8.64Z" style="fill: #f5e0d6; opacity: .19;"/>
                <path d="M62.14,33.78c4.77,.03,8.64,3.87,8.64,8.64s-3.87,8.64-8.64,8.64-8.66-3.87-8.64-8.64c.03-4.79,3.91-8.67,8.64-8.64Z" style="fill: #f5e1d7; opacity: .18;"/>
                <path d="M62.14,33.78c4.77,.03,8.64,3.87,8.64,8.64s-3.87,8.64-8.64,8.64-8.66-3.87-8.64-8.64c.03-4.79,3.9-8.66,8.64-8.64Z" style="fill: #f5e2d8; opacity: .18;"/>
                <path d="M62.15,33.79c4.77,.03,8.64,3.87,8.64,8.64s-3.87,8.64-8.64,8.64-8.66-3.87-8.64-8.64c.03-4.79,3.9-8.66,8.64-8.64Z" style="fill: #f6e2d9; opacity: .17;"/>
                <path d="M62.15,33.79c4.77,.03,8.64,3.87,8.64,8.64s-3.87,8.64-8.64,8.64-8.66-3.87-8.64-8.64c.03-4.79,3.9-8.66,8.64-8.64Z" style="fill: #f6e3da; opacity: .17;"/>
                <path d="M62.16,33.79c4.77,.03,8.64,3.87,8.64,8.64s-3.87,8.64-8.64,8.64-8.66-3.87-8.64-8.64c.02-4.79,3.9-8.66,8.64-8.64Z" style="fill: #f6e4db; opacity: .16;"/>
                <path d="M62.16,33.8c4.77,.03,8.64,3.87,8.64,8.64s-3.87,8.64-8.64,8.64-8.66-3.87-8.64-8.64c.02-4.79,3.9-8.66,8.64-8.64Z" style="fill: #f6e5dc; opacity: .16;"/>
                <path d="M62.16,33.8c4.77,.03,8.64,3.87,8.64,8.64s-3.87,8.64-8.64,8.64-8.66-3.87-8.64-8.64c.02-4.79,3.9-8.66,8.64-8.64Z" style="fill: #f7e6dd; opacity: .15;"/>
                <path d="M62.17,33.81c4.77,.02,8.64,3.87,8.64,8.64s-3.87,8.64-8.64,8.64-8.66-3.87-8.64-8.64c.02-4.79,3.9-8.66,8.64-8.64Z" style="fill: #f7e7de; opacity: .15;"/>
                <path d="M62.17,33.81c4.77,.02,8.64,3.87,8.64,8.64s-3.87,8.64-8.64,8.64-8.66-3.87-8.64-8.64c.02-4.79,3.9-8.66,8.64-8.64Z" style="fill: #f7e7df; opacity: .14;"/>
                <path d="M62.18,33.82c4.77,.02,8.64,3.87,8.64,8.64s-3.87,8.64-8.64,8.64-8.66-3.87-8.64-8.64c.02-4.79,3.9-8.66,8.64-8.64Z" style="fill: #f7e8e0; opacity: .14;"/>
                <path d="M62.18,33.82c4.77,.02,8.64,3.87,8.64,8.64s-3.87,8.64-8.64,8.64-8.66-3.87-8.64-8.64c.02-4.78,3.9-8.66,8.64-8.64Z" style="fill: #f8e9e2; opacity: .13;"/>
                <path d="M62.18,33.82c4.77,.02,8.64,3.87,8.64,8.64s-3.87,8.64-8.64,8.64-8.66-3.87-8.64-8.64c.02-4.78,3.89-8.66,8.64-8.64Z" style="fill: #f8eae3; opacity: .13;"/>
                <path d="M62.19,33.83c4.77,.02,8.64,3.87,8.64,8.64s-3.87,8.64-8.64,8.64-8.65-3.87-8.64-8.64c.02-4.78,3.89-8.66,8.64-8.64Z" style="fill: #f8ebe4; opacity: .12;"/>
                <path d="M62.19,33.83c4.77,.02,8.64,3.87,8.64,8.64s-3.87,8.64-8.64,8.64-8.65-3.87-8.64-8.64c.02-4.78,3.89-8.66,8.64-8.64Z" style="fill: #f9ebe5; opacity: .12;"/>
                <path d="M62.2,33.84c4.77,.02,8.64,3.87,8.64,8.64s-3.87,8.64-8.64,8.64-8.65-3.87-8.64-8.64c.02-4.78,3.89-8.65,8.64-8.64Z" style="fill: #f9ece6; opacity: .11;"/>
                <path d="M62.2,33.84c4.77,.02,8.64,3.87,8.64,8.64s-3.87,8.64-8.64,8.64-8.65-3.87-8.64-8.64c.02-4.78,3.89-8.65,8.64-8.64Z" style="fill: #f9ede7; opacity: .11;"/>
                <path d="M62.21,33.85c4.77,.02,8.64,3.87,8.64,8.64s-3.87,8.64-8.64,8.64-8.65-3.87-8.64-8.64c.02-4.78,3.89-8.65,8.64-8.64Z" style="fill: #f9eee8; opacity: .1;"/>
                <path d="M62.21,33.85c4.77,.02,8.64,3.87,8.64,8.64s-3.87,8.64-8.64,8.64-8.65-3.87-8.64-8.64c.01-4.78,3.89-8.65,8.64-8.64Z" style="fill: #faefe9; opacity: .1;"/>
                <path d="M62.21,33.85c4.77,.02,8.64,3.87,8.64,8.64s-3.87,8.64-8.64,8.64-8.65-3.87-8.64-8.64c.01-4.78,3.89-8.65,8.64-8.64Z" style="fill: #faefea; opacity: .09;"/>
                <path d="M62.22,33.86c4.77,.01,8.64,3.87,8.64,8.64s-3.87,8.64-8.64,8.64-8.65-3.87-8.64-8.64c.01-4.78,3.89-8.65,8.64-8.64Z" style="fill: #faf0eb; opacity: .09;"/>
                <path d="M62.22,33.86c4.77,.01,8.64,3.87,8.64,8.64s-3.87,8.64-8.64,8.64-8.65-3.87-8.64-8.64c.01-4.78,3.88-8.65,8.64-8.64Z" style="fill: #faf1ec; opacity: .08;"/>
                <path d="M62.23,33.87c4.77,.01,8.64,3.87,8.64,8.64s-3.87,8.64-8.64,8.64-8.65-3.87-8.64-8.64c.01-4.78,3.88-8.65,8.64-8.64Z" style="fill: #fbf2ee; opacity: .08;"/>
                <path d="M62.23,33.87c4.77,.01,8.64,3.87,8.64,8.64s-3.87,8.64-8.64,8.64-8.65-3.87-8.64-8.64c.01-4.78,3.88-8.65,8.64-8.64Z" style="fill: #fbf3ef; opacity: .07;"/>
                <path d="M62.23,33.88c4.77,.01,8.64,3.87,8.64,8.64s-3.87,8.64-8.64,8.64-8.65-3.87-8.64-8.64c.01-4.78,3.88-8.65,8.64-8.64Z" style="fill: #fbf4f0; opacity: .07;"/>
                <path d="M62.24,33.88c4.77,.01,8.64,3.87,8.64,8.64s-3.87,8.64-8.64,8.64-8.65-3.87-8.64-8.64c0-4.78,3.88-8.65,8.64-8.64Z" style="fill: #fcf4f1; opacity: .06;"/>
                <path d="M62.24,33.88c4.77,0,8.64,3.87,8.64,8.64s-3.87,8.64-8.64,8.64-8.65-3.87-8.64-8.64c0-4.78,3.88-8.65,8.64-8.64Z" style="fill: #fcf5f2; opacity: .06;"/>
                <path d="M62.25,33.89c4.77,0,8.64,3.87,8.64,8.64s-3.87,8.64-8.64,8.64-8.64-3.87-8.64-8.64c0-4.78,3.88-8.65,8.64-8.64Z" style="fill: #fcf6f3; opacity: .05;"/>
                <path d="M62.25,33.89c4.77,0,8.64,3.87,8.64,8.64s-3.87,8.64-8.64,8.64-8.64-3.87-8.64-8.64c0-4.78,3.88-8.64,8.64-8.64Z" style="fill: #fcf7f4; opacity: .05;"/>
                <path d="M62.25,33.9c4.77,0,8.64,3.87,8.64,8.64s-3.87,8.64-8.64,8.64-8.64-3.87-8.64-8.64c0-4.77,3.88-8.64,8.64-8.64Z" style="fill: #fdf8f5; opacity: .04;"/>
                <path d="M62.26,33.9c4.77,0,8.64,3.87,8.64,8.64s-3.87,8.64-8.64,8.64-8.64-3.87-8.64-8.64c0-4.77,3.88-8.64,8.64-8.64Z" style="fill: #fdf8f6; opacity: .04;"/>
                <path d="M62.26,33.91c4.77,0,8.64,3.87,8.64,8.64s-3.87,8.64-8.64,8.64-8.64-3.87-8.64-8.64c0-4.77,3.87-8.64,8.64-8.64Z" style="fill: #fdf9f7; opacity: .03;"/>
                <path d="M62.27,33.91c4.77,0,8.64,3.87,8.64,8.64s-3.87,8.64-8.64,8.64-8.64-3.87-8.64-8.64c0-4.77,3.87-8.64,8.64-8.64Z" style="fill: #fdfaf8; opacity: .03;"/>
                <path d="M62.27,33.91c4.77,0,8.64,3.87,8.64,8.64s-3.87,8.64-8.64,8.64-8.64-3.87-8.64-8.64c0-4.77,3.87-8.64,8.64-8.64Z" style="fill: #fefbfa; opacity: .02;"/>
                <path d="M62.27,33.92c4.77,0,8.64,3.87,8.64,8.64s-3.87,8.64-8.64,8.64-8.64-3.87-8.64-8.64c0-4.77,3.87-8.64,8.64-8.64Z" style="fill: #fefcfb; opacity: .02;"/>
                <path d="M62.28,33.92c4.77,0,8.64,3.87,8.64,8.64s-3.87,8.64-8.64,8.64-8.64-3.87-8.64-8.64c0-4.77,3.87-8.64,8.64-8.64Z" style="fill: #fefdfc; opacity: .01;"/>
                <path d="M62.28,33.93c4.77,0,8.64,3.87,8.64,8.64s-3.87,8.64-8.64,8.64-8.64-3.87-8.64-8.64c0-4.77,3.87-8.64,8.64-8.64Z" style="fill: #fefdfd; opacity: 0;"/>
                <path d="M62.29,33.93c4.77,0,8.64,3.87,8.64,8.64s-3.87,8.64-8.64,8.64-8.64-3.87-8.64-8.64c0-4.77,3.87-8.64,8.64-8.64Z" style="fill: #fffefe; opacity: 0;"/>
                <path d="M70.93,42.57c0,4.77-3.87,8.64-8.64,8.64s-8.64-3.87-8.64-8.64,3.87-8.64,8.64-8.64,8.64,3.87,8.64,8.64Z" style="fill: #fff; opacity: 0;"/>
              </g>
            </g>
          </g>
        </g>
      </g>
    </g>
  </g>
</svg>
